<svg id="a13c16bb-15f4-4383-a139-acf74df85270" data-name="Layer 1" xmlns="http://www.w3.org/2000/svg" viewBox="0 0 1114.225 706.291">
  <defs>
    <style>
      .bfe2eaa8-a5d9-4e47-bc24-cf5faaa77a76 {
        opacity: 0.97;
        font-size: 35px;
        letter-spacing: 0.2em;
      }

      .a018f431-ad0a-468a-8b8d-1877524fa95f, .bfe2eaa8-a5d9-4e47-bc24-cf5faaa77a76 {
        fill: #d7be69;
        font-family: BernardMT-Condensed, Bernard MT Condensed;
      }

      .b39400b1-5b0a-45c3-acb5-6dfce4a157d8 {
        font-size: 46px;
        letter-spacing: 0.19em;
      }

      .a5074bae-2851-472b-85c3-f060e0b7bd8a, .b39400b1-5b0a-45c3-acb5-6dfce4a157d8 {
        fill: #000;
      }

      .ec43e57d-5e99-4ad3-8bda-31dcdf36d4f1 {
        letter-spacing: 0.2em;
      }

      .bcb2b17f-8eef-4def-a3a3-00a031709818 {
        letter-spacing: 0.18em;
      }

      .fbef38e4-516b-4cfd-ace2-a769ef2017fa {
        letter-spacing: 0.2em;
      }

      .bb9da9e3-2b17-472a-a924-c02485253bab {
        fill: #fefefe;
      }

      .f5c8225d-504d-4699-808f-0a7a205f9176 {
        fill: #333;
      }

      .a79b4fbf-0f0b-43ef-b168-26b39af43640 {
        fill: #26373e;
      }

      .e93a5ac8-fcac-4b39-94b9-04da31a74152 {
        fill: #bebebe;
      }

      .e83a5d71-2af9-4729-813a-4bf5b583b665 {
        fill: gray;
      }

      .addbdec6-e469-466a-a5fc-12f645de0134 {
        fill: #f5f6f6;
      }

      .a646cad0-e818-4be5-a179-7e7e5a7201eb {
        fill: #2d2d2d;
      }

      .ff3dc75b-1777-4dde-a56a-b33f542c4429 {
        fill: #52717c;
      }

      .f3cb086c-9aa5-4daf-af6d-f0234cfca14c {
        fill: #466b76;
      }

      .ebae2f25-923a-4280-bade-bcba6a0c9a68 {
        fill: #486f79;
      }

      .a153964d-8f82-47d7-834a-2064b2b5d32a {
        fill: #1c2c32;
      }

      .b269ca8b-6a1f-485b-8e1c-f4d07d5e19c7 {
        fill: #1b2b32;
      }

      .bd0354c4-9cc7-4671-bc13-7e7320c45e04 {
        fill: #bfbfbf;
      }

      .ac492aa9-a536-4699-9d10-6bb27d5a9c8b {
        fill: #74a8ba;
      }

      .b2f035a3-96cc-40c4-9e0a-91d81c30b85c {
        fill: #2d2c2c;
      }

      .b052875c-574c-435b-8f5c-2c8a0a679ca9 {
        fill: #363032;
      }

      .a5c5f57a-9775-41f2-a8a0-544780514cca {
        fill: #303632;
      }

      .ec1d2e15-4c5a-481f-9b7c-4de027789772 {
        fill: #332e33;
      }

      .a05b56bf-342d-4cb6-a10f-47494bcebcf3 {
        fill: #342f30;
      }

      .aebd9c08-ff89-4bbd-b33d-d26ad76f146c {
        fill: #343a3c;
      }

      .bb184d85-925a-4f40-aa8d-abcc0fdf59c1 {
        fill: #6a92a1;
      }

      .fa61d699-d3a1-4c53-ad47-969e9f85df2b {
        fill: #7a7a7a;
      }

      .ac5ce078-1202-418b-99b8-a680d184b082 {
        fill: #fdfdfd;
      }

      .a6e613e1-d8b4-4018-944f-10f9e108dc6c {
        fill: #72a6bf;
      }

      .fd5e6755-7604-408d-acc0-437b93efcfd2 {
        fill: #73abbd;
      }

      .f1abd8c6-9756-43fc-a304-d6fec36e0abc {
        fill: #77a7b7;
      }

      .b585df83-84c5-4838-806c-f437a39b27e3 {
        fill: #f8fafa;
      }

      .e0cc95bc-7a91-44e3-84d1-d4b0c4c4b40d {
        fill: #f5f8f8;
      }

      .b8f3bbb1-f60e-4947-9343-b361f0dfdfe3 {
        fill: #f6f9f9;
      }

      .bd985ab8-f1bd-4032-83c9-68b1137d7fb9 {
        fill: #f4f7f8;
      }

      .bd0a2251-0729-4c05-9130-d9a27d7381d5 {
        fill: #f7f9f9;
      }

      .e70cf79b-f3a4-4e0e-b648-76d7c0e2c920 {
        fill: #f9fbfa;
      }

      .a3a30bd4-7873-4c38-a5f9-9ec8dec52974 {
        fill: #f8faf9;
      }

      .aced9842-4ace-4f03-b785-7488892e2dad {
        fill: #8f8f8f;
      }

      .a2e4668c-714c-4395-9321-d9d77e2c589d {
        fill: #747374;
      }

      .bb1d5d56-b305-4292-83f1-ede3478ff2b9 {
        fill: #acabab;
      }

      .a0089cdc-91a0-45d8-9876-f516b962c6c7 {
        fill: #46739c;
      }

      .a1bf05e9-b706-4537-8f1d-86db7ef5beca {
        fill: #4e4d4e;
      }

      .bb40a0ef-efd8-419f-aa8d-3357973c14dd {
        fill: #eb7a5c;
      }

      .b8a3ed64-bd7f-4c08-93cb-5ff6480f48d2 {
        fill: #f59690;
      }

      .a4d10f3f-82fa-4e38-a409-a968bb0531b5 {
        fill: #e1e6ec;
      }

      .b60e50ba-8032-4b92-9808-bbe72f255977 {
        fill: #eb7b5c;
      }

      .b87328d1-e85b-46fa-9f43-15e86e0a825c {
        fill: #d2dae3;
      }

      .f39c9306-2fe5-42e5-852d-da1414166b4b {
        fill: #cccbca;
      }

      .a4cbe15a-5bf9-4955-9603-3de71381dd71 {
        fill: #c4c9cd;
      }

      .e83d995e-8be5-44fc-986a-ff84bf2e71d7 {
        fill: #467197;
      }

      .f82b7860-2dcb-45b3-933f-3e28487b3ddb {
        fill: #f2c4c1;
      }

      .f0a61871-ba89-4b32-8583-0ef96f2f4360 {
        fill: #f0d1d1;
      }

      .f871829c-64fb-4f4f-9429-2e6c68cafaa5 {
        fill: #fbe3e1;
      }

      .bef02a50-615c-48f1-8474-2f7d57eb2d48 {
        fill: #f6ebec;
      }

      .a0694aee-a7aa-49b5-8661-83aa091b9f2f {
        fill: #f7d6d4;
      }

      .e7b321ca-36f4-4171-9746-d62a716b4ba1 {
        fill: #f7bcb7;
      }

      .a685afba-111d-46ab-85b6-940dba157692 {
        fill: #fbd8d5;
      }

      .fcba8314-b4b3-484b-9589-2e2291047347 {
        fill: #f2d9d2;
      }

      .a9447363-5f71-4c2a-b29c-46682844ed7a {
        fill: #f7e2df;
      }

      .b6a96928-65a2-46ca-a8f6-3970e4335fbf {
        fill: #f1f2f2;
      }

      .b05dbeef-738d-4780-804f-8eae4c683a03 {
        fill: #77797c;
      }

      .b431d9d2-6640-4555-8ef1-da3ec732edd1 {
        fill: #c6786a;
      }

      .b2d6fc58-1df7-49e8-a5e7-27a892fba492 {
        fill: #efd2d0;
      }

      .bd3c9d9f-3e30-42fd-9878-fc55f7e6304a {
        fill: #7691aa;
      }

      .ee9a6e0d-1d32-46d0-918c-ac4aaa7cf1ba {
        fill: #ebd8d2;
      }

      .f06e47f8-c6c4-4b29-921d-677149faf558 {
        fill: #fadbd6;
      }

      .f9b754b6-0e16-45e1-bdc5-482359fd1eb3 {
        fill: #f8beb9;
      }

      .b362bfc0-8fed-4133-8614-937984466817 {
        fill: #93aec5;
      }

      .e1ece100-1c38-4375-9088-a5328a840ce3 {
        fill: #507ca1;
      }

      .b3d4a781-8bb5-4fb2-befa-b6e2b19be23a {
        fill: #e4c9c0;
      }

      .a3f10168-dd0c-4f29-b4bf-fe7f0d117003 {
        fill: #91adc4;
      }

      .ea31f82e-2418-4150-9b4b-1809c475f36a {
        fill: #f8f3f1;
      }

      .ae7d0fef-54ab-4db1-a4e5-3053d59f931e {
        fill: #f0c7bd;
      }

      .e5270c4b-654d-4e96-8210-d6bb376dffa4 {
        fill: #ec8265;
      }

      .f0b821b5-2a44-47ef-91da-e00c74171b49 {
        fill: #d6d7d7;
      }

      .b737b76c-267a-433c-8b54-a1369a928761 {
        fill: #f0edeb;
      }

      .fda68299-f6ab-4343-866a-e21a38ddccca {
        fill: #f7d2cd;
      }

      .f79bad01-08c4-4c6c-a9d6-6e18202d3122 {
        fill: #f5a49e;
      }

      .bcd128e1-b583-4041-816e-06c007ab72ee {
        fill: #f3b9b7;
      }

      .a3cbf77e-1223-4837-8c78-2953989f4a03 {
        fill: #5982a6;
      }

      .a9114432-8ac1-43b8-b561-c407972e057f {
        fill: #e8e6e5;
      }

      .bbefde41-ee77-4aa5-b637-b5cae96126f1 {
        fill: #92bcdf;
      }

      .b254b927-b1af-41a5-8634-fe6f27095145 {
        fill: #45749c;
      }

      .f97d0157-79ef-437f-badc-e0b9897a23bf {
        fill: #537da3;
      }

      .a717776a-f32a-4ff1-9f02-78b7592d7977 {
        fill: #396e97;
      }

      .b1865a49-cc10-4300-9c49-695839859292 {
        fill: #cbd5df;
      }

      .b9930110-41f0-45ef-abfb-1a744b3abd6e {
        fill: #ced7e0;
      }

      .e50d6abc-3be4-40de-b088-5df1c1346a6e {
        fill: #d1dae2;
      }

      .a374a18b-fc93-45d3-827e-2b02fe806a25 {
        fill: #6689ab;
      }

      .b1b57560-e93e-443a-913b-d6097a7d53bc {
        fill: #7290b0;
      }

      .f7974f11-5c65-400e-94db-1d41cc021028 {
        fill: #9db2c6;
      }

      .ba39c048-3e8d-4ad2-b505-58a9946f1ac8 {
        fill: #5f83a7;
      }

      .b10b8818-8056-4b1c-96a6-d3bba2f857f5 {
        fill: #698cac;
      }

      .a62aabac-ab97-461a-b9da-e1aa4c325f91 {
        fill: #cbcbcb;
      }

      .bfac46f0-534e-4140-9f31-a0b46cddd790 {
        fill: #ee8570;
      }

      .ada4bfd1-7fad-4649-a517-f6e970ab1c88 {
        fill: #f3d2c5;
      }

      .e8835061-2d2a-47c9-a641-015e49d5875d {
        fill: #ef8b7a;
      }

      .b1bc58e1-d891-4180-bdf0-12934966d47b {
        fill: #f8cbc2;
      }

      .af62a328-fe9f-4486-9b06-e80ecb9631bc {
        fill: #a98493;
      }

      .ba5af3bb-be49-4d11-967b-be633b9bfaf7 {
        fill: #f29b8a;
      }

      .b8a1daf6-5a47-4350-bcd4-2f5e0b09354a {
        fill: #d3a197;
      }

      .b9a0f736-ff89-424c-8b3c-8c0b4e292937 {
        fill: #fed37e;
      }

      .a448ed2a-5612-40e0-8927-56b8efd6d7fc {
        fill: #fdd68a;
      }

      .f76b7d92-75ce-48fb-89cb-ea2c90e59c9b {
        fill: #689ece;
      }

      .b7e4ecd1-0c85-4383-b9e2-c0a8e04606e2 {
        fill: #649ccd;
      }

      .b54335b2-8098-4fc0-ba47-01d2ab76f2ac {
        fill: #96bee0;
      }

      .af0d4be2-52b2-4647-a676-80e44d1d23e4 {
        fill: #aecce6;
      }

      .b4467d57-ebe9-4bb9-ba22-1b039711689a {
        fill: #a7c7e4;
      }

      .b7b75094-79b5-4d65-b830-a7e9741b7282 {
        fill: #aac5dc;
      }

      .b4c80737-c848-43a3-afd8-c14c406e8796 {
        fill: #d5d6d5;
      }

      .e7a0795c-1ec0-493b-ab6f-cb2d178f4d89 {
        fill: #5895c9;
      }

      .b02da1f4-9104-4190-b00b-fa1af3cf44a6 {
        fill: #ea7759;
      }

      .b4596b88-24c9-4695-b9a8-ccc752489d6b {
        fill: #d6e2f0;
      }

      .b1df5e01-a1f5-433c-bb5e-286efde8c357 {
        fill: #dfe9f3;
      }

      .f0055463-e19f-483a-aed7-048f1d9df1c4 {
        fill: #cadbec;
      }

      .ac113303-3428-43e3-a4b1-14a8fb19ae2b {
        fill: #f2f6fa;
      }

      .b7fe5e9f-f38d-442e-af5e-2d5391f8e4e1 {
        fill: #f7f9fb;
      }

      .ae6fdcdb-606f-40c4-80b5-be9bedbd67b4 {
        fill: #d2e0ef;
      }

      .b5f61690-f537-48a1-a8f1-bcae3db19a91 {
        fill: #a8c6e2;
      }

      .f8920b69-44f9-4fd2-ab87-1aa76c8597fd {
        fill: #87b0d7;
      }

      .a018f431-ad0a-468a-8b8d-1877524fa95f {
        font-size: 29px;
        letter-spacing: 0.16em;
      }

      .a1ab493a-2d56-483a-9897-05794c66e335 {
        letter-spacing: 0.2em;
      }

      .a5074bae-2851-472b-85c3-f060e0b7bd8a {
        font-size: 18px;
        letter-spacing: 0.2em;
      }
    </style>
  </defs>
  <title>chasingWithTheDesire</title>
  <text class="bfe2eaa8-a5d9-4e47-bc24-cf5faaa77a76" transform="translate(479.832 31.29)">chasing<tspan class="b39400b1-5b0a-45c3-acb5-6dfce4a157d8"><tspan x="-124.162" y="74">W</tspan><tspan class="ec43e57d-5e99-4ad3-8bda-31dcdf36d4f1" x="-82.82" y="74">ith the desi</tspan><tspan class="bcb2b17f-8eef-4def-a3a3-00a031709818" x="223.079" y="74">r</tspan><tspan class="fbef38e4-516b-4cfd-ace2-a769ef2017fa" x="247.642" y="74">e</tspan></tspan></text>
  <path d="M892.422,211.912c1.684,0,3.372-.039,5.052.006,22.51.607,45.026,1.16,67.522,1.888a45.76,45.76,0,0,1,17.1,3.436c-10.387-.579-19.59-1.4-28.834-1.548-24.307-.4-48.665-1.032-72.943-.621-41.378.7-82.733,1.935-124.053,3.312-34.7,1.157-69.336,2.841-104,4.283q-49.132,2.043-98.266,4.078c-32.105,1.374-64.172,3-96.3,4.212-42.923,1.613-85.895,2.976-128.8-.194-6.185-.457-12.272-1.3-18.365-2.054a29.817,29.817,0,0,1-17.907-8.221l4.364,1.153c-6.117-3.016-8.118-6.475-5.156-11.1,1.446,2.012,2.529,3.517,3.612,5.023-1.942-3.846-1.452-7.436,3.49-10.525,4.462-2.788,8.848-5.777,14.392-7.886,5.228-1.989,11.922-2.946,18.284-4.429-.172.395-.145.6-.3.642-9.484,2.911-14.691,7.87-21.24,12.129-6.7,4.355-5.209,7.608,4.991,9.475a322.305,322.305,0,0,0,35.377,4.673c32.528,2.275,65.3,1.8,97.966.86q53.556-1.543,107.034-3.81c46.231-1.927,92.41-4.186,138.622-6.244,32.576-1.45,65.148-2.944,97.758-4.161,38.242-1.426,76.5-2.826,114.8-3.748,23.473-.566,47.1-.818,70.523-.081,18.348.578,36.552,2.726,54.686,4.538,5.32.531,10.179,2.3,15.249,3.5l-.427.565-2.825-.3c8.29,3.244,16.5,6.412,11.673,12.834-1.887-6.357-11.291-8.666-21.363-9.713-14.465-1.5-29.348-3.243-43.867-2.881-11.709.292-23.125-.6-34.693-.389-12.063.222-24.153.012-36.225.144-8.984.1-17.958.442-26.937.676Z" transform="translate(-131.129 -68.806)"/>
  <g>
    <path class="bb9da9e3-2b17-472a-a924-c02485253bab" d="M164.315,542.867c-.682-.563-.564-1.327-.5-2.078-.649-5.813-.175-11.646-.274-17.469-.085-5,.121-10.017-.074-15.015-.1-2.594.8-3.469,3.182-3.1a9.3,9.3,0,0,0,1.4.01q186.192,0,372.384.006c5.017,0,4.4-.576,4.418,4.626q.039,13.587-.008,27.175c0,1.167.306,2.389-.342,3.5-.88,5.821-4.569,8.813-9.837,10.214-1.252.912-2.7.616-4.069.62-9.555.025-19.11.044-28.665.008-61.052-.233-122.1.755-183.152.291-47.414-.361-94.825,0-142.234-.309-1.573-.034-2.86-1.063-4.37-1.325l.074.028a14.513,14.513,0,0,0-3.1-1.425,3.576,3.576,0,0,1-2.535-2.119C165.855,545.284,165.639,543.708,164.315,542.867Z" transform="translate(-131.129 -68.806)"/>
    <path class="f5c8225d-504d-4699-808f-0a7a205f9176" d="M175.911,299.28c1.979.061,3.959.174,5.938.174q174.717.012,349.435.006c8.543,0,13.457,4.813,13.7,13.6.081,2.971-.275,5.953-.276,8.929q-.027,87.459-.059,174.918c0,2.324.8,4.72-.286,7.007a17.231,17.231,0,0,0-3.487-.127q-186.695-.008-373.39,0a15.4,15.4,0,0,0-3.484.142c-1.064-1.209-.735-2.7-.736-4.1q-.024-92.52,0-185.04c0-9.3,3.027-13.208,11.724-15.485A.87.87,0,0,1,175.911,299.28Z" transform="translate(-131.129 -68.806)"/>
    <path class="a79b4fbf-0f0b-43ef-b168-26b39af43640" d="M425.571,605c19.119-.222,38.216.563,57.318,1.233,14.444.507,28.874,1.174,43.276,2.392,4.872.413,9.728,1.076,14.573,1.76,1.169.166,3.09.06,3.149,1.6.064,1.659-1.854,1.465-3.024,1.685a202.992,202.992,0,0,1-26.063,2.682c-21.409,1.223-42.838,1.926-64.277,2.478-47.206,1.217-94.415,1.429-141.627,1.025-23.075-.2-46.156-.6-69.218-1.415-22.814-.8-45.658-1.36-68.365-4.127-1.5-.183-3-.434-4.481-.763-.969-.216-2.444-.194-2.381-1.567.06-1.311,1.541-1.25,2.5-1.457,7.325-1.57,14.793-2.016,22.221-2.484q45.72-2.885,91.533-3.134c.7,0,1.4.055,2.1.085,1.056,2.3-.41,4.92.882,7.189,1.508.073,3.017.21,4.526.21q65.832.018,131.664,0c1.62,0,3.241-.2,4.861-.3C425.938,609.834,424.539,607.267,425.571,605Z" transform="translate(-131.129 -68.806)"/>
    <path class="e93a5ac8-fcac-4b39-94b9-04da31a74152" d="M295.357,591.323a8.782,8.782,0,0,1,1.354-.307c6.99-.482,6.936-.5,9.255-7.446,2.782-8.336,5.1-16.836,8.376-25,1.6-2.161,3.957-1.766,6.114-1.778,14.8-.084,29.6-.037,44.395-.038,7.924,0,15.848-.061,23.771.044,1.949.026,4.037-.18,5.409,1.775,3.5,8.719,5.958,17.8,8.963,26.69,1.871,5.534,1.789,5.553,7.644,5.719a22.165,22.165,0,0,1,2.4.323c-.5,1.331-1.625,1.576-2.817,1.715a33.623,33.623,0,0,1-3.834.166q-52.185.029-104.371-.046C299.732,593.135,297.028,594,295.357,591.323Z" transform="translate(-131.129 -68.806)"/>
    <path class="bb9da9e3-2b17-472a-a924-c02485253bab" d="M295.357,591.323c4.183.647,8.366-.019,12.549-.016q46.469.025,92.939,0c4.066,0,8.132.671,12.2,0,7.551,1.2,11.407,5.958,11.162,13.78-.209,6.651-.209,6.645-6.709,6.645q-63.831,0-127.662,0c-5.512,0-5.35-.007-5.67-5.58-.253-4.4.417-8.322,3.681-11.432A11.571,11.571,0,0,1,295.357,591.323Z" transform="translate(-131.129 -68.806)"/>
    <path class="e83a5d71-2af9-4729-813a-4bf5b583b665" d="M394.031,558.574l-79.689,0q.675-3.249,1.349-6.5c-1.329-.679-2.751-.333-4.124-.334q-66.911-.032-133.822-.04c-1.354,0-2.792.453-4.071-.432a3.978,3.978,0,0,0,.041-.523c.623-.7,1.328-.487,2.041-.194,1.281.041,2.561.118,3.842.119q103.9.049,207.795.08,72.939,0,145.877-.089c.464,0,.929.046,1.394.071.012.18.027.361.044.541-1.282.876-2.721.426-4.077.427q-66.969.041-133.938.043c-1.366,0-2.8-.4-4.1.378Z" transform="translate(-131.129 -68.806)"/>
    <path class="addbdec6-e469-466a-a5fc-12f645de0134" d="M544.5,540.516q-.023-14.485-.044-28.972c-.008-5.952-.006-5.958-5.716-5.958q-122.423,0-244.843,0-62.261,0-124.521,0c-5.43,0-5.424.01-5.443,5.518q-.051,14.843-.116,29.685a21.415,21.415,0,0,1-.465-3.144c-.036-9.895.049-19.792-.07-29.687-.03-2.517.771-3.3,3.2-3.246,6.643.14,13.29.047,19.936.047q176.807,0,353.613.007c5.655,0,5.064-.589,5.081,5.143q.037,13.234-.013,26.469C545.1,537.77,545.454,539.254,544.5,540.516Z" transform="translate(-131.129 -68.806)"/>
    <path class="a646cad0-e818-4be5-a179-7e7e5a7201eb" d="M164,503.928a10.1,10.1,0,0,1,4.48-.5q185.7-.009,371.4,0a10.311,10.311,0,0,1,4.482.484c-1.4.044-2.793.125-4.189.125q-185.991.009-371.981,0C166.794,504.038,165.4,503.966,164,503.928Z" transform="translate(-131.129 -68.806)"/>
    <path class="ff3dc75b-1777-4dde-a56a-b33f542c4429" d="M175.911,299.28l-.925.028c-.478-.669-.326-1.128.482-1.185,1.045-.074,2.1-.057,3.146-.057q175.411,0,350.824,0h3.751c0,.238,0,.476,0,.714h-4.422q-173.663,0-347.325.011C179.592,298.789,177.7,298.505,175.911,299.28Z" transform="translate(-131.129 -68.806)"/>
    <path class="f3cb086c-9aa5-4daf-af6d-f0234cfca14c" d="M392.588,552.119c1.078-1.421,2.595-.719,3.886-.72q65.976-.06,131.952-.036c2.094,0,4.188-.059,6.282-.091-1.681,1.19-3.6.79-5.435.791Q460.93,552.113,392.588,552.119Z" transform="translate(-131.129 -68.806)"/>
    <path class="f3cb086c-9aa5-4daf-af6d-f0234cfca14c" d="M173.674,551.266q42.266.049,84.531.1,26.549.023,53.1.016c1.484,0,3.05-.342,4.391.693q-68.644,0-137.287,0C176.794,552.069,175.118,552.342,173.674,551.266Z" transform="translate(-131.129 -68.806)"/>
    <path class="ebae2f25-923a-4280-bade-bcba6a0c9a68" d="M546.479,506.571v28.116l-.344,0V506.505Z" transform="translate(-131.129 -68.806)"/>
    <path class="a153964d-8f82-47d7-834a-2064b2b5d32a" d="M425.571,605c-.424,2.343.893,4.9-.831,7.082C425.332,609.759,424.107,607.214,425.571,605Z" transform="translate(-131.129 -68.806)"/>
    <path class="b269ca8b-6a1f-485b-8e1c-f4d07d5e19c7" d="M283.689,612.179c-1.515-2.24-.594-4.792-.882-7.189C284.322,607.229,282.98,609.836,283.689,612.179Z" transform="translate(-131.129 -68.806)"/>
    <path class="addbdec6-e469-466a-a5fc-12f645de0134" d="M164.315,542.867c2,.394,2.17,2,2.3,3.632A7.879,7.879,0,0,1,164.315,542.867Z" transform="translate(-131.129 -68.806)"/>
    <path class="addbdec6-e469-466a-a5fc-12f645de0134" d="M169.151,548.618a3.941,3.941,0,0,1,3.095,1.425A4.134,4.134,0,0,1,169.151,548.618Z" transform="translate(-131.129 -68.806)"/>
    <path class="addbdec6-e469-466a-a5fc-12f645de0134" d="M175.756,550.549l-2.041.194-1.542-.728A5.652,5.652,0,0,1,175.756,550.549Z" transform="translate(-131.129 -68.806)"/>
    <path class="bd0354c4-9cc7-4671-bc13-7e7320c45e04" d="M360.413,527.643a6.226,6.226,0,1,1-6.331-6.216A6.392,6.392,0,0,1,360.413,527.643Z" transform="translate(-131.129 -68.806)"/>
    <path class="ac492aa9-a536-4699-9d10-6bb27d5a9c8b" d="M179.285,315.29c1.28-.05,2.559-.142,3.839-.143q170.543-.009,341.085,0c1.63,0,3.259.091,4.889.14a1.678,1.678,0,0,1,.407,1.056c-.151.805-.328,1.6-.442,2.42a54.114,54.114,0,0,0-.3,7.506q-.006,74.235,0,148.469a44.857,44.857,0,0,0,.527,8.908c.2,1.084.454,2.159.619,3.253a2.228,2.228,0,0,1-.769,1.751,3.463,3.463,0,0,1-1.268.408c-1.284.083-2.566.052-3.848.052q-169.733,0-339.464,0c-1.4,0-2.8.048-4.192-.071a3.52,3.52,0,0,1-1.258-.484c-1.067-1.126-.876-2.508-.749-3.878.117-.444.248-.883.388-1.319a25.161,25.161,0,0,0,.861-7.783q.012-76.334,0-152.667a31.389,31.389,0,0,0-.213-4.273c-.115-.784-.335-1.551-.5-2.326A1.493,1.493,0,0,1,179.285,315.29Z" transform="translate(-131.129 -68.806)"/>
    <path class="b2f035a3-96cc-40c4-9e0a-91d81c30b85c" d="M529.1,489.242c-1.419.741-2.954.58-4.461.58q-170.459.007-340.917,0c-1.506,0-3.044.166-4.45-.62l.578-.394c.7-.069,1.4-.054,2.1-.054q172.958.006,345.914.007A1.468,1.468,0,0,1,529.1,489.242Z" transform="translate(-131.129 -68.806)"/>
    <path class="b052875c-574c-435b-8f5c-2c8a0a679ca9" d="M181.368,313.089c1.375-.883,2.918-.709,4.424-.71q168.4-.007,336.8,0c1.506,0,3.049-.173,4.424.711-1.219,1-2.67.7-4.043.7q-168.78.021-337.561,0C184.038,313.793,182.587,314.088,181.368,313.089Z" transform="translate(-131.129 -68.806)"/>
    <path class="a5c5f57a-9775-41f2-a8a0-544780514cca" d="M181.368,313.089H527.015q0,.356,0,.713c-1.207.672-2.517.343-3.774.343q-169.048.026-338.1,0c-1.258,0-2.567.328-3.775-.341Z" transform="translate(-131.129 -68.806)"/>
    <path class="ec1d2e15-4c5a-481f-9b7c-4de027789772" d="M181.368,313.805l345.645,0c-1.375.883-2.919.706-4.424.706q-168.4.007-336.8,0C184.287,314.509,182.744,314.684,181.368,313.805Z" transform="translate(-131.129 -68.806)"/>
    <path class="a05b56bf-342d-4cb6-a10f-47494bcebcf3" d="M529.846,315.134c.646-.793,1.067-.291,1.157.347a25.589,25.589,0,0,1,.2,3.558q.014,82.235,0,164.47c0,1.653.231,3.356-.681,4.883-1.216-1.516-1.048-3.346-1.048-5.108q-.025-81.946-.02-163.893A33.241,33.241,0,0,1,529.846,315.134Z" transform="translate(-131.129 -68.806)"/>
    <path class="aebd9c08-ff89-4bbd-b33d-d26ad76f146c" d="M179.275,489.2l-1.413-.816c-.851-2.075-.316-4.239-.317-6.351q-.048-80.568-.008-161.137c0-1.4-.336-2.859.325-4.218l.734-1.43a8.441,8.441,0,0,1,1.028,4.8q-.009,80.342.04,160.684c0,2.6-1.512,5.072-.443,7.7l0,.008c.293.078.406.189.34.335-.074.162-.152.243-.237.243Z" transform="translate(-131.129 -68.806)"/>
    <path class="aebd9c08-ff89-4bbd-b33d-d26ad76f146c" d="M529.846,315.134c.956,1.779.656,3.722.657,5.609q.025,83.825.022,167.65-.711.423-1.422.848l-.042-.217-.441-.386.549-.193-.008,0c.406-2.735-.441-5.391-.438-8.122q.084-79.589.043-159.178c0-2.02-.2-4.079,1.027-5.876Z" transform="translate(-131.129 -68.806)"/>
    <path class="bb184d85-925a-4f40-aa8d-abcc0fdf59c1" d="M179.221,488.437c-1-.968-.638-2.234-.638-3.376q-.013-84.906.013-169.811a1.2,1.2,0,0,1,.689.04c.013.224.025.448.038.673.912,1.272.633,2.749.633,4.154q.023,80.272,0,160.546c0,1.4.279,2.883-.645,4.15Z" transform="translate(-131.129 -68.806)"/>
    <path class="bb184d85-925a-4f40-aa8d-abcc0fdf59c1" d="M529.793,315.265q.01,84.9.006,169.8c0,1.143.358,2.408-.638,3.376q-.039-.754-.079-1.507a20.5,20.5,0,0,1-.67-6.342q0-79.879.02-159.759c0-1.633-.39-3.355.63-4.865.01-.227.022-.455.036-.681Z" transform="translate(-131.129 -68.806)"/>
    <path class="a05b56bf-342d-4cb6-a10f-47494bcebcf3" d="M177.862,316.68V488.386a4.756,4.756,0,0,1-.88-3.014q.108-82.44.19-164.882A6.9,6.9,0,0,1,177.862,316.68Z" transform="translate(-131.129 -68.806)"/>
    <ellipse class="fa61d699-d3a1-4c53-ad47-969e9f85df2b" cx="223.061" cy="482.927" rx="49.299" ry="0.242"/>
    <path class="bb9da9e3-2b17-472a-a924-c02485253bab" d="M319.976,436.286c-2.58,9.135-1.182,7.712-9.846,8.091-7.716.337-7.713.063-5.218-7.45,7.526-22.664,15.094-45.314,22.492-68.022.97-2.979,2.415-4.362,5.447-4.209,2.787.14,5.583.083,8.374.156,1.892.05,2.407,1.01,1.774,2.823-2.305,6.611-4.565,13.239-6.843,19.86-4.5,12.165-8.261,24.593-12.389,36.887-.51,2.217-2.209,3.963-2.291,6.4-.03.9-1.032,1.073-1.869.677a.564.564,0,0,1-.339-.419c.011.2.149.309.3.428,1,.591,1.752,1.281,1.141,2.594l.023-.02C319.6,434.5,320.394,435.611,319.976,436.286Z" transform="translate(-131.129 -68.806)"/>
    <path class="bb9da9e3-2b17-472a-a924-c02485253bab" d="M430.5,427.056c-3.756,1.574-7.529,3.109-11.263,4.737-2.036.888-2.583.085-2.837-1.941-1.239-9.883-.772-10.763,8.311-14.081,1.853-.676,3.741-1.253,5.613-1.877.642-.431,1.729.444,2.111-.751l.02.039c4.807-1.841,9.829-3.052,14.535-5.206.946-.433,1.822-.594.933-1.856q-14.686-5-29.372-10.006c-.893-.3-1.826-.643-1.981-1.759a42.315,42.315,0,0,1,.036-12.057c.214-1.446,1.23-1.114,2.136-.723,1.813.781,3.616,1.583,5.423,2.377a6.87,6.87,0,0,0,2.918,1.3l.068-.03c.373,1.007,1.446.188,1.974.791l.007-.01c1.572,2.978,4.59,2.235,7.071,2.875,7.67,3.026,15.33,6.078,23.018,9.055a3.608,3.608,0,0,1,2.368,3.164,44.13,44.13,0,0,1,.253,10.279c-.193,2.7-1.3,4.475-4.123,4.745-2,.334-3.7,1.466-5.569,2.135l-1.845.835A191.08,191.08,0,0,0,430.5,427.056Z" transform="translate(-131.129 -68.806)"/>
    <path class="bb9da9e3-2b17-472a-a924-c02485253bab" d="M279.362,413.963c2.209.713,4.433,1.384,6.625,2.148,6.206,2.165,6.2,2.181,6.195,8.87-.008,7.952-.011,7.962-7.313,5.051-1.182-.472-2.312-1.081-3.465-1.626-8.693-4.085-17.64-7.512-26.646-10.788l.067.033c-2.261-1.2-4.408-2.682-7.056-2.885l-.019,0c-1.3-3.785-1.017-7.715-.929-11.606.055-2.382.5-4.609,3.486-5.107a3.275,3.275,0,0,0,2.353-1.389l-.03.055a14.834,14.834,0,0,0,3.594-1.435l-.069.033c1.172-.522,2.487-.68,3.56-1.456,9.931-4.076,19.871-8.13,29.785-12.251,1.8-.747,2.331.009,2.42,1.659.019.356.05.712.083,1.068.913,10.041.921,10.062-8.316,13.418-3.942,1.433-7.923,2.757-11.886,4.131-4.007-.073-7.281,2.184-10.836,3.553a1.312,1.312,0,0,0-.974,1.3c.018.67.481.933,1.091,1.163C267.1,410.171,273.2,412.176,279.362,413.963Z" transform="translate(-131.129 -68.806)"/>
    <path class="ac5ce078-1202-418b-99b8-a680d184b082" d="M391.362,444.466c-7.949-.107-8.647-.639-8.3-8.935.395-9.575-.176-8.169,8.142-8.235,9.39-.074,8.854-.906,8.787,8.977C399.927,445.135,400.8,443.819,391.362,444.466Z" transform="translate(-131.129 -68.806)"/>
    <path class="ac5ce078-1202-418b-99b8-a680d184b082" d="M369.075,435.913c-.468,9.458.54,8.369-8.294,8.406-8.773.037-8.637,1.215-8.59-8.783.044-9.227-.131-7.763,8.09-8.384.115-.009.232,0,.349,0C368.912,427.214,369.092,427.4,369.075,435.913Z" transform="translate(-131.129 -68.806)"/>
    <path class="bb184d85-925a-4f40-aa8d-abcc0fdf59c1" d="M529.169,488.445a3.786,3.786,0,0,1-.108.579q-52.985-.043-105.969-.084-119.964-.018-239.926,0c-1.282,0-2.563.054-3.844.083a3.645,3.645,0,0,1-.1-.578c1.513-.044,3.026-.126,4.54-.126q170.261-.009,340.521,0C525.909,488.319,527.539,488.4,529.169,488.445Z" transform="translate(-131.129 -68.806)"/>
    <ellipse class="a6e613e1-d8b4-4018-944f-10f9e108dc6c" cx="223.062" cy="417.086" rx="242.26" ry="0.249"/>
    <path class="fd5e6755-7604-408d-acc0-437b93efcfd2" d="M529.062,315.968q.01,85.483.02,170.966-.334-1.061-.67-2.121c-.672-1.357-.329-2.812-.33-4.215q-.03-79.856-.035-159.711c0-1.4.343-2.858-.33-4.215Z" transform="translate(-131.129 -68.806)"/>
    <path class="fd5e6755-7604-408d-acc0-437b93efcfd2" d="M179.312,484.813q.006-84.425.011-168.85c.541.05,1.171-.074,1.342.71-.671,1.357-.329,2.812-.33,4.215q-.03,79.857-.034,159.715c0,1.4.343,2.858-.332,4.214C179.75,484.817,179.531,484.815,179.312,484.813Z" transform="translate(-131.129 -68.806)"/>
    <path class="f1abd8c6-9756-43fc-a304-d6fec36e0abc" d="M527.717,316.672c.979,1.641.687,3.468.687,5.233q.018,81.455.008,162.908c-1.027-1.76-.684-3.71-.684-5.59Q527.7,397.947,527.717,316.672Z" transform="translate(-131.129 -68.806)"/>
    <path class="f1abd8c6-9756-43fc-a304-d6fec36e0abc" d="M179.969,484.817q0-81.276.012-162.554c0-1.88-.343-3.831.684-5.59q0,81.456-.007,162.911C180.657,481.35,180.946,483.177,179.969,484.817Z" transform="translate(-131.129 -68.806)"/>
    <path class="b585df83-84c5-4838-806c-f437a39b27e3" d="M279.362,413.963c-2,1.474-3.461-.335-5.064-.941-4.338-1.638-8.937-2.494-13.112-4.61-1-.507-2.478-.61-2.387-2.163.082-1.383,1.363-1.483,2.386-1.572,1.565-.137,2.287-1.552,3.482-2.205,2.265-1.238,4.7-1.087,7.134-.588l-11.848,4.84Z" transform="translate(-131.129 -68.806)"/>
    <path class="e0cc95bc-7a91-44e3-84d1-d4b0c4c4b40d" d="M323.38,424.709c3.876-12.528,7.463-25.161,12.776-37.174-2.9,10.847-6.932,21.312-10.308,32-.708,2.241-1.622,4.414-2.441,6.618A1.021,1.021,0,0,1,323.38,424.709Z" transform="translate(-131.129 -68.806)"/>
    <path class="b8f3bbb1-f60e-4947-9343-b361f0dfdfe3" d="M254.758,417.618A89.092,89.092,0,0,1,281.4,428.406C272.366,425.212,263.461,421.675,254.758,417.618Z" transform="translate(-131.129 -68.806)"/>
    <path class="bd985ab8-f1bd-4032-83c9-68b1137d7fb9" d="M430.5,427.056a62.909,62.909,0,0,1,19.805-7.97A181,181,0,0,1,430.5,427.056Z" transform="translate(-131.129 -68.806)"/>
    <path class="b8f3bbb1-f60e-4947-9343-b361f0dfdfe3" d="M252.66,396.662c-.306.491-.509,1.269-.934,1.429-6.881,2.578-4.2,8.392-4.261,13.22-.014,1.125.833,2.234.285,3.453-2.263-4.826-1.732-9.862-.689-14.787C247.64,397.24,250.544,397.36,252.66,396.662Z" transform="translate(-131.129 -68.806)"/>
    <path class="bd0a2251-0729-4c05-9130-d9a27d7381d5" d="M447.925,406.12c1.091.455,1.2,1.244.233,1.769-1.927,1.046-3.42,2.638-6.055,2.7-3.266.084-6.233,2.4-9.646,2.589,3.977-2.2,8.394-3.238,12.538-4.993C446.091,407.726,447.63,407.81,447.925,406.12Z" transform="translate(-131.129 -68.806)"/>
    <path class="e70cf79b-f3a4-4e0e-b648-76d7c0e2c920" d="M436.205,388.873c-1.65.378-3.32,1.211-4.992.383-1.243-.616-3-1.1-2.079-3.258A25.9,25.9,0,0,1,436.205,388.873Z" transform="translate(-131.129 -68.806)"/>
    <path class="a3a30bd4-7873-4c38-a5f9-9ec8dec52974" d="M323.38,424.709l.027,1.442a31.012,31.012,0,0,1-2.7,7.952l-1.5-2.95h0C321.882,429.876,321.509,426.533,323.38,424.709Z" transform="translate(-131.129 -68.806)"/>
    <path class="b8f3bbb1-f60e-4947-9343-b361f0dfdfe3" d="M247.769,414.766c3.2-1.2,4.99,1.191,7.056,2.885A22.4,22.4,0,0,1,247.769,414.766Z" transform="translate(-131.129 -68.806)"/>
    <path class="bd985ab8-f1bd-4032-83c9-68b1137d7fb9" d="M452.152,418.251c1.676-1.2,3.225-2.754,5.569-2.135A13.3,13.3,0,0,1,452.152,418.251Z" transform="translate(-131.129 -68.806)"/>
    <path class="e70cf79b-f3a4-4e0e-b648-76d7c0e2c920" d="M429.127,386.008l-3.189,1.285c-.269-1.305.827-1.445,1.214-2.076A2.646,2.646,0,0,1,429.127,386.008Z" transform="translate(-131.129 -68.806)"/>
    <path class="bd0a2251-0729-4c05-9130-d9a27d7381d5" d="M432.437,413.143c.036,2.423-1.272.9-2.111.751A2.935,2.935,0,0,1,432.437,413.143Z" transform="translate(-131.129 -68.806)"/>
    <path class="b8f3bbb1-f60e-4947-9343-b361f0dfdfe3" d="M259.715,393.859a4.262,4.262,0,0,1-3.56,1.456A5.8,5.8,0,0,1,259.715,393.859Z" transform="translate(-131.129 -68.806)"/>
    <path class="b8f3bbb1-f60e-4947-9343-b361f0dfdfe3" d="M256.224,395.282a4.157,4.157,0,0,1-3.594,1.436A6.159,6.159,0,0,1,256.224,395.282Z" transform="translate(-131.129 -68.806)"/>
    <path class="e70cf79b-f3a4-4e0e-b648-76d7c0e2c920" d="M427.085,385.247a2.95,2.95,0,0,1-2.918-1.3A4.989,4.989,0,0,1,427.085,385.247Z" transform="translate(-131.129 -68.806)"/>
    <path class="a3a30bd4-7873-4c38-a5f9-9ec8dec52974" d="M319.976,436.286c-.4-.968-.562-1.85.755-2.2A3.27,3.27,0,0,1,319.976,436.286Z" transform="translate(-131.129 -68.806)"/>
    <path class="a3a30bd4-7873-4c38-a5f9-9ec8dec52974" d="M320.719,424.314c-.025-.513.192-.767.556-.576a1.244,1.244,0,0,1,.519.761c.078.333-.083.72-.519.491C321.018,424.854,320.869,424.506,320.719,424.314Z" transform="translate(-131.129 -68.806)"/>
    <path class="a3a30bd4-7873-4c38-a5f9-9ec8dec52974" d="M319.208,431.153c-.368-.675-.908-1.317-.382-2.212.667.672.246,1.494.38,2.213Z" transform="translate(-131.129 -68.806)"/>
  </g>
  <g>
    <path class="aced9842-4ace-4f03-b785-7488892e2dad" d="M1214.146,611.149q-.03.815-.059,1.629H858.335a1.463,1.463,0,0,1,.39-2.194c1.945-1.049,4.075-.846,6.156-.847q171.249-.024,342.5.013C1209.7,609.75,1212.186,609.268,1214.146,611.149Z" transform="translate(-131.129 -68.806)"/>
    <path class="a2e4668c-714c-4395-9321-d9d77e2c589d" d="M858.4,611.2l-.062,1.577H772.753a1.458,1.458,0,0,1,.375-2.183c1.939-1.056,4.066-.845,6.143-.847q36.2-.032,72.4.015C853.975,609.767,856.472,609.253,858.4,611.2Z" transform="translate(-131.129 -68.806)"/>
    <path class="bb1d5d56-b305-4292-83f1-ede3478ff2b9" d="M772.619,611.248l.134,1.53h-2.517l-.789-1.731A2.079,2.079,0,0,1,772.619,611.248Z" transform="translate(-131.129 -68.806)"/>
    <path class="a0089cdc-91a0-45d8-9876-f516b962c6c7" d="M1188.056,304.023c1.979,4.349,1.514,8.978,1.515,13.544q.033,98.744.044,197.488c0,8.944-.257,17.9.029,26.83.419,13.107-9.3,21.452-21.342,21.333-41.085-.408-82.176-.173-123.265-.134-1.869,0-3.947-.7-5.57.95a3.643,3.643,0,0,1-2.752.714c-29.849-.223-59.7-.174-89.546-.026a6,6,0,0,1-1.651-.242,5.866,5.866,0,0,0-4.485-1.676c-42.745.162-85.49-.18-128.235.194-2.5.021-5.026-.121-7.28-1.466-2.487-1.983-5.5-3.432-6.745-6.672-.561-1.937-1.9-3.519-2.509-5.447a6.933,6.933,0,0,1-.282-1.5c-.184-23.9-.08-47.791-.075-71.683.01-56.445-.086-112.89.044-169.328a13.492,13.492,0,0,1,5.035-10.22c1.01-.556,2.182-.913,2.732-2.086.434-1.916,1.985-1.543,3.317-1.617.146.231.292.461.44.691-2.1,9.77-1.65,19.684-1.651,29.571q-.009,99.779,0,199.556c0,1.677.02,3.354.023,5.031,0,2.8,1.416,4.066,4.165,4.037,1.676-.018,3.354.014,5.031.014q114.87,0,229.741.01,63.08.027,126.161-.04c1.873,0,3.951.666,5.548-.993a5.77,5.77,0,0,0,.329-2.234q.016-109.776-.008-219.539a17.232,17.232,0,0,0-.394-5.4c-1.627-3.019.865-4.449,2.413-6.247,1.268-.817,2.125-2.287,3.815-2.457.147,2.621,3.111,3.376,3.754,5.668C1187.479,301.518,1187.119,303.09,1188.056,304.023Z" transform="translate(-131.129 -68.806)"/>
    <path class="a0089cdc-91a0-45d8-9876-f516b962c6c7" d="M1219.105,597.685l1.593,2.518a3.748,3.748,0,0,1-.016,5.017l-1.444.774c-2.367-3.228-5.855-2.75-9.181-2.75q-119.733-.009-239.467,0-97.924,0-195.85-.01c-2.508,0-5.037.223-7.516-.409a4.008,4.008,0,0,1-1.436-.846c-.85-1.561-.551-3.228-.44-4.878,2.033-4.394,5.767-5.709,10.259-5.707q18.66.008,37.321,0,55.351,0,110.7-.007a39.168,39.168,0,0,0,5.862-.164,5.1,5.1,0,0,1,1.635,0,35.722,35.722,0,0,0,6.271.229q55.723.012,111.448.012a21.972,21.972,0,0,1,5.836.344,19.991,19.991,0,0,0,6.222.574q73.737-.009,147.474,0c2.64,0,5.351-.276,7.488,1.811C1216.981,595.321,1218.415,596.158,1219.105,597.685Z" transform="translate(-131.129 -68.806)"/>
    <path class="a1bf05e9-b706-4537-8f1d-86db7ef5beca" d="M766.1,601.931c1.258-.027,2.515-.077,3.773-.077q222.126-.006,444.252-.046c3.1,0,5.655.038,5.115,4.188-.619,2.78-2.581,4.238-5.091,5.153q-66.2-.016-132.406-.033-109.368-.007-218.737,0c-1.536,0-3.071.054-4.606.083l-85.777.047-3.173-.2c-1.172-1.078-2.953-1.555-3.353-3.395C765.284,605.744,764.6,603.837,766.1,601.931Z" transform="translate(-131.129 -68.806)"/>
    <path class="a1bf05e9-b706-4537-8f1d-86db7ef5beca" d="M945.678,564.046c1.523-.9,3.206-.782,4.877-.782q41.591.008,83.179-.031a26.706,26.706,0,0,1,5.734.8c4.693,8.351,9.779,16.491,13.666,25.28,1.558,2.6.245,2.937-2.1,2.924-11.718-.065-23.437-.03-35.156-.03q-40.388,0-80.776-.02c-1.5,0-3.07.386-4.52-.385H930.5a1.132,1.132,0,0,1-.02-1.682,74.781,74.781,0,0,0,6.832-12.441C940.038,573.1,942,568.045,945.678,564.046Z" transform="translate(-131.129 -68.806)"/>
    <path class="bb40a0ef-efd8-419f-aa8d-3357973c14dd" d="M1179.8,297.488c-.326,2.054-3.206,2.379-3.168,4.679a3.153,3.153,0,0,1-.778,1.6c-16.477,16.278-31.885,33.6-48.467,49.778a27.3,27.3,0,0,1-3.032,2.886,3.6,3.6,0,0,1-1.784.4c-4.668-2.252-6.921-6.717-9.758-10.652a3.754,3.754,0,0,1,.682-4.622c8.164-8.8,15.831-18.089,25.095-25.823a14.09,14.09,0,0,0,5.971-6.43c3.4-4.673,8.073-8.093,12.018-12.23a16.941,16.941,0,0,0,1.966-2.7c16.409-19.225,35.393-36.026,51.877-55.18a26.009,26.009,0,0,1,3.272-3.239,3.758,3.758,0,0,1,1.678-.663,4.058,4.058,0,0,1,1.8.214,3.964,3.964,0,0,1,1.005.653c2.706,2.757,4.506,6.219,7.048,9.117.778.887,1.617,1.988.617,3.311q-8.71,9.21-17.412,18.428a14.143,14.143,0,0,0-1.152,1.618,22.7,22.7,0,0,1-3.156,3.707c-2.2,1.67-3.555,4.26-6.052,5.614-4.993,4.033-8.476,9.51-13.189,13.82a4.05,4.05,0,0,1-1.979,1.343C1182.108,294.742,1180.629,295.883,1179.8,297.488Z" transform="translate(-131.129 -68.806)"/>
    <path class="b8a3ed64-bd7f-4c08-93cb-5ff6480f48d2" d="M1157.037,297.305c-1.921,3.817-5.95,5.623-8.474,8.872-1.011,1.3-2.179,2.479-3.275,3.713-2.1,2.11-4.008,4.4-5.92,6.676-3.715,2.048-6.181,5.474-9.054,8.411-5.418,5.536-10.518,11.383-15.912,16.943a3.9,3.9,0,0,0-1.062,4.071c-1.443.9-2.219-.291-3.154-1-3.052-3.944-7.794-6.042-10.9-9.938a4.44,4.44,0,0,1-.048-2.414c2.734-4.427,7.07-7.383,10.373-11.291,6.548-6.211,12.168-13.315,18.732-19.51a9.2,9.2,0,0,1,.789-.838,54.047,54.047,0,0,1,4.677-4.092,3.33,3.33,0,0,0,1.446-2.6c.253-1.482,1.52-2.026,2.562-2.776a3.826,3.826,0,0,0,3.24-1.826c1.876-2.044,3.641-4.188,5.554-6.2,4.263-3.558,7.726-7.947,11.978-11.514,1.07-2.693,4.21-3.731,5.194-6.493,1.839-2.379,4-4.467,5.991-6.714a5.762,5.762,0,0,0,.706-.049,80.786,80.786,0,0,0,9.149-9.321l3.369-3.347a25.983,25.983,0,0,1,3.334-3.349c2.024-2.45,3.83-5.119,6.706-6.717.955-.593.931-1.83,1.682-2.557a5.743,5.743,0,0,1,3.277-3.364c2.173-1.375,3.031-5.49,6.907-3.312l-.014,0c.7.776,1.841.893,2.509,1.71a11.829,11.829,0,0,1,5.106,4.851,24.193,24.193,0,0,1,1.427,2.246q.071.258.136.518c-3.739,5.718-8.709,10.39-13.347,15.305-11.762,12.466-23.722,24.746-35.742,36.963-2.1,2.131-3,5.449-6.271,6.423C1157.851,295.423,1157.879,296.654,1157.037,297.305Z" transform="translate(-131.129 -68.806)"/>
    <path class="a0089cdc-91a0-45d8-9876-f516b962c6c7" d="M1137.82,291.532c.084,1.454-1.683,1.867-1.8,3.207-.808.684-.78,1.908-1.652,2.55-1.678,1.375-2.733,3.472-4.927,4.248-1.719,1.192-3.692,1.14-5.648,1.141q-36.649.01-73.3-.011c-1.653,0-3.379.215-4.841-.9.162-2.98,2.606-2.266,4.227-2.359,5.427-.315,10.879.087,16.72-.253a6.946,6.946,0,0,0-5.992-4.553,44.132,44.132,0,0,0-5.864-.157q-83.236-.043-166.472-.026c-25.431-.026-50.862.111-76.293-.116-1.679-.015-3.381.144-4.754-1.127l-.186-.2c1.567-2.717,4.3-1.588,6.414-1.615,13.828-.178,27.659-.115,41.489-.1q40.86.051,81.721.13,98.277.029,196.556.01C1134.75,291.411,1136.285,291.49,1137.82,291.532Z" transform="translate(-131.129 -68.806)"/>
    <path class="a4d10f3f-82fa-4e38-a409-a968bb0531b5" d="M930.475,590.122l.02,1.682c-1.834.951-3.819.667-5.757.666q-74.3-.036-148.6-.113c-4.349,0-8.373.362-10.177,5.207a.976.976,0,0,1-1.478.29c1.72-5.282,5.4-7.728,11.736-7.728q64.343,0,128.687.015Q917.69,590.143,930.475,590.122Z" transform="translate(-131.129 -68.806)"/>
    <path class="b60e50ba-8032-4b92-9808-bbe72f255977" d="M1236.881,236.409c.208,1.5-1.564,1.787-1.827,3-1.244,1.038-2.409.632-3.553-.185a80.991,80.991,0,0,1-7.936-10.751,4.253,4.253,0,0,1,.968-4.254c3.407-3.636,6.436-7.651,10.585-10.548a5.616,5.616,0,0,1,3.193-.312c1.755.124,2.508,1.492,3.372,2.722,2.147,3.117,4.361,6.138,3.468,10.359-.675,3.186-3.927,4.326-5.092,7.049a4.069,4.069,0,0,1-1.265,1.038A3.087,3.087,0,0,0,1236.881,236.409Z" transform="translate(-131.129 -68.806)"/>
    <path class="b8a3ed64-bd7f-4c08-93cb-5ff6480f48d2" d="M1235.06,214.221c-3.006,3.28-5.971,6.6-9.038,9.82-1.211,1.271-2.169,2.526-1.821,4.388-1.62.661-.992-1.167-1.69-1.526l-5.1-5.073a10.4,10.4,0,0,0-3.622-2.343c-1.444-.7-2.758-1.512-2.814-3.372a2.787,2.787,0,0,1,.545-1.049c.563-1.14,2.64-.681,2.6-2.46a25.812,25.812,0,0,1,5.014-5.075l3.286-1.8a7.4,7.4,0,0,1,6.8.061,3.705,3.705,0,0,0,.764.08c2.326,1.905,4.843,3.625,6.254,6.424A2.909,2.909,0,0,1,1235.06,214.221Z" transform="translate(-131.129 -68.806)"/>
    <path class="b87328d1-e85b-46fa-9f43-15e86e0a825c" d="M801.9,297.2a9.125,9.125,0,0,0-4.918,8.26c-.86,1.694-.738,3.525-.738,5.338q0,116.685,0,233.371a13.269,13.269,0,0,0,.785,5.755l-.028-.043a2.663,2.663,0,0,1,.088,3.329c-2.292-.235-1.7-2.305-2.094-3.588a15.609,15.609,0,0,1-.414-4.545q-.027-117.289-.028-234.578c0-6.477,2.181-11.846,7.528-15.732C802.756,295.627,802.878,296.452,801.9,297.2Z" transform="translate(-131.129 -68.806)"/>
    <path class="f39c9306-2fe5-42e5-852d-da1414166b4b" d="M1222.511,226.9q.845.764,1.69,1.526a70.733,70.733,0,0,1,7.559,10.076c.29.855,1.345,1.474.8,2.587l-6.714,7.5c-1.843-4.806-6.17-7.887-8.551-12.319.2-1.186,1.107-1.921,1.792-2.8C1219.7,231.007,1223.265,230.082,1222.511,226.9Z" transform="translate(-131.129 -68.806)"/>
    <path class="a4cbe15a-5bf9-4955-9603-3de71381dd71" d="M945.678,564.046c-3.012,4.409-4.477,9.768-8.371,13.635.6-3.824,3.054-6.782,4.794-10.06,2.01-3.787,1.887-4.212-2.176-4.212q-61.785,0-123.569.037c-2.622,0-5.23.369-7.864-.086-1.311-.227-2.487-.388-2.974-1.828,16.834,2.082,33.736.755,50.6.895,28.092.234,56.187.025,84.281.031C942.285,562.458,944.416,561.878,945.678,564.046Z" transform="translate(-131.129 -68.806)"/>
    <path class="e83d995e-8be5-44fc-986a-ff84bf2e71d7" d="M930.587,591.8q59.465,0,118.931-.021c1.645,0,4.258,1.038,3.615-2.47,1.347.316,1.418,1.423,1.549,2.493-1.239,1.358-2.875.814-4.342.815q-57.72.043-115.439,0C933.452,592.615,931.8,593.242,930.587,591.8Z" transform="translate(-131.129 -68.806)"/>
    <path class="f82b7860-2dcb-45b3-933f-3e28487b3ddb" d="M1158.592,271.993a71.723,71.723,0,0,1-11.635,11.871q-.431-.279-.288-.558c.095-.186.19-.279.287-.279C1150.346,278.834,1153.574,274.469,1158.592,271.993Z" transform="translate(-131.129 -68.806)"/>
    <path class="f0a61871-ba89-4b32-8583-0ef96f2f4360" d="M1179.632,249.416a22.374,22.374,0,0,1-9.149,9.321C1173.229,255.332,1175.726,251.683,1179.632,249.416Z" transform="translate(-131.129 -68.806)"/>
    <path class="f871829c-64fb-4f4f-9429-2e6c68cafaa5" d="M1236.029,212.473l-6.046-6.6c3.938.783,5.448,4.7,8.516,6.6l-.392.433A1.568,1.568,0,0,1,1236.029,212.473Z" transform="translate(-131.129 -68.806)"/>
    <path class="bef02a50-615c-48f1-8474-2f7d57eb2d48" d="M1169.777,258.786c-.845,3.266-3.365,5.037-5.992,6.713C1164.882,262.458,1166.61,259.98,1169.777,258.786Z" transform="translate(-131.129 -68.806)"/>
    <path class="a0694aee-a7aa-49b5-8661-83aa091b9f2f" d="M1146.956,283.027q0,.418,0,.837c-2.015,1.9-2.833,5-5.9,5.842C1141.808,286.4,1144.234,284.585,1146.956,283.027Z" transform="translate(-131.129 -68.806)"/>
    <path class="e7b321ca-36f4-4171-9746-d62a716b4ba1" d="M1204.907,226.77c-3.128-.618-4.438,2.554-6.906,3.313.224-1.977,1.841-3.129,3.06-4.275C1202.219,224.719,1204.154,224.338,1204.907,226.77Z" transform="translate(-131.129 -68.806)"/>
    <path class="a685afba-111d-46ab-85b6-940dba157692" d="M1229.218,205.794l-6.8-.061C1224.708,203.252,1226.975,203.168,1229.218,205.794Z" transform="translate(-131.129 -68.806)"/>
    <path class="fcba8314-b4b3-484b-9589-2e2291047347" d="M1198.073,277.954c1.775-2.181,3.193-4.709,5.865-6.015a.6.6,0,0,1,.084,1.041C1202.277,274.923,1201.1,277.538,1198.073,277.954Z" transform="translate(-131.129 -68.806)"/>
    <path class="a9447363-5f71-4c2a-b29c-46682844ed7a" d="M1219.133,207.531a9.844,9.844,0,0,1-5.014,5.075C1214.313,209.455,1216.674,208.444,1219.133,207.531Z" transform="translate(-131.129 -68.806)"/>
    <path class="b6a96928-65a2-46ca-a8f6-3970e4335fbf" d="M1220.682,605.22q.009-2.508.017-5.017Q1224.98,602.725,1220.682,605.22Z" transform="translate(-131.129 -68.806)"/>
    <path class="b05dbeef-738d-4780-804f-8eae4c683a03" d="M766.1,601.931l0,5.721c-2.153-1.464-1.916-3.616-1.663-5.772a1.043,1.043,0,0,1,1.521-.134Z" transform="translate(-131.129 -68.806)"/>
    <path class="b431d9d2-6640-4555-8ef1-da3ec732edd1" d="M1179.8,297.488c-.63-2.641,1.758-3.137,3.105-4.372q-.13.936-.259,1.872C1181.931,296.086,1181.441,297.441,1179.8,297.488Z" transform="translate(-131.129 -68.806)"/>
    <path class="b2d6fc58-1df7-49e8-a5e7-27a892fba492" d="M1186.335,242.72a4.1,4.1,0,0,1-3.333,3.349C1182.862,243.708,1184.444,243.06,1186.335,242.72Z" transform="translate(-131.129 -68.806)"/>
    <path class="bd3c9d9f-3e30-42fd-9878-fc55f7e6304a" d="M765.952,601.746l-1.521.134q.024-2.013.05-4.027l1.479-.289Q765.956,599.655,765.952,601.746Z" transform="translate(-131.129 -68.806)"/>
    <path class="ee9a6e0d-1d32-46d0-918c-ac4aaa7cf1ba" d="M1204.022,272.98c-.028-.346-.055-.693-.084-1.04a5.113,5.113,0,0,1,3.343-3.306C1207.328,270.932,1205.547,271.86,1204.022,272.98Z" transform="translate(-131.129 -68.806)"/>
    <path class="f06e47f8-c6c4-4b29-921d-677149faf558" d="M1211.443,215.907c-.015,1.859,1.752,2.243,2.721,3.287a.6.6,0,0,1-.079.918c-1.689-.081-2.6-1.218-3.415-2.5C1210.216,216.723,1210.067,215.97,1211.443,215.907Z" transform="translate(-131.129 -68.806)"/>
    <path class="f871829c-64fb-4f4f-9429-2e6c68cafaa5" d="M1241.683,216.078l-3.224-1.873a1.01,1.01,0,0,1-.2-1.488l.238-.24C1240.376,212.956,1241.73,213.9,1241.683,216.078Z" transform="translate(-131.129 -68.806)"/>
    <path class="f9b754b6-0e16-45e1-bdc5-482359fd1eb3" d="M1214.085,220.112q.039-.459.079-.918c1.446.431,3.1.606,3.247,2.635A4.935,4.935,0,0,1,1214.085,220.112Z" transform="translate(-131.129 -68.806)"/>
    <path class="b362bfc0-8fed-4133-8614-937984466817" d="M1219.105,597.685a6.967,6.967,0,0,1-3.239-3.5C1217.828,594.536,1219.33,595.31,1219.105,597.685Z" transform="translate(-131.129 -68.806)"/>
    <path class="e1ece100-1c38-4375-9088-a5328a840ce3" d="M797.089,553.205q-.044-1.665-.088-3.329c1.767,1.243,1.833,3.091,1.772,4.984Z" transform="translate(-131.129 -68.806)"/>
    <path class="b3d4a781-8bb5-4fb2-befa-b6e2b19be23a" d="M1232.558,241.092q-.4-1.293-.8-2.586a5.009,5.009,0,0,0,3.3.9C1235.027,241.159,1233.759,241.077,1232.558,241.092Z" transform="translate(-131.129 -68.806)"/>
    <path class="a3f10168-dd0c-4f29-b4bf-fe7f0d117003" d="M1188.056,304.023a2.875,2.875,0,0,1-1.656-3.368C1188.492,301.02,1188.154,302.581,1188.056,304.023Z" transform="translate(-131.129 -68.806)"/>
    <path class="ea31f82e-2418-4150-9b4b-1809c475f36a" d="M1211.443,215.907q-.386.853-.772,1.707c-.842-.148-1.657-.424-1.438-1.485.264-1.276,1.4-.957,2.287-1.063C1211.494,215.346,1211.468,215.627,1211.443,215.907Z" transform="translate(-131.129 -68.806)"/>
    <path class="ae7d0fef-54ab-4db1-a4e5-3053d59f931e" d="M1238.493,233.563l1.566-.077c.042,1.237.172,2.531-1.658,2.552A1.7,1.7,0,0,1,1238.493,233.563Z" transform="translate(-131.129 -68.806)"/>
    <path class="e5270c4b-654d-4e96-8210-d6bb376dffa4" d="M1238.493,233.563q-.046,1.238-.092,2.475l-1.521.37C1236.749,235.081,1236.5,233.69,1238.493,233.563Z" transform="translate(-131.129 -68.806)"/>
    <path class="f0b821b5-2a44-47ef-91da-e00c74171b49" d="M1219.085,233.473c.167,1.42-.2,2.5-1.791,2.795l.073-.1a1.989,1.989,0,0,1,.093-2.616Z" transform="translate(-131.129 -68.806)"/>
    <path class="b737b76c-267a-433c-8b54-a1369a928761" d="M1217.46,233.549q-.045,1.306-.092,2.615-.8-.079-1.59-.162a1.729,1.729,0,0,1-.039-2.444Z" transform="translate(-131.129 -68.806)"/>
    <path class="fda68299-f6ab-4343-866a-e21a38ddccca" d="M1215.739,233.558l.039,2.445-1.707.089.079-.108a1.68,1.68,0,0,1-.071-2.443Z" transform="translate(-131.129 -68.806)"/>
    <path class="f79bad01-08c4-4c6c-a9d6-6e18202d3122" d="M1214.079,233.541q.036,1.222.071,2.443c-1.934-.026-1.736-1.372-1.642-2.654Q1213.294,233.433,1214.079,233.541Z" transform="translate(-131.129 -68.806)"/>
    <path class="bcd128e1-b583-4041-816e-06c007ab72ee" d="M1194.723,233.446c.067,1.265.176,2.557-1.681,2.557C1193.083,234.809,1193.023,233.549,1194.723,233.446Z" transform="translate(-131.129 -68.806)"/>
    <path class="a3cbf77e-1223-4837-8c78-2953989f4a03" d="M801.9,297.2l.18-2.433,1.637-.161C803.806,295.951,803.881,297.292,801.9,297.2Z" transform="translate(-131.129 -68.806)"/>
    <path class="e7b321ca-36f4-4171-9746-d62a716b4ba1" d="M1207.4,228.478a2.3,2.3,0,0,1-2.51-1.71C1206.126,226.756,1207.3,226.836,1207.4,228.478Z" transform="translate(-131.129 -68.806)"/>
    <path class="a9114432-8ac1-43b8-b561-c407972e057f" d="M1203.422,224.218c-.647-.258-.343-.6-.027-.846a10.991,10.991,0,0,1,1.222-.731,2.291,2.291,0,0,1,.076.777A1.079,1.079,0,0,1,1203.422,224.218Z" transform="translate(-131.129 -68.806)"/>
    <path class="bbefde41-ee77-4aa5-b637-b5cae96126f1" d="M1175.565,302.948l1.066-.78c1.789.667,1.4,2.233,1.4,3.565q-.027,111.927-.086,223.853c-1.425,1.508-3.306,1.3-5.1,1.3q-67.16.032-134.318,0c-1.522,0-3.087.127-4.475-.738a1.043,1.043,0,0,1-.335-1.438c3.649-2.125,7.65-1,11.492-1.141,6.055-.23,6.375-.4,6.426-6.451.049-5.87-.1-11.742.06-17.609.132-4.937,1.142-6.1,5.907-6.12q35.847-.194,71.7,0c4.674.027,6.112,1.607,6.349,6.449.362,7.4-.283,14.811.374,22.191.468,1.879,2.019,1.642,3.368,1.647q16.063.057,32.128,0c1.373,0,2.9.152,3.232-1.789a46.913,46.913,0,0,0,.214-6.711c.068-35.629-.125-71.259.093-106.888-.2-35.071-.036-70.141-.1-105.21A27.071,27.071,0,0,1,1175.565,302.948Z" transform="translate(-131.129 -68.806)"/>
    <path class="b254b927-b1af-41a5-8634-fe6f27095145" d="M807.221,293.18q52.784-.038,105.568-.072c47.759-.012,95.518.149,143.274-.183,6.44-.044,10.525,2.2,14.354,7.731-7.031,0-13.616-.043-20.2.031-1.6.018-3.38-.628-4.777.787a2.308,2.308,0,0,1-1.518.432c-26.83-.154-53.661-.035-80.493-.055a12.464,12.464,0,0,0-2.916.237,5.394,5.394,0,0,1-1.563.084,213.121,213.121,0,0,0-26.675-.016,5.53,5.53,0,0,1-1.589-.053,25.679,25.679,0,0,0-5.427-.255q-55.466-.014-110.931.019c-2.035,0-4.22-.572-6.033.951-1.081,1.5-.777,3.232-.777,4.883q-.027,108.442-.008,216.885c0,5.42.193,5.588,5.725,5.612q7.341.032,14.683,0c114.8-.264,229.6.454,344.4.375,1.913,0,3.942-.484,5.689.813.592.606.774,1.326-.213,1.51a20.638,20.638,0,0,1-3.752.165q-48.016.011-96.033.006H811.471c-6.559,0-6.834-.277-6.834-6.883q0-109.662-.153-219.324c-.01-3.583,2.84-6.97.391-10.774C804.092,294.871,807.35,294.959,807.221,293.18Z" transform="translate(-131.129 -68.806)"/>
    <path class="f97d0157-79ef-437f-badc-e0b9897a23bf" d="M1178,531.389q-183.292,0-366.585.089c-3.925,0-5.213-.877-5.206-5.021q.186-110.312.113-220.622c0-1.469-.547-3.113.833-4.347,1.169-.69,2.456-.385,3.687-.386q58.392-.025,116.784,0c1.233,0,2.519-.3,3.692.375h.859a185.962,185.962,0,0,1,26.83,0h.858c1.031-.628,2.175-.377,3.27-.378q39.091-.021,78.184,0c1.1,0,2.239-.25,3.269.378l.849,0,84,.062q-.143.468-.287.936a19.922,19.922,0,0,1-7.8,1.246q-142.578-.029-285.156-.055c-6.985,0-13.974-.127-20.962-.137-6.7-.009-6.891.19-6.891,6.754q-.006,85.337,0,170.674,0,20.757,0,41.515c.007,5.58.459,6.043,5.89,6.05q18.03.023,36.06,0c.825-.009,1.649-.007,2.473-.034q38.591-.289,77.181,0,1.213.041,2.429.012c6.422-.167,12.844-.142,19.268-.021q39.5-.281,78.994-.009a5.117,5.117,0,0,1,3.006,1.293c14.36-.031,28.72-.1,43.08-.085q47.686.048,95.372.151c1.948,0,3.9-.153,5.845-.236Q1177.974,530.487,1178,531.389Z" transform="translate(-131.129 -68.806)"/>
    <path class="e1ece100-1c38-4375-9088-a5328a840ce3" d="M797.029,549.919c-2.181-2.023-1.448-4.694-1.449-7.121q-.053-113.865-.027-227.73c0-1.957.016-3.914.015-5.871,0-1.428.088-2.817,1.416-3.741.037.976.107,1.953.107,2.93q.009,119.719,0,239.438C797.094,548.523,797.051,549.221,797.029,549.919Z" transform="translate(-131.129 -68.806)"/>
    <path class="a717776a-f32a-4ff1-9f02-78b7592d7977" d="M1179.572,302.609V528.593h-.414V302.449Z" transform="translate(-131.129 -68.806)"/>
    <path class="b1865a49-cc10-4300-9c49-695839859292" d="M1147.135,544.917c1.648-.278,3.513-.62,3.835,1.655.288,2.03-.762,3.337-3.043,3.205C1146.737,548.308,1145.3,546.878,1147.135,544.917Z" transform="translate(-131.129 -68.806)"/>
    <path class="b9930110-41f0-45ef-abfb-1a744b3abd6e" d="M1167.943,549.852c-3.185-.46-2.932-2.637-2.458-4.923,1.609-1.42,3.1-1.008,4.093.616C1170.766,547.492,1169.657,548.855,1167.943,549.852Z" transform="translate(-131.129 -68.806)"/>
    <path class="e50d6abc-3be4-40de-b088-5df1c1346a6e" d="M1155.56,548.052a1.2,1.2,0,0,1-.109-.685c.547-.831.749-1.884,1.61-2.514l-.086-.14c1.156-.726,2.27-.883,3.291.239l0-.045a2.379,2.379,0,0,1,.239,3.322l-.14-.072C1158.731,549.732,1157.125,549.794,1155.56,548.052Z" transform="translate(-131.129 -68.806)"/>
    <path class="a374a18b-fc93-45d3-827e-2b02fe806a25" d="M1167.943,549.852c.525-1.29,2.419-2.145,1.28-3.963-.936-1.493-2.409-.964-3.738-.96.054-1.8,1.256-2.027,2.542-1.575a3.663,3.663,0,0,1,2.484,3.807C1170.522,548.984,1169.979,550.078,1167.943,549.852Z" transform="translate(-131.129 -68.806)"/>
    <path class="b1b57560-e93e-443a-913b-d6097a7d53bc" d="M1147.135,544.917c-.579,1.757.194,3.295.791,4.861C1145.723,548.473,1143.623,547.152,1147.135,544.917Z" transform="translate(-131.129 -68.806)"/>
    <path class="f7974f11-5c65-400e-94db-1d41cc021028" d="M1155.56,548.052a5.941,5.941,0,0,0,4.809.105C1158.7,551.168,1157.111,550.454,1155.56,548.052Z" transform="translate(-131.129 -68.806)"/>
    <path class="ba39c048-3e8d-4ad2-b505-58a9946f1ac8" d="M1160.509,548.229q-.119-1.662-.238-3.322c.9,0,1.606.266,1.72,1.307A1.6,1.6,0,0,1,1160.509,548.229Z" transform="translate(-131.129 -68.806)"/>
    <path class="b10b8818-8056-4b1c-96a6-d3bba2f857f5" d="M1160.266,544.952l-3.291-.238a1.576,1.576,0,0,1,2.006-1.491C1160.026,543.341,1160.305,544.028,1160.266,544.952Z" transform="translate(-131.129 -68.806)"/>
    <path class="f7974f11-5c65-400e-94db-1d41cc021028" d="M1157.061,544.853a2.86,2.86,0,0,1-1.61,2.514C1155.239,546.05,1155.238,544.867,1157.061,544.853Z" transform="translate(-131.129 -68.806)"/>
    <path class="ac5ce078-1202-418b-99b8-a680d184b082" d="M1175.565,302.948c.978,1.012.868,2.291.867,3.542q-.045,52.878-.093,105.756c-1.435,2.6-3.926,2.881-6.506,2.943-3.493.083-6.957-.456-10.463-.413-2.6.033-3.5,1.133-3.516,3.5-.007,1.4-.032,2.795-.032,4.192q0,27.883-.014,55.766c-.013,6.761-.712,7.47-7.439,7.471q-155.559.027-311.116,0c-7.239,0-7.9-.665-7.9-7.9q-.036-37.107,0-74.215c.008-7.028.694-7.714,7.641-7.732,13.837-.037,27.674.013,41.51-.024,5.282-.014,6.979-1.583,6.13-6.836-.97-6-.179-11.907-.193-17.858-.006-2.759,3-5.32,2.054-6.884a17.012,17.012,0,0,1-2.086-6.943c-1.239-8.251.112-16.462.058-24.688-.016-2.282.473-4.408,3.149-5.28-2.806-2.619-5.74-2.714-8.7-2.717-13.977-.013-27.953.027-41.93-.019-6.9-.023-7.788-.767-7.567-7.763.138-4.355-1.362-8.941,1.322-13.056,2.631-.2,1.987,1.872,2.06,3.2.169,3.067.078,6.147.062,9.22-.015,2.824,1.3,4.071,4.078,4.036,1.676-.021,3.354.028,5.03.028q129.963,0,259.927.037c2.7,0,5.645-.773,7.981,1.46-2.535,4.29-6.718,7.081-9.855,10.823-1.018.806-1,1.616-.008,2.428,3.73,2.99,7.786,5.6,10.9,9.3,1.015,2.123-.442,3.407-1.674,4.7-2.309,2.417-4.739,4.718-7.017,7.164a13.349,13.349,0,0,0-2.022,2.714c-2.228,1.771-3.535,4.7-6.668,5.341-2.6-1.267-4.836-1.564-5.551,2.12a11.973,11.973,0,0,0-1.711,5.266c1.744.716,2.94-.324,4.23-.964,1.425-.574,2.78-1.3,4.168-1.956.726-.305,1.451-.609,2.157-.962,8.174-3.145,16.129-6.827,24.337-9.872a5.056,5.056,0,0,0,3.126-1.853c5.158-6.457,11.269-12.018,17.027-17.9C1152.769,326.422,1163.494,314.028,1175.565,302.948Z" transform="translate(-131.129 -68.806)"/>
    <path class="a62aabac-ab97-461a-b9da-e1aa4c325f91" d="M1101.618,355.969c1.37-2.947,4.169-4.612,6.226-6.943,1.252-1.419,2.916-2.574,3.077-4.709.9.418,1.131,1.814,2.42,1.674,3.237,3.265,5.539,7.374,9.223,10.238.514,1.031-.145,1.685-.756,2.355-8.375,3.36-16.536,7.25-25.122,10.082-.832-.432-1.2-1.314-1.866-1.906a13.476,13.476,0,0,1-1.128-1.164c-.4-.6-.9-1.191-.395-1.974,2.916-.781,3.741-4.272,6.617-5.106C1100.858,357.918,1100.827,356.668,1101.618,355.969Z" transform="translate(-131.129 -68.806)"/>
    <path class="bfac46f0-534e-4140-9f31-a0b46cddd790" d="M1139.368,316.566c1.248-2.868,2.961-5.325,5.92-6.676A15.219,15.219,0,0,1,1139.368,316.566Z" transform="translate(-131.129 -68.806)"/>
    <path class="ada4bfd1-7fad-4649-a517-f6e970ab1c88" d="M1121.808,358.584q.378-1.179.757-2.356l1.731-.215C1124.538,357.907,1123.684,358.74,1121.808,358.584Z" transform="translate(-131.129 -68.806)"/>
    <path class="e8835061-2d2a-47c9-a641-015e49d5875d" d="M1157.037,297.305c-.017-1.222-.038-2.447,1.674-2.521C1158.724,296,1158.74,297.225,1157.037,297.305Z" transform="translate(-131.129 -68.806)"/>
    <path class="bbefde41-ee77-4aa5-b637-b5cae96126f1" d="M1109.879,321.765q-23.473-.045-46.947-.086-112.971-.013-225.941,0c-5.429,0-5.44,0-5.428-5.46.008-3.491-.009-6.985.125-10.473.037-.959.11-1.642-1.024-1.8-4.12,1.18-8.332.492-12.5.549-8.815.119-8.823.038-8.824,8.668q0,51.114,0,102.229,0,51.533,0,103.066c0,1.4-.037,2.794.026,4.189.191,4.227.665,4.793,4.979,4.844,9.914.116,19.831.013,29.746.054,2.081.009,4.206-.213,6.181.744a1.1,1.1,0,0,1,.581,1.37c-13.552.059-27.106.089-40.658.2-2.412.021-3.257-1.045-3.1-3.3.078-1.112.011-2.235.011-3.353q0-107.545,0-215.092c0-5.926,0-5.932,5.915-5.929q156.18.1,312.361.2c1.257,0,2.513.057,3.768.089-5.16,5.411-10.3,10.835-15.488,16.217C1112.536,319.859,1111.657,321.378,1109.879,321.765Z" transform="translate(-131.129 -68.806)"/>
    <path class="b1bc58e1-d891-4180-bdf0-12934966d47b" d="M1100.016,335.016c-.682-.088-1.435-.135-1.544-1.017-.14-1.142.686-1.321,1.551-1.411Q1100.02,333.8,1100.016,335.016Z" transform="translate(-131.129 -68.806)"/>
    <path class="af62a328-fe9f-4486-9b06-e80ecb9631bc" d="M1134.364,297.289c.023-1.191-.1-2.48,1.653-2.55C1136.082,295.989,1136.147,297.238,1134.364,297.289Z" transform="translate(-131.129 -68.806)"/>
    <path class="ba5af3bb-be49-4d11-967b-be633b9bfaf7" d="M1238.261,212.717l.2,1.489-3.4.015a1.765,1.765,0,0,1,.968-1.747Z" transform="translate(-131.129 -68.806)"/>
    <path class="bb9da9e3-2b17-472a-a924-c02485253bab" d="M850.7,528.768c-12.986.051-25.973.058-38.958.188-2.743.028-3.858-1.067-3.643-3.73.067-.833.009-1.676.009-2.513q0-106.842,0-213.682c0-5.884.01-6.062,6.041-5.835,5.5.208,11.083-1.022,16.515.744-.006,4.893.277,9.81-.107,14.675-.325,4.122,1.382,4.811,5.024,4.769,14.961-.175,29.927.089,44.884-.2,3.408-.065,5.752,1.771,8.595,2.7,1.189.389.8,1.181.565,2.018-.3,1.053-.294,1.506-1.775.814-1.883-.88-2.285.91-2.164,2.4.695,8.557-1.861,17.144.26,25.7a5.55,5.55,0,0,1-.192,2.888c-.7,2.157.064,3.188,2.221,3.331,1.821.121,1.835,1.25,1.625,2.638-.246,1.621-.829,1.636-2.186.9-1.091-.6-1.33.522-1.37,1.391-.088,1.917-.735,3.771-.17,5.776.372,1.318,1.045,2.928-.832,4.055-.945.569-.485,1.675-.249,2.676,1.015,4.3,1.744,8.544.943,13.1-.569,3.231-1.993,3.637-4.729,3.62-15.241-.094-30.485.07-45.725-.129-3.657-.048-4.748.893-4.724,4.653q.249,39.222.025,78.447c-.014,3.209.754,4.321,4.183,4.318q157.736-.133,315.47,0c3.649,0,4.367-1.251,4.346-4.582-.132-20.835-.023-41.671-.111-62.506-.014-3.332.512-4.124,4.427-4.107,5.759.025,11.874,2.631,17.441-1.042q0,57.474-.01,114.949c-1.054.893-2.335.827-3.591.828q-17.409.024-34.818,0a5.263,5.263,0,0,1-3.6-.827c-.028-7.817-.159-15.635-.038-23.45.056-3.611-.931-5.229-4.982-5.2q-36.017.251-72.036.006c-3.527-.021-4.55,1.048-4.437,4.5.238,7.251-.032,14.519.122,21.775.066,3.1-1.067,4.236-4.15,4.143-5.02-.151-10.049,0-15.075.022-2.255-1.065-1.992-3.176-2.015-5.087-.077-6.428,0-12.857-.046-19.285-.012-1.619.413-3.468-1.685-4.289a9.49,9.49,0,0,0-1.669-.252c-23.625-.147-47.249-.039-70.873-.074-3.5-.006-4.633,1.733-4.63,4.937.008,6.29.043,12.581-.028,18.871-.021,1.928.247,3.952-1.151,5.614a186.954,186.954,0,0,1-19.335-.062c-1.612-1.394-1.271-3.311-1.287-5.086-.057-6.709-.128-13.421.022-20.127.075-3.32-1.244-4.352-4.461-4.34q-35.224.124-70.45.007c-3.058-.009-4.252,1.043-4.19,4.144.131,6.567.078,13.139.015,19.708C851.927,525.439,852.3,527.36,850.7,528.768Z" transform="translate(-131.129 -68.806)"/>
    <path class="ac5ce078-1202-418b-99b8-a680d184b082" d="M1134.323,527.2l42.006,0c-.188,2.162-1.854,1.712-3.163,1.715q-17.824.038-35.65,0C1136.191,528.91,1134.555,529.312,1134.323,527.2Z" transform="translate(-131.129 -68.806)"/>
    <path class="b8a1daf6-5a47-4350-bcd4-2f5e0b09354a" d="M1031.208,498.71c2.512.138,1.748,2.106,1.761,3.425.075,7.329.043,14.659.032,21.988a10.039,10.039,0,0,0,.726,4.866q-.051.382-.079.768l-2.34-.219c-1.168-3.084-.457-6.288-.547-9.433-.172-6.076.123-12.159-.175-18.236A4.149,4.149,0,0,1,1031.208,498.71Z" transform="translate(-131.129 -68.806)"/>
    <path class="a0089cdc-91a0-45d8-9876-f516b962c6c7" d="M931.321,301.477l-124.163.011c1.239-1.364,2.878-.807,4.342-.808q57.736-.045,115.474,0C928.439,300.681,930.076,300.126,931.321,301.477Z" transform="translate(-131.129 -68.806)"/>
    <path class="a0089cdc-91a0-45d8-9876-f516b962c6c7" d="M1044.591,301.477H959.868c1.1-1.263,2.589-.8,3.924-.8q38.438-.038,76.876,0C1042,300.676,1043.491,300.214,1044.591,301.477Z" transform="translate(-131.129 -68.806)"/>
    <path class="a0089cdc-91a0-45d8-9876-f516b962c6c7" d="M818.962,296.745c5.1-1.958,9.8-.837,14.956-1.077C831.2,298.484,823.4,298.968,818.962,296.745Z" transform="translate(-131.129 -68.806)"/>
    <path class="a0089cdc-91a0-45d8-9876-f516b962c6c7" d="M959.01,301.477H932.18c1.373-1.415,3.133-.77,4.717-.79,6.074-.076,12.15-.055,18.225-.012C956.447,300.685,957.921,300.222,959.01,301.477Z" transform="translate(-131.129 -68.806)"/>
    <path class="a0089cdc-91a0-45d8-9876-f516b962c6c7" d="M816.973,297.174c-2.207,1.3-4.078,1.484-5.866.037a1.025,1.025,0,0,1,.229-1.731C813.41,294.8,815.116,295.689,816.973,297.174Z" transform="translate(-131.129 -68.806)"/>
    <path class="a0089cdc-91a0-45d8-9876-f516b962c6c7" d="M876.2,296.455c-2.427,1.01-4.842,1.182-8.335-.006C871.352,295.287,873.771,295.47,876.2,296.455Z" transform="translate(-131.129 -68.806)"/>
    <path class="a0089cdc-91a0-45d8-9876-f516b962c6c7" d="M849.944,296.036c-2.262,1.7-4.61,1.508-7.012,0Z" transform="translate(-131.129 -68.806)"/>
    <path class="a0089cdc-91a0-45d8-9876-f516b962c6c7" d="M996.948,295.753h9C1002.922,296.522,999.914,297.864,996.948,295.753Z" transform="translate(-131.129 -68.806)"/>
    <path class="a0089cdc-91a0-45d8-9876-f516b962c6c7" d="M883.308,296.668c-1.394.751-2.484.989-3.863-.365C880.953,295.517,882.047,295.209,883.308,296.668Z" transform="translate(-131.129 -68.806)"/>
    <path class="a0089cdc-91a0-45d8-9876-f516b962c6c7" d="M929.443,296.31h-5.519l-.012-.42h5.572Z" transform="translate(-131.129 -68.806)"/>
    <path class="a0089cdc-91a0-45d8-9876-f516b962c6c7" d="M855.674,296.616c-.513.247-.831.525-1.151.528-.6,0-1-.39-.713-.983.108-.229.676-.378,1-.327C855.08,295.878,855.3,296.26,855.674,296.616Z" transform="translate(-131.129 -68.806)"/>
    <path class="a0089cdc-91a0-45d8-9876-f516b962c6c7" d="M864.968,296.492c-.479.322-.76.651-1.06.669-.238.015-.5-.35-.751-.547.27-.248.508-.623.821-.7C864.2,295.858,864.516,296.21,864.968,296.492Z" transform="translate(-131.129 -68.806)"/>
    <path class="bb40a0ef-efd8-419f-aa8d-3357973c14dd" d="M1031.208,498.71a131.421,131.421,0,0,1,.1,30.829l-79.679-.113c.024-8.928.074-17.855.051-26.782-.007-2.631.689-4.117,3.789-4.1C980.714,498.666,1005.961,498.67,1031.208,498.71Z" transform="translate(-131.129 -68.806)"/>
    <path class="b9a0f736-ff89-424c-8b3c-8c0b4e292937" d="M930.5,529.381c-13.491.084-26.982.232-40.474.234-12.516,0-25.033-.152-37.55-.237-.888-.886-.827-2.033-.831-3.143-.026-7.539.067-15.078-.048-22.615-.047-3.111,1.245-4.143,4.245-4.137q36.016.075,72.035,0c2.763-.006,4.013.743,3.929,3.8-.2,7.114-.066,14.237-.061,21.357C931.742,526.337,931.665,528,930.5,529.381Z" transform="translate(-131.129 -68.806)"/>
    <path class="a448ed2a-5612-40e0-8927-56b8efd6d7fc" d="M930.5,529.381c1.683-8.862.508-17.811.8-26.716.1-2.961-2.239-2.29-3.914-2.3-11.6-.039-23.2-.021-34.8-.021-11.739,0-23.481.132-35.217-.078-3.7-.066-5.168.74-5,4.8.334,8.092.1,16.208.1,24.313l-1.615.274q-.077-.441-.156-.883c.041-8.792.183-17.586.065-26.375-.04-2.906.867-3.856,3.807-3.845q37.056.144,74.114.007c2.742-.009,3.625.863,3.591,3.592-.112,9.07,0,18.143.017,27.215Z" transform="translate(-131.129 -68.806)"/>
    <path class="bbefde41-ee77-4aa5-b637-b5cae96126f1" d="M992.542,376.083h93.5c5.508,0,5.509,0,5.511,5.39,0,1.4-.031,2.8-.006,4.193.027,1.588-.8,2.276-2.307,2.3-.839.01-1.677.019-2.516.019q-94.131,0-188.261-.043c-1.629,0-4.269,1.051-4.641-1.408-.488-3.224-1.1-6.757.448-9.817.673-1.332,2.855-.61,4.35-.611Q945.582,376.062,992.542,376.083Z" transform="translate(-131.129 -68.806)"/>
    <path class="f76b7d92-75ce-48fb-89cb-ea2c90e59c9b" d="M930.5,482.381c-1.386.108-2.771.308-4.157.309-29.908.018-59.817-.061-89.724.1-4.164.023-5.152-1.376-5.127-5.309q.234-36.685-.01-73.373c-.033-4.263,1.238-5.423,5.467-5.419q155.552.165,311.1.087c5.491,0,5.5,0,5.5,5.617q.006,36.685-.047,73.373c0,1.44,1.086,3.5-1.386,4.232-.2-.188-.4-.377-.6-.564-1.141-2.077-.851-4.355-.853-6.57q-.039-33.333-.032-66.666c0-2.067.367-4.212-.8-6.129-1.566-1.711-3.638-1.2-5.54-1.2q-151.858-.03-303.716-.006c-1.654,0-3.38-.312-4.858.774-1.509,1.46-1.19,3.366-1.192,5.14q-.045,34.131-.008,68.262c.006,5.144.326,5.483,5.463,5.49q41.25.052,82.5.03c2.357,0,4.756-.291,7.048.6A1.642,1.642,0,0,1,930.5,482.381Z" transform="translate(-131.129 -68.806)"/>
    <path class="bb40a0ef-efd8-419f-aa8d-3357973c14dd" d="M992.576,333.439c23.336,0,46.672.072,70.007-.076,3.579-.023,4.955.779,4.79,4.617-.305,7.114-.306,14.259,0,21.372.17,3.962-.907,5.257-5.052,5.214-20.4-.211-40.8-.1-61.2-.1q-38.985,0-77.972,0c-5.4,0-5.4,0-5.4-5.586,0-6.847.189-13.7-.075-20.538-.146-3.784.93-5.03,4.9-5C945.9,333.534,969.241,333.439,992.576,333.439Z" transform="translate(-131.129 -68.806)"/>
    <path class="b7e4ecd1-0c85-4383-b9e2-c0a8e04606e2" d="M930.5,482.381c.008-.163.011-.326.01-.489,2.266-1.977,5.039-1.348,7.623-1.35q90.9-.057,181.795-.028c8.657,0,17.314-.03,25.971.021,2.062.012,4.233-.285,5.992,1.261l.228.2c-1.172,1.145-2.648.671-3.991.671q-106.946.035-213.889.007C932.989,482.678,931.743,482.484,930.5,482.381Z" transform="translate(-131.129 -68.806)"/>
    <path class="b54335b2-8098-4fc0-ba47-01d2ab76f2ac" d="M1094.114,365.257l.85.82c1.623,1.142.94,2.278-.009,3.413-1.321.709-2.433,1.932-4.142,1.689-1.362.708-2.85,1.276-4.1.068-1.222-1.18.032-2.492.235-3.74a5.243,5.243,0,0,1,.35-.738C1089.859,362.067,1089.858,362.067,1094.114,365.257Z" transform="translate(-131.129 -68.806)"/>
    <path class="af0d4be2-52b2-4647-a676-80e44d1d23e4" d="M1087.428,366.965c-.959,3.081-.268,4.836,3.385,4.213-.655,1.248-1.816,1.482-3.082,1.754-2.285.489-3.293-.1-2.477-2.5.526-1.547.81-3.23,2.094-4.427q.416.287.313.616C1087.59,366.851,1087.513,366.965,1087.428,366.965Z" transform="translate(-131.129 -68.806)"/>
    <path class="b4467d57-ebe9-4bb9-ba22-1b039711689a" d="M1087.428,366.965q-.039-.477-.08-.956c1.682-5.39,1.682-5.39,5.949-2.387q.408.817.817,1.635a4.318,4.318,0,0,1-1.553-.459c-1.882-1.55-3.427-2.352-3.937,1.095C1088.564,366.3,1087.843,366.61,1087.428,366.965Z" transform="translate(-131.129 -68.806)"/>
    <path class="bb9da9e3-2b17-472a-a924-c02485253bab" d="M889.01,378.173c-1.412-.679-1.426-1.568-.932-2.509a1.464,1.464,0,0,1,.922-.433A2.9,2.9,0,0,1,889.01,378.173Z" transform="translate(-131.129 -68.806)"/>
    <path class="b7b75094-79b5-4d65-b830-a7e9741b7282" d="M1094.955,369.49c.021-1.138.778-2.273.009-3.413,1.715.105,1.651,1.391,1.721,2.589A1.737,1.737,0,0,1,1094.955,369.49Z" transform="translate(-131.129 -68.806)"/>
    <path class="b4c80737-c848-43a3-afd8-c14c406e8796" d="M1101.618,355.969c.051,1.263.1,2.525-1.7,2.547C1099.933,357.3,1099.959,356.087,1101.618,355.969Z" transform="translate(-131.129 -68.806)"/>
    <path class="e7a0795c-1ec0-493b-ab6f-cb2d178f4d89" d="M1151.888,481.8q-60.166.038-120.334.073-50.523.022-101.048.023c-30.738-.008-61.476-.086-92.213.062-3.891.019-5.259-.788-5.224-4.978.2-24.31.088-48.622.123-72.933,0-1.466-.563-3.107.8-4.353,1.6.784,3.3.384,4.95.385q154.039.033,308.078.043c1.64,0,3.352-.452,4.929.424Q1151.918,441.17,1151.888,481.8Z" transform="translate(-131.129 -68.806)"/>
    <path class="b7e4ecd1-0c85-4383-b9e2-c0a8e04606e2" d="M1151.946,400.542q-156.375-.019-312.751-.071c-1.738,0-3.656.676-5.206-.781q157.032-.012,314.065,0C1149.379,399.688,1150.893,399.164,1151.946,400.542Z" transform="translate(-131.129 -68.806)"/>
    <path class="b02da1f4-9104-4190-b00b-fa1af3cf44a6" d="M992.863,335.06c22.773,0,45.546.07,68.318-.074,3.474-.022,4.617.944,4.469,4.456-.265,6.275-.251,12.577,0,18.854.134,3.419-.828,4.6-4.4,4.527-10.893-.222-21.793-.08-32.691-.08-34.787,0-69.575-.056-104.362.083-3.689.014-4.877-.94-4.689-4.676.309-6.131.29-12.3.006-18.433-.169-3.63.826-4.777,4.619-4.747C947.038,335.151,969.951,335.06,992.863,335.06Z" transform="translate(-131.129 -68.806)"/>
    <path class="b4596b88-24c9-4695-b9a8-ccc752489d6b" d="M1139.463,435.712a3.308,3.308,0,0,1,2.317,4.215c-.725,2.4-2.719,4.046-4.752,5.465-.209.147-1.031-.263-1.319-.617a2,2,0,0,1,.011-2.314c.792-1.516,2.432-2.711,1.842-4.763C1137.315,436.194,1137.957,435.54,1139.463,435.712Z" transform="translate(-131.129 -68.806)"/>
    <path class="b1df5e01-a1f5-433c-bb5e-286efde8c357" d="M845.666,442.6a1.678,1.678,0,0,1-1.735-1.684,2.987,2.987,0,0,1,.071-3.571,1.625,1.625,0,0,1,1.761-1.582c.969.146,2.02.212,1.672,1.674l-.008,3.34A3.01,3.01,0,0,1,845.666,442.6Z" transform="translate(-131.129 -68.806)"/>
    <path class="f0055463-e19f-483a-aed7-048f1d9df1c4" d="M1139.463,435.712a3.318,3.318,0,0,0-1.9,1.985,1.259,1.259,0,0,1-.391-.139c-1.13-.907-2.678-1.635-2.173-3.456.154-.555,1.032-1.373,1.458-1.306A3.458,3.458,0,0,1,1139.463,435.712Z" transform="translate(-131.129 -68.806)"/>
    <path class="ac113303-3428-43e3-a4b1-14a8fb19ae2b" d="M847.435,437.436l-1.672-1.674c-.034-1.666,1.427-2.133,2.457-2.836.391-.267.857.511.915,1.056C849.293,435.474,849.506,437.028,847.435,437.436Z" transform="translate(-131.129 -68.806)"/>
    <path class="b7fe5e9f-f38d-442e-af5e-2d5391f8e4e1" d="M845.666,442.6c.095-1.083.574-1.8,1.761-1.823l.021-.027c.473,1.221,2.655,2.551-.225,3.56C846.078,444.309,845.662,443.645,845.666,442.6Z" transform="translate(-131.129 -68.806)"/>
    <path class="ae6fdcdb-606f-40c4-80b5-be9bedbd67b4" d="M847.223,444.309c1.809-1.077-.155-2.393.225-3.56a1.772,1.772,0,0,1,1.764,1.647c.725,1.158.879,2.275-.244,3.3A1.408,1.408,0,0,1,847.223,444.309Z" transform="translate(-131.129 -68.806)"/>
    <path class="b5f61690-f537-48a1-a8f1-bcae3db19a91" d="M844,437.344q-.036,1.785-.071,3.57C841.68,439.679,841.7,438.489,844,437.344Z" transform="translate(-131.129 -68.806)"/>
    <path class="f8920b69-44f9-4fd2-ab87-1aa76c8597fd" d="M848.968,445.693q.122-1.649.244-3.3a1.6,1.6,0,0,1,1.5,2.024C850.6,445.476,849.9,445.741,848.968,445.693Z" transform="translate(-131.129 -68.806)"/>
    <path class="bb40a0ef-efd8-419f-aa8d-3357973c14dd" d="M921.263,348.785a74.8,74.8,0,0,0-.056-7.955c-.376-3.5,1.207-3.966,4.311-4.2,9.242-.7,18.468.676,27.658.012a192.293,192.293,0,0,1,21.476-.352c16.047.653,32.069.106,48.095.4,12.288.227,24.586.133,36.877-.015,3.148-.038,4.538.636,4.353,4.144-.293,5.572-.153,11.172-.044,16.757.047,2.372-.5,3.826-3.221,3.493-6.77-.829-13.553.261-20.311.321-9.09.08-18.2-.95-27.363.214-3.925.5-8.306-.932-12.42-.455-8.551.992-17.146.23-25.668.357-9.888.147-19.908-.286-29.836-.219-6.753.046-13.486.133-20.241-.145-2.643-.109-3.844-.73-3.653-3.56C921.417,354.662,921.264,351.718,921.263,348.785Z" transform="translate(-131.129 -68.806)"/>
  </g>
  <text class="a018f431-ad0a-468a-8b8d-1877524fa95f" transform="translate(91.453 589.788)">W<tspan class="a1ab493a-2d56-483a-9897-05794c66e335" x="25.185" y="0">eb Development</tspan><tspan class="a5074bae-2851-472b-85c3-f060e0b7bd8a"><tspan x="-32.732" y="36">I have the basic understanding of </tspan><tspan x="5.655" y="72">HTML, CSS, and JavaScript.</tspan></tspan></text>
  <text class="a018f431-ad0a-468a-8b8d-1877524fa95f" transform="translate(770.423 589.788)">W<tspan class="a1ab493a-2d56-483a-9897-05794c66e335" x="25.185" y="0">eb Design</tspan><tspan class="a5074bae-2851-472b-85c3-f060e0b7bd8a"><tspan x="-115.958" y="36">I&apos;m looking for inspiration to bloom my </tspan><tspan x="-113.649" y="72">concept to give my client a satisfaction</tspan></tspan></text>
</svg>
