<svg xmlns="http://www.w3.org/2000/svg" viewBox="0 0 1250.71 756.655">
  <defs>
    <style>
      .a {
        opacity: 0.97;
        font-size: 50px;
        font-family: BernardMT-Condensed, Bernard MT Condensed;
        letter-spacing: 0.266em;
      }

      .a, .e, .f {
        fill: #d7be69;
      }

      .b {
        letter-spacing: 0.266em;
      }

      .b, .c {
        fill: #000;
      }

      .c, .i {
        font-size: 35px;
        letter-spacing: 0.266em;
      }

      .d, .f {
        letter-spacing: 0.246em;
      }

      .g {
        letter-spacing: 0.266em;
      }

      .h {
        letter-spacing: 0.266em;
      }
    </style>
  </defs>
  <title>contactme</title>
  <text class="a" transform="translate(489.645 44.7)">Email <tspan class="b" x="199.283" y="0">me </tspan><tspan class="c"><tspan x="-133.298" y="74">I am cur</tspan><tspan class="d" x="53.821" y="74">r</tspan><tspan x="74.82" y="74">ently </tspan><tspan class="e" x="205.226" y="74">available </tspan><tspan x="-15.304" y="148">for f</tspan><tspan class="d" x="87.933" y="148">r</tspan><tspan x="108.932" y="148">eelance. </tspan><tspan x="-225.79" y="370">If you want to </tspan><tspan class="e" x="108.548" y="370">c</tspan><tspan class="f" x="131.342" y="370">r</tspan><tspan class="e" x="152.341" y="370">eate </tspan><tspan x="265.046" y="370">something, </tspan><tspan x="-87.71" y="444">help with a </tspan><tspan class="e" x="183.868" y="444">mission</tspan><tspan class="g" x="350.022" y="444">, </tspan><tspan x="-252.775" y="518">or just want to say </tspan><tspan class="e" x="188.063" y="518">hello</tspan><tspan x="302.409" y="518">, feel f</tspan><tspan class="d" x="462.542" y="518">r</tspan><tspan class="h" x="483.542" y="518">ee </tspan><tspan x="-93.982" y="592">to send me an </tspan><tspan class="e" x="233.575" y="592">email</tspan><tspan class="g" x="356.295" y="592">.</tspan></tspan><tspan class="i"><tspan x="-156.85" y="666">johnpaulmaja5@gmail.com</tspan></tspan></text>
  <path d="M680.89,231.277q53.2,0,106.4.015a11.71,11.71,0,0,1,3.381.412A3.422,3.422,0,0,1,793.2,235.4c-.008.27,0,.541,0,.812q0,61.017.008,122.033c0,2.093.02,4.144-2.4,5.033a7.161,7.161,0,0,1-1.939.463c-1.145.079-2.3.038-3.45.038q-105.282,0-210.564-.02a9.59,9.59,0,0,1-3.941-.565c-1.987-.929-2.547-2.7-2.543-4.983q.108-60.509.052-121.018c0-4.512,1.38-5.907,5.865-5.907Q627.589,231.278,680.89,231.277ZM584.4,239.2a30.228,30.228,0,0,0,2.284,2.348c3.438,2.757,6.922,5.458,10.369,8.2,3.359,2.677,6.682,5.4,10.044,8.075,4.4,3.5,8.841,6.948,13.231,10.461,3.452,2.764,6.828,5.623,10.284,8.382,4.392,3.506,8.847,6.935,13.244,10.436,3.306,2.631,6.548,5.342,9.845,7.983,4.545,3.641,9.128,7.235,13.673,10.875,4.182,3.349,8.314,6.759,12.536,10.056a2.035,2.035,0,0,0,1.915-.035c2.247-1.691,4.38-3.532,6.558-5.313,3.219-2.631,6.428-5.274,9.668-7.879,4.471-3.595,8.98-7.143,13.45-10.74,4.168-3.355,8.3-6.76,12.46-10.119,4.481-3.615,9-7.188,13.473-10.806,3.393-2.74,6.736-5.542,10.132-8.278,4.482-3.611,8.994-7.185,13.492-10.776,3.554-2.837,7.122-5.658,10.652-8.525,1.539-1.25,3-2.6,4.493-3.9l-.333-.447ZM776.167,355.775l.558-.665a17.673,17.673,0,0,1-1.687-1.09c-2.966-2.406-5.907-4.841-8.862-7.261-3-2.461-6.006-4.928-9.027-7.37-4.421-3.573-8.875-7.105-13.281-10.7-3.423-2.79-6.779-5.661-10.193-8.463-4.55-3.735-9.131-7.433-13.692-11.155-2.232-1.822-4.412-3.71-6.7-5.454a2.443,2.443,0,0,0-2.081-.4,18.915,18.915,0,0,0-3.018,2.321c-3.176,2.58-6.337,5.178-9.522,7.746-4.589,3.7-9.244,7.318-13.772,11.091-2.212,1.842-4.375,2.258-6.784.727a36.544,36.544,0,0,1-3.008-2.341q-6.767-5.364-13.531-10.733c-3.925-3.116-7.847-6.235-11.945-9.492l-64.353,52.767.259.468Zm-57.484-58.647,65.323,53.387v-106.1Zm-140.925-52v104.97c.5-.126.816-.114,1-.262q7.7-6.3,15.377-12.624c3.362-2.775,6.688-5.594,10.059-8.359,4.445-3.648,8.93-7.247,13.376-10.894,3.265-2.678,6.475-5.426,9.749-8.093,4.4-3.583,8.871-7.07,13.234-10.692,2.394-1.988,2.352-2.114-.025-4.01-5.387-4.3-10.818-8.537-16.211-12.827Q612.59,273,600.9,263.632c-6.424-5.174-12.787-10.425-19.195-15.618C580.537,247.067,579.278,246.231,577.758,245.123Z" transform="translate(-64.935 -12.636)"/>
</svg>
