<svg id="e024d4c4-e334-456f-911f-a5fb2d1e4494" data-name="Layer 1" xmlns="http://www.w3.org/2000/svg" viewBox="0 0 1173.514 667.351">
  <title>Highlights</title>
  <text transform="translate(374.669 65.262)" style="font-size: 73px;font-family: BernardMT-Condensed, Bernard MT Condensed;letter-spacing: 0.2000013377568493em">Highlights </text>
  <text transform="translate(15.242 242.857)" style="font-size: 39px;font-family: BernardMT-Condensed, Bernard MT Condensed;letter-spacing: 0.1999949919871795em">Hello, my name is John Paul, i’m <tspan x="760.42" y="0" style="fill: #d7be69;letter-spacing: 0.20000751201923078em">20 years old</tspan><tspan x="1038.435" y="0" xml:space="preserve"> web </tspan><tspan x="17.739" y="80">developer student living in the </tspan><tspan x="734.272" y="80" style="fill: #d7be69;letter-spacing: 0.20000751201923078em">Philippines</tspan><tspan x="988.659" y="80">. I am </tspan><tspan x="94.674" y="160">fairly competent with </tspan><tspan x="595.907" y="160" style="fill: #d7be69;letter-spacing: 0.20000751201923078em">f</tspan><tspan x="614.276" y="160" style="fill: #d7be69;letter-spacing: 0.1799754607371795em">r</tspan><tspan x="635.102" y="160" style="fill: #d7be69;letter-spacing: 0.20000751201923078em">ont-end </tspan><tspan x="822.843" y="160">as well as </tspan><tspan style="fill: #d7be69"><tspan x="460.411" y="240">back-end</tspan><tspan x="662.567" y="240" style="fill!: #000">.</tspan></tspan></text>
  <g>
    <path d="M642.817,212.8a31.265,31.265,0,0,1-9.172,6.35,148.231,148.231,0,0,1-18.53,6.081c-7.592,2.114-15.262,2.152-22.855,2.178-9.566.034-19.217-.015-28.664-2.64a114.472,114.472,0,0,1-14.51-4.975c-11.734-5.015-22.015-12.4-32.627-19.259-6.216-4.018-12.7-7.673-19.712-9.906a69.123,69.123,0,0,0-15.5-3c-2.356-.616-4.756-.277-7.129-.237-1.325.022-1.512.87-.61,1.858l6.09,4.472a1.749,1.749,0,0,1,1.056,1.653,11.155,11.155,0,0,0,.135,1.58,2.539,2.539,0,0,0,1.063,2.282,3.424,3.424,0,0,1-.026,5.2,2.581,2.581,0,0,0-1.038,2.3,11.377,11.377,0,0,1-.314,1.913c-.432.643-1,1.182-1.471,1.792v0c-.625.712-1.637.933-2.194,1.731-1.481,3.349-4.856,4.606-7.678,5.956a82.644,82.644,0,0,1-15.319,6.02,101.841,101.841,0,0,1-26.916,3.145,25.661,25.661,0,0,1-9.71-1.807v-3.9c6.85-3.535,14.362-2.845,21.679-3.4,5.571-.422,10.682-2.5,15.879-4.316a27.02,27.02,0,0,0,8.127-4.511,6.939,6.939,0,0,1,1.01-1,1.75,1.75,0,0,0,.809-1.827l.343-.61c.867-.446.392-1.649,1.2-2.129l0,0a2.745,2.745,0,0,1,1.248-.792c1.243-1.18,1.261-2.348-.027-3.5a2.563,2.563,0,0,1-1.235-.778l-1.1-1.095c-.608-.391-.553-1.25-1.161-1.639a12.572,12.572,0,0,0-6.5-2.676c-4.1-.726-7.738-2.779-11.778-3.564a1.85,1.85,0,0,1-.093-2.71c3.618-1.822,7.086-4.1,10.894-5.34a67.051,67.051,0,0,1,12.775-2.4c7.76-.921,15.457.127,23.145,1.19a72.913,72.913,0,0,1,20.825,6.393,123.69,123.69,0,0,1,16.257,9.327c3.355,2.24,6.8,4.355,10.126,6.633a147.161,147.161,0,0,0,18.925,10.68,45.331,45.331,0,0,0,18.4,4.693,96.949,96.949,0,0,1,13,1.033c2.619.442,5.129-.537,7.731-.569,9.453-.115,18.576-1.814,26.958-6.434a29.211,29.211,0,0,0,8.591-6.743c-.132-2.26.634-4.578-.442-6.777.131-1.49-.631-2.263-1.92-2.962-3.13-1.7-6.2-2.5-9.766-1.237-4.6,1.626-7.769-1.044-10.663-4.136.466-.82,1.221-1.416,1.716-2.212l.021.02a5.877,5.877,0,0,1,1-1c.583-.267.783-.874,1.166-1.318,4.534-3.236,9.7-4.561,15.118-5.554a73.3,73.3,0,0,1,17.982-1.055,128.754,128.754,0,0,1,20.184,3.238c8.376,1.9,15.543,6.254,22.962,10.1,4.213,2.182,7.8,5.471,11.745,8.128,4.789,3.224,9.948,5.892,14.88,8.912a66.5,66.5,0,0,0,21.031,7.955c3.5.756,7.011.57,10.51.9a97.285,97.285,0,0,0,28.922-1.372,50.511,50.511,0,0,0,18.755-7.86c1.025-.6.367-1.994,1.242-2.668l-.055-.061c.428-.421.531-1.088,1.072-1.425.4-.268.8-.542,1.224-.785,1.957-3.073,1.947-3.392-.2-6.074-4.518-4.163-10.447-4.949-15.974-6.72-1.919-.615-3.759-1.481-5.635-2.232a1.555,1.555,0,0,1,.084-2.21c2.425-.524,4.165-2.3,6.25-3.446,5.338-2.935,11.323-3.658,17.12-4.228,7.805-.768,15.643.079,23.5,1.14,10.606,1.433,19.947,5.777,29.2,10.529,3.405,1.748,6.284,4.495,9.61,6.431,6.6,3.844,12.971,8.068,19.669,11.763,5.413,2.987,10.827,5.8,16.856,7.385a34.291,34.291,0,0,0,7.6,1.465c7.314.229,14.614.432,21.615,2.921,1.621,1.157,2.536,2.492,1.116,4.418-2.8,1.98-6.155,2.252-9.266,2.006-4.62-.367-9.25-.227-13.866-.717-13.93-1.479-26.572-6.261-38.47-13.615-6.546-4.046-12.838-8.5-19.587-12.222-.532-.456-1.311-.5-1.781-1.058a74.309,74.309,0,0,0-18.082-9.315c-2.917-1.039-6.133-1.236-9.213-1.815a43.786,43.786,0,0,0-12.486-1.115c-1,.091-2.215.1-1.479,1.724,1.646,1.934,4.3,2.247,6.161,3.841a3.556,3.556,0,0,1,.719,2.257,2.046,2.046,0,0,0,.816,1.934,15.6,15.6,0,0,1,2.217,2.218,8.653,8.653,0,0,1,.016,3.279c-.844,1.383-2.38,2.416-2.2,4.324a3.184,3.184,0,0,0,.044.376,7.192,7.192,0,0,0-1.566,2.334c-1.588,2.4-4.22,3.645-6.389,5.285a44.569,44.569,0,0,1-16.824,8.176c-6.8,1.519-13.529,4.051-20.683,3.726-4.724-.214-9.421.331-14.153.274a122.915,122.915,0,0,1-26.971-3.071,74.27,74.27,0,0,1-16.6-6.556c-6.243-3.174-12.134-6.936-18.114-10.559-4.073-2.468-7.943-5.219-11.913-7.826a61.762,61.762,0,0,0-14.633-7.492c-4.678-1.534-9.483-2.316-14.155-3.71-4.013-.1-7.971-1.319-12.019-.6-.774.323-1.9.52-.57,1.6,1.4.786,2.989,1.249,4.2,2.376l.011-.012c.574.421.547,1.247,1.124,1.666a1.063,1.063,0,0,0,1.016.6,5.573,5.573,0,0,1,1.536,2.262,2.191,2.191,0,0,1-.178.79c-.98,3.163-.592,6.359-.222,9.551a3.2,3.2,0,0,1,.353.728.852.852,0,0,1-.4,1.03c-.421.916-1.419,1.139-2.1,1.746-.471.343-.581.944-.961,1.352A5.011,5.011,0,0,0,642.817,212.8Z" transform="translate(-101.194 -64.778)" style="fill: #d6bd69"/>
    <path d="M481.262,204.339c1.564-1.676,1.518-3.351,0-5.024-.784-.57-.41-1.687-1.091-2.306l.032-1.594a.65.65,0,0,1,1.019.013c3.556,4.926,1.953,9.65-.579,14.327-.06.112-.341.1-.519.152a.869.869,0,0,1-.071-1.146l.111-2.122C480.855,206.028,480.472,204.9,481.262,204.339Z" transform="translate(-101.194 -64.778)" style="fill: #ebebdb"/>
    <path d="M806.468,189.354c-1.33-.358-1.568-.982-.354-1.791a4.053,4.053,0,0,1,2.7-.432c3.9.372,7.9.012,11.623,1.614-2.99-.284-5.976-.623-8.971-.833C809.657,187.786,807.69,187.352,806.468,189.354Z" transform="translate(-101.194 -64.778)" style="fill: #e6e5ce"/>
    <path d="M799.686,198.265c3.254,1.534,3.318,4.066.166,6.634a.775.775,0,0,1-.029-1.128A20.722,20.722,0,0,0,799.686,198.265Z" transform="translate(-101.194 -64.778)" style="fill: #d2c27c"/>
    <path d="M649.982,198.213c.008,2.08.031,4.161.018,6.241,0,.873.213,1.895-1.072,2.144a1.554,1.554,0,0,1-.543-.718,6.046,6.046,0,0,1-.242-1.809,30.225,30.225,0,0,1,.136-5.042,2.231,2.231,0,0,1,.422-.832A.938.938,0,0,1,649.982,198.213Z" transform="translate(-101.194 -64.778)" style="fill: #e6e7d3"/>
    <path d="M639.394,187.605c4.346-1.244,8.6-.266,12.851.559-2.735-.062-5.476.232-8.2-.452a7.5,7.5,0,0,0-4.566.534.4.4,0,0,1-.2-.407C639.308,187.683,639.347,187.605,639.394,187.605Z" transform="translate(-101.194 -64.778)" style="fill: #e1e0c0"/>
    <path d="M467.828,203.755l-1.6.053q-.007-2.536-.014-5.073l1.616.052A4.939,4.939,0,0,1,467.828,203.755Z" transform="translate(-101.194 -64.778)" style="fill: #e2e2c9"/>
    <path d="M632.764,198.737c2.045,2.135,1.2,4.459.443,6.777C632.212,203.31,632.907,201,632.764,198.737Z" transform="translate(-101.194 -64.778)" style="fill: #d4d0a2"/>
    <path d="M815.86,199.373c-1.047-.152-1.346-1.2-2.078-1.731a2.094,2.094,0,0,1-.567-1.672,1.917,1.917,0,0,1,.555-1.67c.458.085,1.039.243.985.74-.214,2,1.122,3.1,2.33,4.286A.935.935,0,0,1,815.86,199.373Z" transform="translate(-101.194 -64.778)" style="fill: #f7f7f2"/>
    <path d="M473.5,189.254c-.764-.021-1.2-.353-1.122-1.179a.974.974,0,0,1,1.1-.963c2.587.178,5.244-.67,7.76.521-1.946.007-3.893.029-5.839.015C474.286,187.64,473.293,187.72,473.5,189.254Z" transform="translate(-101.194 -64.778)" style="fill: #d8d09f"/>
    <path d="M930.7,225.481a5.757,5.757,0,0,0-1.115-4.418,3.025,3.025,0,0,1,2.258,1.085,2.235,2.235,0,0,1,.014,2.813A1.177,1.177,0,0,1,930.7,225.481Z" transform="translate(-101.194 -64.778)" style="fill: #ded6aa"/>
    <path d="M815.86,199.373l1.225-.047c-.425,1.476,1.071,3.411-1.07,4.478a.44.44,0,0,1-.209-.433q.045-.246.117-.246Z" transform="translate(-101.194 -64.778)" style="fill: #f3f2e8"/>
    <path d="M643.853,191.542a13.243,13.243,0,0,1-4.455-2.232.416.416,0,0,1,.088-.638C641.031,189.492,643.069,189.563,643.853,191.542Z" transform="translate(-101.194 -64.778)" style="fill: #e1e0c0"/>
    <path d="M648.934,198.2l-.089.584a1.369,1.369,0,0,1-1.786.039,1.9,1.9,0,0,1,.1-2.274l.075-.595a1.13,1.13,0,0,1,1.633.061,4.506,4.506,0,0,0,.059.5A1.305,1.305,0,0,1,648.934,198.2Z" transform="translate(-101.194 -64.778)" style="fill: #dad09b"/>
    <path d="M815.923,203.125c.031.226.061.452.092.678.124,1.523-1.419,2.157-1.812,3.4C813.091,205.136,814.759,204.237,815.923,203.125Z" transform="translate(-101.194 -64.778)" style="fill: #e8e7d3"/>
    <path d="M648.866,196.011l-1.633-.061c-.529-.649-1.353-1.13-1.228-2.152C647.157,194.279,648.486,194.53,648.866,196.011Z" transform="translate(-101.194 -64.778)" style="fill: #f0f0e3"/>
    <path d="M445.576,187.05l.093,2.711a1.157,1.157,0,0,1-1.211-.458,1.568,1.568,0,0,1,.049-2.211Z" transform="translate(-101.194 -64.778)" style="fill: #dedbb6"/>
    <path d="M612.131,188.19c.193,1.33-.74,1.787-1.716,2.212C610.023,188.916,611.035,188.52,612.131,188.19Z" transform="translate(-101.194 -64.778)" style="fill: #edebd9"/>
    <path d="M931.855,224.961l-.015-2.812C933.625,223.077,933.583,224.015,931.855,224.961Z" transform="translate(-101.194 -64.778)" style="fill: #eaead8"/>
    <path d="M813.77,194.3q-.023.858-.046,1.714a.7.7,0,0,1-1.062-.07l-.033-2.749A1.051,1.051,0,0,1,813.77,194.3Z" transform="translate(-101.194 -64.778)" style="fill: #eae6d0"/>
    <path d="M812.68,209.917c-.153-1.231-.088-2.315,1.566-2.334C814.412,208.823,813.523,209.355,812.68,209.917Z" transform="translate(-101.194 -64.778)" style="fill: #eae9d5"/>
    <path d="M481.219,195.428l-1.019-.013-.607-1.689C481.818,192.684,481.057,194.5,481.219,195.428Z" transform="translate(-101.194 -64.778)" style="fill: #f2f1e3"/>
    <path d="M797.645,206.61c-.261.96.648,2.466-1.242,2.668C796.526,208.253,796.3,207.063,797.645,206.61Z" transform="translate(-101.194 -64.778)" style="fill: #ded7ac"/>
    <path d="M466.226,203.805c-.19.828.423,2.108-1.2,2.13C465.142,205.064,464.745,203.906,466.226,203.805Z" transform="translate(-101.194 -64.778)" style="fill: #e5e3c7"/>
    <path d="M476.8,212.185c.1-1.374,1.171-1.523,2.194-1.731C478.836,211.754,477.766,211.9,476.8,212.185Z" transform="translate(-101.194 -64.778)" style="fill: #d6ca8f"/>
    <path d="M444.507,187.092q-.026,1.105-.049,2.211a1.042,1.042,0,0,1-1.06-1.274C443.452,187.341,443.906,187.131,444.507,187.092Z" transform="translate(-101.194 -64.778)" style="fill: #f0f2e6"/>
    <path d="M778.161,187.1l-.084,2.21a1.043,1.043,0,0,1-1.053-1.295C777.087,187.322,777.551,187.121,778.161,187.1Z" transform="translate(-101.194 -64.778)" style="fill: #ebe8d0"/>
    <path d="M643.853,211.005a1.045,1.045,0,0,1,1.14-1.1c-.081.89.371,2.04-1.1,2.257A.82.82,0,0,1,643.853,211.005Z" transform="translate(-101.194 -64.778)" style="fill: #dedcbb"/>
    <path d="M464.684,206.544c.571,1,.793,1.895-.692,2.268a.834.834,0,0,1-.065-1.157Z" transform="translate(-101.194 -64.778)" style="fill: #ded3a1"/>
    <path d="M798.734,205.482l-1.144,1.067c.082-.886-.341-2.028,1.119-2.219A.829.829,0,0,1,798.734,205.482Z" transform="translate(-101.194 -64.778)" style="fill: #eeeddc"/>
    <path d="M463.95,196c1.123.025,1.192.8,1.16,1.639C463.957,197.635,463.943,196.825,463.95,196Z" transform="translate(-101.194 -64.778)" style="fill: #e8e6d0"/>
    <path d="M648.881,206c.016.2.031.4.047.6-.022.17-.038.34-.05.511a1.094,1.094,0,0,1-1.586.018H647.1a1.1,1.1,0,0,1,.095-1.274A1.345,1.345,0,0,1,648.881,206Z" transform="translate(-101.194 -64.778)" style="fill: #dfd4a4"/>
    <path d="M798.734,205.482l-.025-1.152a1.231,1.231,0,0,1,1.114-.559c.01.376.019.752.029,1.128Z" transform="translate(-101.194 -64.778)" style="fill: #dedbbc"/>
    <path d="M648.934,198.2l-.009-1.682c1.105.1,1.089.894,1.057,1.7Z" transform="translate(-101.194 -64.778)" style="fill: #ebecdd"/>
    <path d="M647.292,207.127l1.586-.018c-.069,1.243-.929,1.145-1.786,1.051Q647.191,207.642,647.292,207.127Z" transform="translate(-101.194 -64.778)" style="fill: #eeedde"/>
    <path d="M463.927,207.655q.033.577.065,1.157a1.268,1.268,0,0,1-1.127.561C462.816,208.551,462.83,207.769,463.927,207.655Z" transform="translate(-101.194 -64.778)" style="fill: #ecedde"/>
    <path d="M644.988,193.2c-1.1-.068-1.162-.832-1.124-1.666C645.024,191.555,645.021,192.366,644.988,193.2Z" transform="translate(-101.194 -64.778)" style="fill: #e5e3c8"/>
    <path d="M480.05,208.761l.071,1.146a1.236,1.236,0,0,1-1.123.545C478.95,209.641,479,208.891,480.05,208.761Z" transform="translate(-101.194 -64.778)" style="fill: #d6ca8f"/>
    <path d="M639.486,188.672q-.043.318-.088.638c-.559-.1-1.093-.245-1-.986.071-.574.551-.635,1-.719l.087.64A1.49,1.49,0,0,0,639.486,188.672Z" transform="translate(-101.194 -64.778)" style="fill: #d3cb93"/>
    <path d="M613.253,187.638a1.167,1.167,0,0,1-1.1.572c-.1-.856-.018-1.6,1.074-1.714A.807.807,0,0,1,613.253,187.638Z" transform="translate(-101.194 -64.778)" style="fill: #e3e3cb"/>
    <path d="M643.853,211.005q.021.579.043,1.158l-1.08.637C642.726,211.95,642.684,211.129,643.853,211.005Z" transform="translate(-101.194 -64.778)" style="fill: #d4c788"/>
    <path d="M847.728,199.875c.809-.01,1.636-.049,1.781,1.058C848.67,200.993,847.807,201.093,847.728,199.875Z" transform="translate(-101.194 -64.778)" style="fill: #f1f0e5"/>
    <path d="M613.253,187.638c-.009-.381-.019-.761-.028-1.142a1.136,1.136,0,0,1,1.089-.607C614.391,186.732,614.385,187.526,613.253,187.638Z" transform="translate(-101.194 -64.778)" style="fill: #d8ce98"/>
    <path d="M647.216,206.006q-.057.559-.116,1.12a1.087,1.087,0,0,1-.98-1.149q0-4.173.008-8.347a1.047,1.047,0,0,1,1.031-1.086q.039,1.1.079,2.2c1.216,1.672.7,3.573.725,5.405A2.9,2.9,0,0,1,647.216,206.006Z" transform="translate(-101.194 -64.778)" style="fill: #d7bd66"/>
    <path d="M467.828,203.755q0-2.484,0-4.968A3.119,3.119,0,0,1,467.828,203.755Z" transform="translate(-101.194 -64.778)" style="fill: #d8c682"/>
    <path d="M480.168,197.009c1.354.3,1.023,1.4,1.091,2.306C479.7,199.11,480.205,197.932,480.168,197.009Z" transform="translate(-101.194 -64.778)" style="fill: #cec282"/>
    <path d="M481.262,204.339c-.066.911.268,2.012-1.1,2.3C480.209,205.719,479.705,204.536,481.262,204.339Z" transform="translate(-101.194 -64.778)" style="fill: #cec37f"/>
    <path d="M812.662,195.944l1.063.069.057,1.629C812.629,197.59,812.606,196.793,812.662,195.944Z" transform="translate(-101.194 -64.778)" style="fill: #cfc68d"/>
    <path d="M647.215,204.334q.01-2.793.023-5.586l1.607.032q.019,2.776.038,5.553A1.194,1.194,0,0,1,647.215,204.334Z" transform="translate(-101.194 -64.778)" style="fill: #d3c686"/>
    <path d="M647.215,204.334h1.668q0,.835,0,1.671h-1.667C647.216,205.449,647.215,204.891,647.215,204.334Z" transform="translate(-101.194 -64.778)" style="fill: #d7cc91"/>
  </g>
</svg>
