<svg id="ab11eeb4-f85d-4250-8866-bc85d3f2891c" data-name="Layer 1" xmlns="http://www.w3.org/2000/svg" viewBox="0 0 960 434.632">
  <defs>
    <style>
      .f9577d00-65fd-45c7-b651-0eeb25b68c45 {
        font-size: 72px;
        font-family: BernardMT-Condensed, Bernard MT Condensed;
        letter-spacing: 0.2em;
      }

      .a907e1d0-2969-4eed-99a4-a22d7b400b02, .f8a82e41-6e77-44eb-b462-37d10febc138 {
        letter-spacing: 0.2em;
      }

      .ad02a298-6a58-4c8b-83b4-066c929b4539, .adb6f03f-a3b8-40ae-b09a-8d25fdfa9da4, .f8a82e41-6e77-44eb-b462-37d10febc138 {
        fill: #d7be69;
      }

      .aaa35e7f-6a9c-46f6-80ae-516d8a8db092, .ad02a298-6a58-4c8b-83b4-066c929b4539 {
        letter-spacing: 0.2em;
      }

      .aaa35e7f-6a9c-46f6-80ae-516d8a8db092 {
        fill: #000;
      }
    </style>
  </defs>
  <title>BlackMountainVector</title>
  <text class="f9577d00-65fd-45c7-b651-0eeb25b68c45" transform="translate(93.067 64.368)">I<tspan x="35.423" y="0">’</tspan><tspan class="a907e1d0-2969-4eed-99a4-a22d7b400b02" x="68.562" y="0">m </tspan><tspan class="adb6f03f-a3b8-40ae-b09a-8d25fdfa9da4" x="167.463" y="0">J</tspan><tspan x="203.625" y="0">ohn </tspan><tspan class="ad02a298-6a58-4c8b-83b4-066c929b4539" x="383.85" y="0">P</tspan><tspan class="a907e1d0-2969-4eed-99a4-a22d7b400b02" x="437.238" y="0">aul </tspan><tspan class="f8a82e41-6e77-44eb-b462-37d10febc138" x="600.939" y="0">M</tspan><tspan class="a907e1d0-2969-4eed-99a4-a22d7b400b02" x="657.351" y="0">aja</tspan><tspan class="adb6f03f-a3b8-40ae-b09a-8d25fdfa9da4"><tspan x="32.769" y="160">web dev </tspan><tspan class="aaa35e7f-6a9c-46f6-80ae-516d8a8db092" x="394.696" y="160">+</tspan><tspan class="a907e1d0-2969-4eed-99a4-a22d7b400b02" x="457.083" y="160" xml:space="preserve"> design</tspan></tspan></text>
  <path d="M905.865,377.872c1.766,0,3.536-.04,5.3.006,23.6.607,47.21,1.159,70.8,1.887a50,50,0,0,1,17.924,3.437c-10.89-.579-20.539-1.4-30.231-1.549-25.486-.4-51.025-1.032-76.48-.62-43.384.7-86.745,1.934-130.068,3.312-36.383,1.156-72.7,2.841-109.045,4.283q-51.514,2.043-103.03,4.078c-33.661,1.374-67.283,3-100.968,4.212-45,1.613-90.06,2.975-135.042-.194-6.485-.457-12.867-1.3-19.256-2.055-8.71-1.024-13.993-4.031-18.775-8.22l4.576,1.152c-6.414-3.015-8.512-6.474-5.406-11.1l3.786,5.023c-2.036-3.847-1.522-7.436,3.66-10.525,4.678-2.789,9.277-5.777,15.09-7.886,5.481-1.989,12.5-2.946,19.17-4.43-.18.4-.152.6-.31.643-9.944,2.911-15.4,7.87-22.27,12.129-7.021,4.355-5.462,7.608,5.233,9.475a353.678,353.678,0,0,0,37.093,4.673c34.105,2.275,68.463,1.8,102.715.86q56.152-1.543,112.223-3.811c48.473-1.926,96.891-4.186,145.344-6.243,34.155-1.45,68.306-2.945,102.5-4.161,40.1-1.427,80.21-2.826,120.362-3.748,24.611-.566,49.383-.818,73.943-.081,19.237.578,38.324,2.726,57.337,4.537,5.578.532,10.672,2.3,15.988,3.5l-.447.565-2.962-.3c8.692,3.245,17.3,6.413,12.238,12.835-1.978-6.357-11.838-8.666-22.4-9.713-15.166-1.5-30.772-3.243-45.994-2.881-12.277.292-24.246-.6-36.375-.389-12.648.222-25.324.012-37.981.144-9.42.1-18.829.442-28.243.676Z" transform="translate(-203 -258.368)"/>
</svg>
