<svg xmlns="http://www.w3.org/2000/svg" viewBox="0 0 482.462 688.922">
  <title>lineart3</title>
  <g>
    <path d="M1095.615,778.845c-10.2,12.4-24.3,14.8-38.681,15.251-19.343.6-38.715.249-58.075.175a77.585,77.585,0,0,0-17.385,1.765c-19.581,4.376-28.509,14.6-28.731,35.354-.133,12.43,1.47,24.876,2.177,37.321.141,2.466,1.419,5.245-1.828,7.964-5.37-6.812-2.3-15.073-3.742-22.29a88.46,88.46,0,0,1-.256-34.958c2.831-14.035,10.094-20.673,30.13-28.835l-75.8-18.138c-14.273,8.092-22.713-3.137-31.546-10.955-11.172-9.887-17.758-22.911-19.781-38.171-.3-2.244-1.053-4.714-.484-6.744,7.848-28.019-13.765-41.483-26.984-59.091-2.123-2.828-4-2.112-6.413-.133-12.026,9.852-16.224,22.824-14.65,38.218.19,1.859.135,4.674,2.121,4.733,12.065.358,17.818,14.374,30.2,14.517,3.824.044,10.124,1.31,10.575,6.365.484,5.427-5.891,5.734-9.56,7.551-9.468,4.689-19.144,4.063-28.636-.213-5.637-2.54-10.943-3.686-13.014,4.276-2.039,7.841,1.758,11.026,9.144,11.5,20.032,1.273,36.214,10.779,49.6,25.834a61.021,61.021,0,0,0,27.392,18.055,33.378,33.378,0,0,1,7.829,4.027c2.774,1.813,5.977,4.048,4.746,8-1.1,3.519-4.776,2.732-7.6,3.065-36.831,4.339-67.037-6.632-87.357-40.525a13.953,13.953,0,0,0-2.429-2.371c.086,23.482,8.93,38.485,28.687,49.246,34.518,18.8,34.472,42.727,31.279,75.8-.646,6.689-5.031,5.165-8.92,3.092-22.588-12.04-38.373-29.248-37.951-57.328a70.309,70.309,0,0,0-9.652-37.441c-15-26.367-19.571-54.214-6.277-83.455,4.624-10.17,3.55-21.5,2.08-32.439-.382-2.844-1.077-6.621-4.668-6.811s-4.394,3.065-5.088,6.226c-3.861,17.563-9.9,34.4-11.961,52.653-2.555,22.619-13.685,30.312-35.986,30.548-13.266.141-27.234-3.276-38.084,7.384-1.955-1.019-2.265-2.493-1.438-3.035,11.146-7.313,12.633-17.327,10.269-30.185-2.468-13.425,4.824-23.444,15.914-29.685,9.92-5.582,20.3-10.261,31.86-11.5a51.836,51.836,0,0,0,14.837-3.686c10.886-4.684,12.533-14.769,3.931-22.919-5.326-5.047-8.953-10.921-10.26-18.274-1-5.617-3.752-7.713-9.277-5.708-9.293,3.371-15.273-.439-19.382-9.384-1.832-3.988-5.182-7.224-7.832-10.811-10.39-14.065-10.706-21.584-.115-35.353,5.2-6.766,7.208-10.911-3.167-13.857-8.822-2.5-16.268-7.774-16.574-18.611-.313-11.06,6.568-17.014,15.511-21.077,17.9-8.132,36.031-8.206,54.514-1.227-7.7-15.716-24.185-27.941-14.741-49.873-20.544,2.87-34.117-13.734-52.1-17.621-5.468-1.183-9.408-6.293-8.581-12.9.762-6.093,5.359-9.12,10.686-9.826,6.5-.861,8.47-2.644,6.493-10.127-3.544-13.416,2.628-22.782,16.108-25.87,15.213-3.485,29.686-.21,43.676,6.394,5.83,2.752,11.239,6.791,19.09,7.85-1.656-7.428-6.177-11.856-9.834-16.569-10.564-13.616-14.08-28.723-10.366-45.74,2.026-9.284,5.777-17.148,14.9-20.98,5.552-2.332,9.689-6.531,13.926-10.775,12.123-12.144,24.486-8.6,27.877,8.512,1.571,7.927,3.149,9.9,11.187,6.821,11.062-4.241,22.905,3.768,27.027,16.771a50.844,50.844,0,0,1,.226,29.091c-2.473,9.069-5.636,17.937-8.88,28.094,4.8-6.545,9.022-12.2,13.129-17.938,1.8-2.512,3-5.427,1.678-8.5-5.019-11.63-2.823-23.889-2.832-35.88-.011-13.649-.318-27.1-3.268-40.561-3.191-14.563-.563-28.606,7.082-41.41,1.246-2.086,2.381-5.307,5.6-4.292,2.624.828,2.133,3.771,1.987,5.875-1.387,19.853,5.7,36.943,15.409,53.421,7.089,12.031,12.117,24.98,11.8,39.824,14.893-10.413,22.63-39.157,15.69-57.073-3.4-8.768-7.679-17.212-10.522-26.157-5.231-16.463-2.035-32.024,6.081-46.881,6.422-11.759,15.551-21.718,19.867-34.867,1.576,1.066,2.663,1.553,2.614,1.8-4.065,20.978.949,41.266,4.034,61.752,2.475,16.44,1.351,32.237-8.316,46.735-9.037,13.553-6.692,31.5-15.28,45.587,24.539-18.7,43.729-40.826,45.819-74.105.975-15.531,2.372-30.654,9.289-45.066,6.1-12.7,18.255-12.134,28.252-15.985,4-1.539,7.925,3.5,7.136,7.9-1.52,8.478.134,16.459,1.185,24.659a13.678,13.678,0,0,1-3.885,11.492c-7.107,6.6-4.979,13.124-1.1,20.161,3.609-1.107,4.35-4.921,6.594-7.245,7.187-7.443,13.821-6.678,17.658,3.066,2.442,6.2,4.6,7.092,9,2.413a10.661,10.661,0,0,1,2.457-2.248c21.769-11.58,38.411-28.882,53.743-48.439,10.258-13.085,25.224-17.028,41.806-13.529,10.3,2.173,20.947.92,32.411.463-4.968,10.387-9.007,20.042-14.043,29.1-9.616,17.3-26.509,20.174-43.486,21.53-11.623.927-23.367.379-35.053.237a42.022,42.022,0,0,0-19.046,4.49c-17.431,8.411-20.036,19.443-8.246,35.452,2.1,2.852,4.631,6.761,2.534,9.174-5.892,6.783-1.871,18.691-11.632,23.1a6.678,6.678,0,0,0-.919.613c7.628,11.707-6.161,14.51-8.442,22.029-2.64,8.7-8.532,12.431-16.5,11.827-12.632-.957-25.207-2.828-37.765-4.625-2.372-.339-6.621-2.459-6.511-3.207,1.877-12.788-11.433-13.54-15.234-21.362-1.955-4.022-3.574-4.2-6.478-2.47-10.6,6.314-21.125,12.761-30.779,21.266,6.038,0,12.115-.453,18.106.1,10.7.986,19.167,5.231,20.387,17.98.887,9.27,16.538,12.808,9.172,25.237-12.668,21.372-30.77,32.968-55.341,33.117-10.19.062-20.484-1.039-30.478,2.2-2.765.9-5.716,1.352-8.057,4.689,3.319,2.742,6.792,1.141,10.14.771,17.036-1.885,34.043-4.448,51.129-5.336,11.816-.614,22.972,2.263,25.207,17.593.849,5.827,4.529,3.291,7.5,2.627,9.989-2.233,19.928-4.964,30.248-4.663,4.483.131,10.586-1.674,12.127,4.673,1.531,6.305-3.846,9.106-8.277,11.835-1.237.762-2.523,1.439-3.921,2.23,9.2,4.337,22.6,27.435,21.253,36.887-.944,6.646-5.57,10.637-11.064,13.1-5.138,2.3-6.326,4.806-3.843,10.349,2.555,5.7,3.335,12.1,5.846,18.058,3.29,7.806,1.758,14.95-7.974,17.356-6.512,1.61-12.656,3.03-11.7,13,.515,5.358-4.979,8.24-9.912,8.821a50.583,50.583,0,0,1-15.252-.163c-6.025-1.156-10.082-1.535-9.273,6.885a9.149,9.149,0,0,1-5.186,9.281,7.591,7.591,0,0,0-4.6,7.054c-.42,13.612-11.4,20.161-18.753,28.839-5.417,6.389-15.2,1.114-22.3,6.616-4.046,3.136-9.639,4.815-14.182,8.045-9.628,6.848-19.71,10.148-31.993,7.542-10.635-2.256-16.752-6.777-16.7-18.331.023-4.721-2.11-6.935-6.515-7.222-7.779-.507-14.646-4.285-22.7-7.262-.535,10.341,6.3,15.86,11.21,22.367,15.815,20.966,37.147,35.957,55.163,54.561,11.019,11.378,17.395,23.078,10.336,39.394-2.761,6.383-.063,10.574,6.791,12.48,50.294,13.98,101.03,24.132,153.516,20.729,12.7-.823,24.423-4.209,34.779-12.063Zm-325.8-74.81c1.563-6.645-1.662-7.9-7.146-7.057a137.677,137.677,0,0,0-28.524,7.841c-19.721,7.6-25.782,21.626-18.087,43.131,13.849-17.891,30.929-31.144,50.454-41.117-1.876,6.585-7.84,8.653-12.581,11.921a150.774,150.774,0,0,0-36.25,35.164C765.745,767.405,776.339,733.475,769.817,704.035ZM873.409,457.811c3.272,8.555-3.575,6.006-7.131,6.854-3.013.718-7.431-.246-5.571,5.491,3.414,10.532,7.583,20.529,18.177,25.644,34.219,16.52,56.814,5.177,79.7-22.621,9.407-11.425,6.539-17.618-7.994-20.454a51.49,51.49,0,0,0-15.2-.315c-20.664,2.044-41.364,3.69-62.05,5.484-.608-5.827,2.892-9.035,7.061-11.754a39.377,39.377,0,0,1,23.942-6.645,131.368,131.368,0,0,0,44.29-5.819c13.851-4.141,15.021-19.494,24.644-27.1.513-.4.494-2.745-.04-3.181-8.312-6.791-10.82-16.845-14.532-26.338-.671-1.716-4.344-2.4-6.754-3.119-15.672-4.672-52.953,8.819-63.349,23.5-8.192,11.573-16.009,23.54-20.73,38.354,7.492-.982,11.984-7.39,18.745-4.6-1.4,4.715-5.269,4.682-7.992,6.2-4.848,2.709-10.918,4.962-12.395,10.32C865.557,450.179,870.833,454.394,873.409,457.811ZM752.853,530.86c-10.979,1.144-22.053,2.9-31.946,9.511-5.466,3.65-8.185,8.576-7.829,15.142.331,6.093,4.377,9.27,9.409,11.348,2.711,1.119,5.471,2.108,8.207,3.162,10.083,3.884,10.993,7.49,4.152,16.451-12.647,16.566-12.221,23.336,2.29,38.516,1.511,1.581,3.333,3.359,3.842,5.364,2.222,8.758,7.951,10.331,15.173,8.032,7.647-2.435,11.305-.548,12.814,8.179,1.557,9,4.938,17.9,15.5,19.573,8.738,1.384,22.355-6.531,26.7-14.919,8.514-16.425,8.514-16.424,24.92-10.645.691.244,1.4.443,2.091.679,8.244,2.794,17.616,5.156,23.676-2.109,6.273-7.52-.463-15.559-3.751-22.932-.916-2.056-2.142-3.966-3.028-6.034-2.171-5.061-3.1-10.742-.426-15.4,7.888-13.752,2.76-28.113,2.6-42.194-.063-5.43-3.347-9.95-7.164-13.656-3.075-2.986-6.247-3.54-9.488.119-4.221,4.767-6.855,14.959-13.943,11.83-6.7-2.958-3.185-12.993-4.031-19.911-.927-7.582-3.026-14.006-10.837-16.729-8.239-2.873-15.977-1.783-22.825,3.59-7.114,5.582-3.531,12.008-.694,18.277.9,2,2.023,4.613-.357,6.092-2.266,1.408-4.044-.917-5.721-2.22C773.586,533.29,763.443,532.081,752.853,530.86Zm86.028-91.967c3.215-20.087-11.892-33.9-13.647-51.771-.629-6.4-2.8-13.722,1.76-18.479,3.582-3.733,9.086.735,11.209,3.964,7.278,11.068,10.215,23.873,6.444,36.795-3.206,10.987.32,19.817,3.4,31,5.758-7.755,5.712-15.207,9.824-21.778,10.208-16.314,17.937-34.826,13.213-55.611-2.176-9.573-7.177-17-17.295-17.882-10.82-.945-11.348,8.4-13.211,16.031-.437,1.789-.56,4.146-2.817,4.289-2.939.186-3.346-2.557-3.609-4.692-1.064-8.626-1.6-17.333-2.944-25.907-1.536-9.791-8.81-14.38-15.5-8.625-8.409,7.228-17.486,13.331-26.087,20.171-3.566,2.836-4.626,7.626-5.469,12.125-4.39,23.45,14.9,63.158,35.721,73.969.606-4.129-5.81-6.4-2.816-12.517,5.354,6.581,8.081,14.35,14.964,19.914C831.87,420.126,837.192,441.4,838.881,438.893Zm-17.3,23.03c-8.86-4.885-17.567-5.745-24.621-14.985,5.047,1.379,7.815,1.88,10.4,2.891,7.466,2.922,14.388,7.669,22.779,7.406,2.277-.071,5.9.916,5.46-3.344-.267-2.606-2.28-5.66-5.164-4.481-8.568,3.5-10.533-4.3-14.615-8.48-20.979-21.51-45.912-33.007-75.681-30.476-13.778,1.172-18.931,9.379-14.5,22.808,3.153,9.546,1.538,13.5-8.359,13.548-4.047.02-8.543.929-9.339,6.063-.88,5.674,3.317,8.276,7.65,9.449,10.369,2.808,19.577,8.006,28.962,13.142,8.751,4.789,17.9,3.963,25.416-3.323,8.3-8.045,17.862-11.129,29.07-10.311C805.936,462.334,812.892,461.923,821.583,461.923Zm103.228,86.284c5.682,3.782,13.55,5.912,6.194,16.348,4.417-.658,6.923-.951,9.4-1.421,2.859-.544,5.8-1.675,8.076,1.248,1.342,1.727.831,3.62-.333,5.2-2.136,2.9-4.848,2.406-7.9,1.619-4.061-1.047-8.315-1.882-12.587.76,13.014,12.187,43.585,23.539,58.629,22.057,4.049-.4,9.127-.59,8.67-6.217-.816-10.057,4.594-13.311,12.615-14.965,5.822-1.2,9.868-4.971,7.431-11.2-2.715-6.945-5.631-13.761-7.756-20.962-1.045-3.541-4.285-4.907-7.86-5.043-24.957-.944-49.793.6-76.551,3.808,9.654,5.144,18.188,4.711,26.748,4.434,2.942-.1,7.585-2.066,7.686,3.229.1,5.033-3.83,5.414-7.957,4.722C941.171,550.456,932.981,549.394,924.811,548.207Zm-83.571-64.85c-2.5-6.26-.572-9.82-.168-13.487.454-4.119-.189-7.839-5.042-4.359-7.3,5.238-15.37,4.052-23.3,4.1-11.039.072-21.978,1.155-32.237,5.347-15.295,6.249-19.256,20.781-9.862,33.867a18.968,18.968,0,0,1,3.123,5.923c2.107,7.962,4.429,7.385,9.79,1.9,10.781-11.036,27.14-12.679,35.424-2.918,7.062,8.322,13.959,8.135,22.308,4.508,8.877-3.857,14.38-10.47,14.115-20.817-.162-6.312,1.3-12.339,2.734-17.97-3.8-2.342-6.01,3.622-7.435,1.311C846.561,474.056,844.106,477.567,841.24,483.357Zm38.588,131.1c-4.109-4.5,5-10.127-1.652-12.036-4.8-1.377-6.81-2.022-6.354-7.395.476-5.6,4.614-7.04,8.271-7.413,6-.612,8.351-5.1,11.871-8.833,7.241-7.678,2.1-13.9-2.846-18.239-5.939-5.213-11.448-1.526-15.324,4.746-1.951,3.157-4.7,5.841-6.343,9.135-6.332,12.667-13.6,25.265-5.107,40.092,1.84,3.212,2.848,6.941,4.2,10.448,3.322,8.6,3.049,15.622-5.571,21.527a11.1,11.1,0,0,0,2.544,19.648c9.109,3.376,18.323,4.2,27.614-.584,7.507-3.867,13.486-10.282,21.775-12.892,4.842-1.524,3.672-5.44.346-7.553-14.814-9.411-20.962-24.428-24.726-41.116C884.545,607.156,884.093,612.57,879.828,614.454Zm53.552-90.6c6.728,4.966,11.666-3.628,18.163-.553,18.74,8.868,38.937,7.039,58.484,5.186,13.3-1.261,15.222-7.924,9.571-21.065a26.773,26.773,0,0,1-1.408-4.26c-3.7-15.3-5.282-16.6-20.47-17.025-7.077-.2-13.74,1.842-20.128,4.523-12.133,5.092-24.072,10.679-36.105,16.029-3.892,1.731-7.642,4.881-12.067.965-1.624-1.437-3.729-1.088-4.416,1.061a10.592,10.592,0,0,0,.191,5.45,3.215,3.215,0,0,0,4.2,2.547c2.768-.877,5.338-2.431,8.11-3.285,8.266-2.546,16.591-4.811,25.092-1.56C953.255,517.173,941.892,516.015,933.38,523.858Zm164.579-257.873c17.824,1.914,32.16.491,46.262-3.68,11.879-3.513,19.211-11.767,22.835-23.832,1.139-3.794,1.145-7.663-3.753-6.84-11.318,1.9-23.915.272-32.95,9.722A125.228,125.228,0,0,1,1097.959,265.985ZM959.775,603.722a13.258,13.258,0,0,0-8.235-8.941c-10.009-3.866-18.684-9.9-26.936-16.8-2.29-1.916-4.932-6-8.317-3.067-3.261,2.829-3.82,7.5-1.67,11.437,5.537,10.128,10.735,20.592,17.431,29.866,6.965,9.647,12.82,8.669,18.861-1.645,1.44-2.458,3.591-3.58,5.9-4.709C958.962,608.808,960.223,607.114,959.775,603.722ZM895.32,382.688c17.129-2.773,18.681-17.8,13.642-34.4-6.442-21.224-23.446-37.672-25.151-61.209C885,319.33,894.335,350.155,895.32,382.688ZM829.863,547.861c1.622-2.7,2.559-4.209,3.446-5.748,3.012-5.226,5.816-11.186,13.036-9.96,7.249,1.23,10.844,7.1,13.445,13.567,2.273,5.649,2.789,11.659,3.034,17.735.093,2.314-.358,6.252,3.95,4.47,8.812-3.644,12.286-33.436,4.212-38.852-9.335-6.262-17.6-14.025-31.261-6.425C826.33,530.1,825.335,528.178,829.863,547.861ZM941.434,223.254c-23.071,28.455-24.134,54.24-4.863,83.072C941.539,279.367,938.945,252.539,941.434,223.254ZM897.911,551.888c-.348,6.947.052,11.836,2.136,16.333,1.762,3.8,2.65,10.346,8.32,7.909,4.49-1.929,3.7-7.488,1.94-12.02-3.584-9.226-3.029-16.838,5.248-24.018,7.4-6.418,6.675-16.471,4.767-25.342-1.461-6.8-6.341-7.662-11.6-3.309a17.262,17.262,0,0,0-6.215,10.347C900.681,532.446,899.22,543.172,897.911,551.888Zm3.613,56.976c.127,5.916,6.58,3.063,7.935,6.128,4.868,11.007-5.729,3.979-8.3,7.359,4,7.357,12.808,10.082,16.655,17.432,3,5.735,7.158,11.527,13.247,9.059,6.778-2.748,8.966-11.945,15.169-16.59,1.364-1.021-1.33-2.738-2.924-3.708-11.011-6.7-23.874-9.7-33.9-18.439C907.412,608.366,904.453,607.038,901.524,608.864ZM876.134,796.2a178.683,178.683,0,0,1-74.6-43.682C808.148,779.306,841.439,804.74,876.134,796.2Zm-61.771,24.222c-2.982,26.776,5.61,47.456,30.243,60.186C839.523,857.184,834.153,834.848,814.363,820.422Zm68.4-56.551c5.757-23.395-9.36-38.171-20.79-54.15-3.165-4.425-4.663.282-5.29,3.145C853.054,729.446,866.237,755.407,882.763,763.871Zm63.972-268.444c17.549-7.3,35.727-12.144,53.891-17.1,4.923-1.343,13.371-2.157,12.344-8.482-.874-5.385-8.961-2.669-13.682-2.391C978.026,468.709,958.539,474.122,946.735,495.427Zm214.5-267.437c-27.219-8.971-46.6-2.307-62.053,19.566-2.216,3.136-7.047,6.738-4.088,10.58,3.26,4.231,7.266-.434,10.485-2.36,4.4-2.631,9.046-5.259,12.561-8.939C1129.282,235.169,1142.152,227.752,1161.233,227.99ZM815.192,813.508c18.741,18.662,30.342,38.76,34.45,63.051C856.344,844.924,845.732,819.68,815.192,813.508Zm74.765-47.478c2.263-10.939,11.311-20.811,5.295-32.4-7.627-14.691-19.772-25.069-32.917-34.614C872.562,720.912,893.841,737.6,889.957,766.03ZM869.042,495.44c3.886,10.676,6.858,18.365,9.476,26.181,2.071,6.184,6.3,6.638,11.408,5.27,7.086-1.9,8.827-8.49,11.291-14.291,1.158-2.726-.463-4.373-3.118-4.54C887.964,507.42,879.749,501.606,869.042,495.44Zm-58.66,255.877c13.989,17.322,29.732,28.935,51.969,32.651C846.728,769,833.823,752.559,810.382,751.317Zm68.389-458.2a83.721,83.721,0,0,0,1.922,32.65c2.962,11.243.883,22.423-.031,33.686-1.386,17.089-.511,20.2,7.049,32.125C893.057,356.769,880.469,325.338,878.771,293.119Z" transform="translate(-698.166 -201.366)"/>
    <path d="M1042.173,653.1c16.3-24.077,43.5-32.169,66.736-19.761,2.37-3.394,1.657-7.4,1.117-10.86-3.9-25.014-3.975-50.844-24.984-70.244-14.445-13.34-23.092-31.965-29.4-51.231-8.173-24.956-2.185-42.563,19.631-55.855a108.2,108.2,0,0,1,18.831-8.981c7.586-2.8,11.78.036,11.775,9.038-.007,12.936-1.841,25.628-4.237,38.225-1.13,5.943-1.706,10.031,6.049,10.829,9.2.947,7.6,6.3,3.015,11.465-1.907,2.148-4.557,4.262-7.207,4.911-13.484,3.305-13.9,13.38-12.454,24.579a77.076,77.076,0,0,0,7.656,24.749c20.863,41.5,19.692,85.187,10.977,129.077-3.794,19.11-7.077,37.577-3.349,57.066,2.4,12.556-.912,24.016-10.717,32.738l-1.694-1.537c8.52-11.5,11.006-24.033,7.629-38.316a74,74,0,0,1,1.044-39.474c-9.261,7.9-18.761,5.18-28.3,3.1-15.313-3.347-30.747-6.262-45.1-13.048-13.345-6.307-14.426-12.043-3.864-22.232,5.214-5.031,8.989-12.057,16.638-14.036-3.554,8.427-11.327,13.257-18.019,21.894a89.947,89.947,0,0,0,19.982-7.509c8.809-4.532,17.663-9.086,26.836-12.711,12.195-4.82,18-1.827,23.5,10.53,1.116,2.5.54,6.778,4.669,6.6,3.376-.143,4.569-3.482,5.743-6.191a33.3,33.3,0,0,0,2.864-14.3c-.4-14.568-4.481-18-18.38-19.042-14.309-1.075-25.362,5.241-36.033,13.584C1049.7,648.825,1047.04,652.842,1042.173,653.1Zm-13.463,28.959c18.126,11.1,38.2,15.51,58.638,18.171,7.418.966,13.087-3.178,13.042-11.548-.044-8.135-5.806-10.135-12.783-10.479C1067.961,677.233,1048.554,680.466,1028.71,682.056Zm28.486-198.03c2.162,2.065-3.068,11.277,5.823,8.239,7.672-2.623,14.87-2.673,22.5-1.236,3.857.726,8.555,2.022,10.419-3.143a61.172,61.172,0,0,0,3.944-22.031c-.031-1.5-2.146-1.582-3.653-1.23-10.271,2.4-20.6,4.564-30.8,7.253C1060.127,473.277,1056.148,476.458,1057.2,484.026Zm-14.9,189.227c14.535,0,27.188.087,39.84-.063,3.05-.036,7.251,1.228,8.393-3.084.881-3.326-1.08-6.516-3.237-9.212-3.458-4.324-7.627-5.508-12.606-3.135C1064.226,662.747,1053.776,667.76,1042.3,673.253Z" transform="translate(-698.166 -201.366)"/>
    <path d="M784.691,574.082l-30.986,4.755c4.51-8.292,12.754-6.97,17.832-11.265-.6-4.076-8.317-2.668-6.547-7.489,2.742-7.472,10.067.3,15.136-3.907-8.511-4.156-17.014-1.972-25.172-2.736-2.354-.22-5.867.922-6.354-2.63-.421-3.062,2.777-4.171,5.051-5.14,6.636-2.827,12.917-.416,19.133,1.88A87.213,87.213,0,0,1,784,552.085c9.7,5.209,15.881,2.477,19.284-8.192.734-2.3.962-5.325,4.63-6.581,3.286,4.445.71,9.186.454,13.737-.121,2.151-1.037,4.8,1.557,5.989,1.884.864,3.61-.515,4.749-1.952,2.871-3.622,4.9-5.691,6.871.914.8,2.678,4.545,1.632,7.009,1.691,4.429.106,8.759.52,12.758,2.691,1.927,1.046,4.486,2.078,4.075,4.679-.464,2.931-3.244,2.328-5.383,2.328-5.757,0-11.513,0-17.83,0,15.523,15.456,28.371,31.382,26.067,55.037C838.763,608.254,828.568,595,816,583.516c3.918,14.894,10.241,29.169,5.916,47.219-2.955-13.437-3.543-25.366-9.6-36.237,0,7.258.259,14.528-.069,21.769-.363,7.975-1.388,15.93-6.716,22.31-2.109,2.525-4.532,5.676-8.218,4.269-3.287-1.256-3.046-4.987-2.839-7.923.343-4.878,1.221-9.715,1.8-14.579.352-2.95,2.442-6.428.409-8.783-5.483-6.357-1.886-9.852,2.882-13.729,3.142-2.555,4.953-7.053,1.869-9.827-3.353-3.016-5.374,2.072-7.652,4.047-5.309,4.6-10.417,9.45-15.659,14.135-1.091.976-3.132,2.667-3.517,2.365-10.692-8.406-17.993,5.93-27.443,4.941-.988-3.7,1.468-4.5,3.2-5.554,6.2-3.757,14.876-4.234,14.912-15.314.012-3.738,6.487-4.2,9.49-6.914C778.281,582.537,782.068,579.589,784.691,574.082Z" transform="translate(-698.166 -201.366)"/>
  </g>
</svg>
