<svg xmlns="http://www.w3.org/2000/svg" viewBox="0 0 640 437.587">
  <title>lineart1</title>
  <path d="M1270,718c-47.621,8.692-95.491,11.932-143.725,6.258-24.3-2.858-48.562-6.07-72.864-8.926a12.1,12.1,0,0,0-6.471,1.6c-13.678,7.1-28.054,11.761-43.56,10.872a23.471,23.471,0,0,1-12.866-5.36c-5.225-4.416-3.39-11.893,3.321-13.012a115.012,115.012,0,0,1,24.779-.908c9.452.5,18.833,2.252,28.277,3.093a8.914,8.914,0,0,0,5.7-2.164c11.088-9.1,16.658-21.369,19.413-35.107,4.691-23.386,4.1-47.06,3.758-70.72-.287-19.989-.607-39.978-.65-59.968-.01-4.79.914-9.6,1.6-14.37,1.633-11.447,7.384-20.173,17.474-25.957a10.6,10.6,0,0,0,2.484-1.661c1.181-1.243,2.178-2.663,3.251-4.009-1.373-1.05-2.594-2.584-4.145-3.075-11.225-3.551-19.158-10.524-23.117-21.709a38.618,38.618,0,0,1-1.136-5.994l1.235-.749c1.227,1.087,2.518,2.112,3.671,3.272,7.252,7.289,14.418,14.665,21.758,21.864a11.888,11.888,0,0,0,4.784,2.449,55.615,55.615,0,0,0,8.261,1.9c27.3,4.011,42.582,21.067,51.017,46.11,6.919,20.543,9.794,41.755,11.713,63.172.875,9.776,1.432,19.58,2.459,29.395a185.189,185.189,0,0,0,7.266-49.516c.334-45.418-14.194-85.966-40.638-122.541-5.657-7.825-11.074-15.828-16.867-23.551-13.33-17.768-22.707-37.556-30.419-58.251-6.986-18.744-19.49-31.528-39.568-35.894-8.825-1.919-17.834-2.053-26.091,1.38a167.491,167.491,0,0,0-28.289,14.513c-11.427,7.572-10.807,20.518.63,28.314,5.909,4.027,12.421,7.175,18.3,11.248,8.325,5.773,16.746,11.541,24.331,18.216a51.147,51.147,0,0,1,16.395,29.1c1.94,9.8-.271,18.555-8.229,24.691-6.4,4.938-13.707,8.715-20.666,12.917a49.418,49.418,0,0,1-5.518,2.421c3.569,1.228,6.543,2.061,9.365,3.254,20.475,8.662,29.887,31.514,21.937,52.942-5.844,15.75-16.5,28.045-28.4,39.371-19.377,18.448-41.206,33.739-63.369,48.575-2.759,1.847-5.542,3.656-8.679,5.724,1.818,3.494,3.7,6.759,5.25,10.172a112.949,112.949,0,0,1,5.718,13.8c4.738,15.645.4,28.94-12.643,38.989-14.125,10.88-30.839,15.424-47.922,18.755-9.446,1.841-19.014,3.051-28.853,4.6-.144,6.59-4.883,9.291-10.456,9.581-15.267.795-30.656,2.155-45.842,1.087-51.5-3.621-102.93-8.153-154.38-12.431-12.941-1.076-25.852-2.5-38.777-3.767v-3c19.88,2,39.746,4.157,59.644,5.969,32.841,2.991,65.672,6.208,98.566,8.468,23.081,1.586,46.256,1.891,69.4,2.408,4.738.106,9.612-1.031,14.224-2.313,2.02-.561,3.539-2.927,5.285-4.473l-.949-1.889c-6.744,0-13.5.188-20.228-.073-3.745-.145-8.887-.163-9.258-4.83-.373-4.7,4.711-5.949,8.456-7.122,8.937-2.8,16.023-.416,21.861,6.634.971,1.173,2.941,2.346,4.332,2.221,21.994-1.976,43.61-5.7,63.592-15.729a59.12,59.12,0,0,0,11.179-7.48c10.112-8.433,14.451-19.341,10.766-32.109-2.546-8.826-6.814-17.156-10.565-26.323l-9.987,6.143c-26.409,16.241-52.98,32.276-81.963,43.55-10.442,4.061-21.58,7.33-32.664,8.546-25.5,2.8-44.359-12.333-50.68-38.766-3.374-14.105-3.725-28.432-2.8-42.743,2.74-42.375,10.212-83.9,23.617-124.258a122.34,122.34,0,0,1,28.617-47.468c5.816-6,8.991-14.589,13.161-22.116.622-1.122.126-2.867.13-4.324,0-1.135-.5-2.633.042-3.35,6.333-8.376,4.951-18.689,7.19-28.071,3.973-16.646,6.43-33.777,11.834-49.931,9.545-28.532,28.491-40.315,58.5-38.359a119.175,119.175,0,0,1,48.619,13.968,57.908,57.908,0,0,1,24.3,23.759c1.2,2.192,2.517,4.316,3.705,6.513,2.156,3.986,4.575,6.547,9.891,4.687,2.151-.752,5.1,1.021,7.716,1.253a9.822,9.822,0,0,0,4.523-.885c20.758-8.925,40.547-7.849,59.114,5.671a50.486,50.486,0,0,1,17.875,24.792c10.267,29.5,26.961,55.214,45.463,80.03,17.059,22.881,30.308,47.763,37.47,75.636,9.088,35.365,8.029,70.537-1.251,105.692-1.292,4.895-1.518,10.121-1.795,15.218-.288,5.315.267,10.686-.192,15.977-.161,1.862-2.23,3.56-3.428,5.332-1.509-1.553-3.526-2.871-4.383-4.725-.85-1.838-.543-4.214-.712-6.357a2.021,2.021,0,0,1,.193-.974c7.542-15.916,4.71-32.614,3.517-49.124-1.716-23.77-3.957-47.528-12.109-70.148a134.64,134.64,0,0,0-10.764-22.432c-5.8-9.853-14.767-16.176-25.7-19.451-6.492-1.944-13.119-3.436-18.611-4.854-2.655,2.9-4.19,5.744-6.563,6.976-14.912,7.74-19.929,20.96-20.1,36.473-.242,21.814.608,43.644.205,65.453-.4,21.614-.983,43.283-2.976,64.789-1.491,16.08-8.19,30.5-21.971,42.018,7.857,1.1,14.646,2.089,21.445,3,32.363,4.322,64.744,8.342,97.466,8.827,32.285.48,64.148-3.431,95.909-8.622A9.762,9.762,0,0,0,1270,715ZM831.39,445.388a32.488,32.488,0,0,1-3.176,4.542c-11.378,11.562-18.33,25.687-23.492,40.779-12.022,35.145-18.789,71.428-22.6,108.277-1.9,18.41-2.71,36.88.865,55.261,4.362,22.425,16.732,36.133,36.328,39.367,11.968,1.975,23.536-.592,34.832-4.469,23.765-8.157,45.6-20.314,67.241-32.807,10.92-6.3,21.617-13,32.88-19.794-6.665-10.157-12.958-19.746-19.249-29.336-9.968-15.194-19.78-30.483-25.461-47.942-5.834-17.929-7.909-36.064-2.41-54.5,6.328-21.211,24.088-31.657,45.629-26.855a55.793,55.793,0,0,1,30.062,17.543l24.36-8.151c-20.911-21.733-27.781-49.029-29.483-79.466-1.062,1.929-1.508,2.752-1.965,3.569-9.81,17.544-20.63,34.315-37.073,46.543-16.368,12.172-31.943,12.583-48.276.448-11.21-8.329-21.7-17.63-32.425-26.607-3.793-3.176-7.314-6.678-11.173-10.228-2.766,5.636-5.317,10.837-7.45,15.183,5.147,1.957,10.48,2.916,14.542,5.716,16.287,11.231,32.311,22.859,48.162,34.7,7.15,5.342,7.768,11.557,4.342,22.209-1.609,5-4.488,5.868-8.744,2.7-5.2-3.869-10.145-8.1-15.059-12.335C865.844,475.3,849.152,460.782,831.39,445.388ZM955.163,634.61a12.5,12.5,0,0,0,2.352-.493c27.232-17.769,54.1-36.042,76.914-59.489,8.992-9.239,16.846-19.387,21.295-31.713,6.577-18.216.758-36.916-14.428-46.754-14.4-9.327-42.205-8.05-55.073,1.888,0,4.4.58,8.239-.145,11.811-.936,4.612-4.7,6.767-7.934,5.5-3.5-1.367-5.28-5.654-3.411-9.7,1.359-2.944,3.6-5.482,5.694-8.572-5.725-7.116-13.48-11.748-22.219-14.846-23.942-8.487-43.631,2.2-49.386,26.932-5.1,21.93-1.44,43.126,8.865,62.5C929.15,593.229,942.609,613.719,955.163,634.61Zm-67.969-243.9c-12.062,6.577-24.221,13.045-36.2,19.834a6.287,6.287,0,0,0-.888,10.146c13.971,12.085,27.927,24.2,42.256,35.853,6.4,5.2,13.967,8.456,22.625,7.908,10.876-.689,19.659-5.943,27.47-12.97,14.462-13.01,24.878-29.029,33.287-46.381a25.373,25.373,0,0,0,2.23-10.486c.077-6.809-.765-13.623-.842-20.44-.038-3.336,1.318-6.633,5.356-6.512,3.776.113,5.037,3.415,4.737,6.488a145.647,145.647,0,0,1-2.8,16.614c-.871,4.024-3.078,7.883-3.317,11.9-.836,14.049.036,28.138,5.074,41.356a220.957,220.957,0,0,0,15.182,32.4c5.7,9.805,12.927,12.323,23.473,8.247a133.718,133.718,0,0,0,25.718-13.894c8.386-5.61,10.316-14.522,7.934-23.99a64.572,64.572,0,0,0-5.87-14.752c-5.276-9.761-13.575-16.825-22.659-22.845-9.987-6.62-20.539-12.408-30.36-19.254-11.448-7.98-11.53-22.25-.7-30.891,2.69-2.145,5.568-4.054,8.36-6.071l-.211-1.238c-3.074,0-6.567-.964-9.155.158-16.055,6.959-32.61,7.478-49.488,4.676-7.87-1.306-14.245.58-19.813,6.587-2.423,2.615-6.352,5.451-9.558,5.407-8.167-.113-11.672,4.244-14.018,10.928a30.608,30.608,0,0,1-2.618,4.7l-1.258-.572a37.252,37.252,0,0,0,.968-4.082c.68-5.419,1.764-10.851,1.75-16.275-.013-5.183-3.019-6.314-7.277-3.375-7.675,5.3-10.554,18.094-6.055,26.911,7.008-1.249,8.548-.895,9.4,2.161,1.109,3.989-.531,10.928-3.117,11.321C890.5,401.232,890.727,394.931,887.194,390.708Zm111.644-42.684c-2.6-4.41-5.089-8.527-7.482-12.7a54.633,54.633,0,0,0-21.437-21.087,112.372,112.372,0,0,0-49.459-14.25c-29.482-1.329-45.483,9.327-55.6,36.975-8.22,22.473-10.4,46.247-14.75,70.409,1.978-.974,3.265-1.571,4.518-2.232,8.537-4.5,16.9-9.389,25.665-13.383,5.044-2.3,7.932-4.519,5.863-10.542-.768-2.234-.323-4.968-.1-7.443a21.233,21.233,0,0,1,8.578-15.729c6.287-4.7,11.15-2.578,12.175,5.242.244,1.859.253,3.748.362,5.492,2.726-.947,5.114-2.581,7.358-2.4,6.252.5,10.42-2.55,14.167-6.833,4.181-4.781,9.561-6.4,15.714-5.9,3.649.3,7.32.48,10.93,1.042A71.024,71.024,0,0,0,998.838,348.024Zm-164.8,96.656c2.3,1.781,4.331,3.206,6.2,4.819q23.205,20.043,46.369,40.132c4.026,3.473,8.159,6.824,12.306,10.152,1.745,1.4,3.424,1.965,4.816-.7,3.522-6.742,2.566-15.211-3.479-19.913-13.624-10.6-27.539-20.83-41.539-30.931a62.171,62.171,0,0,0-12.34-6.425C842.545,440.2,838.589,440.189,834.037,444.68ZM1044.246,714.1c-4.446-.577-8.878-1.412-13.343-1.68-10.942-.655-21.9-1.226-32.854-1.438-3.307-.064-7.6,1.166-7.273,5.162.215,2.651,3.348,5.191,5.482,7.5.784.847,2.427,1.094,3.721,1.245C1015.95,726.755,1030.4,721.9,1044.246,714.1Zm-195.882,4.229c9.125,3.824,17.691,2.376,26.839,2.519C869.321,711.47,858.014,710.305,848.364,718.332Zm134.5-348.623c-3.648,3.723-4,14.315-1.093,20.891C983.471,383.631,986.824,377.261,982.865,369.709Zm1.029,131.312-3.049-.808a84.626,84.626,0,0,0-3.832,9.315c-.24.813,1.317,2.9,2.337,3.129,1,.227,3.206-.974,3.412-1.882A80.076,80.076,0,0,0,983.894,501.021ZM1175.01,656.214l-2.431-.039c-.612,4.361-1.357,8.711-1.727,13.093-.076.9,1.25,1.922,1.93,2.888.743-.913,2.077-1.794,2.127-2.743C1175.138,665.024,1175.01,660.615,1175.01,656.214ZM894.671,397.875l1.979-.3c.2-2.851.4-5.7.647-9.175l-6.98,1.524Zm183.258,79.783-.5.584,10.978,10.864.628-.631Z" transform="translate(-630 -297.004)"/>
</svg>
