<svg xmlns="http://www.w3.org/2000/svg" viewBox="0 0 526.983 718.13">
  <title>lineart2</title>
  <g>
    <path d="M694.154,575.167c-2.141-4.887-3.968-9.93-6.482-14.632-7.037-13.164-14.057-26.355-21.725-39.179-2.769-4.631-7.156-8.452-11.222-12.224-1.486-1.379-4.153-2.074-6.327-2.177-10.146-.478-20.307-.735-30.465-.867-4-.051-8.006.425-12.008.68-.468.03-.924.239-1.391.262-3.922.192-8.289.779-10.309-3.41-1.981-4.11.012-7.854,3-10.891a66.994,66.994,0,0,1,6.4-5.123c-1.286-1.35-2.655-2.58-3.769-4-2.4-3.053-2.411-5.808,1.024-7.551,6.763-3.431,7.17-8.231,4.872-14.309a13.8,13.8,0,0,1-.585-5.062c.081-4.174,3.091-5.871,6.678-3.447,2.948,1.991,5.354,4.728,8.039,7.17.354-2.559.352-5.412,1.233-7.983.679-1.978,2.219-4.757,3.83-5.081,1.895-.381,4.859.979,6.345,2.5,4.908,5.034,5.941,11.736,7.37,18.213,1.4,6.35,2.593,12.762,4.413,19,2.408,8.26,7.78,14.83,14.326,20.434,8.742,7.484,14.627,16.863,20.327,26.539,16.883,28.658,26.9,59.714,35.462,91.374,5.879,21.752,13.056,43.123,22.805,63.609a11.8,11.8,0,0,0,2.583,3.777c.046-.829.106-1.658.135-2.487.5-14.6,1.027-29.188,1.446-43.784a18.668,18.668,0,0,0-.763-5.689c-8.834-30.186-18.058-60.27-26.528-90.55-8.633-30.861-12.307-62.487-14.072-94.352a37.964,37.964,0,0,0-2.445-10.106c-4.188-12.04-12.119-22.122-18.766-32.879-4.175-6.756-8.378-13.514-12.114-20.5a23.176,23.176,0,0,1-2.526-9.484,7.529,7.529,0,0,1,2.81-5.61c2.2-1.59,5.137-.5,6.567,1.6,3.157,4.628,6.59,9.28,8.595,14.4,5.555,14.183,10.433,28.613,15.589,42.942a6.3,6.3,0,0,0,1.994,3.009c0-1.956-.056-3.914.008-5.868.637-19.268.973-38.552,2.075-57.8.579-10.115,2.738-20.137,3.723-30.243.448-4.6.783-9.587-.572-13.889-4.116-13.075-8.537-26.119-13.922-38.745-3.156-7.4-8.375-13.979-12.667-20.928-.605-.98-1.276-1.927-1.813-2.94-1.382-2.606-2.056-5.7.278-7.634a11.8,11.8,0,0,1,7.541-2.475c3.282.206,6.469,1.826,9.912,2.9.3-2.639.479-5.43.964-8.17,1.23-6.955,5.976-9.089,11.964-5.052,5.412,3.649,10.482,7.782,15.6,11.826,3.06,2.42,4.82,2.429,7.233-.7,1.617-2.1,2.825-4.492,4.441-6.593,1.463-1.9,3.086-4.145,6.062-3.121,3.037,1.045,3.45,3.846,2.954,6.31-.987,4.9-2.493,9.7-3.783,14.545-.111.417-.206.837-.391,1.591,3.14-.417,6.025-.855,8.926-1.16a14.585,14.585,0,0,1,4.219-.006c2.835.547,3.968,2.554,2.263,4.753-2.6,3.349-5.336,6.84-8.762,9.306-15.9,11.446-25.75,27.262-33.993,44.017-2.687,5.462-2.842,12.153-3.779,18.334-5.222,34.45-6.107,69.129-4.9,103.839,1.105,31.759,4.615,63.319,13.16,94.112,8.13,29.3,16.869,58.443,25.346,87.653.125.429.332.834.7,1.732a15.871,15.871,0,0,0,.786-2.38c3.373-24.309,10.44-47.738,18.275-70.972a16.45,16.45,0,0,0-.5-12.666c-7-14.966-13.61-30.124-23.081-43.89a27.262,27.262,0,0,1-3.546-7.032,4.843,4.843,0,0,1,.953-4.239c.632-.611,3.221-.307,4.108.468,3.809,3.335,8.058,6.531,10.788,10.621,8.664,12.983,13.114,27.469,14.536,42.828.06.64.16,1.277.342,2.712.667-1.214,1.006-1.737,1.255-2.3,10.257-23.046,20.192-46.233,30.926-69.07a32.362,32.362,0,0,0,1.914-23.888c-4.469-15.23-9.394-30.336-14.085-45.506-2.43-7.857-4.848-15.72-7.077-23.632a12.23,12.23,0,0,1-.08-5.413c.737-3.9,3.747-5.137,6.606-2.345a45.589,45.589,0,0,1,8.521,10.769A94.006,94.006,0,0,1,802.5,427.072c.724,10.45.613,20.954.87,31.435a2.871,2.871,0,0,0,.641,2.044c.911-2.036,1.836-4.066,2.729-6.109,5.957-13.63,12.92-26.711,23.46-37.638a45.947,45.947,0,0,1,10.162-7.811c1.653-.947,4.707-.734,6.5.142.877.427.821,3.7.339,5.474-2.323,8.523-7.547,15.341-13.985,21.449-5.817,5.52-11.548,11.136-17.1,16.905a88.709,88.709,0,0,0-19.075,29.363c-4.048,10.336-8.893,20.382-13.384,30.557-.31.7-.6,1.414-.971,2.3,11.766-9.4,23.165-18.731,34.842-27.726,4.5-3.463,9.576-6.238,14.5-9.151.908-.537,2.884-.724,3.415-.191a3.816,3.816,0,0,1,.435,3.418,24.039,24.039,0,0,1-3.018,5.371c-6.929,9.706-16.986,15.711-27.409,21.214-9.447,4.987-19.1,9.652-26.422,17.591A12.773,12.773,0,0,0,776.572,529c-14.1,32.275-24.837,65.521-30.809,100.127a3.1,3.1,0,0,0,.467,2.385c1.7-2.431,3.478-4.818,5.1-7.3,11.477-17.546,24.652-33.735,40.725-47.621.615-.531,1.211-1.278,1.937-1.452,1.393-.332,3.286-.9,4.2-.3a4.08,4.08,0,0,1,1.156,3.839c-1.774,4.436-3.444,9.058-6.15,12.969-7.76,11.216-18.3,19.927-28.959,28.478-5.634,4.52-11.277,9.036-16.747,13.737-4.006,3.443-4.3,7.848-2.659,12.532,5.032,14.367,10.023,28.747,15.09,43.1a283.456,283.456,0,0,1,11.9,45.4,8.7,8.7,0,0,0,3.8,5.79c11.361,8.566,22.141,17.906,33.91,25.9,24.364,16.542,51.623,25.308,81.541,26.4,32.129,1.171,61.708-7.692,90.071-21.065,10.379-4.894,20.109-11.066,30.16-16.615,2-1.107,4.12-2.029,6.184-3.037l.577.693a24.1,24.1,0,0,1-2.976,2.927c-29.453,20.55-62.048,34.182-98.04,39.06-37.509,5.083-72.469-3.041-104.385-22.61-7.236-4.437-13.539-10.3-20.247-15.527-6.045-4.716-12.058-9.471-18.783-13.745.926,5.083,1.841,10.167,2.778,15.248,4.586,24.852,7,49.944,9.543,75.05,3.73,36.81.553,73.159-5.984,109.375-1.154,6.392-3.059,12.659-4.661,18.973a4.822,4.822,0,0,1-1.885,2.863c1.136-6.956,2.292-13.909,3.4-20.868,4.671-29.243,8.684-58.575,7.128-88.244a795.893,795.893,0,0,0-11.827-102c-1.463-7.981-4.014-14.454-10.279-20.665-17.5-17.348-28.858-38.711-36.9-61.411-7.983-22.531-14.488-45.55-21.654-68.352-1.68-5.348-3.518-10.652-5.079-16.032a13.32,13.32,0,0,0-7.706-8.884c-8.927-3.912-18-7.508-26.935-11.408-6.135-2.678-12.181-5.558-18.163-8.542a18.751,18.751,0,0,1-5.278-3.938c-1.052-1.134-1.375-2.9-2.022-4.381,1.568-.593,3.161-1.734,4.7-1.666a42.047,42.047,0,0,1,10.1,1.485,87.384,87.384,0,0,1,36.977,22.1c1.229,1.219,2.424,2.47,3.634,3.706Zm14.768-255.22.88.106c3.345-11.5,10.593-21.043,16.5-31.268,5.645-9.778,10.66-19.857,12.724-31.014a28.519,28.519,0,0,0,.043-5.115l-1.466-.422c-1.606,2.273-3.375,4.455-4.782,6.837-2.806,4.751-6.837,7.051-12.552,6.629a37.58,37.58,0,0,0-6.374.016c-5.63.547-8.333,3.1-8.509,8.583-.112,3.5.585,7.02.858,10.536Q707.6,302.39,708.922,319.947Zm58,414.755.965-.7c-.862-11.439-20.252-74.477-25.074-81.026-.154,2.013-.345,3.694-.4,5.38-.271,8.433.026,16.922-.882,25.29-1.339,12.339,2.3,22.853,10.256,32.325C756.953,722.123,761.888,728.453,766.925,734.7ZM648.6,504.919a19.515,19.515,0,0,0-1.719-2.39c-9.263-8.56-15.127-19.483-22.2-29.571-3.506-5-7.207-9.881-11.045-14.647-1.161-1.442-3.081-2.314-4.653-3.448l-1.137.767c.625,3.072,1.178,6.161,1.889,9.215,1.367,5.872.1,8.755-5.254,11.6a23.4,23.4,0,0,0-2.133,1.217c-2.014,1.362-2.554,3.149-.712,4.849,2.374,2.19,4.767,4.59,7.624,6.023,8.584,4.306,17.328,8.337,26.155,12.163C639.342,502.4,643.613,503.351,648.6,504.919Zm57.309-177.841.7-.124a15.835,15.835,0,0,0,.172-2.524c-1.2-13.751-2.488-27.494-3.642-41.248-.514-6.134-1.332-12.157-7.485-15.6a89.023,89.023,0,0,0-12.932-5.978c-1.323-.481-3.952.416-4.891,1.534-.771.918-.014,3.114.252,4.715a4.683,4.683,0,0,0,1.106,1.733,138.386,138.386,0,0,1,23.289,47.3C703.447,320.336,704.761,323.686,705.913,327.078Zm95.508,124.886c-.41-14.79-1.139-29-4.944-42.867-2.392-8.72-5.191-17.322-10.87-24.688a52.735,52.735,0,0,0-4.9-4.916l-1.25.585c.283,2.766.117,5.662.931,8.273,2.75,8.826,5.891,17.537,8.8,26.318C793.239,426.886,797.214,439.126,801.421,451.964Zm44.2-42.037c-2.223.667-3.911.81-5.128,1.615a43.867,43.867,0,0,0-7.1,5.581C822.664,428,815.441,441,809.447,454.706c-.088.2.092.513.11.6,8.068-7.994,16.087-16,24.179-23.935a47.832,47.832,0,0,0,11.1-17.66A29.748,29.748,0,0,0,845.624,409.927ZM638.549,505.088c-10.341-5.08-20.908-10.285-31.5-15.431a2.281,2.281,0,0,0-1.9.113,42.191,42.191,0,0,0-6.123,4.626c-2.269,2.27-4.118,5.22-2.543,8.337,1.5,2.974,4.892,2.035,7.68,1.98,6.585-.13,13.173-.383,19.757-.329C628.985,504.426,634.05,504.859,638.549,505.088Zm158.869,72.557-1.465-.777c-16.3,13.2-29.234,29.156-40.431,46.541,13.542-10.506,27.09-21.01,36.774-35.181C794.494,585.012,795.736,581.189,797.418,577.645ZM642.657,494.8l.9-.677c-4.478-7.568-6.393-15.872-7.938-24.323a99.187,99.187,0,0,0-3.489-13.927c-.763-2.258-2.55-4.3-4.238-6.127-1.355-1.465-3.363-1.209-3.952.741-1.725,5.707-4.141,11.413.477,17.147,3.108,3.859,5.635,8.156,8.387,12.279C636.106,484.862,639.373,489.836,642.657,494.8Zm47.427-66.388.792-.318c-4.913-13.032-9.7-26.113-14.839-39.061-1.152-2.9-3.395-5.464-5.477-7.913-.82-.963-2.576-1.185-3.9-1.745-.532,1.387-1.731,2.91-1.466,4.137.716,3.308,1.527,6.783,3.241,9.673C675.457,405.032,682.835,416.686,690.084,428.411Zm30.88-165.763c-3.543-2.9-6.082-5.115-8.773-7.143a74.593,74.593,0,0,0-7.808-5.322c-4.442-2.537-7.314-1.288-8.151,3.543a50.619,50.619,0,0,0-.52,8.171,3.985,3.985,0,0,0,.983,2.762c2.043,1.838,4.319,3.434,6.464,5.093C705.569,262.161,712.83,262.455,720.964,262.648ZM687.177,572.806c-10.946-10.76-23.8-18.411-39.174-21.74a51.884,51.884,0,0,0-7.1-.572l-.449,1.472C654.889,561.115,671.276,566.392,687.177,572.806Zm64.1-298.3-.633-1.171c-4.455.7-9.1.906-13.276,2.349-1.725.6-2.477,3.845-3.645,5.9-.567,1-1.02,2.06-1.614,3.042-5,8.264-10.081,16.478-14.984,24.793-1.58,2.68-2.7,5.615-4.024,8.434a9.49,9.49,0,0,0,2.8-3.207c4.53-6.506,8.571-13.421,13.806-19.352,5.173-5.861,11.6-10.682,17.4-16.041A58.323,58.323,0,0,0,751.278,274.5ZM834.351,480c-6.014,2.555-40.088,28.827-42.711,32.719C807.508,503.98,824.567,497.225,834.351,480Zm-98.912,14.96c.069,1.418-.06,1.923.132,2.257q12.111,21.124,24.257,42.188C755.706,522.994,751.1,506.754,735.439,494.964Z" transform="translate(-593.43 -246.447)"/>
    <path d="M868.777,572.538c2.389,3.833,2.088,4.628-2.166,6.177a17.666,17.666,0,0,1-19.3-4.94c-8.9-10.156-6.8-21.707,4.547-30.128-1.273,2.351-2.525,4.713-3.825,7.05-4.5,8.084-3.63,15.9,2.425,21.662,4.155,3.953,10.394,5.188,15.285,3.026-2.1-4.27-1.154-6.083,4.012-5.84a63.657,63.657,0,0,1,13.432,2.475c4.42,1.2,8.591,3.235,13,4.473,7.29,2.046,13.887.553,20.007-3.918,6.1-4.455,12.814-7.8,20.764-7.922a25.434,25.434,0,0,1,3.185.106c4.688.522,6.168,2.157,6.037,6.581,10.268-3.377,14.126-13.043,8.706-22.619a69.255,69.255,0,0,0-7.383-10.015c-9.638-11.525-18.809-23.412-22.055-38.2a190.639,190.639,0,0,1-3.84-28.447c-2.089-32.217.2-64.317,3.9-96.327.956-8.26,2.923-16.407,4.3-24.626,1.265-7.527,5.686-12.544,12.732-15.69,25.011-11.165,50.366-21.457,76.822-29.091,10.557-3.047,20.834-2.114,31.022,1.162,14.461,4.648,27.491,11.823,38.2,22.307,8.523,8.341,16.373,17.324,24.451,26.084.583.632.579,1.768.848,2.67-1.105-.067-2.347.16-3.295-.248-7.336-3.165-14.745-6.209-21.886-9.75-16.355-8.111-33.342-10.033-51.33-6.44-21.933,4.381-43.626,9.384-64.009,18.631-4.167,1.891-8.22,4.018-12.309,6.066-7.676,3.845-11.141,10.039-11.5,18.3-.33,7.644,1.5,14.873,3.285,22.3,2.5-2.26,4.89-4.209,7.027-6.389,22.684-23.143,50.866-32.907,83.414-31.518a118.226,118.226,0,0,1,39.207,8.794c11.658,4.688,23.043,10.156,35.665,12.253a14.725,14.725,0,0,1,2.243,1.019,55.5,55.5,0,0,1-6.194,3.261c-12.383,4.527-25.106,4.183-37.759,1.626-9.941-2.009-19.65-5.077-29.579-7.151-23.194-4.845-45.179-2.086-65.232,10.833a52.294,52.294,0,0,0-20.284,24.428c2.69-.352,4.884-.673,7.086-.922a55.106,55.106,0,0,1,25.1,3.147c18.281,6.577,36.128,5.791,53.625-2.6,3.809-1.825,7.716-3.464,11.619-5.1a11.814,11.814,0,0,1,5.577-1.013,15.264,15.264,0,0,1-3.02,2.635c-10.945,5.357-21.672,11.164-34.185,12.78a72.574,72.574,0,0,1-33.846-3.676c-10.832-3.8-21.8-4.977-33.075-1.994a7.832,7.832,0,0,1-2.338-.116,13.887,13.887,0,0,1,.429-3.18c6.9-18.159,20.965-29.077,39.155-35.65,17.907-6.47,36.1-6.238,54.438-1.753,12.7,3.106,25.12,7.7,38.413,7.822,6.214.057,12.44-.911,18.655-1.478a13.178,13.178,0,0,0,2.756-1.051c-18.923-5.033-35.4-14.944-54.417-18.045-36.546-5.959-68.47,2.316-94.862,28.088-3.22,3.143-6.289,6.43-9.509,9.734-.98-.837-1.516-1.066-1.618-1.413-2.955-10.129-5.606-20.285-3.672-30.971,1.058-5.845,3.87-10.774,9.225-13.562,8.608-4.483,17.406-8.691,26.385-12.43,20.457-8.518,42.134-12.748,64.044-15.87,12.99-1.85,25.442.6,37.364,5.7,6.782,2.9,13.509,5.919,20.26,8.884l.636-.726c-4.462-4.841-8.71-9.887-13.43-14.482a122.187,122.187,0,0,0-33.752-23.482c-16.722-7.82-33.218-7.647-50.092-1.113-20.292,7.858-40.566,15.761-60.928,23.449-9.037,3.412-13.4,9.384-15.17,18.731-6.477,34.184-7.974,68.684-7.924,103.275.017,11.709,1.339,23.475,2.913,35.108,2.089,15.428,10.427,28.172,20.271,40.108,3.528,4.279,7.434,8.426,10.081,13.2,8,14.409.918,23.97-13.421,29.813-.737.3-1.781-.1-2.682-.169a20.906,20.906,0,0,1,.34-2.523c.454-1.766,1-3.509,1.513-5.261-2.155-.359-4.336-1.127-6.46-1-7.1.417-13.227,3.487-18.673,7.629-8.685,6.606-17.972,6.705-27.776,3.092-2.759-1.017-5.473-2.148-8.216-3.209C877.917,573.3,873.6,571.9,868.777,572.538Z" transform="translate(-593.43 -246.447)"/>
    <path d="M867.735,703.484c51.394,14.556,94.011-.591,131.191-36.128-3.762-.4-7.187-.659-10.58-1.13-19.771-2.746-39.361-2.258-58.777,2.634-19.67,4.957-39.336,4.16-59.007-.235-13.977-3.123-28.1-5.179-42.531-4.527a23.214,23.214,0,0,1-4.362-.62q-.1-.693-.193-1.386c2.082-.46,4.142-1.1,6.251-1.347,8.67-1.033,17.369-1.842,26.03-2.931,12.525-1.575,24.982-3.8,37.548-4.878,18.185-1.557,36,2.086,53.945,4.4,16.8,2.163,33.8,2.847,50.719,4.182l.415-1.387c-3.307-2.642-6.676-5.217-9.911-7.939-12.331-10.375-25.185-19.963-40.148-26.694-12.832-5.771-25.762-8.668-39.816-4.181-3.219,1.028-7.6,1.162-10.61-.118-14.5-6.161-27.115-1.882-39.077,5.851-11.774,7.61-23.613,15.242-32.467,26.258a2.276,2.276,0,0,1-1.878.82,19,19,0,0,1,2.1-3.876c3.439-3.881,6.647-8.087,10.671-11.327,9.8-7.9,20.01-15.255,31.873-20.269,8.211-3.47,16.387-4.494,24.763-1.29a25.781,25.781,0,0,0,17.863.512c11.3-3.58,22.306-1.025,32.822,3.252,21.947,8.926,39.8,23.473,56.694,39.251a13.524,13.524,0,0,1,1.376,1.562c.12.153.077.424.159.989l-4.207,1.39,5.292,1.356c-2.278,2.686-3.809,5.164-5.969,6.923-12.093,9.848-23.7,20.469-38.164,27.1-25.049,11.474-51.279,15.487-78.718,10.174C874.293,708.56,869.98,706.411,867.735,703.484Zm83.312-42.021c-32.48-7.032-65.156-8.438-97.851.315,7.365,1.618,14.776,2.9,22.14,4.4,14.94,3.035,29.9,4.181,45.012,1.187C930.618,665.331,940.911,663.408,951.047,661.463Z" transform="translate(-593.43 -246.447)"/>
    <path d="M860.834,701.03c-3.282.157-5.124-2.031-6.953-4.239l.57-.945,7.112,3.98Z" transform="translate(-593.43 -246.447)"/>
    <path d="M1028.958,746.25c-1.925,2.355-3.805,4.772-7.239,5.057l-.714-.988,7.269-4.866Z" transform="translate(-593.43 -246.447)"/>
    <path d="M1033.032,741.338l5.718-4.193.888,1.072-5.5,4.371Z" transform="translate(-593.43 -246.447)"/>
    <path d="M1078.508,406.458l-5.058,3.613-.829-1c.9-2.175,3.023-2.923,5.234-3.568Z" transform="translate(-593.43 -246.447)"/>
  </g>
</svg>
