<svg xmlns="http://www.w3.org/2000/svg" viewBox="0 0 587.613 20.94">
  <defs>
    <style>
      .a {
        fill: #030303;
      }

      .b {
        fill: #121212;
      }

      .c {
        fill: #fafafa;
      }

      .d {
        fill: #171717;
      }
    </style>
  </defs>
  <title>line1</title>
  <g>
    <path class="a" d="M893.016,295.776c-41.155,2.78-81.7,1.013-121.882-1.391-57.874-3.463-113.7-9.012-172.187-11.887-68.923-3.388-136.912-3.994-202.163,4.392a67.851,67.851,0,0,1-7.59-.065c7.888-2.514,15.859-3.887,36.046-5.934,62.79-6.367,126.523-4.99,190.51-1.554,44.434,2.387,86.82,6.663,130.5,9.763,41.726,2.962,83.578,5.211,127.042,4.671C881.423,293.375,890.6,292.271,893.016,295.776Z" transform="translate(-389.194 -276.253)"/>
    <path class="b" d="M893.016,295.776c-4-2.424-12.7-1.644-19.728-2,19.492-1.8,41.842-1.66,57.777-5.886,10.872-1.843,14.654-6.135,30.752-6.177,2,.574,2.671,1.262,2.534,2.023-1.2,1.585-4.207,2.737-10.614,3.073C936.2,291.063,918.143,295.08,893.016,295.776Z" transform="translate(-389.194 -276.253)"/>
    <path class="c" d="M961.021,281.576c-10.848,1.819-16.019,5.508-29.956,6.309-11.221-4.979,16.363-6.345,11.771-11.108,7.19,1.556.693,3.007,5.834,4.293,3.177-3.368,12.869-4.922,24.135-4.811,3.276.032,7.19,3-.266,4.575C967.778,280.088,965.392,281.9,961.021,281.576Z" transform="translate(-389.194 -276.253)"/>
    <path class="c" d="M953.737,286.8l8.219-2.578c2.447-.774-.958-2.74,7.015-2.387C971.25,286.581,968.963,287.327,953.737,286.8Z" transform="translate(-389.194 -276.253)"/>
    <path class="d" d="M968.971,281.839l-7.015,2.387q-.468-1.324-.935-2.65c6.327-2.293,7.656-2.379,11.518-.742Z" transform="translate(-389.194 -276.253)"/>
    <path class="c" d="M840.406,291.59c-2.209.085-4.414.225-6.63.238-1.667.01-3.347-.145-6.5-.3A34.944,34.944,0,0,1,840.406,291.59Z" transform="translate(-389.194 -276.253)"/>
  </g>
</svg>
