<svg xmlns="http://www.w3.org/2000/svg" viewBox="0 0 213.676 565.297">
  <title>lineart4</title>
  <g>
    <path d="M954.562,585.114c-8.362,2.095-16.141-.986-24.129-2.25-25.833-4.085-50.731-10.89-74.758-21.932,3.918,27.61-.77,54.531.351,81.451.077,1.837.266,3.821-1.373,5.348q-.686.963-1.5.092c-.5-17.968.757-35.9,1.329-53.843.368-11.547.558-23.12-1.524-34.592.519-.605.7-1.5,1.737-1.659,30.765,14.873,63.943,22.165,98.213,26.025C953.541,584.121,954.429,584.234,954.562,585.114Z" transform="translate(-757.491 -220.605)" style="fill: #878787"/>
    <path d="M813.8,609.258c7.673,20.256,15.242,40.531,19.519,61.692,2.348,11.618.3,23.058-1.058,34.546q-.7,5.965-1.424,11.931c-4.226-1.867-1.476-4.935-1.553-7.516,2.727-19.982,3.605-39.768-3.824-59.313-5.148-13.543-9.136-27.454-13.643-41.2A1.519,1.519,0,0,1,813.8,609.258Z" transform="translate(-757.491 -220.605)" style="fill: #616161"/>
    <path d="M765.3,680.489c8.485,25.411,23.519,47.864,38.1,70.54,6.174,9.6,11.989,19.4,17.781,29.2.876,1.481,2.734,3.015,1.229,5.672-9.5-14.991-18.715-29.711-28.122-44.328-9.859-15.321-19.141-30.9-26.52-47.37-1.96-4.375-3.8-8.829-4.133-13.638A1.181,1.181,0,0,1,765.3,680.489Z" transform="translate(-757.491 -220.605)" style="fill: #747474"/>
    <path d="M948.473,664.639c-2.137-19.982-11.212-37.629-22.249-54.573a198.67,198.67,0,0,1-13.927-24.48c12.928,11.9,35.914,56.916,37.747,73.148C949.983,660.805,952.263,663.4,948.473,664.639Z" transform="translate(-757.491 -220.605)" style="fill: #757575"/>
    <path d="M871.891,464.106c-.935,24.517,4.356,49.1-1.294,73.575,1.906-27.375-2.334-54.7-.289-82.079C874.651,457.845,871.759,461.21,871.891,464.106Z" transform="translate(-757.491 -220.605)" style="fill: #aaa"/>
    <path d="M907.373,757.289c4.859-17.5,13.254-33.685,22.691-49.414,4.59-7.651,9.928-14.927,13.756-22.962,1.426-.212,2.15.125,1.466,1.562-5.2,13.645-15.965,24.609-21.832,37.971-5.157,11.747-11.849,22.952-14.654,35.5C905.936,760.131,906.986,758.562,907.373,757.289Z" transform="translate(-757.491 -220.605)" style="fill: #7e7e7e"/>
    <path d="M789.558,573.911c-9.311,12.022-19.842,23.283-24.355,38.009-2.451,8-3.386,16.091-4.657,24.2-3.859-1.188-1.477-3.824-1.636-5.87,1.449-22.681,12.9-41.036,29.643-57.107Q789.512,573.03,789.558,573.911Z" transform="translate(-757.491 -220.605)" style="fill: #888"/>
    <path d="M863.552,727.336c3.965-10.64.5-20.248-4.934-29.583-4.985-8.57-5.4-17.9-5.473-27.292.529-.558,1.016-.559,1.456.089,1.477,1.835,1.448,4,1.459,6.1a47.211,47.211,0,0,0,6.664,23.637c5.21,9.068,7.293,18.52,2.425,28.383C863.712,729.127,863.113,728.749,863.552,727.336Z" transform="translate(-757.491 -220.605)" style="fill: #686868"/>
    <path d="M968.24,492.386c-.457,15.646-4.628,30.87-6.3,46.375-.684,6.352-1.04,12.734-1.545,19.1-3.614-.635-1.632-2.842-1.526-4.522-1.265-15.9,3.722-31.209,5.618-46.806.644-5.3-.254-10.818,2.093-15.932C967.626,490.815,967.731,491.757,968.24,492.386Z" transform="translate(-757.491 -220.605)" style="fill: #565656"/>
    <path d="M829.279,709.911c.751,2.465-.692,5.308,1.553,7.516,2.153,18.224,8.423,34.767,23.916,47.9C839.244,760.7,824.808,728.732,829.279,709.911Z" transform="translate(-757.491 -220.605)" style="fill: #747474"/>
    <path d="M793.261,529.6a11.137,11.137,0,0,0,5.691,6.955c.466,4.1,1.312,7.782,6.587,9.218,6.092,1.658,6.4,4.787,1.984,8.684-2.052,1.809-3.983,3.733-5.969,5.605a1.348,1.348,0,0,1-.183-2.157c1.3-1.452,2.542-2.947,3.9-4.346,2.514-2.581,3.793-4.686-1.451-5.77-4.358-.9-5.762-4.331-7.031-7.747a13.891,13.891,0,0,0-4.743-6.27c-1.764-5.123-7.062-9.646-3.2-15.722.887-1,.6-2.754,2.425-3.145a2.261,2.261,0,0,1,1.734,1.062C793.836,520.5,792.314,525.066,793.261,529.6Z" transform="translate(-757.491 -220.605)" style="fill: #707070"/>
    <path d="M812.121,554.579c-.959-4.032,3.633-9.364-4.088-12-1.833-.627.382-4.765,1.1-7.218.385-1.32,1.368-1.6,2.938-1.05,2.835,1,3.469,2.754,3.551,5.378a83.051,83.051,0,0,1-2,19.619C810.052,558.539,812.066,556.3,812.121,554.579Z" transform="translate(-757.491 -220.605)" style="fill: #5e5e5e"/>
    <path d="M758.91,630.249c.7,1.921-.257,4.226,1.636,5.87.586,10.1-.335,20.266,1.56,30.311a2.568,2.568,0,0,1-1.486,1.406C757.483,655.4,756.332,642.9,758.91,630.249Z" transform="translate(-757.491 -220.605)" style="fill: #a9a9a9"/>
    <path d="M830.22,503.62a87.745,87.745,0,0,0-10.712-21.088,2.352,2.352,0,0,1,3.438.1l.446-.22c3.412,10.827,11.676,19.777,14.348,30.89.485,1.46-.16,2.029-1.752,1.85Z" transform="translate(-757.491 -220.605)" style="fill: #434343"/>
    <path d="M859.209,674.07c6.882,1.288,13.08,4.136,20.019,5.13,6.8.975,13.645,1.208,20.391,2.13C885.11,683.716,871.529,681.491,859.209,674.07Z" transform="translate(-757.491 -220.605)" style="fill: #adadad"/>
    <path d="M958.869,553.341q.762,2.26,1.526,4.522l-.135,15.683c-1.6,3.981-.9,8.9-5.7,11.568l-1.659-1.36c4.456-3.444,4.187-8.3,4.663-12.942C958.163,565,956.689,559.056,958.869,553.341Z" transform="translate(-757.491 -220.605)" style="fill: #717171"/>
    <path d="M801.382,533.637c-.769-4.007.954-7.091,6.227-10.729,4.051-2.795,8.207-5.464,12.316-8.189q1.317.819.192,1.849c-1.714,4.467-1.389,9.843-6.859,13.331-.816-4.065,3.477-5.961,3.353-9.636C810,523.7,804.127,527.169,801.382,533.637Z" transform="translate(-757.491 -220.605)" style="fill: #707070"/>
    <path d="M820.117,516.568q-.1-.923-.191-1.847c-.893-3.313-3.231-2.916-5.714-1.764-2.641,1.226-5.206,2.59-7.8,3.895-1.4.575-1.939-.193-2.317-1.221.635-2.878,3.414-3.842,5.637-5.356,1.852-1.262,5.166-2.015,2.893-5.233a3.687,3.687,0,0,1-1.06-1.447c4.472-2.45,8.421-3.672,7.224,3.431-.419,2.483,1.223,3.175,2.805,4.209C821.7,513.152,822.264,515.172,820.117,516.568Z" transform="translate(-757.491 -220.605)" style="fill: #7d7d7d"/>
    <path d="M907.373,757.289l1.428,2.663q-1.346,12.2-2.69,24.4C904.116,775.165,904.189,766.134,907.373,757.289Z" transform="translate(-757.491 -220.605)" style="fill: #b8b8b8"/>
    <path d="M835.988,515.154l1.752-1.85q5.4,14.123,10.8,28.244l-2.233.717Q841.149,528.709,835.988,515.154Z" transform="translate(-757.491 -220.605)" style="fill: #666"/>
    <path d="M945.286,686.475l-1.466-1.562a50.458,50.458,0,0,0,4.652-20.274c1.82-1.681.86-3.977,1.572-5.9C953,668.63,950.321,677.721,945.286,686.475Z" transform="translate(-757.491 -220.605)" style="fill: #979797"/>
    <path d="M923.262,519.378c1.836-3.671,1.03-8.225,4.55-11.333,1.481-.512,2.573-2.064,4.494-1.4q-2.9,7.868-5.794,15.734a2.683,2.683,0,0,1-2.254.588C922.46,522.107,921.935,520.957,923.262,519.378Z" transform="translate(-757.491 -220.605)" style="fill: #a5a5a5"/>
    <path d="M881.283,543.506l21.334.021c2.286-.168,5.03-2.1,6.368,1.379-10.8,1.184-21.6,1.917-32.395-.051C877.164,541.536,879.555,543.483,881.283,543.506Z" transform="translate(-757.491 -220.605)" style="fill: #4e4e4e"/>
    <path d="M797.6,693.278l24.043-9.465q.4.861.8,1.723C815.109,690.09,806.521,692.039,797.6,693.278Z" transform="translate(-757.491 -220.605)" style="fill: #ababab"/>
    <path d="M969.8,462.426c.233,6.8.708,13.611-1.1,20.318-2.434-3.641.212-7.87-1.611-11.582q.015-9.108.029-18.213a7.559,7.559,0,0,0,.94-.863C970.794,455.229,967.977,459.154,969.8,462.426Z" transform="translate(-757.491 -220.605)" style="fill: #707070"/>
    <path d="M881.283,543.506c-1.543.513-3.475-.1-4.693,1.349-7.89-.832-15.457-2.69-22.413-6.855Z" transform="translate(-757.491 -220.605)" style="fill: #8a8a8a"/>
    <path d="M923.262,519.378a2.988,2.988,0,0,0,1.429,2.912c1.2,1.741,1.25,2.97-1.561,2.934q-3.226,6.9-6.46,13.792a2.475,2.475,0,0,1-.36.451l-1.156-1.481C917.472,531.644,918.654,524.89,923.262,519.378Z" transform="translate(-757.491 -220.605)" style="fill: #878787"/>
    <path d="M944.79,480.768c1.7-4.132,3.12-8.455,7.9-10.637.339-.155,1.67.557,1.678.885.126,4.67-4.394,7.07-6.445,10.7-.214.379-.755.6-1.145.9A2.279,2.279,0,0,1,944.79,480.768Z" transform="translate(-757.491 -220.605)" style="fill: #959595"/>
    <path d="M923.13,525.224c1.38-.6,1.521-1.743,1.561-2.933l1.82.084q-.205,9.274-.413,18.548a.973.973,0,0,1-1.666.012C921.841,535.847,923.872,530.439,923.13,525.224Z" transform="translate(-757.491 -220.605)" style="fill: #757575"/>
    <path d="M812.121,554.579c.38,1.607-.171,3.459,1.5,4.726-1.339,5.246-.39,10.812-2.68,15.925-.94-.139-1.031-.991-1.518-1.51C808.989,567.183,810.43,560.867,812.121,554.579Z" transform="translate(-757.491 -220.605)" style="fill: #6a6a6a"/>
    <path d="M924.432,540.935l1.666-.012c.313,2.645,2.17,4.011,4.629,5.156,1.348.628,4.038,1.451,2.375,3.436-1.481,1.769-3.466.07-4.634-.946-2.793-2.426-6.129-3.341-9.776-3.733-.03-2.677,1.791-1.611,3.225-1.327C924.236,543.855,924.519,542.546,924.432,540.935Z" transform="translate(-757.491 -220.605)" style="fill: #545454"/>
    <path d="M921.917,543.509l-3.225,1.327-9.707.07c-1.759-1.857-4.316-.648-6.368-1.379,3.452-2,7.522-.6,11.141-1.682C916.485,542.37,919.5,541.717,921.917,543.509Z" transform="translate(-757.491 -220.605)" style="fill: #7d7d7d"/>
    <path d="M801.371,557.9q.092,1.077.183,2.156-6,6.926-12,13.85a2.039,2.039,0,0,1-1-.766C791.646,567.237,796.775,562.758,801.371,557.9Z" transform="translate(-757.491 -220.605)" style="fill: #999"/>
    <path d="M809.42,573.72l1.518,1.51.162,24.034a1.032,1.032,0,0,1-1.536-.064A119.643,119.643,0,0,1,809.42,573.72Z" transform="translate(-757.491 -220.605)" style="fill: #383838"/>
    <path d="M944.79,480.767l1.991,1.85c-2.861,3.674-4.365,8.255-9.541,10.555Q941.016,486.969,944.79,480.767Z" transform="translate(-757.491 -220.605)" style="fill: #505050"/>
    <path d="M854.6,670.55a10.121,10.121,0,0,0-1.456-.089,120.736,120.736,0,0,1,0-22.638,5.93,5.93,0,0,0,1.5-.092Q854.626,659.14,854.6,670.55Z" transform="translate(-757.491 -220.605)" style="fill: #404040"/>
    <path d="M760.62,667.836l1.486-1.406q1.594,7.03,3.19,14.059l-1.666.077A30.906,30.906,0,0,1,760.62,667.836Z" transform="translate(-757.491 -220.605)" style="fill: #767676"/>
    <path d="M967.084,471.162c2.8,3.6.093,7.835,1.611,11.582q-.228,4.821-.455,9.642l-1.66-1.783Z" transform="translate(-757.491 -220.605)" style="fill: #3e3e3e"/>
    <path d="M854.69,557.729l-1.737,1.659c-1.789-4.053-4.472-7.85-4.89-13.318C852.868,549.5,852.188,554.354,854.69,557.729Z" transform="translate(-757.491 -220.605)" style="fill: #626262"/>
    <path d="M932.306,506.641c-1.681-.02-2.094,3.341-4.494,1.4-.242-3.282,3.316-4.205,4.209-7.5C935.163,503.424,933.024,505,932.306,506.641Z" transform="translate(-757.491 -220.605)" style="fill: #838383"/>
    <path d="M809.564,599.2a2.8,2.8,0,0,1,1.536.064c2.2,3.038,1.669,6.691,2.695,9.994l-1.983.14C810.529,606.1,809.035,602.834,809.564,599.2Z" transform="translate(-757.491 -220.605)" style="fill: #636363"/>
    <path d="M863.552,727.336l1.6,1.335c-1.2,2.99-1.966,6.21-6.057,8.8C860.2,733.32,861.341,730.158,863.552,727.336Z" transform="translate(-757.491 -220.605)" style="fill: #adadad"/>
    <path d="M826.262,241.551c3.814-6.4,9.727-10.98,16.1-15.058,16.572-10.608,32.479-6.723,39.992,10.368a43.389,43.389,0,0,0,10.862,14.8,68.6,68.6,0,0,1,19.2,31.035c.726,1.438.952,2.751-1.049,3.5-2.944-.881-3.242-3.4-4.1-5.565-4.195-10.516-10.068-20.069-19.212-27.959-1.334,2.1.285,5.3-3.065,6.439-3.633-1.7-2.464-5.041-3.2-7.727-5.6-9.272-16.233-8.79-25.443-10.437-7.247-1.295-14.149,1.439-20.636,4.482-2.465,1.156-4.685,3.03-7.822,2.221a2.7,2.7,0,0,1-.5-2.984c15.519-13.648,32.914-11.2,50.809-4.719-3.5-13.066-15.164-18.314-28.045-12.728-6.4,2.775-12.127,6.388-16.523,11.577-1.581,1.865-3.072,3.853-5.707,4.669C826.542,243.421,825.666,243.013,826.262,241.551Z" transform="translate(-757.491 -220.605)" style="fill: #444"/>
    <path d="M969.8,462.426c-2.474-3.18-.207-7.028-1.746-10.34.051-8.758.181-17.516.131-26.273-.058-10.209-5.885-16.463-16-20.451-12.527-4.94-26.36-4.851-38.986-9.186-5.561-1.908-11.352-3.336-16.21-6.671-3.52-2.416-5.905-5.356-5.718-9.7,7.919,13.154,22.647,14.108,36.058,17.05,10.314,2.263,20.9,3.631,30.305,8.46,7.7,3.953,12.082,9.759,13.008,18.117C972.091,436.5,970.117,449.432,969.8,462.426Z" transform="translate(-757.491 -220.605)" style="fill: #4a4a4a"/>
    <path d="M795.294,314.358c-3.174-10.182,1.275-18.9,6.448-27.428a20.621,20.621,0,0,1,4.465-5.731c8.229-6.456,13.135-14.339,13.627-24.343,1.687,1.308,2.145-2.626,3.965-.773,1.361,4.964,4.056,5.2,8.921,3.1,4.409-1.906,9.354-5.956,14.581-.95-1.75,5.634-7.853,4.249-11.953,5.967-4.24,1.776-8.367,3.029-6.435,8.464a3.544,3.544,0,0,1-.644,1.866c-3.574.5-4.392-1.764-5.439-3.584-.97,2.126,5.278,3.632,1.825,6.711-3.091.138-4.383-1.683-5.164-3.908-4.633,4.689-9.386,9.269-13.487,14.459-6.219,7.871-6.512,17.114-8.683,25.96A1.682,1.682,0,0,1,795.294,314.358Z" transform="translate(-757.491 -220.605)" style="fill: #434343"/>
    <path d="M810.707,408.021c-7.75,2.576-15.712,4.724-23.208,7.812-19.558,8.057-25.6,21.076-18.945,39.716,1.514,4.239,3.2,8.429,4.8,12.641.862,1.469-.01,1.507-1.239,1.25-2.967-6.523-6.27-12.934-8.048-19.855-3.158-12.3,3.376-26.425,15.456-32.684a93.611,93.611,0,0,1,29.587-9.99C810.7,406.019,810.8,406.9,810.707,408.021Z" transform="translate(-757.491 -220.605)" style="fill: #878787"/>
    <path d="M795.294,314.358l1.656-.04c3.8.414,3.641,3.6,4.646,5.8,2.657,5.829,6.4,10.784,12.445,14.049,6.32,3.416,11.237,8.389,16.32,13,8.153,7.4,18.3,11.862,27.645,17.524-.371,1.2-1.1,1.8-2.512,1.235a47.439,47.439,0,0,1-20.35-9.842c-8.943-7.195-17.52-14.738-27.306-21.132C800.554,330.191,796.825,322.578,795.294,314.358Z" transform="translate(-757.491 -220.605)" style="fill: #4b4b4b"/>
    <path d="M811.561,503.6l2.491.31c-5.326,6.965-13.667,9.08-21.913,11.349l-.116.053a4.927,4.927,0,0,1-1.213-1.65c-.757-7.513,8.081-10.011,9.174-15.583-2.063,1.2-4.554,3.868-8.58,3.513-1.109-.5-1.781-1.211-1.349-2.427a1.268,1.268,0,0,1,.322-.986l.13-.095c3.569-.172,5.891-2.743,8.958-3.873,1.982-.73,3.984-1.129,5.682.591,1.662,1.685.268,3.169-.607,4.465-2.219,3.287-4.67,6.444-7.743,10.626Z" transform="translate(-757.491 -220.605)" style="fill: #8e8e8e"/>
    <path d="M810.707,408.021l-1.6-1.11c4.639-1.943,9.811-2.468,14.322-4.881,11.148-5.964,12.652-13.054,4.335-21.689-1.018-1.057-1.922-2.2-2.879-3.311.469-.511.508-1.4,1.523-1.432l7.895,8.337c1.254,1.463,5.372-.594,4.727,3.2-5.244,10.492-12.665,18.715-26.007,20.747C812.267,408,811.481,407.979,810.707,408.021Z" transform="translate(-757.491 -220.605)" style="fill: #888"/>
    <path d="M900.919,345.581c-3.037,8.1-6.969,15.92-9.481,24.266-1.091-7.336,2.4-13.718,5.35-21.012-3.792,1.722-4.333,5-6.661,6.791-1.458.142-1.888-.695-2.053-1.79,2.042-4.714,4.293-9.288,9.68-11.7C900.4,342.061,900.379,344.036,900.919,345.581Z" transform="translate(-757.491 -220.605)" style="fill: #575757"/>
    <path d="M839.035,387.138l-4.727-3.2c2.817-4.348.765-9.121,1.443-13.654.4-2.651-1.162-5.685,1.756-7.939C840.937,369.255,841.587,380.1,839.035,387.138Z" transform="translate(-757.491 -220.605)" style="fill: #a8a8a8"/>
    <path d="M900.919,345.581l-2.812-2.743c-.331-.383-.8-.876-.656-1.234,4.443-11.271,8.848-22.559,14.862-33.25,1.434.091,2.435.482,1.72,2.062C911.5,322.709,905.407,333.9,900.919,345.581Z" transform="translate(-757.491 -220.605)" style="fill: #393939"/>
    <path d="M888.836,354.231l1.291,1.395c-9.109,11.855-20.254,15.168-34.633,10.3l2.087-1.353c1.226-1.208,2.847-1.007,4.351-.876,9.057.791,16.917-1.21,22.943-7.836C885.833,354.806,887.005,353.73,888.836,354.231Z" transform="translate(-757.491 -220.605)" style="fill: #5c5c5c"/>
    <path d="M772.116,469.44l1.239-1.25c6.39,9.642,12.906,19.223,17.152,29.889l-.129.095c-4.784-.762-4.045-4.988-5.586-7.682C780.728,483.39,775.079,477.085,772.116,469.44Z" transform="translate(-757.491 -220.605)" style="fill: #a9a9a9"/>
    <path d="M914.033,310.416l-1.622-1.726c-3.821-7.452-3.587-15.1-1.33-22.846l1.338-3.147C915.81,291.8,916.9,301.011,914.033,310.416Z" transform="translate(-757.491 -220.605)" style="fill: #535353"/>
    <path d="M822.946,482.634l-3.438-.1c-3.34-2.359-5.314-5.7-7.4-8.9a2.738,2.738,0,0,1,.7-3.879c1.809-1.069,2.759.594,3.6,1.7C819.057,474.944,821.613,478.5,822.946,482.634Z" transform="translate(-757.491 -220.605)" style="fill: #7b7b7b"/>
    <path d="M805.921,341.588c5.55,5.349,11.233,10.539,8.507,19.122-.416,1.311,1.663,3.282,2.588,4.948a1.65,1.65,0,0,1-2.444.049c-1.686-1.254-2.933-2.9-2.457-4.847,1.863-7.617-2.21-12.989-7.727-17.892C803.794,341.487,804.507,341.214,805.921,341.588Z" transform="translate(-757.491 -220.605)" style="fill: #9c9c9c"/>
    <path d="M791.571,513.189q.226,1.059.452,2.118l-3.171,2.742c-1.048-6.373-5.494-12.926,1.2-18.888l2.084,1.872C792.171,505.094,790.977,509.107,791.571,513.189Z" transform="translate(-757.491 -220.605)" style="fill: #a9a9a9"/>
    <path d="M822.984,255.929l-2.167,3.149-.983-2.222q1.839-5.36,3.677-10.717c3.278-.153,3.187,2.145,3.586,4.094C826.377,252.52,825.6,254.78,822.984,255.929Z" transform="translate(-757.491 -220.605)" style="fill: #313131"/>
    <path d="M814.572,365.707l2.444-.049,9.4,9.94-1.523,1.432Z" transform="translate(-757.491 -220.605)" style="fill: #747474"/>
    <path d="M826.311,250.105l-2.8-3.966a6.364,6.364,0,0,1,2.751-4.588l1.56,1.533q1.247.883.1,1.873l.267,3.224C828.559,249.632,828.523,250.754,826.311,250.105Z" transform="translate(-757.491 -220.605)" style="fill: #757575"/>
    <path d="M795.236,528.624c-2.617-6.313-.447-9.477,9.255-13.493l1.917,1.721C802.632,520.734,796.933,523.1,795.236,528.624Z" transform="translate(-757.491 -220.605)" style="fill: #919191"/>
    <path d="M861.148,280.486c17.311-4.37,22.7-16.071,22.88-30.983.691,3.062-1.057,6.459,1.518,9.267-2.1,15.813-14.375,21.918-29.254,25.541C855.736,280.89,855.736,280.89,861.148,280.486Z" transform="translate(-757.491 -220.605)" style="fill: #464646"/>
    <path d="M827.942,273.1c9.342,8.072,19.79,7.879,30.791,3.4,3.694-1.5,6.9-3.569,6.986-7.664.082-4.078-3.2-6.2-6.585-8.052-1.827-1-4.944-.414-5.023-3.5,1.98.441,4.121.582,5.908,1.382,4.576,2.047,8.4,5.2,8.5,10.042.109,5.359-4.539,8.022-9.208,10.272-10.6,6.4-19.5,6.257-30.127-.479a4.541,4.541,0,0,1-1.507-3.266Z" transform="translate(-757.491 -220.605)" style="fill: #494949"/>
    <path d="M838.9,284.4l15.744.082c-5.054,2.63-10.412,1.653-15.734,1.1q-.52-.392-.351-.788C838.671,284.534,838.784,284.4,838.9,284.4Z" transform="translate(-757.491 -220.605)" style="fill: #2d2d2d"/>
    <path d="M838.9,284.4a7.686,7.686,0,0,1,.01,1.185c-5.36,1.038-8.227-2.17-11.072-5.415Z" transform="translate(-757.491 -220.605)" style="fill: #373737"/>
  </g>
</svg>
