<svg xmlns="http://www.w3.org/2000/svg" viewBox="0 0 275.832 629.318">
  <title>lineart5</title>
  <path d="M989.947,794.575c1.1-1.131,2.01-2.565,3.314-3.351,28.364-17.075,58.171-30.92,90.033-40.186,1.385-.4,3.344-1.984,3.447-3.156a111.232,111.232,0,0,0-3.213-38.673l-7.27,8.48a30.152,30.152,0,0,1-1.115-4,10.967,10.967,0,0,1,.181-2.986c3.492-20.653-1.291-39.791-9.686-58.6-3.263-7.31-7.264-12.964-14.067-17.259-7.44-4.7-14.144-10.544-21.342-15.646-15.794-11.194-26.35-26.089-32.233-44.458-1.927-6.018-4.45-11.851-6.246-17.9-1.227-4.135-3.111-5.633-7.7-5.445-22.454.921-41.766-6.41-54.388-25.5-7.27-10.993-12.377-23.535-17.527-35.771a196.113,196.113,0,0,1-9.332-28.915,34.044,34.044,0,0,1,5.913-29.473c14.446-19.055,30.372-36.73,51.069-49.376a75.136,75.136,0,0,1,7.933-4.214c9.066-4.142,15.427-1.027,17.307,8.845a150.343,150.343,0,0,1,1.787,16.88c.746,9.965,1.233,19.95,2.054,29.909.15,1.817.882,4.135,2.182,5.222,9.806,8.2,19.821,16.145,29.661,24.082.815-.68,1.252-.872,1.256-1.073.369-19.8,1.054-39.6.907-59.4-.081-11.029-2.217-21.9-7.953-31.646-5.863-9.964-15.106-13.511-26.141-10.163a5.518,5.518,0,0,0-2.463,1.5c-6.355,7.277-14.424,8.858-23.148,6.086a24.03,24.03,0,0,0-14.12-.086c-5.143,1.376-10.395,2.372-15.487,3.908-4.139,1.248-7.5.268-10.662-2.349-5.264-4.349-10.581-8.634-15.83-13-1.978-1.645-3.977-3.149-5.527.214-3.533,7.666-6.9,15.412-10.992,24.621l13.745-3.4c-.644,2.626-1.071,4.944-1.781,7.171-5.779,18.11-10.753,36.319-11.6,55.525-2.108,47.85,16.557,86.925,50.421,119.337,8.465,8.1,18.717,14.341,28.179,21.394,1.5,1.118,3.165,2.011,4.394,3.579-21.844-6.829-41.024-18.359-58.524-32.9l-1.09.688c3.7,7.1,6.847,14.556,11.207,21.222,13.12,20.059,26.63,39.866,40.145,59.665,14.508,21.254,13.724,39.484-2.887,59.236-13.133,15.616-25.082,32-32.707,51.11-6.468,16.209-9.162,32.746-2.635,49.629,5.08,13.139,14.407,22.53,25.932,28.934,9.209-7.881,17.978-15.452,26.85-22.9,1.186-1,2.9-1.363,4.366-2.021l-30.779,26.381c-14.13-4.6-29.19-25.051-30.941-42.555-2.078-20.778,4.492-39.253,15.123-56.355a343.85,343.85,0,0,1,24.209-33.584c15.046-18.722,16.256-36.25,2.758-56.283-12.933-19.191-26.268-38.119-38.842-57.541-5.4-8.342-9.354-17.624-13.891-26.516a41.688,41.688,0,0,1-1.8-4.915c8.39,6.351,16.268,12.957,24.793,18.585,8.4,5.544,17.449,10.1,26.493,14.669q-102.745-77.6-59.308-198.585c-8.3-.469-11.754,1.717-13.781,8.939-8.541,30.422-9.752,61.338-6.348,92.615,4.343,39.9,19.029,75.42,43.04,107.6,12.11,16.229,22.736,33.646,33,51.134,3.626,6.18,5.017,14.077,5.787,21.364.416,3.937-2.33,8.392-4.294,12.289-.625,1.242-3.623,2.324-4.992,1.864s-2.927-2.976-2.872-4.537c.226-6.473,1.283-12.916,1.518-19.389.119-3.255-.87-6.551-1.358-9.828a89.905,89.905,0,0,0-8.7,3.814c-2.3,1.291-4.231,3.226-6.377,4.805-6.728,4.949-11.107,10.859-13.136,19.558-2.9,12.439-9.822,22.55-23.688,25.726-1.576.361-3.112,2.4-4,4.026-11.711,21.352-19.9,43.93-23.321,68.132a2.03,2.03,0,0,1-1.1,1.6c2.882-25.847,11.432-49.86,24.27-72.735l-13.441-4.622.262-1.354a21.2,21.2,0,0,1,3.42.024c11.414,1.9,18.807-3.685,19.929-15.258.962-9.93-2.7-18.677-9.123-25.623a100.781,100.781,0,0,0-20.468-17.162c-14.218-8.832-28.183-17.787-39.2-30.607-19.358-22.527-23.8-48.126-13.5-75.593,6.936-18.5,15.733-36.313,24.013-54.287,2.138-4.643,2.24-8.921,1.754-13.906-1.366-14.036-2.643-28.161-2.5-42.237.117-11.5,4.761-21.352,16.375-26.5,1.283-.569,2.314-3.5,2.165-5.231-1.58-18.242-3.416-36.462-5.195-54.687-3.137-32.123-2.184-63.774,13.8-92.9C889.39,210.85,913.109,196.114,944.4,195.1a154.594,154.594,0,0,1,36.142,3.15c19.68,4.091,32.018,17.156,37.163,36.433,2.476,9.28,3.656,18.915,5.237,28.421,1.023,6.144-.843,11.381-5.187,16-2.013,2.138-3.132,5.118-5.183,8.614h10.446l.066,1.2c-1.071.265-2.157.48-3.209.805-4.126,1.271-6.631,3.23-4.919,8.293,2.315,6.847-.234,13.3-3.32,19.178-6.422,12.229-13.4,24.167-20.139,36.228-.873,1.563-1.7,3.151-2.905,5.393,3.073,0,5.474.145,7.852-.026,7.94-.573,13.811,2.873,18.263,9.173,6.08,8.6,8.553,18.605,9.012,28.724.692,15.265.031,30.591-.016,45.89-.021,6.648-.13,13.305.211,19.937.086,1.681,1.45,3.573,2.733,4.867,5.5,5.554,11.606,10.556,16.73,16.424,15.167,17.373,12.467,34.363-2.522,51.345-.658.746-1.468,1.356-2.182,2.055-2.792,2.735-7.231,4.241-5.7,9.835,1.081,3.956,1.523,7.716,4.34,11.3,11.318,14.388,22.119,29.185,33.052,43.874a22.039,22.039,0,0,1,1.9,3.976c-1.463-1.72-3.014-3.369-4.367-5.167q-14.71-19.556-29.371-39.148c-.886-1.177-2.026-2.162-3.846-4.076v10.431c-5.178-5.766-7.78-12.324-8.986-20.711l6.564,4.18-1.331-8.385-13.028,5.525c.715,1.6,1.274,2.941,1.91,4.25q20.275,41.774,40.645,83.5a16.934,16.934,0,0,0,5.3,6.259c4.321,2.981,9.061,5.354,13.115,7.684-1,17.1-2.716,34.28,5.821,50.655,2.361-7.81,4.343-15.67,6.023-23.593,4.2-19.815,3.014-38.662-9.584-55.715-3.589-4.859-6.054-10.547-9.035-15.855,4.62,7.226,9.036,14.593,13.9,21.647,10.008,14.5,9.461,30.454,6.419,46.593-1.872,9.926-4.859,19.638-7.1,29.5-.489,2.155.009,4.553.171,6.831.883,12.4,1.922,24.784,2.55,37.193.073,1.449-1.775,3.963-3.2,4.379a386.958,386.958,0,0,0-91.408,40.465C992.289,793.318,991.108,793.93,989.947,794.575Zm-50.5-509.919-.405-.721a13.716,13.716,0,0,1,1.7-1.453c9.118-5.561,13.639-13.645,12.259-24.276-.61-4.7-2.781-9.179-4.123-13.794-2.075-7.136.18-11.254,7.394-12.241,10.549-1.445,21.152-2.657,31.771-3.374,9.274-.626,10.855,1.935,10.365,11.1-.557,10.416-.2,20.884-.129,31.329.026,3.95,1.686,5.181,5.778,3.767,3.567-1.233,7.482-1.492,11.26-2.075,6.266-.966,7.4-1.966,6.525-8.394-1.228-9.059-2.462-18.183-4.708-27.022-3.985-15.684-12.257-28.324-27.855-34.987-14.152-6.046-29.058-7.181-44.115-6.362-35.381,1.924-60.009,19.648-74.128,51.933C861.9,269,859.559,291.2,860.932,313.668c1.522,24.907,4.166,49.746,6.346,74.612.023.253.38.477.954,1.157,5.77-1.87,11.84-3.552,17.651-5.879a10.188,10.188,0,0,0,4.74-4.924c3.371-7.229,6.254-14.684,9.475-21.987,1.573-3.566,4.013-4.15,7.084-1.469,3.137,2.738,6.615,5.131,9.493,8.111,7.058,7.31,14.835,9.941,24.636,5.661,3.9-1.7,8.336-2.2,13.459-3.476-1.984-1.445-2.933-2.1-3.84-2.8-13.1-10.2-25.19-21.434-33.179-36.2a27.672,27.672,0,0,0-11.342-11.837c-11.35-6.3-15.25-17.115-15.945-29.3-.315-5.534,2.445-7.44,7.059-4.6,4.09,2.519,8.627,5.8,10.614,9.886,2.749,5.656,3.055,12.453,4.872,18.625,1.018,3.458,2.114,7.8,4.686,9.7,5.29,3.913,11.507,6.639,17.507,9.511,7.268,3.479,12.729,1.967,17.528-4.365q7.7-10.154,15.4-20.3c1.04-1.377,1.971-2.836,2.962-4.271l-33.131-4.742c2.706-3.874,5.9-4.419,12.932-3.128,5.794,1.064,11.783,1.036,17.674,1.611,2.248.22,4.463.774,6.692,1.176l.363,1.719c2.857-2.514,6.536-4.712,5.308-9.532-1.178-4.623-3.728-7.969-9.125-8.541-10.408-1.1-20.239.4-29.475,5.438A23.943,23.943,0,0,1,939.45,284.656Zm49.5,264.75c-.414-1.609-.747-3.2-1.232-4.752a520.387,520.387,0,0,1-17.757-78.778c-.244-1.632-.156-3.9.787-5.027,5.833-6.986,8.826-15.136,10.84-23.837.785-3.392-.192-5.816-1.958-8.743-4.872-8.073-9.292-16.437-13.476-24.892-.854-1.725.1-4.346.22-6.554,2,.817,4.361,1.2,5.924,2.523,8.44,7.164,11.766,16.608,11.776,27.492,0,2.315.767,4.63,1.181,6.945l1.651-.258c0-2.078.1-4.162-.017-6.232q-.927-15.959-1.972-31.91a59.887,59.887,0,0,0-.981-7.424c-1.831-9.424-7.16-12.2-15.924-8.34a52.2,52.2,0,0,0-5.352,2.68c-21.993,12.893-38.793,31.3-53.587,51.582-6.379,8.746-7.4,19.252-4.541,29.693a246.352,246.352,0,0,0,23.772,58.036C940.115,542.157,964.953,553.365,988.951,549.406ZM851.293,471.362c-.349.192-.776.277-.876.5C841.383,492.4,831.1,512.5,823.7,533.609c-8.174,23.319-3.515,45.665,11.81,65.436,11.891,15.34,27.68,25.687,44.263,35.17,17.486,10,28.455,24.247,27.674,46.221,3.9-4.534,6.953-9.267,11.107-12.638,6.922-5.615,7.457-12.754,6.98-20.621-1.272-21.012-8.562-39.922-20.187-57.213-18.282-27.194-33.816-55.77-44.318-86.9C857.5,492.606,854.53,481.958,851.293,471.362Zm65.179-150.921c.819,2.073,1.07,2.986,1.514,3.792,8.788,15.947,21.454,28.323,36.151,38.721,1.635,1.157,4.378,1.4,6.479,1.119,5.432-.734,10.761-2.637,16.188-2.9,7.146-.342,11.225-3.46,14.407-9.825,6.39-12.788,13.83-25.047,20.413-37.744,3.212-6.2,3.9-12.907.8-19.276l-15.88,1.866c-2.5,5.011-2.136,10.767.071,16.643,2.788,7.424.132,11.5-7.607,12.338-1.292.14-2.461,1.412-3.687,2.16a48.27,48.27,0,0,0,3.141,3.683,29.619,29.619,0,0,0,3.251,2.433c-3.616,3.752-3.1,8.5-3.205,13.109-.008.373-.637.727-.969,1.1-2.072,2.317-5.5,3.174-7.83,4.027-3.874,1.413-8.724-.693-12.206-3.5,5.141,0,10.129.4,15.02-.107,5.593-.586,6.393-2.88,3.084-7.882l-23.612,2.916-.187-1.36,22.267-11.89c-.1-1.007-.261-2.745-.476-5a70.4,70.4,0,0,1-8.227-.1,4.283,4.283,0,0,1-2.857-2.212c-.328-.729.433-2.816.994-2.934,3.322-.695,6.79-1.56,10.078-1.193,1.738.194,3.21,2.766,5.7,5.107,6.031.166,8.4-3.2,6.01-10.1-2.73-7.884-3.367-15.463,3.386-22.2,5.206-5.2,9.783-11.022,14.8-16.751a80.688,80.688,0,0,0-8.26,1.552c-6.729,1.952-8.084,1.339-8.245-5.814-.239-10.608-.075-21.233.2-31.843.176-6.735-1.1-8.675-7.885-8.3-8.8.488-17.6,1.308-26.331,2.526-15.028,2.1-15.7,3.342-10.418,17.324,3.624,9.585,3.127,18.562-3.146,26.939-.307.411-.356,1.016-.225.619,7.841-.189,15.587-.737,23.3-.438,5.593.216,8.685,3.684,9.958,9.554,1.073,4.951-2.364,7.593-5.488,10.365-1.822,1.617-3.926,3.011-5.41,4.894-5.773,7.323-11.368,14.787-16.993,22.225-6.046,8-12.326,9.563-21.344,5.085C927.984,326.589,922.877,323.8,916.472,320.441Zm10.51,337.705c7.042-5.44,13.078-10.369,19.44-14.834,1.628-1.143,4.793-1.744,6.326-.9,1.481.811,2.537,3.842,2.435,5.828-.314,6.134-1.473,12.221-1.892,18.354-.219,3.217-2.2,8.17,2.31,9.038,4.258.82,5.494-4.085,6.563-7.519,2.566-8.234.351-16.264-3.679-23.066-10.42-17.583-20.605-35.5-32.943-51.711C897.61,556.624,882.521,515.574,879.6,469.8c-1.677-26.271.169-52.243,7.028-77.755.611-2.271,1.064-4.584,1.782-7.715-6.34,2.082-11.5,3.924-16.748,5.449-3.608,1.047-4.781,3.048-4.763,6.84A173.819,173.819,0,0,1,854.185,462.9a15.437,15.437,0,0,0-.724,8.618c9.45,42.158,28.175,80.159,51.835,116.035a184.528,184.528,0,0,1,14.585,27.755C925.676,628.566,927.749,642.721,926.982,658.146Zm62.08-218.07c1.045,8.925,1.982,16.647,2.848,24.376,3.064,27.348,9.489,53.7,22.512,78.209,1.943,3.656,3.686,5.249,7.548,2.944a16.6,16.6,0,0,1,3.686-1.519c3.93-1.191,5.287-3.361,4.74-7.765-2.791-22.463-5.174-44.977-7.809-67.46a6.9,6.9,0,0,0-1.982-4.288C1010.584,456.618,1000.416,448.849,989.062,440.076Zm26.408,108.185c-1.573-3.467-2.684-5.667-3.589-7.95-4.649-11.726-10.806-23.127-13.51-35.291-4.57-20.561-6.887-41.62-10.309-62.443-.457-2.782-1.827-5.413-2.775-8.114l-1.754.352a45.13,45.13,0,0,1-1.482,5.634c-2.34,5.836-4.088,12.108-7.511,17.25a15.689,15.689,0,0,0-2.6,12.369,547.7,547.7,0,0,0,17.425,75.289c.638,2.081.694,4.787,4.19,4.485C1000.484,549.243,1007.43,548.829,1015.47,548.261Zm43.253,89.266a7.679,7.679,0,0,0-.249-1.541q-20.575-42.384-41.227-84.731c-.432-.884-1.694-2.048-2.465-1.974-7.537.716-15.053,1.669-23.75,2.693,5.375,13.878,10.627,27.442,15.88,41.006l1.369-.034c2.012-4.133,5.37-6.534,9.275-4.305,2.24,1.278,4.188,4.794,4.431,7.47.439,4.833-4.036,5.218-7.721,5.789C1018.92,609.155,1048.607,632.962,1058.723,637.527ZM1025.115,468.16l-1.424.521c2.741,23.649,5.481,47.3,8.387,72.38,3.753-3.405,6.627-5.45,8.8-8.078,9-10.906,14.948-22.861,8.611-37.133C1044.3,484.167,1034.826,475.965,1025.115,468.16ZM865.792,392.169c-8.957,3.038-13.356,8.787-15.566,16.283-4.052,13.738-2.306,27.667-.79,41.544.457,4.183,1.277,8.327,1.93,12.489C861.98,440.314,865.7,417.116,865.792,392.169Zm46.826-76.085c-.928-6.228-1.456-12.031-2.715-17.671-1.667-7.467-5.509-13.518-12.99-16.62-3.332-1.381-5.3-.637-5.082,3.2C892.589,298.451,897.633,310.34,912.618,316.084ZM898.983,694.919c12.26.661,24.834-17.879,23.641-30.577C914.976,674.235,907.327,684.128,898.983,694.919Zm83.01-265.7c1.725-13.841-5.813-28.656-15.355-30.86C968.4,410.154,974.758,419.271,981.993,429.218Zm81.5,214.194c4.415,11.318,8.335,21.367,12.256,31.417a106.64,106.64,0,0,0,1.054-20.267,5.309,5.309,0,0,0-1.767-3.705C1071.73,648.437,1068.161,646.373,1063.495,643.412Zm-47.78-41.242c2.439-2.971,4.772-4.539,5.011-6.378a5.6,5.6,0,0,0-5.408-6.521c-3.223-.257-5.895,2.042-5.31,5.163C1010.45,596.8,1013.072,598.751,1015.715,602.17Zm1.548-326.676-.441-.72L1000.729,289.4l1.379,2.457c3.287-1.161,7.721-1.393,9.591-3.7C1014.5,284.705,1015.5,279.789,1017.263,275.494ZM1076.6,714.848c7.052-7.769,7.222-16.056,1.263-24.369C1077.449,698.412,1077.058,705.939,1076.6,714.848ZM961.716,365.33c9.184,4.568,17.683,2.9,22.264-4Zm6.912-26.106.421,1.165c4.413-.355,8.912-.322,13.192-1.275,1.507-.335,2.476-3.086,3.69-4.734-1.528-.4-3.337-1.525-4.534-1.064C977.03,335,972.867,337.211,968.628,339.224ZM944.552,293.18c10.068,2.827,18.775,5.782,27.907,2.066Zm41.512,28.632c-4.9-4.3-10.24-3.759-12.144,1.543C978.047,322.619,982.2,325.314,986.064,321.812Zm46.105,242.369,1.266-.377c-.3-4.6.449-9.62-6.054-12.83C1029.206,556.009,1030.688,560.1,1032.169,564.181Z" transform="translate(-818.521 -195.027)"/>
</svg>
