<svg id="f1b28b8d-f68a-4e9c-b09a-06e09da74408" data-name="Layer 1" xmlns="http://www.w3.org/2000/svg" viewBox="0 0 519.506 758.634">
  <title>viennDiagram</title>
  <g>
    <path d="M683.72,5.565a2.548,2.548,0,0,1,1.824,1.045c2.257,2.256,4.7,4.32,7.017,6.5,7.827,7.34,15.341,15.013,23.154,22.369,9.456,8.9,18.793,17.928,28.185,26.894q12.407,11.844,24.852,23.65,14.225,13.538,28.4,27.129,13.082,12.478,26.174,24.948,13.849,13.252,27.738,26.468c8.636,8.262,17.322,16.473,25.961,24.735q13.63,13.035,27.3,26.039,13.182,12.6,26.421,25.142c3.813,3.614,7.563,7.3,11.4,10.881,1.644,1.534,1.779,2.644.058,4.288-11.778,11.249-23.374,22.691-35.239,33.847-8.331,7.834-16.649,15.674-24.838,23.656-9.294,9.06-18.649,18.061-28.168,26.883-8.842,8.195-17.309,16.787-26.218,24.894-6.24,5.678-11.76,12.107-18.416,17.332-2.061,1.618-2.274,3.016-.06,5.006,9.658,8.683,18.9,17.814,28.268,26.806,8.175,7.845,16.442,15.6,24.638,23.426q14.649,13.99,29.278,28c8.337,7.976,16.771,15.851,25.073,23.87,8.372,8.087,17.034,15.873,25.306,24.073,1.895,1.878,2.109,3.035.057,4.965-7.135,6.712-14,13.712-21.163,20.393-8.814,8.224-17.455,16.624-26.181,24.936q-13.876,13.215-27.715,26.467-12.976,12.364-25.957,24.725c-9.167,8.738-18.292,17.521-27.508,26.2-4.5,4.237-8.783,8.686-13.335,12.859-9.1,8.344-17.845,17.059-26.8,25.55-9.035,8.568-17.972,17.238-27.018,25.79-8.729,8.253-17.345,16.624-26.091,24.856q-13.815,13-27.43,26.212c-2.476,2.411-5.184,4.639-7.682,7.062-1.21,1.173-2.11.8-3.161-.206-3.344-3.2-6.766-6.324-10.108-9.53-10.863-10.423-21.6-20.98-32.586-31.272-8.573-8.032-17.053-16.157-25.529-24.29-9.367-8.988-18.8-17.906-28.16-26.9q-13.142-12.636-26.408-25.154c-9.12-8.645-18.179-17.352-27.271-26.025q-13.2-12.588-26.4-25.163c-9.251-8.794-18.445-17.648-27.692-26.445-8.207-7.807-16.477-15.547-24.6-23.44q-13.635-13.242-27.519-26.228c-2.238-2.094-2.11-3.459.053-5.507,7.642-7.235,15.02-14.749,22.7-21.944,8.873-8.315,17.629-16.749,26.42-25.149q13.748-13.136,27.5-26.26,13.311-12.69,26.621-25.382c8.955-8.529,18.044-16.916,26.8-25.654,1.417-1.415,4.2-2.107,4.126-4.166-.065-1.83-2.719-2.559-4.108-3.911-7.611-7.409-15.147-14.9-22.859-22.2q-14.029-13.285-27.953-26.678c-8.523-8.2-17.123-16.341-25.709-24.486q-14.127-13.4-28.172-26.887c-8.491-8.109-17.084-16.113-25.512-24.291-2.054-1.994-2.063-3.309.017-5.284,7.706-7.318,15.154-14.909,22.917-22.163,8.81-8.233,17.477-16.61,26.2-24.932q13.87-13.232,27.727-26.477,13.2-12.582,26.4-25.166,13.529-12.917,27.067-25.822,13.082-12.481,26.18-24.946,13.871-13.233,27.73-26.476,13.085-12.483,26.18-24.952c9.105-8.672,18.123-17.441,27.33-25.995,6.106-5.674,11.635-11.964,18.193-17.153C682.121,6.359,682.63,5.479,683.72,5.565Z" transform="translate(-423.925 -5.559)" style="fill: #d6bd69"/>
    <path d="M933.165,516.093c-1.147,1.014-2.336,1.985-3.435,3.049-7.484,7.244-14.843,14.62-22.447,21.735-8.952,8.376-17.75,16.909-26.626,25.362s-17.712,16.948-26.608,25.379c-8.972,8.5-17.889,17.062-26.839,25.587q-13.538,12.894-27.053,25.808-13.53,12.9-27.05,25.8c-8.734,8.3-17.422,16.657-26.167,24.948q-13.568,12.861-27.056,25.8c-9.02,8.6-18.129,17.11-27.065,25.8-2.569,2.5-5.368,4.8-7.855,7.4-1.105,1.156-1.8.8-2.779-.151-4.136-4.015-8.351-7.949-12.514-11.938-10.192-9.766-20.267-19.658-30.589-29.286-8.738-8.151-17.3-16.482-25.965-24.705-9.342-8.863-18.709-17.7-27.922-26.7-8.392-8.2-17.042-16.134-25.578-24.186a35.816,35.816,0,0,1-6.365-5.357c-6.865-7.155-14.279-13.747-21.393-20.646-8.663-8.4-17.458-16.667-26.192-25q-13.885-13.242-27.753-26.5c-8.73-8.332-17.386-16.751-26.259-24.921-5.382-4.956-10.131-10.591-16.006-15.02-.695-.524-1.558-1.092-1.512-2.2,5.6-4.83,10.323-10.6,16.111-15.234.4-.321.77-.687,1.14-1.047,7.687-7.48,15.258-15.085,23.089-22.412,9.4-8.8,18.625-17.781,27.942-26.666,8.644-8.245,17.323-16.453,25.95-24.717,9.149-8.765,18.38-17.445,27.52-26.221,2.735-2.625,5.584-5.166,8.277-7.849,1.166-1.162,1.866-1.384,3.253-.143,4.765,4.262,9.177,8.883,13.835,13.246,9.624,9.011,19.06,18.216,28.588,27.325,8.486,8.112,17.016,16.179,25.508,24.287,9.315,8.893,18.546,17.883,27.984,26.636,6.033,5.595,11.558,11.72,17.916,16.985,1.99,1.648,2.9,1.621,4.75-.2,10.262-10.063,20.579-20.079,31.141-29.825,4.319-3.984,8.4-8.195,12.653-12.228,10.5-9.948,21.111-19.781,31.6-29.744,7.091-6.739,13.829-13.864,21.126-20.366,6.442-5.741,12.036-12.379,18.93-17.619a2.347,2.347,0,0,1,1.528.965c5.478,5.9,11.678,11.048,17.408,16.693,10.055,9.905,20.412,19.5,30.576,29.3,8.676,8.363,17.45,16.628,26.168,24.95Q890.762,475.3,904.4,488.31c8.649,8.242,17.5,16.272,25.873,24.805C931.24,514.1,932.845,514.493,933.165,516.093Z" transform="translate(-423.925 -5.559)" style="fill: #d3d3d3"/>
    <path d="M933.165,253.667c-1.147,1.015-2.336,1.987-3.435,3.051-7.486,7.247-14.85,14.624-22.454,21.743-8.953,8.381-17.754,16.917-26.634,25.371s-17.715,16.957-26.62,25.384q-13.473,12.748-26.843,25.6c-7.967,7.613-16.151,15-23.918,22.823-1.228,1.236-1.949,1.554-3.465.157q-11.7-10.788-23.085-21.9c-10.051-9.777-20.127-19.531-30.369-29.105-8.656-8.092-17.189-16.309-25.757-24.491-9.393-8.97-18.887-17.833-28.182-26.909-2.194-2.142-4.635-4.074-6.777-6.3-1.356-1.408-2.507-1.441-3.936-.048-4.057,3.954-8.209,7.809-12.3,11.727-10.053,9.625-19.99,19.373-30.167,28.864-8.894,8.3-17.613,16.768-26.425,25.145-9.188,8.735-18.268,17.588-27.55,26.215-6.03,5.6-11.54,11.759-17.945,16.974-1.282,1.044-1.933,1.063-3.007-.084-1.476-1.578-3.111-3.008-4.678-4.5a35.779,35.779,0,0,1-6.358-5.351c-6.856-7.148-14.267-13.727-21.369-20.623-8.647-8.4-17.436-16.65-26.163-24.966q-13.986-13.331-27.942-26.691c-8.577-8.173-17.109-16.4-25.775-24.471-6.026-5.613-11.587-11.715-17.932-16.985-.363-1.554.831-2.345,1.775-2.986A42.621,42.621,0,0,0,442,245.658c6.465-6.53,13.262-12.716,19.873-19.092,8.76-8.447,17.606-16.808,26.408-25.214q13.428-12.822,26.872-25.626,13.666-13.019,27.307-26.065,13.334-12.693,26.648-25.407,13.343-12.686,26.647-25.409,13.326-12.7,26.65-25.407t26.649-25.411c9.1-8.689,18.324-17.254,27.29-26.089,1.826-1.8,4.021-3.226,5.733-5.169,1.209-1.372,2.224-1.014,3.36.15,2.3,2.361,4.917,4.428,7.217,6.752,7.482,7.564,15.286,14.8,23.03,22.07,5.707,5.359,10.893,11.29,17.119,16.1,7.6,8.024,15.874,15.366,23.811,23.045,8.968,8.677,18.036,17.255,27.07,25.866q13.44,12.808,26.868,25.629,13.209,12.6,26.428,25.19,13.429,12.819,26.871,25.624,13.546,12.92,27.089,25.843c9.029,8.615,17.982,17.316,27.131,25.8,5.065,4.694,9.64,9.9,15.021,14.256C933.232,253.2,933.215,253.451,933.165,253.667Z" transform="translate(-423.925 -5.559)" style="fill: #d3d3d3"/>
    <path d="M732.664,62.044a21.441,21.441,0,0,1-2.747-1.94c-7.646-7.383-15.211-14.849-22.881-22.2-7.282-6.984-14.681-13.847-21.981-20.813-1.053-1-1.723-1.058-2.79-.018-3.167,3.088-6.473,6.034-9.664,9.1-11.154,10.714-22.175,21.568-33.454,32.148-8.8,8.249-17.454,16.636-26.2,24.936-9.269,8.8-18.479,17.656-27.732,26.47q-13.206,12.581-26.4,25.17-13.439,12.785-26.844,25.6c-8.882,8.457-17.715,16.967-26.626,25.392-9.21,8.708-18.322,17.516-27.5,26.252-8.809,8.382-17.518,16.878-26.456,25.111-5.294,4.876-9.921,10.474-15.762,14.765-.708.52-1.53,1.151-1.293,2.288a.391.391,0,0,1-.68.018c-.237-1.583.778-2.563,1.842-3.355,5.821-4.331,10.389-9.992,15.8-14.778,7.8-6.9,14.936-14.544,22.531-21.682,9.622-9.042,19.1-18.228,28.646-27.352,8.122-7.767,16.365-15.407,24.421-23.247,9.536-9.278,19.122-18.51,28.848-27.587,8.671-8.094,17.208-16.322,25.786-24.512q14.1-13.461,28.188-26.933Q622.7,72.491,635.7,60.121c9.1-8.684,18.118-17.471,27.345-26.016,6.126-5.673,11.732-11.884,18.178-17.227,1.961-1.625,3.152-1.635,4.939.1,10.141,9.842,20.193,19.788,30.638,29.3,5.407,4.925,10.3,10.368,15.878,15.1q.294.228.19.448C732.8,61.971,732.731,62.044,732.664,62.044Z" transform="translate(-423.925 -5.559)" style="fill: #ccb76f"/>
    <path d="M732.664,62.044l.013-.667a12.316,12.316,0,0,1,1.225.929c7.263,7.04,14.418,14.2,21.8,21.113,9.559,8.96,18.957,18.085,28.428,27.135,8.126,7.764,16.359,15.415,24.421,23.249,9.543,9.273,19.125,18.51,28.852,27.588,8.672,8.094,17.208,16.325,25.787,24.514q14.1,13.459,28.19,26.934c8.658,8.255,17.255,16.582,26.031,24.7,5.216,4.828,9.871,10.259,15.538,14.6.538.412.862.912.219,1.521-.709-.573-1.467-1.095-2.12-1.726-6.82-6.588-13.6-13.215-20.435-19.791-10.02-9.641-19.975-19.352-30.138-28.841-8.73-8.152-17.314-16.451-25.954-24.7q-13.743-13.116-27.5-26.227-12.943-12.379-25.929-24.719Q787.119,114.345,773.161,101c-8.8-8.382-17.545-16.816-26.4-25.131C741.954,71.361,737.181,66.84,732.664,62.044Z" transform="translate(-423.925 -5.559)" style="fill: #cbb66e"/>
    <path d="M933.165,516.093c-.708-.572-1.464-1.095-2.117-1.725-6.815-6.584-13.593-13.206-20.421-19.776-10.011-9.635-19.96-19.338-30.115-28.82-8.8-8.216-17.446-16.586-26.156-24.893q-13.628-13-27.25-26c-8.542-8.18-17.295-16.141-25.659-24.51,1.057-1.028,1.4.246,1.845.674,6.626,6.357,13.122,12.851,19.829,19.121,9.417,8.8,18.661,17.784,27.983,26.684,8.5,8.115,17.046,16.182,25.535,24.311q13.853,13.263,27.742,26.487c8.728,8.326,17.688,16.412,26.076,25.085C931.4,513.714,933.935,513.686,933.165,516.093Z" transform="translate(-423.925 -5.559)" style="fill: #cbb66e"/>
    <path d="M434.137,516.162c8.319,7.962,16.608,15.955,24.965,23.877Q474,554.163,488.8,568.4q12.9,12.4,25.906,24.7c9.4,8.928,18.694,17.979,28.169,26.822,5.625,5.251,10.789,10.988,16.742,15.886-1.9-.2-3.107-1.543-4.347-2.741-7.649-7.387-15.151-14.931-22.908-22.2-9.109-8.537-18.082-17.212-27.112-25.83s-18.065-17.228-27.09-25.85c-8.951-8.55-17.818-17.2-26.923-25.573-5.309-4.883-9.974-10.453-15.769-14.821C434.754,518.25,433.242,517.7,434.137,516.162Z" transform="translate(-423.925 -5.559)" style="fill: #cbb56c"/>
    <path d="M433.652,254.319l.68-.018c3.815,2.679,6.881,6.171,10.212,9.38,10.162,9.787,20.256,19.647,30.568,29.273,8.88,8.29,17.588,16.754,26.387,25.125q13.872,13.2,27.7,26.444c8.172,7.831,16.653,15.345,24.536,23.475,1.866,1.924,4.381,3.1,5.882,5.384-1.9-.2-3.107-1.544-4.347-2.741-7.647-7.387-15.147-14.93-22.9-22.2-9.108-8.535-18.078-17.211-27.107-25.826s-18.058-17.231-27.087-25.847c-8.955-8.543-17.857-17.147-26.9-25.593C445.329,265.624,439.767,259.683,433.652,254.319Z" transform="translate(-423.925 -5.559)" style="fill: #cbb56c"/>
  </g>
  <text transform="translate(133.053 171.182)" style="font-size: 35px;font-family: BernardMT-Condensed, Bernard MT Condensed;letter-spacing: 0.2em">Aesthetically <tspan x="43.93" y="61">Pleasing</tspan></text>
  <text transform="translate(149.298 551.375)" style="font-size: 35px;font-family: BernardMT-Condensed, Bernard MT Condensed;letter-spacing: 0.13017578125em">T<tspan x="20.962" y="0" style="letter-spacing: 0.2em">echnically </tspan><tspan style="letter-spacing: 0.2em"><tspan x="34.824" y="61">Balance</tspan></tspan></text>
  <text transform="translate(217.779 400.343)" style="font-size: 35px;fill: #fff;font-family: BernardMT-Condensed, Bernard MT Condensed;letter-spacing: 0.2em">Goal</text>
</svg>
