<svg xmlns="http://www.w3.org/2000/svg" viewBox="0 0 1920 2161.3">
<defs>
                    <linearGradient id="a" x1="959" y1="229.23" x2="959" y2="758.77" gradientUnits="userSpaceOnUse">    
                      <stop offset="0" stop-color="#e2ffff"/>
                      <stop offset="1" stop-color="#f3f2e0"/>
                    </linearGradient>
                  </defs>
    <g><!--Background-->
                    <rect y="0" width="1918" height="720" style="fill: url(#a)"/>
                    <path d="M1920.7,962.2v330.1c-3.1,6.8-3,14.3-4.1,21.5-.8,5.2-1.9,10.5-7.1,11.4s-7.6-4.5-9.3-9.1c-3.8-10.6-6.8-21.5-12-31.5-2.2-4.3-4.3-8.7-6.9-12.8-12.5-19.5-18.7-19.9-31.4-1.6a124.3,124.3,0,0,0-15,29.8c-4.9,13.9-10.7,14.5-19.1,2.8s-15.6-28-28.4-37.6c-4.9-3.7-9.6-8.6-16-5.8s-7.6,10.7-8.4,17.4c-1.4,10.8,2.9,20.4,6.3,30.1,1.4,4.2,3.8,8.6.5,12.5s-8.5,3.3-12.8,1.3c-11.4-5.3-23.4-8.2-35.3-11.3a36.1,36.1,0,0,0-16.3-.8c-6.5,1.4-8.4,5.7-5.1,12,4,7.8,9.4,14.5,15.3,20.9,3.9,4.2,8,9,5.7,15.5s-8.4,6.8-14,7c-9.5.5-19.2-.4-28.3,3.8-3.7,1.8-8.4,2.8-9.3,7.8s3.6,7.4,6.8,10.1c6.2,5.1,13.3,8.6,20.4,12.1,5.1,2.4,11,4.5,10.6,11.7s-6.8,8.7-11.9,10.4c-13,4.6-26.3,8.3-39.1,13.5-2.5,1-5.2,1.8-7.3,5.6,12,10.6,26.5,13.8,41.2,16,3.7.6,7.4.1,11,.9,9.6,2.1,13,9.7,6.2,16.8-13,13.7-26.3,27.5-41.7,38.1-9.4,6.5-13.9,2.9-14.5-9.5-.3-5.2,2.3-12.2-3.3-14.7s-10.2,2.8-14.4,6.6-7,7.8-11.1,11c-6.9,5.3-12,3.3-13.9-5.8a45.9,45.9,0,0,1,.4-17.7c3.7-18.9.2-37.3-3.6-55.7-2.2-10.8-7.5-11-14.8-5.4-14.9,11.7-22.9,27.7-25.4,47.2-.5,3.5-.1,7-.8,10.4-2.2,10.9-9,13.7-16.8,6.5-6-5.4-11.4-11.4-17.8-16.2-9.1-6.7-12.4-5.3-13.7,6.8a66.6,66.6,0,0,0,.1,14.8c.5,5.5,1.4,11.8-4.2,14.4s-10.2-2.8-13.3-7.5c-10.8-16.7-25-28.6-41.8-37.2-3.6-1.9-7.4-5.6-11.4-3.1s-1.2,9-1.2,13.5c-.1,7.5,2.9,14.5,4.5,21.6,3.4,14.5-.8,20.9-14.2,21.8a179,179,0,0,1-27.4,0c-13.7-.9-17.7-6.8-13.8-21.5,4.3-16.6,10.1-32.9,8.8-50.7-.4-4.8,1.1-10.7-3.4-13.7s-9.4,1.6-13.3,4.6c-10.2,7.5-19.5,16.2-26.9,27.1-3.3,4.8-6.4,12.7-13.6,8.9-5.7-2.9-4.5-9.9-3.8-16,1.4-11.3.7-22.8.6-34.1,0-3.9,1-9.1-2.8-10.7s-7.2,3.4-9.6,6.6c-9.5,12.8-18.5,25.8-24.1,41.2-2.2,6-3.7,13.3-10.7,14s-9.9-6.5-13-11.6c-4.6-7.7-10.6-13.4-17.3-18.8s-9.6-2.9-11.6,4.7c-2.9,11.2-3.3,22.5-2.4,33.9.5,5.5,1.5,11.3-3.4,15s-9.4-.3-13.9-2.6-11.7-10.6-16.8-5,1.9,12.7,4.3,18.8c7.1,17.3,5.2,21.2-11.7,22.1a45.6,45.6,0,0,0-18.3,5.1c-8.7,4.4-11.9,10.2-5.9,19.5-1.1,9.9,2.4,21-6.1,29.1-7.6,2.7-11.8-2.9-15.9-8.2-7.7-9.7-13.3-21.2-21.9-30-9.7-3.8-17.5,2.4-25.1,6.8a105.9,105.9,0,0,0-23,17.8c-4,4.2-8.8,6.7-14.6,5.8a8.7,8.7,0,0,1-5.2-6.1c-1.3-21.5-8-40-23.7-54.2-6.6-5.9-11.1-4.4-15.6,2.9a121.3,121.3,0,0,0-14,33.6c-1.5,5.8-3.1,12.1-9.2,13.5s-8.6-4.2-11.8-8.4c-10.3-13.3-10.4-13.2-22.6-2.3-8.5,2.2-10.9-7.2-16.6-10.3-9.7-6.5-12.9-19-21.1-26.8-5.7-5.4-11.4-15-19-11s-6.2,14.5-6.2,22.8c0,12.1,3.4,23.3,8.3,34.1,2.7,6,8,13.1,2,18.9s-11.2-1.5-16.9-4.3c-12.5-6.2-12.8-20.8-20-30.5-1.6-2.2-.8-11.7-7.6-4.7-13.2,19.2-26.6,38.2-38.5,58.4-7.7,1.7-14.6,8.8-23.4,5a54.1,54.1,0,0,1-6.9-25c4.8-14.1,2.5-17.4-14.9-21.4-6.8-3.9-13.5-9-21.4-2.7-3.7.1-7.3,1.3-10.9,1.3-9,0-13.2-5.7-11.7-15.4.6-3.4,1.6-6.7,2.2-10.1,1.7-9-1.5-12.2-9.7-9.8s-14.3,11.1-21,2.4,1.5-16,3.8-23.5c3.8-12.1,5.5-24.1,4-36.5-1.7-14.2-6.3-16.4-16.9-8-13.1,10.6-20.9,25.8-29.1,40.6-1.9,3.4-3.3,7.1-5.5,10.3s-5.3,7.4-10,6.2-5.1-5.2-6.2-9.1-.6-11.3-5.9-12.1-7.3,5.1-10,8.9-6.7,10.6-12.8,9.4-8-8.8-9.5-14.9a113.8,113.8,0,0,0-11.6-28.4c-7-12.3-11.3-12.8-21.2-2.6-11.5,11.8-16.2,27.1-18.5,43.6-.9,5.8-.7,12.5-7.1,14.6s-10.4-2.5-14.3-6.7c-8.8-9.6-18.5-17.7-30.2-22.6s-13.4-2.9-11.1,9.6c1.2,6.8,2.5,13.6,5,20s3.6,11.2,1.8,17.3c-5.1,8-9.9,16.2-15.5,23.7-3.6,4.8-7.1,10.5-14.1,9.8-8.6-5-5.7-13.2-4.9-20.8s5.3-19.6-2.4-24.5-14.3,5.4-21.2,9.3c-9.6,5.5-10.4,19.8-21,24.2-6.9-.3-9.9-5.1-11.9-11.4-6.6-21.5-1.7-35.4,20.7-40.4,7.2-1.7,14.5-9,12.6-18.7s-10-14.8-19.3-16.2c-22.8-3.4-22.8-3.4-14.3-26.4a9.2,9.2,0,0,0,.9-2.8c.7-4.6,5.6-9.7,1.4-13.6s-7.7,1.3-11.2,3.1c-23.3,12-23.4,12-23.2-16.5,0-8.9,0-17.7-2.3-26.5s-6.5-9.8-12.4-3.7-13.2,13.5-18.5,21.7c-8,12.1-15.5,11.3-20.8-2.4-6.5-16.6-14.7-31.9-25.6-45.4-2.3-2.8-4.6-7.3-8.8-5.5s-3.3,6.7-3.4,10.5c-.3,9.4-.9,18.9.7,28.2,1.2,7,2.6,15.2-4.1,18.6s-12.2-4.4-15.9-10.3c-6.7-10.4-15.9-17.7-25.4-24.5s-15-4.7-15.6,8.7c-.8,17.6,3.9,34.3,8.4,50.8,5.3,19.2,2.7,23.5-15.2,23.7-8.7.1-17.3.4-26-.3-13.1-1-17.1-7-13.5-20.5,2.2-8.1,3.8-16.3,5.4-24.5.7-3.9,1.8-8.2-1.3-11.2s-7-.8-10.2,1c-15,8.6-29.4,18-39.7,33.2-.6.8-1.1,1.6-1.7,2.3-4.5,4.7-7.8,13.2-15,10.8s-4.2-11.6-5-18.1,3.3-17.8-4.7-21.4-10.9,7-16.2,11.1c-.7.6-1.3,1.4-2,2.1-4.6,4.6-9,11.2-16.2,9.1s-8.2-11.3-9.5-18.2c-2.9-15.9-7.9-30.6-18.5-42.3-4.4-4.8-8.9-11.5-16.1-9.2s-6.7,11.3-7.7,17.7c-2.2,14.2-.7,28.6-1,43-.1,4.9.2,9.9-.4,14.8-1.6,12.8-8.4,15.8-18,8.1-6.8-5.4-10.9-13.1-15.1-20.8V1220.9c7.6-7.8,14.7-2.7,21.2,1.6a79.9,79.9,0,0,1,23,24.2c4.7-14,10.6-25.6,20-34.6s17.8-8.4,25.7,2.4a79.5,79.5,0,0,1,14.2,32.4c6.3-19.2,16.2-37,30.3-51.6,11.3-11.5,20.2-8.8,25.7,7.3,7.7,22.1,4.1,45,4.8,69,6.9-4.2,14.2-5.8,21.2-.8a31.8,31.8,0,0,1,13.6,24.6c.8,12,5.5,12.9,14.2,9,5.9-2.7,12.2-3.9,19.5-5.8-15.1-11-29.8-21.1-39.2-37.6-7.8-13.7-4.4-22.2,10.3-25.3s29.9-3.7,44.6.8c6.5,2,7.6-.6,8.3-6.8,2.9-24.9,11.9-29.5,33-16.4-.5-19.3-1.9-38.1,7.1-55.5s21.7-20.5,33.9-3.6,19.9,36.5,24.9,57c2.6-7.4,6.6-14.7,15.4-12.9,11.7,2.4,16,12.9,19.2,23.3,5.5-15.8,17.3-27,28.9-38.1,7.8-7.5,16-5.4,23.2,2.1,13.8,14.1,18.8,32.3,20.2,52a82.2,82.2,0,0,1-.7,14.4c12.6-6.4,24-12.5,36.6-15.2a45,45,0,0,1,13.6-1.1c12.1.8,17.2,8,14.4,21s-8.3,22.8-15.3,32.8c-9.5,13.6-9.1,14.9,4.3,26.8,2.6-8.3,1.2-16.9,4.2-24.6,6.3-15.9,16.8-19.3,29.1-8.4,4.9,4.3,9.1,9.6,13.5,14.6s6.1,12.1,11,17.7c5.3-5.8,4.3-9.8-1.3-13.1A44.2,44.2,0,0,1,558,1284c-11.2-21.9-3-40.4,19.9-45a33.3,33.3,0,0,1,10.9-.4c6.9.9,8.6-1.3,7.1-9.1-2.1-10.9-6-24.2,5-31.2s19.3,3.8,27.7,10.3a19.8,19.8,0,0,0,3.3,2.2c4-11.9,5.3-24.7,11.1-35.8,8.7-16.5,17.6-17.9,30.1-4.4,3.9,4.2,6.7,9.4,9.9,14.1s4.2,9.9,8.8,14.9c12.5-13.4,23.8-28.2,38.6-38.9,3.4-2.5,6.6-5.3,10.5-6.8,10.5-4.1,17.4.1,18.1,12.2a95.6,95.6,0,0,1-9,47v-.4c12.4-14.9,28.8-21,45.7-25.2,12.1-2.9,18.4,3,18,16.8-.4,20.7-6.9,39.6-16.6,57.4-2.4,4.5-8.1,10.1-3.8,14.4,6.1,6,15.2,6.8,23.2,5.5s4.5-8.7,4.8-13.8c.5-8.3-.5-16.8,1.5-25.1,3.9-16.9,11.5-20.8,24.6-11,17.7,13.4,32.7,29.9,42.7,50.7.5-2.7,0-6.2,1.3-9.3a52.7,52.7,0,0,1,4.4-9.3c7.7-12,18.5-13.1,27.5-2.3,5.1,6.2,9.2,13.4,15,20.7,8.5-16.9,16.6-33.6,32.3-43.2,2.8-1.7,5.4-3.8,8.3-5.2,8.4-4,17.2-9.8,25.9-3.4s9.8,18.8,8.7,29.7c-2,18.6-4,37.3-10.3,56.1,10.4-3.4,19.3-11.1,30.1-7.9,13.4,4.1,10.2,16.7,10.8,28.3,10.1-5.9,20.1-10.3,30.2-18.1-12.8-7.2-25.4-13.5-36.1-23a92.4,92.4,0,0,1-7.3-6.6c-4.1-4.6-9.9-8.6-7.8-16.1s8.7-9.1,15.2-10.6c14.8-3.3,30-2.5,45.8-5.1-6.6-6.8-12.7-12.9-18.2-19.6s-8.6-13.2-5.5-21.6,9.9-11.8,17.4-12.6c11.3-1.4,22.7-1.5,34.6,1.5-3-9.4-8.2-17.1-10.8-25.9-4.9-16.8,1.2-26,17.2-26.7,19.5-.9,34.6,10.8,51.2,20.4-.1-14.9,1.6-29.4,9-42.2,8.3-14.4,20.1-16.3,32.4-5.7,13.8,12,19.8,23,29.8,54.3,7.9-17,21.2-27.6,35.5-36.8,10.1-6.4,18.4-1.7,25.5,6.7,12.6,14.9,20.6,45.9,17.2,66.6-.2.7-.3.2.3-1.2,5-12,10.8-24.9,24.5-24.6s16.2,14.3,21.2,24.7,5.5,19.9,4.8,30.4c-.5,8,3.3,11.8,10,13.3s9.4-.7,7.7-7.7a71.4,71.4,0,0,1-1.7-22.1c.8-12.7,6.3-18.3,18.1-19.6s21.6,2.8,32,6.8c3.7,1.5,7,4.3,12.2,4.5.8-16.3-.1-32.1,3.3-47.6s10.9-21.1,24.6-14a85.3,85.3,0,0,1,36.1,35.4c2.2-6.8,4.4-12.6,9.7-15.6s11.8-.9,17.3,1.2c30.4,11.3,58.4,1.7,86.1-10.6-22.6,10.2-43.8,3-63.6-8.6-11.3-6.6-11.8-25.3-3-38.4,4-5.9,9.3-10.5,14.9-15.4-8.3-6.2-17.3-9-24.4-15.3-11.8-10.4-11.5-21.3,2.1-28.9s25.6-12.9,40-14.4c2.3-.3,4.6-.6,6.7-3.1-2.4-11-16.4-21.9-3.8-34.1,9.4-9,22.5-6.6,35.3-8.7-6.2-13.5-13.4-25.3-17.3-38.8-6.1-20.9-1.8-27.9,17.9-28.1,16.9-.3,20.4.9,42.4,14.4,1.8-11.3,5.1-21.6,17.5-22.3,10.3-.7,18,5.8,26.4,13,5.3-19.7,13.6-36.3,27.2-49.5s23.6-10.9,33,4.5,10.3,35.5,10.3,55.2c11.6-18.8,26.6-31.1,46.3-36.3,14.6-3.8,21.5,2.9,18.4,18.8a110.8,110.8,0,0,1-13.2,34c20.5-9.9,41.8-15.4,64.6-14.1C1910.9,953.1,1916.6,955.4,1920.7,962.2Z" transform="translate(-2 161)" style="fill: #a0c578;"/>
                    <path d="M742.4,1220.8c4.6-16.5,10.5-32.8,11-50.3.1-4.3,1.7-9.7-2.5-12.4s-7.9,1.3-11.1,3.7c-19.3,14.3-36.7,30.9-49.7,54.8-6.2-16.8-12.6-31.7-23.3-44-7.2-8.4-11.9-9-16.9,2.3a128,128,0,0,0-11.9,55.4c-8-10.9-14-18.8-22.3-23.8-3.9-2.3-7.7-7.1-12.3-4.6s-3.6,9.8-3,14.8c1.1,10.3,3.4,20.4,5.5,31.8-8.4-1-16.3-5.7-24.8-3.5s-21,5.8-22.6,16.4c-2.1,13,5.6,24.1,15.4,32.8,5,4.5,15.3,1.1,16.2,8.3s-6.9,15.6-10,23.8c-.8,2.2-1.8,4.5-5.9,5.2-4.7-17.5-13.6-32.5-27-44.3-9.6-8.5-13-7.3-17.9,5s-2.3,25.3-4.5,41.5l-24.4-26.1c-5-5.4-.7-8.6,2.2-12.4,9.2-11.8,16.8-24.5,21.5-39.4,3.4-10.8,0-14.9-10-14.1-21,1.8-39.3,11.4-58.8,25.6,5.6-22.3,6.4-42.1-3-60.9-1.3-2.6-2.4-5.3-3.9-7.8-11.4-18.4-14.7-18.9-28.7-3.4a147.2,147.2,0,0,0-15.2,19c-4.1,6.3-7,13.6-11.3,22.2-4.3-9.1-5.7-18.5-11.2-25.6-2.9-3.8-5.3-9-10.5-8.3s-5.1,6.3-6.8,10.2-2.3,11.6-6.9,16.7c-4.2-13.9-8-27.4-12.4-40.6a85.2,85.2,0,0,0-8-17.3c-6-9.5-10.4-25.4-22.2-22.7s-13,18.1-15.3,29.5c-3.6,17-1.1,34.2,3.5,52-7.7-2.9-10.5-9.9-15.9-13.4s-10.5-8-16.4-4.5-4.4,10.2-5.5,16,5.7,14.8-.4,19c-4.6,3.2-10.7-3.5-16.5-5-14.5-3.9-28.9-2.5-43.3.2-9.1,1.6-9.9,5.5-4.5,13.8,12.4,19.2,30.1,31,50.1,43.6l-48.9,16.6c-5.2,1.8-6.8-.5-5.6-5.9.2-1,.3-2,.4-3,1-13.1-1.3-25.7-12-32.7s-16.6,6-26.5,11.4c3.9-17.9,3.1-34.6,3.4-51.2.1-10.6-1.9-20.7-4.8-30.6-4.2-14.5-6.3-15.3-15.7-4.7-14.7,16.7-26,35.6-30.9,58.5-.7,3.1.3,7-3.9,10-4.9-16.6-7.8-33.6-17.1-47.8s-10.3-13.4-20.4-1.7-17.2,26.2-17.6,47.2c-13.8-22.5-25.6-41.5-48.7-45.2V950.3C7.4,936.8,17,932,29.5,932c14.6,0,29.3-1.4,43.9,5a132.2,132.2,0,0,1-23.8-37c-6.7-15.8-2-23.5,13.6-24.5,21.7-1.4,38.4,9.1,52.5,24.5-5-17.5-4.6-36.4-3.5-55.2,1.5-27.8,16.3-35.5,37.3-20.3,15.8,11.5,25.8,27.6,32.6,46.1,7-11.6,13-25.4,29-24.7,8.2.3,12.8,7,16.3,21.3,9.2-14.2,20.6-25.4,35.8-31s24,1.3,24.9,18.4c1.1,19-2.3,37.3-8.6,55.9,8.5,1.9,15.7-2.6,23.4-2.4,17.9.5,23.8,8.2,20,27.4-3.4,17.2-3.4,17.3,12.9,17.1,12-.1,23.8.1,35.2,4.6,13.2,5.1,16.6,15.3,8.5,27.8-6.5,10.2-15,18.6-25.3,26.8,6.1,3.6,12.7,5.3,17.9,9.6,17.4,14.1,19.4,36.4,3.6,52.2s-35.5,26.8-51.4,24.4c25.1,6.6,56.4,6.9,85.3-15.8,10.5-8.2,15.7-5.8,26.9,7.3,6-15.7,12.7-30.8,22.6-43.9,12.3-16.2,23.9-14.8,32,4.4a162.9,162.9,0,0,1,10.7,39.7c.6,4.3.2,9,4.1,13.2,9.4-9,18.8-18.1,30.9-23.1,18.7-7.9,27.3-3.1,31.3,18a171.2,171.2,0,0,1,2.4,17.5c.3,4.1-2.4,12.1,5.4,10.3,5.8-1.3,12.7-4.8,11.6-13.8-.5-4.4-1.9-8.7-2.7-13a87.4,87.4,0,0,1,3.4-48.1c6.6-18.2,14.8-20.5,29.1-8.7a62.1,62.1,0,0,1,7,7.4c.6-20.8-2.2-41.5,3.1-61.9,6.5-25.2,16.5-30.4,38.2-19.5,5.8,2.9,11,6.9,16.4,10.7s8.7,10,15.3,14.1c.9-18.9,2.6-37,8.9-54.1,4.8-12.8,10.8-25.6,24.7-26.8s18.7,12.3,24.6,22.6,7.5,22.2,6.4,35c9.9-11.5,17.1-25.1,30.2-32.1,5.8-6.1,12.3-10.2,20.7-9.8,17.7.3,20.4,3.7,18.4,23.1-.6,5.9-.2,11.9-1.4,17.7s-2.6,10.4-2.3,16.4c13.1-8.9,27-12.7,42.1-10.9,11.3,1.4,16.1,8.1,13.9,20.3-2.6,14.8-9,28-17.2,40.4,16.3-1.8,31.6-7.6,47.6-7.3s21.5,9,12.8,24.6c-10,17.9-22.9,33.2-38.6,47.8,11.1,6.8,22.8,7.8,35.1,12.9-2.6-12.4-10.2-24.3-.2-33s24.4-3.8,36.6-.4c-10.7-21.2-19.6-43.4-24.1-67.3-2.1-10.9-5.5-23.9,3.5-32.2s20.2-3.6,30.1-.2c19.7,6.6,32.8,22.3,44.7,41.9,1.9-10,5.4-18.2,8.5-26.6,7-18.9,20-20.8,32-4.8,3.8,5.1,6.4,10.8,6.9,14.4,3.7-25.4,14.8-50,31.5-71.6,7.7-10,17.5-7.9,22.9,3.9s7.2,23.5,9,35.7c1.5,9.9,4.7,13.5,14.6,8.1,19.5-10.8,19.7-10.1,6.4-28.4-5-7-9.8-14.3-12.2-23-2.1-4.9-4.2-9.7-7.3-13.9-4.9-6.3-7.1-13.8-8.4-21.7-3-17.3,4.2-25.3,20.5-22.8,2.2.3,4.4,1.1,6.7,1.1,13.9,1.3,27.2,4.4,34,10.8-8.8-12.6-15.1-32.4-16.7-53.5-.7-10.6,6.8-14.9,17.2-11.9,16.1,4.6,29.1,15.6,42.7,25.1,4.2,6.5,12,9.4,14.5,17.2-1.6-21,7.8-38.5,16.6-55.9,4-7.9,13.8-6.2,20.8,3,9.8,12.7,15.5,27.8,21.7,43.1a55.7,55.7,0,0,1,17.1-22.6c8-6.2,15-3.8,18.5,6,2.9,7.9,3.8,16.3,3.6,24.8-.2,6.8,1.4,9.5,8.9,7.8,18.7-4.2,34.6,1.4,39.7,14.3,6.6,16.8.3,31.8-8.6,45.6-2.3,3.7-6,6.2-8,10.2s-.3,9.3,4.9,13c4.1-8,4.3-17.2,7.7-25s6.5-15.3,11.3-22c9.3-12.9,17.2-13,26.1,0a61.9,61.9,0,0,1,7,14.4,106.5,106.5,0,0,1,4.8,15.7c12-18.3,12-18.9-1.9-34-9.5-10.1-18.7-20.5-23.9-34s-.9-22.5,13.4-21.9c16.6.8,33.4-4.1,50.7,2.6-5.7-20-5.1-39.1-3.3-58.4.5-2.4.6-4.9,1-7.3,4.9-26.4,19-32.7,39.1-17.5,1.8,1.4,3.4,3.3,5.3,4.6,5.5,3.5,9.6,10.3,16.1,10.8,8.8.7,7.2-9.8,10.9-14.7,6.8-8.8,12.2-8.9,25,1.3a176.2,176.2,0,0,1,9.4-62.9c3.4-9.9,6.3-22.4,18.4-23.4s17.4,9.9,22.3,19.2c9.5,18.3,15,38,13.2,56.1,2.9-7.5,8.9-16.9,20.4-16.4s14.7,10.1,15.8,20.8a36.8,36.8,0,0,0,1.5,5.7,12.3,12.3,0,0,1,1,4.3c.1,2.7,1.3,1.5,2.3.7,13.6-10.7,30.2-12.6,45.6-18,12.9-4.6,22,4.5,19.1,19-3.4,16.8-12.8,30.4-21.1,44.6-2.5,4.1-6.1,7.4-6.7,12.4a3.8,3.8,0,0,0,3.6,2.1c8.2-.6,17.6,5.3,23.9.4s.7-15.6,1.4-23.7c1.4-17.7,6.2-25.5,22.1-28.4,8.2-1.5,5.3-5.8,4.1-10.3-7-23.9-8.3-48.5-6.8-73.4.9-14.3,8.9-20.1,18.9-12.2,19.7,15.4,36.8,33.7,46.4,58.7-.2,2.3,1.7,1.4-.1,1.8-.1,0-.1-.4-.3-1.3-4.7-16.6-.5-32.5,4.4-47.9s15.9-19.3,28.6-8,21,21.9,25.8,36.9c8.8-21.9,16.8-44.6,35.2-60.2l3.7-1.6c2.6-1,5.1-1.3,7.5.5V962.2c-34.3-9.2-65.3,2.2-98.4,21,10.9-17.4,18.2-32.6,23.2-49,1.4-4.7,3.6-10.4.7-14.3s-8.5-.2-12.6,1c-19,5.6-33.1,18.3-43.3,36.3-2.1,3.7-2.6,8.6-7.9,11-1.5-17.3.2-34.5-3.7-51.1-2.8-12.3-6.3-26.9-18.2-29s-16.8,11.7-23.1,20.5c-9.8,13.6-15,29.3-14.4,46.3-6.3-5.8-12-11.9-18.5-16.7s-12.5-7.9-19.3-4.1-5.8,11.7-5.6,18.6c0,3.9.7,7.8,1.4,14.3-16.2-16.7-32.6-27.6-54.4-26-11.3.8-13.3,4.6-9.7,15.5,6.3,18.7,13.3,36.7,30,51.6-16.5.2-29.8,1.4-42.9,4.3-9.2,2-11.5,5.7-6.9,15.1s9.7,15.3,19.3,22.3c-21.9,3.9-41.1,6.9-58.6,16.5-4.8,2.7-12,4.3-12.5,10.3s6.9,8.4,11.3,11.6c9.8,7.1,20.9,11.7,32.7,14.7-1.9,6.6-7.1,7-10.9,9.3-6.9,4.2-12.9,9.4-16.7,17.1-6.8,14-2.8,24.1,11.3,29.8,22.4,9.1,45,11.3,67.9,1.6-29.9,26.8-63.2,37.4-101.3,25.8-18.4-5.7-19.8-4.6-21.7,17.1a57.5,57.5,0,0,1-1.1,5.8c-11.2-13.5-19-28.6-32.4-38.6-20.8-15.4-23.1-14.8-27.5,11.3a130.1,130.1,0,0,0-.6,41.3c.4,3.2,2.8,7.1-1,9.3s-5-1.4-7.3-2.9c-13.5-8.8-27.7-15.1-43.8-14.8-8.6.2-12.4,4.2-12.4,13.6a97.7,97.7,0,0,0,5.3,30.5c1.3,3.7,3.2,9.2-2.8,8.5-9.4-1.1-18.8-3.7-28-6.7-5-1.6-3.8-6.9-2.9-11.5,4-19.7-3.7-35.7-13.6-51.1-3.9-6.1-7.4-5.5-12.1-.7-8.7,8.9-13.7,20.6-21.5,33.5-1.6-18.2-.6-33.9-5-49.1-12-41.5-26.3-45.6-54.4-15.2-7,7.6-10.4,17.3-16.4,27.8-3.8-10.9-7.3-20.7-10.7-30.4-4.9-14.3-12.3-26.5-23.4-35.9-8.5-7.2-15.4-6.8-21.3,4-9.2,16.7-10.6,34.2-4.5,55-12.7-7.8-23.1-14.4-33.8-20.6-8-4.8-16.5-8.2-26-8.3-15.7-.3-18.4,3.4-12.8,19,4.8,13.3,11.4,25.7,21,40.4-16.3-6.5-29.8-10-44.1-8.8-7.8.7-16.9.8-20.1,9.4s4.6,13.1,9,18.6c7.1,9,15.9,15.9,26.6,24.8l-61.6,7c-4.1.5-9.5.6-11.1,4.6s3.8,7.2,6.6,9.7c16.6,15,33.9,28.5,56.7,31.2-7.6,8.7-40.1,27.8-59.9,35.3,2.8-7.8,7.2-13.6,7.5-21,.8-14.2-2.4-17.3-14.9-13.5-10.6,3.3-20,9.3-31.1,17.7,6.2-24.4,12.8-46.2,14.5-69.3.8-10.2,2.2-22.1-4.3-28s-16.3,1.8-23.8,6c-20.9,11.8-31.6,31.9-37.6,58.4-7.7-11.7-14.2-21.9-20.9-31.9-8.9-13-14.9-12.3-21.1,2.7-2.1,4.9-2.8,10.4-4,15.6s-2.1,9.2-3.9,17.6c-9.4-30.8-26.9-50.3-47.6-67.2-8.4-6.9-12.9-7-14.8,6.2a171.2,171.2,0,0,0-.9,38.5c.7,8,0,11.1-8.3,9a323.9,323.9,0,0,0-32.3-6.5c-8.1-1.3-9.1-3.9-4.1-11.2a147.3,147.3,0,0,0,23.8-59.4c1.1-6.7,3.8-15-1.7-19.6s-11.4.7-16.9,2.5c-16.4,5.6-30.7,15.1-43.3,27.7C742.7,1224.7,741.5,1223.9,742.4,1220.8Z" transform="translate(-2 161)" style="fill: #bfd79b"/>
                    <path d="M813.2,932.1l-18.6,9.4c-12,2-14.4-7.7-16.9-16.7s-.1-16.8,7.7-21.5,15.4-8.8,22.3-14.4,5-8.6-1.5-11.8c-12.8-6.2-26.3-6.9-40.2-6.4-17.6.6-18.8-1.4-12.9-18.7,1.9-5.6,4.5-11.9-.5-16.5s-9.3.8-13.9,2.6-10.4,6.7-15.2,2.1-1.5-12.1,1.2-17.6c6.9-14.5,10.1-29.6,8.8-45.9-1.1-14.3-5.1-16.1-16.3-8.8-9.5,6.1-14.7,16-20.9,25.1-5,7.1-9.3,14.7-13.6,22.3-2.4,4.3-5.4,8.5-10.7,7.7s-5.9-5.7-7.5-9.8c-5.6-14-6.1-14.2-14.8-2.6-3.5,4.7-6.7,10.6-12.9,9.5s-8.3-8.2-9.9-14.5a133.7,133.7,0,0,0-10.5-27.4c-7.1-14.2-11.7-14.8-22.7-3.2s-16.1,26.1-17.8,42.3c-.6,5.9-.5,12.5-6.9,14.8s-10.4-2.3-14.3-6.5c-7.8-8.4-15.7-16.6-25.7-21.9-4.8-2.5-10.4-7.8-15-3.7s-1.2,11.2-.3,16.8c1.3,8.4,4.9,15.9,8.2,23.6s4.8,16.8-2,23.3-17.5,15.1-29,14.5c-6.8-.3-7.6-7.3-7.2-13.7s2.9-14.5,1.8-22-4.4-10.5-11.3-6.4a82.6,82.6,0,0,0-25.1,22.5c-8.1,11.2-14.8,10.1-20-2.7a67.3,67.3,0,0,1-4.4-15.5c-2-13.2.1-16.6,12.5-18.7a31.2,31.2,0,0,0,14.1-5.4c6.1-4.4,13.2-9.3,11.3-18.5s-8.8-13.5-16.8-15.5c-24.2-6.3-24.2-6.2-15.2-30.2,1.5-4.1,4.8-9.2,1.9-12.5s-8.5.5-12.4,2.4c-23.3,11.9-23.6,11.8-23.4-16.1.1-9.4.9-18.9-.8-28.2-1.3-7.7-5.4-10.2-11.5-4.5s-10.5,9.3-14.9,15.2-6.7,10.9-13.2,12.2c-2.9.4-5.4-.7-7.7-2.4-10.1-15.7-15-34.9-27.5-49.1-1.6-1.8-2.5-4.2-4.2-5.9s-3.2-3.9-5.7-3.2-3.4,4.3-3.5,7.2c-.5,9.4-.1,18.8-.4,28.2-.1,5.4.8,10.9-1.8,16-1.2,2.9-2.9,5-5.9,5.6-8.1-.2-11.4-7.6-15.5-13.2-6.6-9.1-14.9-15.9-23.6-22.2s-12.3-5-13.2,7.7c-1.4,18.1,2.1,35.4,6.5,52.7s.4,23.7-16.4,24.5c-9.3.5-18.2-1.5-27.1-3.2-11.2-2.1-14-6.6-11.5-18.5,1.6-7.2,3.8-14.3,5.1-21.6.9-5.2,3.6-11.6-.9-15.3s-8.7.8-12.7,2.8a89.2,89.2,0,0,0-28,21c-4.1,4.7-8.3,9.3-12.7,13.6s-7.1,9.1-12.8,5.7-5-8.9-4.1-14.5c.2-1.5.4-3,.5-4.5,0-6.5.5-14.1-5.2-17.4s-10.1,4.2-14.7,7.8c-7.1,5.5-11.9,17.7-22.3,14s-5.9-15.5-7.7-23.7c-3.5-16.5-10.2-30.6-22.1-41.8-10.2-9.5-13.9-8.5-18.1,5.2-6.4,20.8-3.7,42.2-3.9,63.5-.1,2.9.8,5.9.5,8.8-1.1,9.6-7,12.7-12.9,5.8-8.3-9.6-19-17.1-24.1-29.8,0-56.5.3-113-.2-169.5-.1-10.2,1.8-12.2,11.2-12.2q394.5.4,789.1.3,552.9,0,1105.6-.3c10.3,0,12.9,2.5,12.6,13.7-.8,29.2-.3,58.4-.3,87.7-2.5,5.6-1.2,12.7-5.5,17.8h.1c-9.1,1.1-10-6.6-12-13-4.9-16.5-10.2-32.9-22-45.4-10-10.5-14.4-10.1-23.2,1.8a110,110,0,0,0-16.8,32c-1.8,5.5-3,12.7-9.6,13.1s-9.7-6.4-12.3-12.1c-6.3-13.5-15.3-24.5-25.5-34.6-4.7-4.7-9.5-10.3-16.7-7.4s-6,10.4-7.6,16.4c-2.9,10.3.8,19.5,3.6,28.8,1.5,4.8,3.9,9.6.3,14s-9.2,2.5-14,.7c-13.8-5.3-27.3-11.3-42.2-11.4-4.4,0-9.8-1.2-12.5,3.9s1.4,9.1,3.6,13.3c3.7,7,9.4,12.1,14.1,18.1,3.4,4.2,6.7,8.9,3.9,14.6s-8.3,6.3-13.3,5.3c-11.7-2.4-22.7.2-33.2,5.4-7.4,3.6-8.2,8.5-1,14s14.9,11.3,23.6,14.8c4.2,1.8,8.6,4.7,7.8,10.8s-5.3,6.7-10,7.9c-8.8,2.3-17.5,5-25.8,9.2-5.1,2.5-11,5.9-16.7.6-4.8-7.3-2.9-21.9-13.2-21.8s-14.7,11.9-19.4,21a53.8,53.8,0,0,1-6,9.8c1.4-21.7-.9-42.5-8.7-62.1-4.5-11.4-10.1-27.2-20.8-27s-12.6,17.3-15.8,28.3a172.7,172.7,0,0,0-6.8,52.7c.2,5.7.1,11.5.1,19.5-8.3-4-9.1-11.1-12.7-15.6s-3.4-9.3-8.5-8.2-5.5,6.3-6.8,10.5c-2,6.5-3.8,13.1-5.8,19.8-14.6-4.7-24.8-16.5-36.7-25.1-14.5-10.4-17.1-9.6-23.7,7.9-1.8,4.5-3.1,9.3-4.6,14-3.6,3.2-7.6,3-11.6,1.3-10.6-4.6-11.5.9-10.1,10.5s3.3,17.4,4.8,26.2c1.9,11.6-2,16.9-12.7,17.3s-19.2-.1-28.8.2c-14.2.5-19-6.1-14.3-21,5.1-16.5,10-32.9,9.3-50.6-.3-5.2,1.9-12-3.4-15s-9.1,3-13.2,5.7a96.4,96.4,0,0,0-27.1,26.9c-3.3,4.8-7.1,10.8-13.2,7.6s-4.4-9.7-4.2-15.8c.5-15,4.4-30.1-.4-46.5-15.8,12.2-25.1,27.7-32.9,44.6-1.4,3-2.3,6.4-3.8,9.5-6.2,11.9-12.3,12.6-19.2,1.4-5.4-8.8-12-16.2-19-23.3s-10.3-4.3-12.8,4.2c-3.9,13.4-2.7,27.4-4.3,41.1-1.3,11.1-4.5,13-13.1,7-6-4.2-13.2-13.5-18.7-8.5s1.7,15.1,4.2,22.6c3.9,11.8,3.7,12.9-4.5,14.2-13.9-7.1-26.7-16.6-41.2-22.6-10.5-4.3-12.8.1-10.4,9.7,5.8,22.1,11,44.6,25.7,63.2-16-7.1-30.4-17.3-48-17.5-16.8-16.5-17.8-16.5-38.7-1.3-4.6,3.3-8.5,7.4-12.6,11.2-11.6,10.7-17.7,8.5-21.9-7.7-1.4-5.3-1-10.8-2.5-16-.7-2.3-1.2-4.8-2.1-7-4.7-12.6-10.7-27.3-23.7-27.7s-14.4,15.6-18.8,26.1a181.3,181.3,0,0,0-6.1,18c-3.2,10.4-8.9,11.3-16.1,3.4-1.6-1.8-2.6-4-4-6-9.1-12.4-11.3-12-17.3,3.2-2.2,3-4.7,5.4-8.5,5.5-6.6-1.7-8.7-8-11.6-13.5-7.7-14.7-15.9-28.8-27.8-40.1-3.3-3.2-6.4-8.2-11.5-6.3s-5.7,8.5-6.2,13.8c-1.3,14.4.1,28.4,5.8,41.9,2.6,6.2,8.2,14.5,1.3,20.3s-13.7-1.3-19.7-5.4c-7.9-5.3-10.5-14.5-13.6-23.3-1.9-5.4-2.9-13.7-8.4-14.1s-7.6,8.6-10.1,14c-5.7,12.5-7.6,26.3-10.4,39.7-3.5,16.4-8.8,19.8-23.1,13.8-5.5-2.3-9.7-2.2-13.6,2.3S816.9,929.2,813.2,932.1Z" transform="translate(-2 161)" style="fill: #f3f2e0"/>
                    <path d="M1920.7,1824.5c0,54.6-.3,109.1.3,163.6.1,10.2-1.8,12.2-11.2,12.2q-393.9-.6-787.8-.3-553.5,0-1106.9.3c-10.3,0-12.8-2.5-12.6-13.7.6-54,.2-108,.2-162.1,6.3-7.7,13.7-7.2,21.5-3.3s6.5,12.4,6.6,19.6c.2,11.2,5.2,15.8,15.2,15.6s18.1-.3,27.1,0,16.6-3.2,16.9-15.4c.1-5.1,1.5-9.7,6-12.5,10.8-2.1,15,3.7,14.9,14.6-.1,19.9-2.3,39.8-1.1,59.8a70.6,70.6,0,0,0-.2,17.2c1.1,13.9-5.4,18.8-17.8,15.2-4.6-1.3-11.4-8.3-13.7-.4s3.2,15.1,10.6,18.6c4.2,1.9,9,1.2,13.5,1.2,30.6.1,61.1.3,91.7,0,11.9-.1,23.6,1.8,35.4,2.8,4.5.3,10.6,2,11.3-6.5.6-6.5,1-10.7-6.5-14.7s-20.3-2.8-23-17.5c-1-5.2-7.2-.8-9.6,2.5-6.3,8.5-12.1,12.3-19,.7-2.1-3.5-5.5-2.3-8.7-1-12.3,5.4-24.3,6.7-35.5-3.3-3.3-2.9-5.8-1-8.3,1.7-4.4,4.6-9.4,6.4-14.6,1.9s-8.8-9-5.4-16.5c-.8-10.6-.3-21.2-.4-31.8,0-4.8-.4-9.8,4.2-12.9,14.5-6.5,29.7-3.1,44.6-3.7,19-.6,19.6-.8,22-21.1.6-5,1.1-9.9,5.1-13.3,6.3-4.1,12.8-4.6,19.5-.8s6.5,12.4,6.7,19.6c.2,11.3,5.4,15.8,15.4,15.6s19-.2,28.5,0,14.8-5.1,15-16.1c.1-6.8-.2-14,5.9-18.7s12.9-4,19.3-.2,6,12.8,6.3,20c.5,10.4,5.3,14.7,14.7,15s18.2-1.7,26.3,4.5c4.4,9.9,2,20.3,2,30.4-.1,19.2,2.2,38.5-1.8,54.6,4.2-19.9,1-43,2-65.9.2-6.3-1.3-12.9,2.8-18.5,13.2-5.6,16.3-17,15-30.9,3.6-11.1,11.8-11,20.3-10a11.5,11.5,0,0,1,4.3,2.1c5.1,4.7,4.7,11.4,4.8,17.7,0,10.9,4.4,16.3,14.7,16s19.9-.2,29.9,0,14-4.6,14.3-15c.2-6.7-.6-13.9,4.2-19.6,7.5-7.2,15.2-7.4,22.9-.3,4.4,4.6,3.9,10.7,4.4,16.5,1.3,16.7,2.5,18,18.3,18.3,8.1.2,16.3-.2,24.5.1,10.5.4,16.3-3.9,16.2-16.1,0-6.3-.2-13,5-17.8,2.6-2,5.6-2.2,8.7-2.3,7.4.5,10,5.5,10.1,12.8.6,25.6-1.8,51-1.9,73,1.7-7.6.3-19,.6-30.2.2-5.9-.5-12,4.9-16,13.5-6.2,27.7-2.8,41.6-3.3,18.7-.8,19.1-.8,21.6-21.4.6-4.9,1.2-9.7,5.1-13.1,6.4-4.1,12.9-4.6,19.5-.8s6.5,12.4,6.7,19.6c.2,11.2,5.2,15.8,15.2,15.6s19.9-.1,29.9-.1,13.2-4.5,13.7-14.2c.3-7.2-.6-15,5.7-20.3s12.5-4.3,18.9-.8,6.5,13.4,7,21.1.7,15,8.2,18.8c4.5,14.8.9,29.8,1.8,41.8.8-7.4.1-17.8.2-28.2.1-5.9,0-11.9,5.7-15.4,7.7-3.9,15.9-2.4,23.9-2.7,16.4-.6,17.6-1.5,19.2-18.9.5-5.8.6-11.8,5.6-15.8s12.8-4.2,19.2-.5,6.6,11.5,6.5,18.3c-.1,12.7,5.7,17.5,16.9,16.9,8.1-.4,16.3.1,24.4-.1,14.8-.3,16.3-1.8,17.7-17.4.6-6.3.3-12.9,5.9-17.3s12.6-4.1,19-.4,6.5,12.4,6.6,19.6c.2,11.3,5.2,15.8,15.3,15.6s19.8-.1,29.8-.1,13.3-4.3,13.8-14.1c.3-6.7-.7-14.1,5.7-18.7a6.9,6.9,0,0,1,4.7-.2c5.5,3.4,3.8,9.3,4,14.4.5,17.9-1,35.9,1.3,53.7-6.6,20.4-13.2,24-28.7,15.3-2.9-1.7-4.6-1.6-7.2.4-11.5,8.6-23.4,12.9-36.5,3.4-2.5-1.9-5.5-1.8-7.3.9-6.6,9.3-12.6,7.4-19.2-.1-4.8-5.4-9.2-8.8-11.4,2.9s-14.9,6.5-21.4,12.8c-3.6,3.4-8.3,3.2-7.4,10.8s5.2,8.2,10.5,8.1c45.5-1,91,2.6,136.4-3.1,5.7-.7,10.9-1.8,14.2-7.4,2.2-3.8,4.8-8,2.3-12.3s-5.9-.6-8.8-.2c-6.1.7-12.1,1.6-14.9-6.5-.4-30.7-4.4-61.3-.3-91.9,2.5-2.9,5.6-3.4,9-2.1,7.4,4.4,6.2,12.5,6.6,19.7.5,9.8,4.9,14.2,13.8,14.2h31.4c9-.1,13.1-4.9,13.6-14.5.3-7.2-.6-15.1,6.1-20.3s12.8-3.9,19.3,0,5.5,9.5,6.1,15.4c1.7,18.2,2.8,18.9,19.9,19.5,11.6.4,23.4-1.8,34.8,2.4,6.5,2.3,8.1,7.8,7.6,14.5.4-4-.5-7.8-1.1-11.7s-.1-10.6-.2-16,0-8.1.1-12.2.7-10.3,5.2-13.5c8.3-4,15.7-3.4,21.7,4.7,1.6,2.5,1.8,5.4,2.1,8.4,2.3,23.3,2.4,23.3,24.5,23.4h9.5c21.9,0,21.9,0,25.8-23.7.7-4.5,2-8.5,5.6-11.2,6.2-3.7,12.5-3.9,18.8-.3s6,10.4,6.5,16.8c1.5,17,2.6,18.1,18.4,18.4,8.3.1,16.5-.3,24.7,0,10.8.5,16.1-4.4,16-16.5-.1-5.4-.3-11,2.6-15.9,8.3-9.4,16.8-9.6,25.6-.8,6,9.6.5,21.9,6.1,31.6,12.8,6.7,20.3,16.5,15.6,29.6,0-1.2.3-5.7,0-10.3-.6-8.9,3.4-12.4,11.3-12.4,9.6,0,19.3.4,26.8-7.9,5.2-10-1.5-23.6,8.2-32.2,6.4-3.9,12.8-4.1,19.2-.3s6.4,11.6,6.4,18.3c-.2,12.9,5.9,17.3,17,16.8,8.6-.4,17.2-.3,25.8,0,10.6.4,16.1-4.2,16.2-16.2,0-6.8-.2-14,6-18.7s13-3.9,19.5.1c4.7,3.5,5.2,8.8,5.8,14.3,2.1,19.5,2.9,19.9,21.2,20.5,14.9.6,30.1-2.5,44.7,3.2,3.3,1.7,4.9,4.5,5.1,8.3-.5,9.9-.2,19.8-.3,29.7.5,5.3-.5,10.6-1,15.9s-.2,12,6.8,13.9c9.4,8.3,20.1,10,31.9,9.7,29.2-.5,58.4-.2,87.6-.1,11.4,0,22.8-.6,34.1,2.1,3.7.9,10.1,3.7,11-4,.8-5.8,2.3-11.7-5.1-16.3s-20.7-4.5-25.1-18c-1.3-4.2-6.4.8-8.8,3.2-5.6,5.6-11.1,6.7-16.9,1-3.1-3-6.2-4.1-9.9-1.5-11.6,8.4-22.9,2.9-33.6-2.1-5-2.4-8.1-3.5-11.6,1.4-.8,1.1-2.1,2.5-3.3,2.4-9.4-.5-18.3-.8-19,13.4,0,1.7-2.7,2.3-4.5,2.7-9.3,1.8-29.6-13.1-32.5-23.8-.9-20.6,1.9-41.1,1.4-61.7-.2-8,1.3-15.2,11.3-13.5,7.3,3.6,7,11.1,7,17.8.1,12.2,5.7,16.7,16.3,16.3s19.2-.1,28.8-.1,13.3-4.5,13.8-14.3c.4-7.2-.6-15.2,6-20.4s12.7-4.1,19.1-.4,6.3,12.7,6.5,20c.3,10.4,4.9,15.2,14.5,15.1h30.1c9.8.1,14-5,14.3-15.4.2-6.8-.4-14.1,5.6-19.1s12.4-4.3,18.9-.8,6.3,12.1,7,19.4-.7,15.1,6.4,19.8c4.1,4.1,3.9,9.4,3.9,14.8s-2.4,8.9-2.6,13.3a12,12,0,0,1,.8-4.2c2.6-6.4,1.4-13.1,2.1-19.7a8.6,8.6,0,0,1,2.4-4c9.7-6.2,20.4-3.7,30.6-3.9s15.1-4.7,15.3-15.9c.2-6.7-.2-14,5.9-18.8S1915.8,1818.9,1920.7,1824.5Z" transform="translate(-2 161)" style="fill: #96b66c"/>
                    <path d="M301.6,709.4c-.1-17.1-1.7-34.4.8-51.4.7-4.1.9-9.8,5.4-11.2s6.1,3.5,8.5,6.2c15.6,18.1,28.9,37.8,34.6,62.3,1.3,1.9,2.1,5,5.2,3,6.2-14.4,16.6-24.7,28.1-33.8s14.2-7.8,17,6.7c3.4,17.6,2,35.4.5,54.6,9.8-6.8,19-12.7,29.3-16.4s13-1.6,10.3,9.9-7.7,23-14.9,34.6c14.5,1,27.6-.1,37.8,12.1,8.4,10,8.1,17.9.5,27.1S448.1,829,436.2,828c-6.7-.6-8.2,1.6-6.3,8.1,2.5,8.5,4.6,17,7.9,29.5,10-19.6,23.5-30.6,39-39,8.7-4.6,12.3-3.9,14.5,7.9,2.5,13.6-2.5,26.1-2.3,41.4,9.7-5.6,18-10.3,26.3-15.3s5-9.6,2-15.1c-8-14.4-10.7-30.4-12.7-46.7-1.1-8.8,1.8-11.8,10.1-8.8,15,5.3,28.6,13,39.4,25.7,4,4.6,7.2,10.1,12.2,14.2,4.6-11.7,3.6-22.6,7-32.8,4.8-14,12.9-24.9,23.2-34.3,8.6-7.8,15.5-6.1,21.3,4.1a144.8,144.8,0,0,1,18.1,52c7.8-9.9,12.2-19.5,20.4-25s12-4.7,12.4,6.3a51,51,0,0,0,4.2,20c8.4-15.2,16.3-29.5,25.8-42.6,6.3-8.8,14.3-15.1,22.7-21.1s14-3.2,16.4,7.6c4.1,19,2.8,37.4-4.8,55.1-2.4,5.8-5.5,11.3-9.4,19.3,7.7-4.1,13.4-7.5,19.4-10.2,14.8-6.6,20.2-1.9,18.9,15.6-.6,7.8-4.7,13.7-8.9,21.4,20.8-2.4,40.6-3,59.1,7,4.2,2.3,10.6,3,11.1,9.5s-5.1,7.8-8.8,10.5c-6.4,4.6-12.9,9.4-19.8,13.2-14.2,7.8-16.2,15-7.1,29.1,1.8,2.8,4.7,4.7,7.1,6.9-13.8,12.8-25,28.2-38.3,47.7,0-10.8-.2-17,0-23.1.4-12.9-3.2-24.3-9.9-34.8-12.7-19.9-22-19.4-31.7,2.9A125,125,0,0,0,704.2,983a98.4,98.4,0,0,1-4.3,27c-11.8-19.3-26.8-31.9-45.7-40-10-4.2-14.3-.8-17.6,8.7-8.3,23.4-7.4,47.5-5.2,71.8.5,5.1,3.3,10.3-.9,16.2-7.6-7.3-12.8-16.6-21.1-22.8s-9.8-6.4-13.5,3.6c-8.1,21.8-9.9,43.2-.3,64.7,2.5,5.7,2.5,9.1-3,11.7a29.2,29.2,0,0,0-4.8,2.9c-6.9,4.8-15.3,13.7-21.5,11.1-8.6-3.8-1-15.4-1.6-23.6-2.7-35.5-11.3-40.5-39.2-20.7-9.5,6.8-16.4,16.8-25.3,27.5-3.6-21.7-5.2-42.3-12.3-61.5-2.7-7.2-3.7-17.9-10.6-19.6-8.5-2-11.8,9-16.7,15.2-12,15.3-16.2,34.8-24.1,54.1-5.8-9.5-4.4-23.5-13.8-25.8s-14.9,8.3-22.4,12.7c-33.4,19.5-65.6,14.3-97.8-3.7,23.1,3.5,43.8-3.2,62.2-17.7,8.4-6.5,18.1-13.1,15.8-27.1s-11.2-23.2-24-27.3l-18.2-5.6c14.7-10,27-19.8,36.1-33.3,7.8-11.4,6.8-14-5.7-18.1-20.1-6.6-40.5-4.4-62.3-2.4,3.8-10.2,9-18.9,10.9-28.9,2.9-15.5,1.4-17.7-12.9-17.4-11.9.4-23.3,4.3-36.2,7.7,2.8-14.2,10.4-25.5,12.1-39.2,1.1-9.9,2.1-19.7,1.9-29.6-.3-12.5-4.6-15.8-15.7-11.8-13.8,5.1-24.7,14.8-33.1,27.6-3.2,4.7-6,9.6-10.6,17-.4-7.9-.6-13.1-1-18.2-.7-7.1-2.7-14.4-9.4-16.8s-10.9,3-15.3,7.5c-7.6,7.7-10.7,18.1-14.8,30.5-8.5-24.8-17.7-45.8-36.9-60.1s-23.5-9-27,14.3c-2.9,19.6-.4,39.5,3.5,59,1.1,5.7,1.9,11.5,3.5,21.1-9.8-13.1-16.7-24.1-27.2-31.2a62.6,62.6,0,0,0-36.4-10.8c-10.7,0-11.7,4.3-7.7,13.4,8.3,18.8,21,34.3,33.9,51.9-29.7-6.5-58.2-18.7-85.3,3.3V724.4c12.3,6.8,22.7,16.2,31.5,31.1-1.1-27-3.7-51.4,1.4-75.5,1.2-5.8,3.1-11.4,4.7-17,2.6-9.7,7.3-11.4,15.1-5.7,20.5,15.1,32.9,35.3,34.9,62.5l.9,11.7c0,.4.5.7,1.6,1.9,7.9-7.8,15.5-16,23.7-23.5,12.8-11.7,17.6-9.9,21.6,8.1a65.4,65.4,0,0,1,1.2,14.7c-.2,4.8-1.3,9.6-2.3,16.8,14.1-14.5,24.6-29.9,39.9-39,10.7-6.4,24.6-18.4,33.3-12.1s.1,23.7-2.3,35.8c-4.4,21.2-4.9,21.1,14.1,24.3,29.6,5.1,30.4,4.3,22.8-26.2-4.6-18.1-4.6-36.3-3.1-54.6.9-10.6,5.5-13.6,14.5-7.5,17.2,11.7,33,24.9,42.6,45C303.9,715.7,303.2,712.8,301.6,709.4Z" transform="translate(-2 161)" style="fill: #cee1ab"/>
                    <path d="M1180,1547.9c-7.3-4.6-3.8-9.6-.4-14.7,10.2-15,24.5-17.4,42.2-13.4-6.5-13.7-12.8-24.7-15-37.4-1.6-9.2.6-11.9,9.2-9.5,10.8,2.9,19.5,9.7,30.5,17.2-4.1-21.1-2.4-39.4,2-57.8,2.7-11.9,6.8-10.3,13.8-4.9,12.9,9.7,24.1,21,32,39.7,8.3-26.9,20.4-47.9,37-65.7,3-3.3,5.6-9.7,10.6-7.8s5.4,9,5.7,14.2c.9,18.5,1.5,37.1-.9,56.1a135.5,135.5,0,0,1,41.1-42.7c14.9-10,19.4-7,20.6,12.4a135.9,135.9,0,0,1-8.4,56.7c-4.5,11.6-3.6,17.6,9.9,16.2,10.9-1.1,24.9,3.5,32-2.3,8.8-7.2-4.2-19.9-3.6-31.1.5-9-7.4-20.5.6-26.4s16,3.5,23.7,7.4c19.8,10.3,35.1,26,48.5,50.2-.3-15.8-3-27.2-.2-38.5,3.7-15.3,8.3-16.9,19.4-7.1,8.7,7.8,17.9,15.1,24.7,24.9,5.6-3.6,3.8-8.5,4-12.6.9-27,12.9-46.7,33.4-61.2,9.6-6.8,15.6-3.6,18.1,7.7,4.9,22.2,8.8,44.5,4.3,67.6-1.1,5.4-.6,11.3-1,19.7,11-11.2,18.8-21.5,30.4-27s13.5-1.3,13.5,9.4v23.4l49.1-44.8c-1.6-5.6-5.4-4-8.1-3.9-21,1.1-39.4-7.4-57.2-17.9-2.6-1.5-6.8-2.3-6-6.8s3.9-3.7,6.4-4.9c16.4-7.5,33.4-13.2,50.6-18.3,3.8-1.2,7.6-2.7,14.2-5-14.7-5.9-26.7-11.3-37.1-19.9-14.4-11.8-13.7-17,2.1-25.7s30.3-4.5,47.1-6.4c-7-13.3-18.2-21-24.5-32.9-7.6-14.3-5.8-20.4,9.5-22.4,18.3-2.3,35.1,4.8,51.9,11.2,3.4,1.3,6.6,3.3,11.5,5.8-3.3-8.9-6.3-16.1-8.5-23.6-4.7-15.8-.7-37.9,7.3-42.8s25.3,3,36.1,18c4.3,5.9,8.2,11.9,12.1,18s7.5,12.2,12.3,20.1c3.9-22.1,15-37.7,26.1-53.4,5.6-8.1,10.9-9.7,19.4-3.2,16,12.2,22.5,30.6,29.7,48.7,2.5,6.4,4.1,13.1,6.3,20.6,6.7-8.9,5.4-21.2,12.7-28.8v330c-4,4.8-8.7,6.6-14.4,4-8.4-4.1-8.3-12.6-7.8-20.3,1.9-23.9-14.8-37.1-25.6-53.6-3.1-4.9-7.4-2.1-10.3,1.7-4,5.3-7.9,11-15.2,11.1-8.5-4.5-16-7.7-21.7,5.3-2.9,6.8-10.9,8.1-17.6,9.4-8.9-4.4-14.5-12.8-20.4-20.7-9.2-12.3-9.8-12.2-18.6-.5-12.1,16.1-23.7,32.2-21.1,55.1a12.5,12.5,0,0,1-6.3,12.2c-5.5,2.9-11,3.2-16.6.3-8.1-4.4-7.9-12.9-7.4-20.6,1.7-23.8-14.6-37.3-25.9-53.3-4.4-6.4-8.6,0-11.8,4.1-9.1,11.5-14.9,26-26.7,35.1-14.1,3-23.7-6.7-34.1-14.4-3.1-8.4-10.2-13.7-14.5-21.3s-9.7-7.3-14.8.1c-11.5,16.9-25.4,32.4-23.1,56.3.5,4.8-.7,11.1-6.2,13.9a17.1,17.1,0,0,1-16.8-.1c-7.3-4.4-7.6-12.2-7-19.4,2.1-23.9-14.3-37.3-25.1-53.7-3.7-5.5-8.3-2.4-11.3,2.1-11.3,16.9-26.5,31.8-23.4,56,.7,5.4-1,10.8-5.6,14.3s-9.6,3.9-14.6.9c-6.6-4.1-6.7-11.4-6.9-18.2s-1.6-10.6-2.7-15.9-2.2-8.9-4.6-12.9c-6-8.7-14.2-15.3-19.6-24.6-3.9-6.8-8.9-5.9-13.1.2-12,17.7-27.2,33.8-24.6,58.8.6,5.1-.8,9.9-5.6,12.5a17.1,17.1,0,0,1-16.8-.1c-7.8-4.9-7.5-13.4-7-21.1,1.5-23.2-14.8-36.1-25.3-52.3-3.1-4.7-7.7-2.5-10.4,1.6-11.2,17-27.1,31.5-24,56,.8,5.9-.9,11.8-6.2,15.5s-11.1,3.6-16.8.6c-7.7-3.9-8.1-11.7-7.6-19.1,1.3-19.9-9.2-34.2-19-48.9-6.3-9.4-13.2-11.7-20.3-.5-1.9,2.9-4.9,4.4-7.8,5.8-9.2,3-17.1,1.1-21.3-8.9S1186.2,1548.7,1180,1547.9Z" transform="translate(-2 161)" style="fill: #96b66c"/>
                    <path d="M2.7,1426.1c10.4,3.9,15.8,14.7,25.7,21.5,3.4-14.2,1.3-27.9,1.6-41.3s-.4-27.8,3.9-41.1,8.5-15.7,20.1-7.7c17.2,11.7,26.4,29.5,30.7,50.6,1.4,6.7,2.5,13.5,4,21.4,10.2-5.6,15.6-15.6,23.6-22.5,4.1-3.5,8.2-9.9,13.9-7.4s7.8,10.5,8,17.6c.2,9.7,0,19.4,0,31.1,14-24.4,32.9-40.9,55.6-52.2,4.9-2.4,10.4-6.9,15.4-3.4s3.4,12,2.6,17.9c-1.4,10.2-3.3,20.6-6.8,30.2s-.5,12.3,8,12.1c10.5-.2,21-.6,31.5.3s8.4-3,5.9-10.2c-7.3-20.5-12.2-41.6-10.4-63.7,1.4-19.1,4.7-20.9,20-12s29.8,23.7,41.2,40.8c-.6-14-1.8-27.5-1.4-41,.3-9.4-.7-22.8,6-25.9s13.6,9.1,18.9,15.7c12.8,15.6,22.3,33.6,28.8,58.1,7.7-16.7,17.5-27.1,27.8-37,13.1-12.8,15.5-12,20,5.8s3,33.3,1.6,51.5c10.3-6.4,19.7-12.7,30.3-16.4,9-3.1,11,.6,8.8,9.2-3.3,12.3-6.2,24.9-16.2,36.6h16c12.4.3,29,11.5,29.8,21.6,1.2,14-7.8,24.1-18,26.6-18,4.3-23.9,13.5-19.3,32.1-21.8,13.9-37.1,32.4-38.1,61.4-.2,7.4.2,15.2-7,19.7a17,17,0,0,1-16.9,0c-7.8-4.8-7.5-13.3-7-21,1.5-23.3-14.7-36.2-25.3-52.3-3.7-5.5-8.3-1.8-11.3,2.6-11.3,16.9-26.5,32-23.3,56.3a14,14,0,0,1-6.2,14c-5.7,1.1-11.4,3.4-17.2.4s-7.7-12-7.1-19.2c2.2-23.8-14.2-37.2-24.9-53.7-3.5-5.4-8.2-3-11.2,1.6-11.2,16.8-26.7,31.6-23.6,55.7.7,6-1,11.8-6.3,15.4s-11.4,3.3-17.1.4c-8.5-5-7.7-14-7.3-22.1,1.1-23.1-14.9-36-25.8-51.6-4.3-6.3-8.8-.3-11.8,4.1-11.3,16.4-24.9,31.5-22.8,54.7a18.6,18.6,0,0,1-2.8,11.2c-2.6,3.6-6,4.5-9.9,4.2s-7.5.6-11-1.1c-7.5-5.2-6.8-13.7-6.4-21.3,1.2-23.1-15-35.9-25.6-51.9-3.2-4.7-7.7-1.9-10.3,2-11.1,17-26.8,31.5-23.8,55.8.8,6.5-1.1,12.8-7.5,16.1s-14.4,3.2-20.1-4.1Z" transform="translate(-2 161)" style="fill: #96b66c"/>
                    <path d="M2.7,1765.1v-86.3c7.4-8.4,15.3-7.1,23.6-1.7a14.2,14.2,0,0,1,3.9,9.2,645,645,0,0,1,0,70.9,14.8,14.8,0,0,1-3.7,9.3C18.3,1772.2,10.2,1773.6,2.7,1765.1Z" transform="translate(-2 161)" style="fill: #97b66c"/>
                    <path d="M1920.7,1678.8v86.3c-5.6,6.1-11.7,6.3-18.1,1.4a13.9,13.9,0,0,1-3.8-9.1,639.5,639.5,0,0,1,0-70.6,14.1,14.1,0,0,1,3.6-9.2C1908.8,1672.6,1915,1672.7,1920.7,1678.8Z" transform="translate(-2 161)" style="fill: #97b66c"/>
                    <path d="M2.7,1765.1a53.9,53.9,0,0,0,21.9-.1c2.9,1.8,5.3,4.5,5.2,8-.1,17.4,6.4,35.6-5.2,51.6a55.7,55.7,0,0,0-21.9-.1Z" transform="translate(-2 161)" style="fill: #dde4d4"/>
                    <path d="M24.4,1679.2l-21.7-.4v-56.5l21.7-.4c4.1,2.3,6,6.3,5.8,11C29.5,1648.5,36.2,1665.2,24.4,1679.2Z" transform="translate(-2 161)" style="fill: #dee4d5"/>
                    <path d="M1904.3,1765a32.6,32.6,0,0,0,16.4.1v59.4a32.6,32.6,0,0,0-16.4.1c-2.9-1.8-5.2-4.5-5.2-8C1899.3,1799.2,1892.7,1781,1904.3,1765Z" transform="translate(-2 161)" style="fill: #dde4d4"/>
                    <path d="M1920.7,1678.8l-16.1.4a11,11,0,0,1-5.8-10.9c.7-15.6-6-32.4,5.8-46.4l16.1.4Z" transform="translate(-2 161)" style="fill: #dee4d5"/>
                    <path d="M1915.2,661.9c.6-6.4,1.8-12.6,5.5-17.8v14.8Z" transform="translate(-2 161)" style="fill: #d3e3b3"/>
                    <path d="M515,1536.4c-5.5-14.6-10.2-29.6-12.4-45.3-.6-4.5-2.3-9.3,1.5-12.5s7.8-.1,11.6,1.3a95.2,95.2,0,0,1,41.1,28.4c2.3,2.7,4.1,6.7,9.5,6.4,1.2-23,6.3-44.5,23-60.8,13.4-13.1,18.9-12.2,28.6,4.7,7.7,13.6,12.4,28.5,16.1,46,7.4-9.5,12.3-19.2,20.5-25.5,6-4.7,10.7-6.3,11.5,4.8.6,7.1,2.3,14.2,3.9,23.5,9.8-17.3,16.9-33.7,27.9-47.7a79,79,0,0,1,17.1-16.6c13.1-9.1,16.6-7.8,20.4,9,5.2,23.3.5,45-11.6,66.8,8.1.3,12.4-5.6,18-7.5s11.8-4,16.9.8,2.6,10.9,1.3,16.7c-4,18.1-4,18.1,13,19.6,3.2,6.2.2,11-2.9,16-6.3,10-13.4,19.4-19.1,29.8-6.3,7.8-13.5,12.4-23.3,8.1-6.7-16.6-16.3-31.3-26.4-45.7-5.5-7.8-10-8.9-15.7-.4-11.4,16.9-25.5,32.3-22.4,56.2a13.7,13.7,0,0,1-6.6,13.6,17.3,17.3,0,0,1-16.8.1c-8.4-5.1-7.5-14.2-7.1-22.3.9-23-15.2-35.7-25.9-51.6-3.1-4.7-7.6-1.7-10.2,2.2-11,17-26.8,31.5-23.6,55.7.6,4.9-.6,9.9-4.3,13.5a8.5,8.5,0,0,1-5.8,1.9,8.8,8.8,0,0,1-3.8-1.4c-4.9-5.2-2.7-11.7-2.5-17.8.6-15.8-1.7-19.4-15.4-23.5-11.2-8.9-17.7-22-25.6-33.9A11.9,11.9,0,0,1,515,1536.4Z" transform="translate(-2 161)" style="fill: #96b66c"/>
                    <path d="M386.1,1621.9c-7.6-35.2,14.5-56.9,31.3-81,7.5-10.8,8.5,2.9,12.9,4.1l8.1,11.8c12,3.9,23.8,20.3,25,34.9.8,10.8,0,21.6-.4,32.5,1.5,18.2,1.1,36.5.1,54.7,2.9,25.7-1.5,51.3-.2,77,2.9,7.8-2.8,15.8.2,23.7.3,15.3,4,31.1-5.5,45-.1,38.6-.1,38.6-36.3,38.6s-34.8,0-35-38.6c-8.5-9.8-1.4-23.3-6.8-33.8,1.5-13.1,3.4-26.2,1.6-39.5-1.9-24.3-1.3-48.6-.3-72.9-.9-13.1-.9-26.2-.6-39.3C380.4,1632.6,381.4,1626.6,386.1,1621.9Z" transform="translate(-2 161)" style="fill: #fefefe"/>
                    <path d="M909.7,1824.6c-.1,38.6-.1,38.6-36.3,38.6s-34.9,0-35-38.6c-5.2-4.4-5.8-10.6-6.1-17-.7-14.1.5-28.2.1-42.3-.3-28.7-1-57.3.5-86a466.4,466.4,0,0,1,.1-56.7c.5-9.3-3.5-19.6,5-27.1-.7-9.7,4.1-16.9,9.7-23.4,10-11.5,14.6-28.1,28.9-35.3,1.4-.1,3.4-.6,4,.4,11.9,22.8,38,37,35.3,68.7a121.6,121.6,0,0,0-.8,19.1c1.6,18.2,1,36.4.1,54.5,1.5,28.6.9,57.1.5,85.7-.4,13.6.8,27.3.2,40.9C915.6,1813,915.4,1819.8,909.7,1824.6Z" transform="translate(-2 161)" style="fill: #fefefe"/>
                    <path d="M1172.8,1863.4c-17.6-.1-35.3-.4-52.9-.1-7.4.2-10.8-2.2-10.3-10.8s.1-18.6.1-27.9c-5.2-4.4-5.8-10.5-6.1-17-.7-14.1.4-28.2.1-42.3-.4-28.5-1-57,.5-85.6-.9-18.1-1.5-36.3.1-54.5a37.1,37.1,0,0,0-.3-8.8c-6.3-33.7,13.4-55.1,31.3-77.2a7.9,7.9,0,0,1,7.5-2.7c10.9,2.9,13,15,19.6,22.5,5.2,5.9,9.2,13.1,13.8,19.7,5.9,1.4,6.9,7.1,9,11.9a25,25,0,0,1,1.6,11.5c-2.7,7-.8,13.9.7,20.7,1.8,10.5-3.7,20.3-2.5,30.7,0,2.3,0,4.6-.2,6.9-.9,4.9-2.5,9.7-2.5,14.8-2.9,13.2-6.7,15.2-15.6,7.5-4.3-3.6-8.3-7.6-13.4-9.5s-5,1.4-3.8,5.3c2.5,6.7,6.8,11.3,13,13.7,4.6,1.6,9.9,1.4,13.3,6s3.8,10.6,3.8,16.4c-.1,4.2.1,8.4-.4,12.6-2.9,11-2.5,22.2-2,33.5,2.2,19.1-1.7,38.1-.4,57.2-1,14.6,2.3,29.3-2.1,43.7Z" transform="translate(-2 161)" style="fill: #fefefe"/>
                    <path d="M1000.2,1824.7c-1,12.1,4.8,28-2.4,35.6s-22.4,2.6-34.1,2.8c-34.8.3-34.8.1-34.8-37.1,0-.4-.1-.9-.1-1.4-5.1-4.4-5.8-10.5-6.1-17-.7-14.1.5-28.2.1-42.3-.3-28.5-1-57,.6-85.6-.9-18.1-1.6-36.3.1-54.5-5.5-30.5,4.6-55.6,23.5-77.5,4.2-4.8,7.3-11.6,14.9-11.2s8,9.1,13.4,11.8c16.7,7.5,24.4,22.6,28.9,40.3,0,9.1-2.4,16.4-7.7,24.2-9.3,13.8-8.7,30.3-.4,44.6a69.6,69.6,0,0,1,8.8,26.1c3.2,23.9-.3,47.7-1.1,71.6-4.4,9.3-8.6,4.4-12-.7s-4.8-12.7-8.2-18.6c-1.9-3.1-2.9-8.4-7.5-7s-3.4,6.5-2.9,10.2c2.6,17.2,9,32.9,16,48.4,4.6,10,14,17.2,14.6,29.4C1003.7,1820,1002.1,1822.4,1000.2,1824.7Z" transform="translate(-2 161)" style="fill: #fefefe"/>
                    <path d="M515,1536.4l28.7,43c3.7,21.3-14.4,36.3-36,30.1-2-.3-4-.5-5.6,1.2-2.2,9,3.4,13.4,8.6,18s8.5,5.5,12.4,8.9,6.9,6.1,11.9,5.6c12-1.3,16.6,5.2,17.8,17.8.7,8.2,2.8,16.2.4,24.4-3.5,26.1,2,52.1,0,78.2-.7,7.4,2,15-.9,22.4s-11.9,4.4-17.9,7.1c.2,12.5,14.3,14.6,15.9,25.7a9.8,9.8,0,0,1-2,6c-1.5,12.1,4.7,27.9-2.6,35.6s-22.5,2.5-34.1,2.7c-34.8.3-34.8.1-34.8-37.1,0-.4-.1-.9-.1-1.4-10-16.3-6.3-34-4.4-51.4a30.9,30.9,0,0,1,7.3-22.6,62.1,62.1,0,0,0,10-17.3c2.5-6.6,2.4-11.6-6-11.8-4.7-.1-8.8-1.8-11.3-6.7-3.1-12.1-1.4-24.2-1-36.4a402.3,402.3,0,0,1,0-54.9c-.5-11.1-1.5-22.3-.1-33.4s5-19.7,16.4-21.5l18.3-25C508.3,1540.4,509.8,1535.6,515,1536.4Z" transform="translate(-2 161)" style="fill: #fefefe"/>
                    <path d="M1090.5,1824.6c0,38.6,0,38.7-34.9,38.5-11.3,0-25.5,3.8-33.2-2.1s-1.4-23-3.5-34.9l-.3-1.5a25.1,25.1,0,0,1-2.6-4.5c-1.8-16.9-.3-33.8-.8-50.7v-45.1c.4-13.3-1.7-26.8,3.4-39.7,3.8-8.2,11.3-4.7,17-5.7,16.9-2.9,28.5-12.4,33.4-30s3.5-31.9-8.4-44.9c-5.5-6-12-10.3-19.6-12.1a35.6,35.6,0,0,1-15.8-8.1,9.7,9.7,0,0,1-3.1-5.8c3.1-17.8,14.5-30,25.6-41.8,6.1-6.5,13.3-2.9,18.7,4s7,15.7,10.2,23.8c1,1.5,2.1,2.9,3.2,4.4,11,2.7,15.4,11.2,16.4,22.5s.2,21.7-.2,32.6a415.6,415.6,0,0,1,0,55.8c1.5,28.6.9,57.2.6,85.9-.4,13.6.7,27.2.1,40.9C1096.4,1813,1096.3,1819.8,1090.5,1824.6Z" transform="translate(-2 161)" style="fill: #fefefe"/>
                    <path d="M747.8,1593.1c-.1-13.4,10.3-20.2,15.8-30.1,2.8-5,6.2-9.7,9.3-14.5,10.6-13,10.6-13,23.8,3.4,8.3,5.4,18.2,9.5,16.4,23.3,6,7.6,6.6,16.8,6.6,26.3,7.2,5.5,4.7,13.7,5,21.1a445.4,445.4,0,0,1,.1,56.6c1.4,28.6.9,57.3.5,86-.4,13.6.8,27.2.2,40.9-.4,6.9-.5,13.7-6.2,18.5-.1,38.5-.1,38.5-35.9,38.6l-13.5.3c-2.9.4-4.5-1.4-5.7-3.9-2.2-14.5-.8-29-.9-43.5.6-6,4.7-9.1,8.9-12.4a83.9,83.9,0,0,0,25-30.8c1.9-4.1,5.8-9.8.4-13s-7.2,2.9-9.6,6.4-5.3,10.3-7.8,15.6-5,15.5-12.6,12.7-7.5-12.2-5.3-20.3-.1-14.6-1.7-21.8c-.3-4.6-.2-9.3-.3-13.9.2-6.5-1.1-12.6-2.6-18.8-2.6-16.5-6.2-33-5.4-50,.4-6.8,4.2-11.5,8.3-16.3,14.6-17.1,13.4-32-3.4-47.4C753.4,1602.6,747.1,1600.7,747.8,1593.1Z" transform="translate(-2 161)" style="fill: #fefefe"/>
                    <path d="M961.9,1536.5c-3.6,5.6-6.5,11.9-10.8,16.7-17.2,19.3-26.5,41.4-22.5,68.7-6.2,7.3-12.4,7.3-18.7,0,4.9-29.3-7.5-51.6-24.8-72-3.3-3.9-5.6-8.7-8.5-13.1-4.6-5.3-5.2-10.8,1.1-14.5s6.3,3.7,8.2,6.7,5.7,9.2,7.1,14.3c4.2,15.9,12.5,27.1,28.9,31.2-3.8-11-10.4-20.3-12.9-31.7-3-13.9-2.3-27.3.9-41s8.8-13.2,17.9-7.1C943.2,1504.9,952.6,1520.6,961.9,1536.5Z" transform="translate(-2 161)" style="fill: #97b66c"/>
                    <path d="M1076.6,1564c-5.1-6.8-10.8-13.3-15.1-20.6-5.3-8.8-8.7-7.1-13.4.5-7.4,11.6-15.5,22.7-23.3,34.1-.9,3.4-.4,7.5-3.6,10-6.4,6-12.8,12.8-20.7,2.1-4.5-16.7-18.6-26.6-25.2-41.8,7-23.2,9.1-23.6,25-4.5,3.2,3.9,6,8.3,10.1,14.1,4.4-18.7,9.7-35.2,18.8-50.1,6.6-10.9,11.8-13.7,22.4-4.4C1069.9,1519.3,1077.2,1539.4,1076.6,1564Z" transform="translate(-2 161)" style="fill: #97b66c"/>
                    <path d="M487.6,1568.6c-15.3,14.9-9.6,35-11.1,53.3-6.2,7.3-12.4,7.3-18.7,0,2.8-24.9-2.8-46.9-19.4-65.1,5.1-23.6,22.5-33.3,40.5-42.4,5.7-2.9,8.4.7,9.8,6.1,2.7,10.2,2.3,20.5.3,30.7C487.9,1557,485.6,1562.6,487.6,1568.6Z" transform="translate(-2 161)" style="fill: #97b66c"/>
                    <path d="M1179.9,1589.1c-1.2-3.5-2.5-7-3.7-10.4,1.3-10.3,2.5-20.5,3.8-30.8,8.8-13.2,15.1-14,19.8-.9,3.6,10.1,8.9,12.9,17.3,13.2,5.1,2.6,8.4-1.9,12.5-3.4,6.8-2.3,13.1-2.5,18.8,3.5s5.7,13.2,3,20.3c-5.2,13.7-13.7,23.9-27.7,27.4C1207.7,1605.5,1192.7,1600.3,1179.9,1589.1Z" transform="translate(-2 161)" style="fill: #96ceda"/>
                    <path d="M1090.8,1621.9c-1.5-18.3,3.9-38.4-11-53.5,15.4-14.3,30.3-29.7,50.8-35.4,4.7-1.3,9.8-4.6,12.2,3.5-3.6,5.6-6.6,11.9-10.9,16.7-17.2,19.3-26.5,41.4-22.5,68.7Q1100.1,1632.9,1090.8,1621.9Z" transform="translate(-2 161)" style="fill: #97b66c"/>
                    <path d="M819.5,1621.9c.1-6.8.1-13.6.2-20.4,4.8-6.7,9.3-14.3,18.3-6,.1,8.8.1,17.6.2,26.5C832,1629.2,825.7,1629.2,819.5,1621.9Z" transform="translate(-2 161)" style="fill: #98b76e"/>
                    <path d="M813.1,1575.2a123.6,123.6,0,0,1-16.4-23.3c9.2-2.6,17.6,2.1,23.2,7.7C828.6,1568.4,816.5,1570.4,813.1,1575.2Z" transform="translate(-2 161)" style="fill: #99b86f"/>
                    <path d="M742.4,1220.8c.9,1.1,1.9,2.1,2.9,3.1l-5.9,7.8C737.9,1225.9,740.3,1223.4,742.4,1220.8Z" transform="translate(-2 161)" style="fill: #b3d08e"/>
                    <path d="M978,873c1-7.6-.5-19,6.1-21.1,8.4-2.7,13.5,8,18.8,14.4,3,3.6,5,8.2,8.6,14.4,4.4-18.7,9.3-35.1,18.8-49.3s13.7-14.7,26-3,19.7,27.9,21.2,46.4c.4,5.3,1.9,10.5,3.1,17.6,11.8-10.2,21.1-21.9,34-28,3-1.4,5.8-3.1,8.7-4.4,16.7-7.5,17.5-7,19.8,12,.3,2.4,1.6,4.6,2.4,6.8-7.3-.9-16-7-21.6.5s.8,15.7,2.8,23.4c1.1,4.2,3.2,8,4.9,12-2.9,6.7-.1,10.1,5.7,11.8,7.5,13,15.1,26,26.1,36,5.4,5,4.7,8.4-1.6,11.9-11,6-21.8,12.5-32.6,18.9-5.5,3.2-8.1,2-8.7-5.4a207.6,207.6,0,0,0-9.8-47.6c-1.2-3.6-1.6-8.3-6.1-8.9s-6.2,3.5-8.3,6.6c-15.9,22.9-27.2,47.9-30.6,76.7-.4,3.3-.2,7-4.1,9.1-4.3-12-6.6-24.9-15.6-34.1s-12.5-8.1-16.6,3.9c-4.8,13.8-9.1,27.8-14.1,43.2-8.1-12.1-13.5-25.1-23.4-34.6-12-11.6-25.1-18.6-41.5-19.9-9.7-.7-11,3.3-10.6,11.5,1.6,31.6,13.8,59.1,27.5,86.1,2.1,4.1,6,7.3,6.3,14-11.4-7.1-22.6-12.1-35-12.7-14.9-.6-18.1,4.3-12.3,19.5,1.4,3.6,3.7,6.8,5.3,10.3s5.5,5.4,4.8,11.8l-65.6-19.2c23-15.4,38.3-34.1,50.9-55.4,2.1-3.6,5.9-7.6,3.9-12s-7.4-2.7-11.2-2.5c-16,.9-31.5,4.9-47.1,8.4-4.7,1-9.3,4.5-16.1,1.3,12-14.3,21.2-29.6,26.1-47.9,3-11.1.9-15.1-10.2-15.7-20.1-1.1-35.6,9.4-53.6,23.9,8.1-20.4,9.6-38.4,12.4-56.2,2.2-13.7-3-15.6-12.7-15.4,1.8-6.3,4.6-11.9,9.1-16.3s10.7-7.9,17.8-1.3c9.8,9,12.7,7.3,14.9-7.1,3.2-21.6,8.5-42.4,19.8-61,4.6-7.7,8.2-8.6,12.2.1,3.1,6.6,7.5,12.9,8.9,19.9,3.1,15.5,12.9,22.4,27,28.4-9.1-19.3-15.6-37.5-13.3-57.9,1.1-9.8.8-22.3,9.6-26s14.3,6.5,20.2,12.5c15.2,15.5,26.1,34.2,33.6,55.2C978.4,880.7,975.7,874.2,978,873Z" transform="translate(-2 161)" style="fill: #cee1ab"/>
                    <path d="M1657.8,762.7c15.5-8.2,33-10.3,52.4-18.3a113.9,113.9,0,0,1-38.1-21.7c-11.6-10-11.1-14.9,1.8-22.2,15.5-8.9,32-9.6,51-5.4-7.2-13.8-18.5-20.8-24-32.6-2.5-5.6-8.6-10.8-5.6-17.3s11.4-6.9,18.2-7.2c20.2-.9,38.2,7.9,58.7,16.6-8.1-17.3-12.7-33.1-7.6-50.7s14.5-22,28-10.5,25.1,25.8,32.9,43c1.6,3.4,2.3,7.6,6.7,10.1,4-19.3,12.7-35.8,24.7-50.2,10.7-12.8,13.2-13,25.4-1.3,14.2,13.7,21.6,31.6,26.6,50.9,1.5,5.6,1.6,11.9,6.4,16-21.7,20.5-30.8,49-42.3,81.4-3.4-26.7-14.7-43.3-30.5-56.8-8-6.8-12.8-6.9-16.6,5.2-6.3,20.6-7,41.7-7.6,63.6-8.7-24.5-24.1-43.3-41.3-60.6-2.3-2.3-4.5-5-7.1-6.9s-6.5-7.2-10.6-5.4-2.7,7.8-2.9,12c-1.5,27.5,1.6,54.3,10.4,80.3,1.2,3.6,1.7,7.4,2.5,11-1.5.7-2.5,1.5-3.1,1.3-21.9-8.8-30.4-1.2-29.1,24.7.4,8.2,9,17.8.6,24.3-6.2,4.8-15.1-.5-22.7-1.1s-17.9-.2-30.7-.2c16-18.7,27.1-35.8,35.4-54.8,3-7,8.9-15,4.6-22.1s-13.4-1.8-20.3-.8c-18.6,2.6-33.9,12.5-47.9,27.9C1656.7,776.3,1657.3,769.5,1657.8,762.7Z" transform="translate(-2 161)" style="fill: #cee1ab"/>
                    <path d="M1219.4,846c6.2-2.2,1.6-5.5.4-7.8-5-9.6-8.2-19.9-10.7-30.5-2.1-9,.8-11.6,9.3-9.1,11.2,3.3,20.3,10.3,30.6,19.7-3.2-20.1-3.2-37.7,1.7-55s6.7-17.1,18.9-6.1,20.7,20.7,27.7,37.7c8.8-27.4,21.8-49,40-66.6,2.9-2.7,5-8.6,9.6-6.4s3.3,7.6,4.1,12c3.5,19.2-.9,38.1-2.4,61.4,12.4-20,25.6-34.3,42.3-44.4,5-3,10.1-9.4,15.9-5.9s4,11.5,4.4,17.8a139.9,139.9,0,0,1-10,60.8c-4.2,10.3-2,14.5,8.7,13.8,9.1-.7,18.2-.4,27.4-.3s11.3-2.3,8.4-12.4c-3.5-11.7-5-24.1-6.8-36.3-1.5-10.4,1.7-15.6,12.1-10.5l17.4,8.5c.4,23.1-2,46.7,8.9,69.8-19.1-11.8-39.4-10.6-59.5-9.8-13.4.4-14.6,3.1-8.9,15.9,7.5,16.9,19.7,29.7,32.7,41.3,5.7,5.1,5.9,8.3,2.4,14.5-5.5,9.6-8.6,20.7-17.1,30-5-15.4-7.7-30.8-15.8-44.1-5.2-8.5-8.5-10-14.4-.5-11.3,18.6-17.8,38.8-19.3,62.8-9.3-8-15.2-17-20.8-26.2-3.2-5,.3-6.5,3.6-8.8,9.1-6.4,15.8-14.9,17.7-27,1.4-8.9,6.8-18.5-2.4-26s-20.2-11-32.1-5.7c-14.4,6.5-14.3,6.4-14.6-11.1,0-5.9.1-12.1-1.4-17.6s1.3-14-5.5-15.3-8.5,6.6-12.3,10.5c-7.1,7.4-9.7,17.7-15.2,28.7-5.7-20.5-13-38.3-23.2-54.5-2.6-4.1-5.1-9.7-9.9-9.5s-6.5,7.5-8.4,12.2c-6.9,16.7-11.6,34.2-12,56.1Z" transform="translate(-2 161)" style="fill: #cee1ab"/>
                    <path d="M1137.3,926.5c-5.3,4.2-8.8-.4-10.8-4.1s1.3-6.7,5.1-7.7Z" transform="translate(-2 161)" style="fill: #ebeed5"/>
                    <path d="M978,873c-.3,3.6,2,8.3-1.5,10.5-1.8,1.2-2.7-2.8-3.5-4.9C974.7,876.7,976.4,874.9,978,873Z" transform="translate(-2 161)" style="fill: #e9edd1"/>
                    <path d="M301.6,709.4c2,3.5,4,7,.8,11l-3.6-5.2C299.7,713.3,300.6,711.3,301.6,709.4Z" transform="translate(-2 161)" style="fill: #e2eac8"/>
                    <path d="M356.1,718.3c-.4,1.9-.9,4.4-3.2,3.4s-1.9-4-2-6.4Z" transform="translate(-2 161)" style="fill: #e2eac7"/>
                    <path d="M1290.3,1621.9c-7.6-35.2,14.6-56.8,31.2-81.1,3.4-4.9,5.9-4.9,9.3,0,9.5,14,20.3,27,28.5,41.8,6.4,11.8,1.1,26.2,2.7,39.3,7.8,7.9,5.7,18.3,6,28a240.2,240.2,0,0,1-.7,28.1c.9,16.6,1.3,33.3-.1,49.9-.2,6.4,1.2,12.5,1.4,18.8s-3.3,12-2.3,18.4c.2,1.8.3,3.6.5,5.4.7,18.3,5.3,37-5,54.1-.1,38.6-.1,38.6-36.3,38.6s-34.9,0-35-38.6c-5.2-4.4-5.8-10.6-6.1-17-.7-14.1.5-28.2.1-42.3-.4-28.9-.9-57.7.5-86.5-.9-13.2-.9-26.4-.6-39.6C1284.6,1632.7,1285.6,1626.6,1290.3,1621.9Z" transform="translate(-2 161)" style="fill: #fefefe"/>
                    <path d="M1471.1,1621.9c-7.6-35.2,14.7-56.8,31.3-81.1,3.3-4.9,5.9-4.9,9.3,0,9.4,14,20.3,27,28.4,41.8,6.5,11.8,1.1,26.2,2.8,39.3,7.3,7.3,5.7,17,6,26.1s-.1,20.4-.7,30.6c1.3,28.9.8,57.7.5,86.5-.4,13.7.7,27.3.1,41-.3,6.9-.4,13.7-6.2,18.5,0,38.6,0,38.6-36.3,38.6-6.3,0-12.8-.9-19,.2-13.8,2.2-17.7-4.4-16.1-18.1.9-6.8.2-13.8.2-20.7-5.2-4.4-5.9-10.6-6.2-17-.6-14.1.5-28.2.1-42.3-.3-28.9-.9-57.7.5-86.5-.8-13.2-.9-26.4-.6-39.6C1465.4,1632.7,1466.4,1626.6,1471.1,1621.9Z" transform="translate(-2 161)" style="fill: #fefefe"/>
                    <path d="M205.2,1621.9c-7.5-35.2,14.7-56.8,31.3-81.1,3.4-4.9,5.9-4.9,9.3,0,9.4,14,20.3,27,28.4,41.8,6.5,11.7,1.1,26.2,2.8,39.3,9.1,8.2,2.4,19.6,5.3,29.1.1,13.8-.1,27.7-1.3,41.6a558.4,558.4,0,0,1,1.7,73.2c-.2,13.8.8,27.6.2,41.5-.3,6.5-.9,12.9-6.1,17.3-.1,38.6-.1,38.6-36.4,38.6-6.3,0-12.8-.9-19,.2-13.8,2.2-17.7-4.4-16-18.1.8-6.8.1-13.8.1-20.7-5.2-4.4-5.8-10.6-6.1-17-.7-14.1.4-28.2.1-42.3-.4-28.9-.9-57.7.5-86.5-.9-13.2-1-26.4-.6-39.6C199.5,1632.7,200.5,1626.6,205.2,1621.9Z" transform="translate(-2 161)" style="fill: #fefefe"/>
                    <path d="M657.3,1621.9c-7.5-35.1,14.7-56.8,31.2-81,3.4-4.9,5.9-5.2,9.3-.1q13.8,20.3,28.1,40.2c4.4,6.2,2.3,13.3,3.3,20,.2,4.3-1.8,7.6-3.8,10.9-7.7,12.7-6.5,25,.9,37.3,2.7,4.4,6.4,8.5,6.6,14.3s1.7,11.6,1.3,17.5c1.8,28.1,1,56.2.7,84.4-.4,14,.7,28.1.1,42.2-.3,6.5-1,12.6-6.1,17-.1,38.6-.1,38.6-36.4,38.6-34.8,0-34.8,0-34.9-38.6-5.2-4.4-5.8-10.6-6.1-17-.7-14.1.4-28.2.1-42.3-.4-28.9-.9-57.7.5-86.5-.9-13.2-1-26.4-.6-39.6C651.6,1632.7,652.6,1626.6,657.3,1621.9Z" transform="translate(-2 161)" style="fill: #fefefe"/>
                    <path d="M566.9,1621.9c-7.6-35.2,14.6-56.8,31.3-81.1,3.3-4.9,5.9-4.9,9.3,0,9.4,14,20.3,27,28.4,41.8,6.5,11.8,1.1,26.2,2.8,39.3,7.3,7.3,5.7,17,6,26.1s-.1,20.4-.7,30.6c1.3,28.9.8,57.7.5,86.5-.4,13.7.7,27.3.1,41-.3,6.9-.4,13.7-6.2,18.5,0,38.6,0,38.6-36,38.6l-32.5.3c-7.6-.3-5-6.7-5.4-11-2.8-33.8-1-67.8-1.6-101.6-.2-10.3,2.8-16.8,11.9-20.5s14.1-8.5,15.9-18.7c-9.8-3.4-16,14.9-26.1,4.2-3.3-12.4-.4-25.2-2-37.8C561.2,1659.1,559.2,1640.1,566.9,1621.9Z" transform="translate(-2 161)" style="fill: #fefefe"/>
                    <path d="M24.4,1679.2v-57.3c-7.6-35.1,14.6-56.8,31.2-81.1,3.4-4.9,5.9-5,9.3,0,9.5,14,20.3,27,28.5,41.8,6.5,11.7,1.1,26.2,2.8,39.3,5.2,4.8,3.2,12,5.1,17.9,3.3,10.2,1.2,21.6,6.7,31.4,2.2,4,0,8.6-2.7,12.2-5.1,12.2-2.6,25.1-3.1,37.6-.5,14.1.7,28.3-1.2,42.4,0,1.7-.1,3.3,0,4.9.3,6.5,1.6,13.2-4.2,17.9-5.7,3-9.3-1-13-4.7-2.1-2-4.6-3.7-7.3-1.7s-1.8,5.3-.9,8c3.2,9.9,8.6,18.3,14.9,26.1,3.8,4.8,8.7,9.1,5.8,16.6-1.4,32.7-1.4,32.7-32.6,32.7-7.7,0-15.6-.9-23.2.2-13.8,2.1-17.6-4.4-16-18.1.8-6.8.1-13.8.1-20.7V1765Q24.6,1722.1,24.4,1679.2Z" transform="translate(-2 161)" style="fill: #fefefe"/>
                    <path d="M1742.4,1621.9c-7.6-35.1,14.6-56.7,31.1-81,4.4-6.4,7-3.7,10.2,1,7.8,11.5,15.9,22.9,23.8,34.3,4.8,5.7,2,8.2-3.4,9-3.9.6-7.5-2-11.3-2.4-2-.3-4-.5-5.6,1.1-2.8,8.5,3,12.6,7.5,17.1s8.3,5.8,12,9.3c3.3,5.4,10.5,7.2,11.4,14.7,3.9,17.9,1.8,36,1.3,54,.9,24.4,2,48.8-.6,73.1-3.3,8.6.6,17.4-.2,26s2.3,19.5,1.5,29.3c-.5,6.6-1,12.8-6.2,17.2-.1,38.6-.1,38.6-36.3,38.6s-34.9,0-35-38.6c-5.2-4.4-5.8-10.6-6.1-17-.7-14.1.5-28.2.1-42.3-.4-28.9-.9-57.7.5-86.5-.9-13.2-.9-26.4-.6-39.6C1736.7,1632.7,1737.7,1626.6,1742.4,1621.9Z" transform="translate(-2 161)" style="fill: #fefefe"/>
                    <path d="M1222.7,1603.9c7.3-5,14.7-10,19.6-17.9s9.2-14.3,4.1-21.7-12.7-2.7-18.7.5-9.3,3-10.6-4.6c7.4-6.9,10.4-22.9,19.6-21.8,6.6.8,11.1,15.7,18.1,22.6,16.9,17,18.1,38.4,16.8,60.9,7.3,7.3,5.7,17,6,26.1a284.2,284.2,0,0,1-.7,30.6c1.4,28.9.9,57.7.5,86.5-.4,13.7.8,27.3.2,41-.4,6.9-.5,13.7-6.2,18.5-.1,38.6-.1,38.6-36.3,38.6-6.4,0-12.9-.9-19.1.2-13.8,2.2-17.7-4.4-16-18.1.8-6.8.1-13.8.1-20.7-9-13.4-6.7-28.2-4.4-42.9.1-6.4,1.5-12.2,5.8-17.1,6-6.8,7.5-12.9-2.9-16.6-1.6-.6-2.4-2.7-3.2-4.5-2.8-21.5-1.6-43.1-.8-64.6-1.4-18.5-.5-36.9,1.3-55.3.2-4.5-.2-9.1,1.7-13.4C1204.5,1601,1214.2,1605.6,1222.7,1603.9Z" transform="translate(-2 161)" style="fill: #fefefe"/>
                    <path d="M1651.8,1589.6c7.7-19.2,22-33.4,32.7-50.3,2.7-4.4,5.2-2.3,7.4.8,9.8,14.2,20.9,27.6,29.1,42.7,6.4,11.6,1.1,26.1,2.7,39.1,7.3,7.3,5.7,17,6,26.1a284.2,284.2,0,0,1-.7,30.6c1.4,28.9.9,57.7.5,86.5-.4,13.7.8,27.3.2,41-.4,6.9-.5,13.7-6.2,18.5-.1,38.6-.1,38.7-35,38.5-11.3,0-25.5,3.8-33.2-2.1s-1.3-23-3.5-34.9l-.3-1.5a36.4,36.4,0,0,1-2.3-3.9c-1.6-4.3-.9-8.9-1.2-13.4-.3-7,4-11.8,6.9-17.2,9.6-17.5,18.1-35.4,20.8-55.8.5-4.1,2-9.8-3.3-11.3s-5.8,3.8-7.7,7c-8.4,14.5-9.4,14.8-17.6,5.2a274.3,274.3,0,0,1-.1-53.6c.3-3.1,0-6.2.4-9.3.2-5.3-.9-11.1,2.6-15.6,13.2-16.8,8.7-34.6,2.3-52.4C1650.5,1599.3,1647.1,1594.7,1651.8,1589.6Z" transform="translate(-2 161)" style="fill: #fefefe"/>
                    <path d="M115.4,1619.4c-7.7-35.3,15.6-56,31.9-80.1,3.7-5.4,6.1-1.1,8.3,2,9.3,13.3,19.5,26,27.6,40.2,7.2,12.2,1.5,27,3.4,40.4,7.3,7.3,5.7,17,6,26.1s-.1,20.4-.7,30.6c1.3,28.9.8,57.7.5,86.5-.4,13.7.7,27.3.1,41-.3,6.9-.4,13.7-6.2,18.5,0,38.6,0,38.6-35.2,38.6-11.9,0-23.8-.2-35.6-.3-2.5-1.7-4.4-4.1-4.2-7.2.7-12.3-2.2-24.3-2.9-36.5,4-15.4,2.1-31.1,2.6-46.7,0-4.2-.1-8.3.2-12.5,1.5-6.9,2.8-13.9,2.5-21,0-3.1,0-6.2.3-9.3,1.1-5.1,2.5-10.2,2.4-15.5.1-2.3.2-4.6.5-6.9,3-6.9.6-15.4,5.3-21.8,4.6-4.1,10.4-5.4,15.9-7.5,10.9-4.2,18.3-15.9,17.7-26.8-.7-13.5-8.7-23.3-20.9-27.1C128.5,1622.1,121.1,1624.7,115.4,1619.4Z" transform="translate(-2 161)" style="fill: #fefefe"/>
                    <path d="M1904.6,1621.9v57.3l-.3,85.8v59.6c-.1,38.6-.1,38.6-35.7,38.6-5.5,0-10.9-.2-16.3-.3-5-3.6-3.8-9.4-4.2-14.6v-16c.3-17.2.2-34.4-2.3-51.5,2.7-7.5,2.2-15.5,2.3-23.4-.2-10.6.9-21.3-2-31.7s1.3-18.1,11.1-21.8,14.3-10.1,19-18.1c-.5-1.5,4.3-3.4-.5-4.4-2.7.4-5.3.8-7.7,2.4a29.3,29.3,0,0,0-6.7,6.9c-11.9,8.6-13.8,8.2-19.4-4.7-2.9-8.3-1.8-17.4-4.5-25.7-.5-10.2-.3-20.4-2.4-30.5-1.6-7.6-1.9-15.5,3.2-22.3,3.1-4.2,2.8-9.1,1.6-14a47.1,47.1,0,0,1-.3-7.5c.3-5.9,2.1-11.4,3.3-17.1.8-2.5,2.1-4.5,4.5-5.4,5.4-7.2,11-14.3,16.1-21.8,3.5-5.1,6.1-6.7,10.2-.6,9.1,13.5,19.4,26.2,27.6,40.3C1908.3,1593.7,1902.7,1608.5,1904.6,1621.9Z" transform="translate(-2 161)" style="fill: #fefefe"/>
                    <path d="M1561.5,1621.9c-7.4-34.9,14.4-56.6,31.1-80.6,2.1-3.1,4.7-7.5,8.2-1.9,7.2,11.6,18,20.8,21.7,35.1-1.8,8-8,9.8-14.1,11.9-23.7,8.1-33.1,23.4-29.8,49.6,2.2,18,18,39.8,41.5,37.8,4.8-.4,9.1-.3,11,5.8,7.5,38.2,5,77.4,10.2,115.8,1.4,10.1-1.5,20.5-2.3,30.8-1.8,7.2-1.8,14.6-1.9,22-.1,5.4.4,11-4.4,14.8-19.6,0-39.3-.4-58.9.4-9.8.4-13-3.4-12.1-13.6.6-8.3.1-16.8.1-25.2-5.2-4.4-5.8-10.6-6.1-17-.7-14.1.4-28.2.1-42.3-.4-28.9-.9-57.7.5-86.5-.9-13.2-1-26.4-.6-39.6C1555.8,1632.7,1556.8,1626.6,1561.5,1621.9Z" transform="translate(-2 161)" style="fill: #fefefe"/>
                    <path d="M1452.2,1824.6c0,12.7-.1,25.4-.1,38-14.8,4-29.6,2.1-44.5,1.1-4.4-4.8-3.3-11-3.3-16.8-.1-27.6,0-55.2,0-82.8,0-8.1-.2-16.2.1-24.3s2.9-15.1,2.6-22.8a391.2,391.2,0,0,1,9.1-69.9c9.3-11.1,21.9-13.5,34.8-15,7.7,4.1,7,11.9,7.4,19.2.6,9.4-.2,18.7-.6,28.1,1.5,28.6.9,57.2.6,85.8-.4,13.6.7,27.3.1,40.9C1458.1,1813,1457.9,1819.8,1452.2,1824.6Z" transform="translate(-2 161)" style="fill: #fefefe"/>
                    <path d="M1014,1919.9l18-7c8.2-3.2,12.6-1.5,10.7,9.2-3.4,19.3-11.1,26.8-28.8,28.2-46.6,3.6-93,.8-139.5,2-13.5.4-12.4.2-9.6-13.2,1.2-5.5-3.7-12.4-5.9-18.8,5.1-4,8.9.1,13,1.3s6.8,2.9,7.3-2.6c1.6-18.9,8.6-4.2,13.5-2.7.6-.5,1.8-1.1,1.7-1.6-.3-6.6-4.6-15.7,2-18.9s12.4,4,17.4,9.2a96.9,96.9,0,0,1,7,9c8.3-18.8,8.4-18.9,23-6.3,3.7,3.2,6.6,5.5,9.9-.1,1-1.6,3.6-4,3.9-3.7,11.2,9.3,11.3-3.4,15.1-8.9,2.4-3.4,6.4-4,7.9-.2,7.9,20.8,16.4,9.3,25,1.1,6.1,1.2,5.1,6.5,5.5,11.1S1009.3,1916.6,1014,1919.9Z" transform="translate(-2 161)" style="fill: #88a456"/>
                    <path d="M109.6,1907.7l12.2,11.7c15-21.1,15-21.1,24.5-.3,4-2,7.6-12.2,13-1.8,2.7,5,5.8,2.2,9.1-.1,16.6-11.4,16.7-11.3,22.7,7.9,2.3-3.5,3.9-7.2,6.5-9.6,5.1-4.7,10.3-12.2,17.5-9.2s2.1,12.2,3.5,19.7c6.1-4.1,12.9-10.7,15.2,3.6,1,6,5.8,2.2,9,1.2s6.3-3.6,8.8-.2-.1,5.7-1.6,8.1c-3.5,6.1-6.9,11,1.7,16.6,4.2,2.7-.7,5.5-3.6,6.8-6.5,3-13.6,2.8-20.3,2-42.8-5.5-85.7-1.6-128.5-2.7-18.5-.5-29.4-11.4-30.4-31.4-.3-6.1.9-10,7.6-7.8l4,1.3c6.8,2.7,14.3,8.8,20.2,7.3,7.7-1.9.8-13.4,4.7-19.5,1-1.5,2.8-2.4,4.2-3.5Z" transform="translate(-2 161)" style="fill: #88a456"/>
                    <path d="M1641.3,1901.8l30.8,14.9c2.4-3.4.2-6.1,0-8.9-.5-5.4-2.2-11.6,2.6-15.1s8.3,2.3,11.1,5.6c6.7,7.7,7.9.2,10.3-3.9,5.1-9.2,10.3-13.8,15.3-.2,2.2,5.9,7.7,2.4,8.1,2.7,12,9.6,20-.8,29.8-4.9,7.9-3.2,5.7,9.7,11.2,12.5,7.1-5.6,11.5-17.6,21.6-15.8,8.4,1.4,2,12.3,6.1,18.8,5.7-1.9,14-10.5,15.7,4.9.4,3.8,4.2,2.4,6.9,1.4s6-4.1,8.8-.8-.3,6.4-1.5,9.4c-2.1,5.2-8.3,10.4,2.4,14,4.5,1.6.9,5.6-2,7.3-5,3.1-10.6,3.3-16,2.6-43.5-5.7-87.3-1.9-130.9-2.6-11.9-.2-22.6-.9-30.2-12.2-9.6-8.1-5.1-18.6-4-28.5Q1638.8,1900.3,1641.3,1901.8Z" transform="translate(-2 161)" style="fill: #88a456"/>
                    <path d="M342.4,1862.9c-12.1.1-24.3-.2-36.5.4-7.5.4-10.5-2.5-10.1-10.9s.1-18.5.1-27.8c-5.7-4.8-5.9-11.7-6.2-18.7-.5-13.2.4-26.5.4-39.7-.5-16-1.4-32.1,1-48.1,1.5-3.8,4.4-7.5,7.9-6.7,12,2.8,24.9.4,36.1,7.5,5.5,8.1,4.3,18.3,5,27.1,1.2,15.1,4.2,30.1,3.8,45.4-.4,8.8.9,17.4,2.5,26-.1,12.2,3.3,24.4.2,36.6C345.7,1857.4,345.4,1860.8,342.4,1862.9Z" transform="translate(-2 161)" style="fill: #fefefe"/>
                    <path d="M567.6,1716.7c8.1-8,16.7-15,27.7-17.8,6.8-1.8,8.6.4,6.3,7.2-4.7,14.3-11.3,27.3-25.9,31.9-5.5,1.7-8.6,3.9-8.5,10.8.5,36.9.7,73.9,1.1,110.8,0,1.3,1,2.6,1.6,3.9-5.9,19.6-.1,40.5-5.4,60.2-.7,2.6.8,6.1-3.8,7.9-3-7-2.4-14.4-1.2-21.2,4.2-24.6,1.3-49.4,2.2-74,.1-5.1-.3-10.1-5.8-12.1-2.5-2.1-5.8-2.9-8-5.6-10.8-5.3-17.9-14.5-22.5-26-1-2.6-2.4-6.3-1.4-8.2s5.7-2,8.6-1.2c5.2,1.5,10.3,3.5,15.4,5.3,7.2-1.6,8.3-6.5,6.1-13.2-1.3-3.9-5.9-6.8-3.4-11.9s3-11.4,2.7-17.1c-1.2-21.6-.1-43.3-5-64.5,3.3-8.7.1-17.3-.6-25.9-.5-6-4.7-6-8.9-6.1-8.3-.3-16-2.5-22.1-9.1,12.2-11.7,26-19.1,42.7-18.6l2.3.3c4.4,4.8,2.3,10.6,1,15.3-3.7,13.2-1.3,26.2.1,39.2S561.9,1704,567.6,1716.7Z" transform="translate(-2 161)" style="fill: #a0c579"/>
                    <path d="M1641.3,1901.8l-2.5.2c-1.1,1.6-2.1,1.6-3-.2v-32.6c-.4-14.9,1.8-29.9-2.1-44.6,4.7-16,2.4-32.5,1.2-48.4-2.4-33.4-2-67.1-7.9-100.1,4.1-3.8,7.9-2.1,11.5.9,6.3,21.5,5.3,44,7.3,66.1,1.8-1.6,2.2-6.1,6.1-4.7,7.6-2.8,5.8-12.1,10-17.4s6.7-11.5,13.8-9.4,7.4,9.3,7,15.7c-1.7,26.9-12.6,49.9-26.1,71.8-1.5,2.5-3.1,4.8-4.7,7.2-2.8,5.3-4.8,10.7-.3,16.1a5.4,5.4,0,0,1-.1,2.2c-5.8.4-7.3,4.3-7.5,9.9C1643.2,1857,1642.2,1879.4,1641.3,1901.8Z" transform="translate(-2 161)" style="fill: #a0c579"/>
                    <path d="M342.4,1862.9l-.3-46.2c-1.9-7.8-.5-15.7-1-23.6.3-3.2-.9-7.2,3.8-8,3.9,1.8,5.4,5.3,5.8,9.6s-1.8,9.6-1.5,14.5c1.7-19.2,3.9-38.3,15.8-54.2,6.6-5.1,13.2-10.6,20.9-1.9,4.5,11.8,1.7,23.6,0,35.4s-6.3,23.4-1.8,35.6c-7.5.1-14.7.9-17.4,10.5-1.5,12.1-10.4,19.4-16,29-5.5,16.9-2.3,34.4-2.5,51.5s-1.8,36.7-6.6,54.7C342.5,1934.1,342.9,1898.5,342.4,1862.9Z" transform="translate(-2 161)" style="fill: #a1c579"/>
                    <path d="M1014,1919.9c-4.9,5.5-5.6,1.6-5.6-3.1-.1-7.1.6-14.3-2.8-20.9v-56.2c-.1-5.4.6-11-3.2-15.5-.4-3,.4-6.4-1.9-9-18.7-22.2-29.7-48.3-34-77.9-1.2-7.7-2.2-17.2,7.2-19.7s11.7,6.1,14.6,12.6c4.2,9.2,7.7,18.9,11.5,28.3,3,.7,4.8,2.9,5.8,5.9-.4,10.5,3,20,6.6,29.5,0,10.3,1.2,20.6-1,30.8C1009.2,1856.5,1013.8,1888.1,1014,1919.9Z" transform="translate(-2 161)" style="fill: #a1c579"/>
                    <path d="M1852,1848.2l.3,14.7c0,1.1,0,2.2-.1,3.3-3.6,6.5.9,14.3-2.7,20.8v11.9c-7.7-5.9-3.8-13.6-2.8-20.9.1-5-.2-9.9-2.7-14.4-5-11.1-2.9-23.1-3.5-34.8-.5-9.6,1.9-19.7-3.5-28.7-12.2-4-20.8-11.7-23.2-26-6-13.9-6-13.9-.7-18.2,6.9-6.8,13.4-2.8,19.8.9,4.1,1.1,7.9,2,7.9-4.9,0-4.3-.9-8.4-.7-12.7,1.2-7.4-1.2-14.6-1.5-21.9-.1-4.9.1-9.8-.9-14.6s1.4-10,3.2-14.6c1.3-2.3,2.9-4.1,5.7-3.3,5,19.3,8.6-2.6,13-.5,3-.4,5.4-1.8,6.4-5.1s4.3-3.9,7.4-3.7c10.8-2.4,10,5.1,9.1,12.7-5.9,12.3-14.3,21.6-27.3,24.2-6.2,1.2-4.7,6.1-5.4,10.1,2.9,11-.8,22.5,2.1,33.6l.3,23.9c-2.8,17-.6,34.1-1.3,51.1C1851.4,1836.8,1849.7,1842.7,1852,1848.2Z" transform="translate(-2 161)" style="fill: #a1c679"/>
                    <path d="M112.6,1819.6c5.3,14.1,1.3,28.9,2.9,43.3-5.5,8.3-2.3,17.8-3.1,26.7-.5,6.1,1.2,12.6-2.8,18.1h0c-5.7-19.8-1.7-40-2.6-60-.4-8.6-1.2-15.8-10.7-17.3-8.8-11.2-19.5-21-25-35-3-7.8-9.5-17.4.1-23.8s15,2.5,20.1,9.8l2.3,3.7c7.1,2.2,10.1,8,11.2,15,.4-4.9-2.6-9-2-13.8s1-12.2,1.5-18.3c0-1.7,0-3.3-.1-5-.3-18.8,1-37.3,6.4-55.3,1.3-4.6,2.2-9.7,7.1-11.8,6.8,3,3.7,8.5,2.9,13.4l-.5,5.2c-2.5,5,.2,10.9-2.2,15.9-.2,2.6-.4,5.3-.5,7.9-2.9,7,.6,14.7-2.3,21.6-.2,3.7-.3,7.4-.5,11.1C111.7,1787.2,115.8,1803.6,112.6,1819.6Z" transform="translate(-2 161)" style="fill: #a1c579"/>
                    <path d="M761.6,1863c-10.2,2-15-1.6-13.8-13.7.9-8.1.2-16.4.2-24.7-5.1-4.3-5.8-10.5-6.1-17-.7-14,.4-28.1.1-42.2.1-28.4-2-56.9,1.4-85.3.8-4.4.9-9.3,6.1-10.8,6.6,6.5,4.9,15.8,6.4,23.9,1.1,5.6,1.5,11.4,2.6,17s.7,11.6,3,16.9c.4,5.9.1,11.7.2,17.5-.2,8.7,1.8,17.2,2.7,25.7,1.7,24.9,0,49.7,0,74.5,0,5.4.7,10.9-1.1,16.2A16.3,16.3,0,0,0,761.6,1863Z" transform="translate(-2 161)" style="fill: #fbfcfa"/>
                    <path d="M1381.1,1862.7c-.1-12.7-.1-25.4-.2-38.1-8.2-15-9.5-30.1-.5-45.4,11.9-4.4,17.6,4.2,23.1,13.1,2.3,19-1,38.2,2,57.1C1404.9,1866.2,1401.7,1868,1381.1,1862.7Z" transform="translate(-2 161)" style="fill: #fdfdfc"/>
                    <path d="M638.4,1824.6v-59.5q9.6-6.9,19.2,0v59.5A41.5,41.5,0,0,0,638.4,1824.6Z" transform="translate(-2 161)" style="fill: #dde4d4"/>
                    <path d="M748,1765v59.6a41.1,41.1,0,0,0-19.1,0V1765C735.2,1760.5,741.6,1760.5,748,1765Z" transform="translate(-2 161)" style="fill: #dee4d4"/>
                    <path d="M1090.5,1824.6v-59.5q9.6-6.9,19.2,0v59.5A41.5,41.5,0,0,0,1090.5,1824.6Z" transform="translate(-2 161)" style="fill: #dee4d4"/>
                    <path d="M1723.5,1824.6v-59.5c6.4-4.6,12.7-4.6,19.1,0v59.5A41.1,41.1,0,0,0,1723.5,1824.6Z" transform="translate(-2 161)" style="fill: #dde4d4"/>
                    <path d="M1561.8,1765.1v59.5a41.5,41.5,0,0,0-19.2,0v-59.5Q1552.2,1758.2,1561.8,1765.1Z" transform="translate(-2 161)" style="fill: #dde4d4"/>
                    <path d="M1452.2,1824.6v-59.5q9.6-6.9,19.2,0v59.5A41.5,41.5,0,0,0,1452.2,1824.6Z" transform="translate(-2 161)" style="fill: #dee4d4"/>
                    <path d="M819.3,1824.6v-59.5c6.4-4.6,12.7-4.6,19.1,0v59.5A41.1,41.1,0,0,0,819.3,1824.6Z" transform="translate(-2 161)" style="fill: #dde4d4"/>
                    <path d="M928.8,1765.1v59.5a41.1,41.1,0,0,0-19.1,0v-59.5C916.1,1760.5,922.5,1760.5,928.8,1765.1Z" transform="translate(-2 161)" style="fill: #dee4d4"/>
                    <path d="M1271.4,1824.6v-59.5c6.4-4.6,12.7-4.6,19.1,0v59.5A41.1,41.1,0,0,0,1271.4,1824.6Z" transform="translate(-2 161)" style="fill: #dee4d4"/>
                    <path d="M186.3,1824.6v-59.5q9.6-6.9,19.2,0v59.5A41.5,41.5,0,0,0,186.3,1824.6Z" transform="translate(-2 161)" style="fill: #dee4d4"/>
                    <path d="M295.9,1765v59.6a41.1,41.1,0,0,0-19.1,0V1765C283.1,1760.5,289.5,1760.5,295.9,1765Z" transform="translate(-2 161)" style="fill: #dde4d4"/>
                    <path d="M1383.4,1780.1c-5.3,14.5-1.2,29.7-2.5,44.5a25.3,25.3,0,0,0-19.1,0l.6-57.4C1376.9,1761.1,1382.7,1764.7,1383.4,1780.1Z" transform="translate(-2 161)" style="fill: #dee4d4"/>
                    <path d="M476.1,1767.3l.6,57.3a22.8,22.8,0,0,0-19.1,0c0-16,0-31.9.1-47.8C462.1,1769.8,466.2,1762.1,476.1,1767.3Z" transform="translate(-2 161)" style="fill: #dee4d4"/>
                    <path d="M1838.7,1794.6c3.6.6,8.1.4,8,5.9-.4,21.1,2.9,42.3-2.7,63.1-8.9,1.1-11.8-3.4-11.1-12.7s.1-17.5.1-26.3C1823.1,1809.5,1825.5,1797,1838.7,1794.6Z" transform="translate(-2 161)" style="fill: #f9fbf8"/>
                    <path d="M1199.9,1776.6c.1,16,.1,32,.2,48l-15.8-2.4-2.2-.7c-7.3-4.3-4.8-11.9-5.2-18.4s-.1-11.8-.7-17.6C1181.5,1774.5,1189.1,1770.6,1199.9,1776.6Z" transform="translate(-2 161)" style="fill: #dee4d4"/>
                    <path d="M1381.1,1862.7c8.9-1.2,22.8,7.2,21.4-13.4-2.2-18.6-.3-37.4-1.1-56.1-1.8-6.3-5.2-12-5.2-18.9,1.7-6.1,1.6-13,6-18.1,6.1-1.3,4.2,3.9,4.8,7,0,28.6-.1,57.2.1,85.8,0,4.6-1.9,9.9,1.8,14l43.2-.3c-9.2,6.6-19.6,3.5-29.2,3.1-13.1-.5-15.9,6.2-14.3,18.1,1.2,8.9,5,17.9-.2,28.3-7.5-7.3-5.7-16.1-5.3-23.8.8-14-.4-25-17.3-23C1384.3,1865.6,1382.7,1863.6,1381.1,1862.7Z" transform="translate(-2 161)" style="fill: #9fc377"/>
                    <path d="M1838.7,1794.6c-11.2,7.9-3.3,20.1-5.7,30a41.1,41.1,0,0,0-19.1,0v-50.5A53.9,53.9,0,0,0,1838.7,1794.6Z" transform="translate(-2 161)" style="fill: #dde4d3"/>
                    <path d="M767.1,1860.2l2.8,3.3c-5.9,19.7-.1,40.5-5.3,60.2-.7,2.7,0,5.8-4.9,9.6-2-24.9,4.5-47.6,1.9-70.3h-.2c1.4-.9,1.7-2.9,3-3.9A2.3,2.3,0,0,1,767.1,1860.2Z" transform="translate(-2 161)" style="fill: #a0c578"/>
                    <path d="M350.7,1863.6c-3.2-4.5-3.6-9,1.2-12.4s9.7-11.3,14.8-16.6c.2,3.4.1,6.9.6,10.2C369.5,1859.3,364.7,1866.1,350.7,1863.6Z" transform="translate(-2 161)" style="fill: #f8faf5"/>
                    <path d="M1180.9,1833.3c0,4,0,7.9.1,11.9-2.3,5.8-2,11.6-.3,17.5v29.9h-3.8c-3.4-9.3.7-20.3-4.1-29.3l-.2-.2c3.4-13.8.5-27.9,1.5-41.9a3.8,3.8,0,0,1,2.4-3.6,3.1,3.1,0,0,1,3.3,2.4C1181.3,1824.3,1177.7,1829.2,1180.9,1833.3Z" transform="translate(-2 161)" style="fill: #a0c478"/>
                    <path d="M384.1,1824.1c-8.7-1.2-11.2-5.2-6.4-14.2,3.5-6.7,5.5-14.2,8.2-21.4.2,12,.3,24.1.4,36.1Z" transform="translate(-2 161)" style="fill: #dae2cf"/>
                    <path d="M1633.7,1824.6c8.7,14.4,5.3,29.5,2.1,44.6-1-2.1-2.1-4.2-3.1-6.2C1633,1850.2,1633.4,1837.4,1633.7,1824.6Z" transform="translate(-2 161)" style="fill: #9abb71"/>
                    <path d="M1011.2,1824.7c-5.7-10.8-1.4-22.8-3.3-34-2.7-7.7-4.4-15.4.1-23,11.8,3.6,5.2,14.3,7.2,21.8,1.2,10.9-3.1,22.6,3.4,32.9a5.4,5.4,0,0,1,0,2.2Z" transform="translate(-2 161)" style="fill: #a1c478"/>
                    <path d="M1635.8,1901.8l3,.2c-.7,10-.5,19.9,2.6,29.5-6.2,2.4-8-1.5-8.2-7.1C1632.9,1916.7,1632.3,1909,1635.8,1901.8Z" transform="translate(-2 161)" style="fill: #9dc074"/>
                    <path d="M1846.7,1878c.6,7-1.6,14.5,2.8,20.9-.5,1.8-.4,4.6-1.5,5.2-3.3,2.1-3.7-1.5-3.7-3.5C1844.3,1893,1842.4,1885.1,1846.7,1878Z" transform="translate(-2 161)" style="fill: #a0c579"/>
                    <path d="M1849.5,1887c.5-7-1.6-14.4,2.7-20.8C1851.7,1873.2,1853.8,1880.6,1849.5,1887Z" transform="translate(-2 161)" style="fill: #a0c579"/>
                    <path d="M1180.7,1862.7c-3.2-5.9-3.7-11.7.3-17.5Z" transform="translate(-2 161)" style="fill: #c4daab"/>
                    <path d="M1180.9,1833.3c-3.9-3.3-2.4-7.7-2.2-11.9,1.4-1.6,2.8-1.4,4.4-.3l1.2,1.1C1180.9,1825,1181.3,1829.3,1180.9,1833.3Z" transform="translate(-2 161)" style="fill: #dee4d4"/>
                    <path d="M547.9,1818.7c3.7.1,6.4,1.8,8,5.6l-7.6.5C548.2,1822.8,548,1820.7,547.9,1818.7Z" transform="translate(-2 161)" style="fill: #c0d3a9"/>
                    <path d="M1000.5,1815.2c5.5,1.8,5.6,5,2,9a9.5,9.5,0,0,0-2.3.5Z" transform="translate(-2 161)" style="fill: #d2ddc3"/>
                    <path d="M1638.5,1679.4l-11.5-3.3c-7,12.4-18.3,5-24.7,2.7a48.7,48.7,0,0,1-31-38c-1.8-12.8-2-27.9,7.9-42,11.9-16.8,27.9-18.5,43.3-24.3l29.3,15.1,13.5,25.4c.8,1.6,2.2,4.6,1.9,4.9-9,7.4,2.2,17.5-3.6,27.8-3.6,6.5-16.1,10.4-11.5,22.3-3.6,3.6-7.3,7-11.8,9.4Z" transform="translate(-2 161)" style="fill: #f8e36b"/>
                    <path d="M1403.1,1756.2c-.2,5.6-.4,11.1-.5,16.6-4.3,2.5-7.8-.3-9.1-3.6-5.7-14.3-16.1-26.3-17.5-42.6s-1.2-32.5-.5-48.7a352.9,352.9,0,0,1-.7-38.5c.1-6.6,1.1-12.8,5.9-17.5-7.4-34.8,14.3-56.5,30.9-80.6,3.8-5.7,6.5-5.3,10.1.1,8.1,12.4,16.6,24.6,24.9,36.9a2.4,2.4,0,0,1,.8,2.3c-.2.9-.4,1.3-.6,1.3-5.8,5.2-12.3,2.4-18.2.8-12.8-3.7-19.7,4.6-25.6,14.1s-5.6,19.1.6,28.9c4.8,7.4,13.1,12.7,12.8,23.4-4.1,20.3-6.1,41-8,61.6-.1,3.3,0,6.5-.3,9.7-1.2,8.1-2,16.1-2.5,24.2C1405.5,1748.7,1406,1752.9,1403.1,1756.2Z" transform="translate(-2 161)" style="fill: #fefefd"/>
                    <path d="M1413.3,1646.2c-2.9-7.2-10.8-7.8-14.6-15.3-7.4-14.5-9.8-31.3-1.8-41.2,12.9-16.3,26.4-19.4,43.2-10.1,1.8,1.1,4.4.6,6.6.9,2.5,2.6,2.6,6.8,5.4,9.2a43.3,43.3,0,0,1,2.9,32.2c4.1,9.2-2.7,10.1-7.9,12.1-6.2,11.7-16.8,11.5-27.1,11.7A14,14,0,0,1,1413.3,1646.2Z" transform="translate(-2 161)" style="fill: #fea757"/>
                    <path d="M1847.3,1563.5c-.1,1.8-.3,3.5-.4,5.3-2.5,5.9-2.1,11.8-.3,17.8l-.6,7.1c-8.2,19.7-23.4,26.7-44.1,20.3-10.2-5-18.4-12.6-22.6-24-1.8-4.8-4.7-11.1,1.6-15.4,3.7,1.3,7.4,1,11,.3s7.6,2.7,11.1,5,4.6-.1,4.5-3.7c1.4-3.3,3.2-7,6.8-5.7,6.2,2.2,7.6-.9,9.1-6.4s4.9-14.2,11.7-14.7S1844.1,1557.9,1847.3,1563.5Z" transform="translate(-2 161)" style="fill: #da1d2a"/>
                    <path d="M1447.1,1634c3.9-3.1,7.1-6.6,7.9-12.1h16.1v57.3q-9.3,10-18.6,0l-.3-32.7C1452.1,1641.6,1452.7,1636.3,1447.1,1634Z" transform="translate(-2 161)" style="fill: #dfe4d5"/>
                    <path d="M1380.7,1621.9v57.3c-6.2,6.7-12.4,6.7-18.7,0v-57.3Z" transform="translate(-2 161)" style="fill: #dee4d5"/>
                    <path d="M1271.6,1679.2v-57.3h18.7v57.3C1284.1,1685.9,1277.8,1685.9,1271.6,1679.2Z" transform="translate(-2 161)" style="fill: #dee4d5"/>
                    <path d="M1723.7,1679.2v-57.3h18.7v57.3C1736.2,1685.9,1729.9,1685.9,1723.7,1679.2Z" transform="translate(-2 161)" style="fill: #dee4d5"/>
                    <path d="M1561.5,1621.9v57.3q-9.3,10-18.6,0v-57.3Z" transform="translate(-2 161)" style="fill: #dee4d5"/>
                    <path d="M1452.1,1589.7c-5.6-.4-4-5.9-5.4-9.2a16.2,16.2,0,0,1-.1-2.2C1449.9,1581.2,1452.7,1584.5,1452.1,1589.7Z" transform="translate(-2 161)" style="fill: #f4fdfb"/>
                    <path d="M295.7,1621.9c-7.6-35.2,14.6-56.8,31.2-81.1,3.4-4.9,5.9-4.9,9.3,0,9.5,14,20.3,27,28.4,41.8,6.5,11.7,1.2,26.2,2.8,39.3,4,4.6,6,9.7,3.7,16-5.4,9.2-12.9,9.4-19.2,2.5-13.4-14.8-28.8-16.3-46-11-3.9,1.3-7.8,2.8-11.1-1.4A6.4,6.4,0,0,1,295.7,1621.9Z" transform="translate(-2 161)" style="fill: #fefefe"/>
                    <path d="M115.4,1619.4c13.4-7.8,26.8-3.8,36.4,5.7s13.9,23,8.3,38.5c-6.3,17.5-18,23.9-34.1,23.9-3.7-1.5-5.6,3.5-9.1,2.9-6.3-1.4-11.8-3.9-12.2-12.3-6.9-10.5-8.8-22.5-8.8-35.1,3.6-7,2.7-16.9,11.5-20.3Z" transform="translate(-2 161)" style="fill: #fea657"/>
                    <path d="M186.6,1679.2v-57.3h18.6v57.3Q195.9,1689.3,186.6,1679.2Z" transform="translate(-2 161)" style="fill: #dee4d5"/>
                    <path d="M366.9,1641c.2-6.3.4-12.7.5-19.1h18.7v57.3c-3.4,3.8-7.4,5.4-12.2,3.9C360.7,1672.4,357.6,1653.6,366.9,1641Z" transform="translate(-2 161)" style="fill: #dfe4d5"/>
                    <path d="M295.7,1621.9l.3,5.7c-.8,13.6-7,23.1-18.7,28.2l-.3-33.9Z" transform="translate(-2 161)" style="fill: #dee4d4"/>
                    <path d="M107.4,1622.7c-1.8,8.1-6.1,14.5-11.5,20.3l.3-21.1Z" transform="translate(-2 161)" style="fill: #e0dfcb"/>
                    <path d="M728.6,1661.5c-21.6-20.5-21.4-47.4.6-60.5,4.6-7,13.4-2.6,18.6-7.9,16.5,7.4,30.5,16.9,29.7,39.9-.4,11.4-4.8,20.3-13.4,26.1-3.3,2.2-4.7,5.8-7.7,7.7s-4.7.6-7,1.2C740.3,1674,733.5,1671.1,728.6,1661.5Z" transform="translate(-2 161)" style="fill: #fea7d3"/>
                    <path d="M559.5,1622.2c-13.1,9.3-26.6,17.3-42.7,18.6-10.2-5.1-18.4-12.7-22.6-24-1.8-4.9-4.7-11.1,1.7-15.5,3.6,1.4,7.3,1,11,.3s6.9,2.1,9.9,4.2,5.5,2.8,6-2.8c.1-1.6,2-4.7,2.6-4.5,14,2.4,12.7-12.2,18.3-19.1s11.4-3.4,14.9,3.7C564.9,1595.9,564.7,1609,559.5,1622.2Z" transform="translate(-2 161)" style="fill: #d91e2b"/>
                    <path d="M638.7,1679.2v-57.3h18.6v57.3Q648,1689.3,638.7,1679.2Z" transform="translate(-2 161)" style="fill: #dee4d5"/>
                    <path d="M558.9,1678.9c-8.6-19.3-2.8-37.9,2.9-56.4l5.1-.6v57.3C564.2,1681.5,561.5,1681.2,558.9,1678.9Z" transform="translate(-2 161)" style="fill: #dee4d4"/>
                    <path d="M373.6,1678.8l12.5.4c-.1,24.7-.1,49.3-.2,73.9-6.8-.6-13.1.8-18.3,6-6.7-3.4-6-10.2-6.5-16.4-1.3-13.2,1-26.3,1.9-39.4C363.7,1693.7,358.8,1681.2,373.6,1678.8Z" transform="translate(-2 161)" style="fill: #97b76d"/>
                    <path d="M476.1,1767.3c-6.3,2.8-11.1,9.1-18.4,9.5-2.4-6,.4-11.9.3-17.8,3.6-7.7,1.7-16.6,4.9-24.3s3.5-16.7,13.7-17.1a36.8,36.8,0,0,0,5-1.8c4.6-2.7,9.4-4.7,13.8-.5s3.4,10.7,1.8,16.4C493.1,1745.6,483.3,1755.5,476.1,1767.3Z" transform="translate(-2 161)" style="fill: #a1c679"/>
                    <path d="M476.6,1717.6,458,1759q0-39.9-.2-79.8c6.3-7.2,12.5-7.2,18.7,0C476.5,1692,476.6,1704.8,476.6,1717.6Z" transform="translate(-2 161)" style="fill: #97b76d"/>
                    <path d="M476.5,1679.2H457.8v-57.3h18.7Z" transform="translate(-2 161)" style="fill: #dee4d5"/>
                    <path d="M928.8,1765.1a23.5,23.5,0,0,1-19.1,0l.2-85.9c6.3-7.2,12.5-7.2,18.7,0Q928.8,1722.1,928.8,1765.1Z" transform="translate(-2 161)" style="fill: #97b76d"/>
                    <path d="M838.4,1765.1a23.5,23.5,0,0,1-19.1,0c.1-28.7.1-57.3.2-85.9,6.2-7.2,12.5-7.2,18.7,0C838.3,1707.8,838.3,1736.4,838.4,1765.1Z" transform="translate(-2 161)" style="fill: #97b76d"/>
                    <path d="M864.7,1677.2c6,.3,10.2,4.1,13.6,8.9,9.8,14.1,14.6,30.5,18.9,47.2,1.7,6.4-.6,8.2-6.3,6.3-12.6-4-35.9-38.2-35.4-51.8C855.7,1681.2,859,1677.9,864.7,1677.2Z" transform="translate(-2 161)" style="fill: #a1c67a"/>
                    <path d="M838.2,1679.2H819.5v-57.3h18.7Z" transform="translate(-2 161)" style="fill: #dee4d5"/>
                    <path d="M928.6,1679.2H909.9v-57.3h18.7Z" transform="translate(-2 161)" style="fill: #dee4d5"/>
                    <path d="M1177.8,1818.6h-2.4c-.8,2.1-1.6,2-2.3,0,0-19.9,0-39.8.1-59.6,2.5-11.2-.8-22.7,1.9-33.8l.5-10.7c1.4-5.8,3.6-11.8-4-14.6-4.6.6-9,.3-12.5-3.6a27.8,27.8,0,0,0-13.4-14.6c-3.8-5.9-10.7-14.3-7-19,5.7-7.4,12.6,2,19,4.6s10.3,7.7,14.7,12.4c6.9,7.5,4.5-1.8,6.1-3.9,2.5-4.9-.3-10.7,2.1-15.6l.6-5.1c2.6-.6,4.2.9,5.5,3.1,1.5,4.6,3.3,9,3.3,14,0,2.3-.8,4.5-.9,6.7,1.2,17.1-2.9,34-.1,51.4,1.5,9.2,4.2,14.1,11.8,16.6,5.1-1.7,12.1-6.1,15.3-1.7s-1.9,11.7-4.9,16.8-7.5,9.8-11.3,14.6l-21.3,9.6C1179.7,1797,1181.1,1807.9,1177.8,1818.6Z" transform="translate(-2 161)" style="fill: #a1c579"/>
                    <path d="M1109.7,1765.1a23.8,23.8,0,0,1-19.2,0l.3-85.9q9.3-10.8,18.6,0Z" transform="translate(-2 161)" style="fill: #97b76d"/>
                    <path d="M1109.4,1679.2h-18.6v-57.3h18.6Z" transform="translate(-2 161)" style="fill: #dee4d5"/>
                    <path d="M1183.7,1658.1l-2.5-3c.7-10.8,1.4-21.7,2.2-32.5.3-7.1,2.4-14.4-2.1-20.9-.4-4.2-.9-8.4-1.4-12.6,1.5-3.7,4.2-3.6,6.7-1.8,11.1,7.9,23.9,11.5,36.1,16.6-6.6,4.3-13.3,8.1-21.4,6.9-6.4,2.8-5.1,9-5.3,14.5-2.8,11,1.4,24-8.1,33A3.5,3.5,0,0,1,1183.7,1658.1Z" transform="translate(-2 161)" style="fill: #a1c67b"/>
                    <path d="M1173.1,1818.6h2.3c-1.4,14.8,3.3,30.1-2.8,44.6C1172.8,1848.3,1172.9,1833.4,1173.1,1818.6Z" transform="translate(-2 161)" style="fill: #a8ca84"/>
                    <path d="M1181.3,1601.7c9.3,6,7.6,13.2,2.1,20.9C1178.6,1616.1,1181.6,1608.7,1181.3,1601.7Z" transform="translate(-2 161)" style="fill: #9ab970"/>
                    <path d="M1145.7,1681.7c9.3-.3,13.8,4.5,13.4,14.6C1152.7,1693.5,1148.5,1688.3,1145.7,1681.7Z" transform="translate(-2 161)" style="fill: #a1c67a"/>
                    <path d="M1175.1,1725.2c-.2,11.3,2.5,22.8-1.9,33.8C1173,1747.7,1172,1736.3,1175.1,1725.2Z" transform="translate(-2 161)" style="fill: #a9ca84"/>
                    <path d="M1171.6,1699.9c8.7,2.5,7.3,8.2,4,14.6C1174.5,1709.5,1177,1703.4,1171.6,1699.9Z" transform="translate(-2 161)" style="fill: #a1c67a"/>
                    <path d="M1180.6,1660.2c.4,5.3,1.1,10.8-2.1,15.6C1178.1,1670.4,1178.3,1665.1,1180.6,1660.2Z" transform="translate(-2 161)" style="fill: #adcc8a"/>
                    <path d="M1000.5,1590.1c8.5,5.7,11.9-7,19.1-6.3,3.4,1.4,5.3-2.2,8-2.9,10.8,3.5,21.9,5.6,32.1,11.7s20.5,29.3,17.4,40.1c-2,6.6.5,12.6-2,20.4-7.8,23.8-24.7,29.8-43.2,35.6-5.4,1.8-6.3-4.6-9.6-6.6-2.6,4-5.5,7.4-10.6,6.7s-7.7-6.4-11.6-9.5c-5.8-11-14.9-21.6-16.1-33.1-.7-7.7-2.7-17.4,1.3-27.5S1001,1602.8,1000.5,1590.1Z" transform="translate(-2 161)" style="fill: #f8e36b"/>
                    <path d="M1000.1,1679.3c5.1-1.1,8.8.8,11,6,4.2,1.1,6.9,2.4,6.2,8.8-1.1,10.6-2.3,21.3-2.1,32-.1,4,0,7.9-.3,11.8-1.4,6.1-2.6,12.1-2.5,18.4-.2,4.1-.7,8-4.8,9.8a4.7,4.7,0,0,1-4.3-.6c-1.1-2.3-2.3-4.7-3.5-7Z" transform="translate(-2 161)" style="fill: #97b76d"/>
                    <path d="M548.4,1681.9c1.1.8,3.1,1.4,3.3,2.4,4.7,24.8,7.6,49.9,7.6,75.3-.1,6.8-5.6,4.8-9.1,5.9-1,1.3-1.7,1.3-2.1-.5Z" transform="translate(-2 161)" style="fill: #96b66b"/>
                    <path d="M548.1,1765l2.1.5c19.3,4.8,8.4,20.6,11.9,32.9-7.1-2.2-10.4-6.5-14.1-9.8C548,1780.7,548,1772.9,548.1,1765Z" transform="translate(-2 161)" style="fill: #dae2d0"/>
                    <path d="M506.9,1601.6c-3.8,3.4-7.4,3.4-11-.3C499.6,1598.7,503.3,1599.5,506.9,1601.6Z" transform="translate(-2 161)" style="fill: #d80c1b"/>
                    <path d="M1018.6,1822.4c-7-.2-7-5.6-7-11.1l-.3-18.6c2.2-6.1.8-12.5,1.1-18.8.2-4.4.9-7.9,6.1-6.6C1018.6,1785.7,1018.6,1804,1018.6,1822.4Z" transform="translate(-2 161)" style="fill: #dce3d1"/>
                    <path d="M1011.1,1726.4c.9-9.7,1.8-19.4,2.8-29.1.5-4.5,1.1-8.8-2.8-12l11.2-3.2c-2.6,13.7-3.1,27.6-3.4,41.5-3.1,3.5,2.4,10.8-4.7,12.5C1010.9,1733.7,1013.8,1729,1011.1,1726.4Z" transform="translate(-2 161)" style="fill: #a1c478"/>
                    <path d="M1011.1,1726.4c2.2,2.5,2.7,5.7,2.7,8.9,6.3,9-.5,20.5,4.8,29.7a6,6,0,0,1-.1,2.3c-9.7,6-2.1,17.8-7.2,25.4-1.2-8.2,1.9-17-3.1-24.6-2.2.8-3-.4-3.2-2.5,2.6-2.6,3.3-5.9,3.3-9.5,3.5-5.5-.7-12.3,2.7-17.8C1011.1,1734.3,1011.1,1730.4,1011.1,1726.4Z" transform="translate(-2 161)" style="fill: #a1c579"/>
                    <path d="M1018.6,1765c-9.2-8.4-3-19.8-4.8-29.7l5.1-11.7Z" transform="translate(-2 161)" style="fill: #9cbb74"/>
                    <path d="M1027.6,1580.9c-2.1,2.8-3.7,7.5-8,2.9,1.7-2,3.5-3.9,5.2-5.8Z" transform="translate(-2 161)" style="fill: #f2f0c9"/>
                    <path d="M749.8,1664.3l6.6,2.5c1.9,17.4,3.7,34.9,5.6,52.3,2.5,6.1-.4,13,2.1,19.1.3,4.6.5,9.1.7,13.7,2.6,8.1-.5,16.8,2,24.9-3,5.5-.6,10.1,2.3,15.6,5.2-11.6,8.3-23.7,15.4-33.4,5-6.7,11-13.9,19.5-8s4,13.7,1,20.1c-8.2,17.9-18,34.5-36.7,41.6-5.3,9-1.2,19-2.4,28.4-.8,6.3,1.2,12.8-1.4,19l-3.1,3V1769c-2.7-8,.5-16.6-2-24.6l-.7-16.5c-2.2-5.2.1-11.1-2.1-16.2l-6.3-41.4C748.9,1668.4,749.3,1666.4,749.8,1664.3Z" transform="translate(-2 161)" style="fill: #a1c679"/>
                    <path d="M764.5,1860.1c1.9-15.7-4.2-32.2,3.8-47.4l-1.2,47.5Z" transform="translate(-2 161)" style="fill: #9ac16e"/>
                    <path d="M766.8,1776.8c-4-8-1.9-16.5-2-24.9C767.6,1760,767,1768.5,766.8,1776.8Z" transform="translate(-2 161)" style="fill: #a9ca84"/>
                    <path d="M764.1,1738.2c-3.6-6-2.1-12.6-2.1-19.1C764.5,1725.2,764.5,1731.7,764.1,1738.2Z" transform="translate(-2 161)" style="fill: #a5c87f"/>
                    <path d="M1271.6,1679.2h18.7c.1,28.6.1,57.2.2,85.9a23.5,23.5,0,0,1-19.1,0C1271.5,1736.4,1271.5,1707.8,1271.6,1679.2Z" transform="translate(-2 161)" style="fill: #97b76d"/>
                    <path d="M1380.6,1729.3q11,21.8,22,43.5l.3,19c-.9,2.1-1.7,2.1-2.6,0-6.9-1.8-11.8-7-16.9-11.7-5.3-7.6-10.8-14.8-21-12.9a7.4,7.4,0,0,1,0-2.1c5-6,.8-11.9-.2-17.7v-18.1C1368.3,1722.4,1374.4,1722.4,1380.6,1729.3Z" transform="translate(-2 161)" style="fill: #a1c579"/>
                    <path d="M1380.6,1729.3h-18.4c-.1-16.7-.1-33.4-.2-50.1h18.7C1380.6,1695.9,1380.6,1712.6,1380.6,1729.3Z" transform="translate(-2 161)" style="fill: #98b76d"/>
                    <path d="M1362.2,1747.4c1.9,3.3,3.8,6.7,5.8,10,5,8.5-1.1,7.4-5.6,7.7C1362.3,1759.2,1362.3,1753.3,1362.2,1747.4Z" transform="translate(-2 161)" style="fill: #a0bd79"/>
                    <path d="M1542.9,1679.2h18.6l.3,85.9a23.8,23.8,0,0,1-19.2,0Z" transform="translate(-2 161)" style="fill: #97b76d"/>
                    <path d="M1452.5,1679.2h18.6l.3,85.9a23.8,23.8,0,0,1-19.2,0Z" transform="translate(-2 161)" style="fill: #97b76d"/>
                    <path d="M373.6,1678.8c-7.1,4.9-3.9,13.7-6.7,20.3-5.1,13.3-13.1,23.2-26.5,26.7-4.7-.4-6.3-4.9-9-7.8-8.9,11.3-18.3,3.3-26.9-.2-2.9-1.2-5.2-3-8.4-2.4-11.8.3-15.6-8.6-17.7-18.9-.6-3.1.9-6.6-1.3-9.6-1-10.3-2.9-20.7.2-31.1a64.3,64.3,0,0,1,18.7-28.2c12.2-7.8,25.8-12.9,38.9-7.1,7.2,3.2,19.5.9,21,15,.8,7.6,7.8,2.6,11,5.5C366.2,1654.2,369.4,1666.6,373.6,1678.8Z" transform="translate(-2 161)" style="fill: #f8e36b"/>
                    <path d="M186.6,1679.2h18.6l.3,85.9a23.8,23.8,0,0,1-19.2,0Z" transform="translate(-2 161)" style="fill: #97b76d"/>
                    <path d="M277.1,1686.9c4.5,11,11.9,19.6,19,28.5-.1,16.6-.1,33.1-.2,49.6a22.8,22.8,0,0,1-19.1,0Z" transform="translate(-2 161)" style="fill: #97b76d"/>
                    <path d="M638.7,1679.2h18.6l.3,85.9a23.8,23.8,0,0,1-19.2,0Z" transform="translate(-2 161)" style="fill: #97b76d"/>
                    <path d="M748,1765a22.8,22.8,0,0,1-19.1,0l.2-85.8c6.2-7.2,12.4-7.2,18.6.1Z" transform="translate(-2 161)" style="fill: #97b76d"/>
                    <path d="M747.7,1679.3H729.1c-.2-5.9-.3-11.8-.5-17.7,6.7,3.8,13.6,6.4,21.2,2.8.2,2,.3,4,.5,6S748.6,1676.3,747.7,1679.3Z" transform="translate(-2 161)" style="fill: #e0e3d6"/>
                    <path d="M558.9,1678.9l8,.3c.2,12.5.5,25,.7,37.5-3.1,6.5-5.1,4.8-5.7-1.1C560.7,1703.4,559.9,1691.1,558.9,1678.9Z" transform="translate(-2 161)" style="fill: #99b970"/>
                    <path d="M104.7,1678.1c5.1,2,10.8,3.3,12.8,10.1,2.7,2.7,2.6,5.5.3,8.5-2.4,22.8-8,45.1-8.3,68.2-4.3,4.3-8.6,5-12.9.1-.2-25.9-.3-51.8-.8-77.7C95.7,1680.1,98.6,1677.7,104.7,1678.1Z" transform="translate(-2 161)" style="fill: #97b66c"/>
                    <path d="M109.6,1768l-.3,20c-2.9,8.8.8,18.2-2.2,27-.7,1.8-1.9,2.7-1,1a9.7,9.7,0,0,1-1.9-1.7c-.9-10.8-6.4-19.7-10.4-29.1,3.4-5.5,1.5-12,2.8-17.9C101,1766.5,105.4,1765.5,109.6,1768Z" transform="translate(-2 161)" style="fill: #dce3d2"/>
                    <path d="M109.6,1768l-13-.7a4.5,4.5,0,0,1,0-2.3h12.9C109.6,1765.9,109.6,1767,109.6,1768Z" transform="translate(-2 161)" style="fill: #a3c67c"/>
                    <path d="M1723.7,1679.2h18.7c.1,28.6.1,57.2.2,85.9a23.5,23.5,0,0,1-19.1,0C1723.6,1736.4,1723.6,1707.8,1723.7,1679.2Z" transform="translate(-2 161)" style="fill: #97b76d"/>
                    <path d="M1832.9,1762.1c-6.8-1.4-12.6-6.4-19.8-6.2.3-25.6.7-51.1,1-76.7,6.3-7.8,13.2-7.4,20.4-1.6,5.7,25.2,4,50.8,3.7,76.3C1838.2,1757.6,1835.6,1760.1,1832.9,1762.1Z" transform="translate(-2 161)" style="fill: #97b76d"/>
                    <path d="M1832.8,1679.2h-18.7l-.3-56.7c11.7-9.6,18.5-7.5,22.4,6.9,1.1,4.2,2.7,8.2,2.1,12.8-1.5,7.5-.9,15.2-1.2,22.9C1836.9,1670.2,1837.9,1675.8,1832.8,1679.2Z" transform="translate(-2 161)" style="fill: #dee4d5"/>
                    <path d="M1835.4,1643.5c-2.2-20.2-2.2-20.2-21.6-21l-11.9-8.5c16.7-1.7,31.1-9.3,44.1-20.4,0,2,.8,4.4.1,5.8-10.1,19.7-4.1,40.7-4.6,61.1,1.1,3.6-.7,4.1-3.3,3.8A27,27,0,0,1,1835.4,1643.5Z" transform="translate(-2 161)" style="fill: #a2c579"/>
                    <path d="M1791.9,1574.9c-3.7,3.3-7.4,3.3-11-.3C1784.7,1571.9,1788.3,1572.7,1791.9,1574.9Z" transform="translate(-2 161)" style="fill: #d80c1b"/>
                    <path d="M1200.8,1746.9a59.2,59.2,0,0,0-6.1,3.3c-7.9,5.2-10.7,3.6-11.3-7-1.2-21.7-3.1-43.3.4-64.9,5.7-5.3,11-5.1,16.1.9Z" transform="translate(-2 161)" style="fill: #96b66c"/>
                    <path d="M1199.9,1679.2l-16.1-.9c.1-1.7.1-3.3.1-5,2.7-4.8-.4-10.5,2.2-15.4,1.9-11.8,3.9-23.6,5.8-35.4,2.6-2.5,5.2-2.8,8-.5Z" transform="translate(-2 161)" style="fill: #dee4d4"/>
                    <path d="M1199.9,1622l-8,.5c0-6.9,2.3-11.5,9.4-11.7C1200.8,1614.5,1200.4,1618.2,1199.9,1622Z" transform="translate(-2 161)" style="fill: #9aba71"/>
                    <path d="M1651.9,1738.4c-1.8,7,.7,14.8-2.9,21.5-.8,1.5-2.7,3.3-3.9,3.2s-3.2-2.4-3.2-3.9c-1.2-25.5-6.8-50.7-5.9-76.4,0-1.2,1.6-2.3,2.5-3.4l.4-1c4.5-2.8,8.9-4.1,13,.9Z" transform="translate(-2 161)" style="fill: #97b76c"/>
                    <path d="M1651.9,1679.3l-13-.9c1.2-8.7,7.3-8.3,13.2-8.4C1652,1673.1,1652,1676.2,1651.9,1679.3Z" transform="translate(-2 161)" style="fill: #dfe4cd"/>
                    <path d="M1651.6,1822.4c-10.7-5-10.6-7.1.3-16.1Z" transform="translate(-2 161)" style="fill: #dfe5d6"/>
                    <path d="M112.6,1819.6c.6-16.2-2.8-32.5,2.2-48.5C114.5,1787.3,115.8,1803.6,112.6,1819.6Z" transform="translate(-2 161)" style="fill: #a3c67c"/>
                    <path d="M117.8,1696.7l-.3-8.5c2.7-1.5,5.3-4.7,8.5-.7-1.8,7.3-3.5,14.6-5.2,21.9C120.5,1705,120.8,1700.3,117.8,1696.7Z" transform="translate(-2 161)" style="fill: #a3c67c"/>
                    <path d="M115.3,1760c.2-7.2-1.8-14.8,2.3-21.6C117.7,1745.7,117.9,1753,115.3,1760Z" transform="translate(-2 161)" style="fill: #a3c67c"/>
                    <path d="M118.1,1730.5c-.1-5.4-1.1-11,2.2-15.9C120.6,1720.1,120.4,1725.5,118.1,1730.5Z" transform="translate(-2 161)" style="fill: #a3c67c"/>
                    <path d="M1849.6,1833.3c1.3-17.7-3-35.8,2.6-53.3a398,398,0,0,1,0,53.5C1851.3,1835.5,1850.4,1835.4,1849.6,1833.3Z" transform="translate(-2 161)" style="fill: #9ac16f"/>
                    <path d="M1838.9,1664l2.6-3.5c6.7,6.9-.5,17.2,5.1,24.3l-2.7,3.2a3.5,3.5,0,0,1-4.3-.6C1836.5,1679.7,1833.2,1672,1838.9,1664Z" transform="translate(-2 161)" style="fill: #a1c679"/>
                    <path d="M1882.5,1688.2c-1-5.9-2.9-11.2-9.1-12.7,4.2-2.6,10-6.9,13.1-2.8S1885.4,1683.4,1882.5,1688.2Z" transform="translate(-2 161)" style="fill: #a1c679"/>
                    <path d="M1851.9,1756.1c-4.5-10.9-1.8-22.4-2.1-33.6C1852.8,1733.5,1852.2,1744.8,1851.9,1756.1Z" transform="translate(-2 161)" style="fill: #a9ca85"/>
                    <path d="M1846.6,1586.6c-3.5-6-3.7-11.9.3-17.8A30.8,30.8,0,0,1,1846.6,1586.6Z" transform="translate(-2 161)" style="fill: #d70b1a"/>
                    <path d="M1866,1679.2c2.5,8.5-1.9,6.9-6.4,5.1Z" transform="translate(-2 161)" style="fill: #a1c679"/>
                    <path d="M1849.6,1833.3l2.6.2-.2,14.7C1848.8,1843.7,1849.6,1838.5,1849.6,1833.3Z" transform="translate(-2 161)" style="fill: #a0c579"/>
                    <path d="M1413.3,1646.2c2.1-1.8,4.2-3.3,6.7-.5q-4.8,35.8-9.4,71.7a2,2,0,0,1-2.7.8c-1.3-2-.4-4.7-2-6.6C1406.2,1689.5,1410.2,1667.9,1413.3,1646.2Z" transform="translate(-2 161)" style="fill: #a4c77e"/>
                    <path d="M1408.9,1863c-4.5-4.7-3.2-11-3.3-16.7-.1-28.1,0-56.1.1-84.1.6-2.2,1.4-2.3,2.2-.2Q1408.5,1812.6,1408.9,1863Z" transform="translate(-2 161)" style="fill: #accd89"/>
                    <path d="M1407.9,1762l-2.2.2-2.6-6c.1-4,.2-8,.2-12,2.5-8-.7-16.6,2-24.6l.6-8,2.5,6c2.3,7.1,1.7,14.4.3,21.6S1408.2,1754.4,1407.9,1762Z" transform="translate(-2 161)" style="fill: #a1c579"/>
                    <path d="M1408.7,1739.2l-.3-21.6,2.2-.2C1410.9,1724.8,1411.2,1732.1,1408.7,1739.2Z" transform="translate(-2 161)" style="fill: #aecd8b"/>
                    <path d="M331.4,1718l7.9,5a9.1,9.1,0,0,1,5.6,5.9c4.7,15.5,5.2,31.6,5.7,47.7a10,10,0,0,1-5.6,9.3l-2.6,6c-.8,2-1.6,1.9-2.2-.1C337.4,1767.2,336.6,1742.3,331.4,1718Z" transform="translate(-2 161)" style="fill: #a4c87e"/>
                    <path d="M340.2,1791.8h2.2l-.3,24.8C339.4,1808.6,340,1800.2,340.2,1791.8Z" transform="translate(-2 161)" style="fill: #aecd8c"/>
                    <path d="M1642.3,1783.3c-.6-5.7-2.4-9.5,1.3-12.8C1647.9,1774.6,1646.1,1778.1,1642.3,1783.3Z" transform="translate(-2 161)" style="fill: #d1dec2"/>
                    <path d="M345,1785.9c.3-21.2-3.8-41.9-5.7-62.9,4.4-10.4,19.6-9.3,21.2-23.1,0-.5,4.1-.5,6.4-.8.2,20,.5,40,.7,60-7.3,20.9-14.7,41.7-17.3,64.1-6.6.6-3.2-4.9-3.6-7.6-.8-6.2.9-12.6-1.1-18.8Z" transform="translate(-2 161)" style="fill: #fdfdfd"/>
                    <path d="M345.6,1796.8c4,8.3-.5,18.4,4.7,26.4-1.7,6-4.1,4.8-4.4-.1C345.2,1814.4,345.6,1805.6,345.6,1796.8Z" transform="translate(-2 161)" style="fill: #aecd8c"/>
                    <path d="M1005,1765.6l3.2,2.5-.3,22.6c-6.9-7.3-8-15.8-4.6-25.2Z" transform="translate(-2 161)" style="fill: #d2ddc4"/>
                    <path d="M1838.9,1664c-2,8.3,2.5,15.7,2.8,23.7,2.3,5-.3,10.7,1.9,15.7l.9,14.2c2.5,8-.8,16.6,2,24.6v29.1c-6.2-.9-8.9-6.9-13.6-9.2,0-27.6-.1-55.2-.1-82.9,1.5-11.8-2.3-24.1,2.6-35.7C1836.6,1650.4,1837.7,1657.2,1838.9,1664Z" transform="translate(-2 161)" style="fill: #fcfcfb"/>
                    <path d="M1846.5,1742.2c-2.6-8-2.2-16.3-2-24.6C1848.4,1725.5,1846.4,1733.9,1846.5,1742.2Z" transform="translate(-2 161)" style="fill: #a9ca85"/>
                    <path d="M1843.6,1703.4c-2.3-5-2.2-10.3-1.9-15.7a8.3,8.3,0,0,1,2.2.3Z" transform="translate(-2 161)" style="fill: #b1d091"/>
                    <path d="M104.2,1814.3c6.2-7.8.6-18.2,5.1-26.3.1,7.6.3,15.2.1,22.8C109.3,1814.1,108.9,1818.4,104.2,1814.3Z" transform="translate(-2 161)" style="fill: #a3c67c"/>
                    <path d="M759.4,1744.4c4,7.9,2,16.3,2,24.6C758.9,1760.9,759.2,1752.7,759.4,1744.4Z" transform="translate(-2 161)" style="fill: #a9ca84"/>
                    <path d="M756.6,1711.7c3.3,5,2.2,10.6,2.1,16.1C756.4,1722.7,756.3,1717.2,756.6,1711.7Z" transform="translate(-2 161)" style="fill: #a5c87f"/>
                    <path d="M1400.3,1791.8h2.6c-.1,19.1-.3,38.3-.4,57.5C1398.8,1830.3,1401.9,1810.9,1400.3,1791.8Z" transform="translate(-2 161)" style="fill: #accd89"/>
                    <path d="M1177.8,1818.6c.3-10.8.6-21.6.8-32.4,5.3,11.1-.2,23.7,4.5,34.9l-4.4.3Z" transform="translate(-2 161)" style="fill: #edf3e6"/>
                    <path d="M1618.9,1609.9c10.3-.2,18.5,8.3,18.6,19.2s-7.8,19.8-17.9,20-18.5-8.6-18.7-19.3S1608.9,1610.1,1618.9,1609.9Z" transform="translate(-2 161)" style="fill: #534d3f"/>
                    <path d="M1405.3,1719.6c.1,8.3,1.9,16.7-2,24.6C1402.9,1735.9,1402.6,1727.6,1405.3,1719.6Z" transform="translate(-2 161)" style="fill: #aecd8b"/>
                    <path d="M1432.8,1610.2c-.5,6-3.1,10.5-8.8,11s-9.3-3.7-9.8-9.7,2.9-11.7,9.2-11.8S1432,1604.1,1432.8,1610.2Z" transform="translate(-2 161)" style="fill: #f8e26a"/>
                    <path d="M138.6,1651.6c-.6,6.9-4.2,11.1-10.5,11.3s-9.3-4.1-9.6-10.3,2.9-10.8,8.6-11.3S137.2,1644.8,138.6,1651.6Z" transform="translate(-2 161)" style="fill: #f8de69"/>
                    <path d="M745.9,1620.2c6,.8,9.8,4.1,10.1,10.3s-3.3,11.4-9.6,11.6-9.4-3.5-9.6-9.9S740.2,1621.5,745.9,1620.2Z" transform="translate(-2 161)" style="fill: #f8e16e"/>
                    <path d="M1180.5,1744.5c0,4.7,1.4,9.4-.9,14.3-2.4-4.8-.8-9.6-.8-14.2Z" transform="translate(-2 161)" style="fill: #d9e7ca"/>
                    <path d="M1186.1,1657.9c.3,5.3.4,10.6-2.2,15.4,0-5-.1-10.1-.2-15.2Z" transform="translate(-2 161)" style="fill: #adcc8a"/>
                    <path d="M1180.5,1744.5h-1.7v-10.1h1.7Z" transform="translate(-2 161)" style="fill: #c7dcaf"/>
                    <path d="M1047.9,1635.9c-.3,11-8.5,19.4-18.7,19.1s-18.1-9.3-17.8-20.1,8.4-19.2,18.7-19S1048.1,1624.9,1047.9,1635.9Z" transform="translate(-2 161)" style="fill: #524c3f"/>
                    <path d="M1011,1738.3c-.3,6,1.3,12.4-2.7,17.8C1008.7,1750.1,1007.1,1743.7,1011,1738.3Z" transform="translate(-2 161)" style="fill: #a1c478"/>
                    <path d="M342.7,1671.2c-.1,11.1-8,19.6-18.2,19.5s-18-8.7-17.9-19.8,7.9-19.4,18.2-19.3S342.8,1660,342.7,1671.2Z" transform="translate(-2 161)" style="fill: #524c3f"/>
                  </g>
</svg>