<svg xmlns="http://www.w3.org/2000/svg" xmlns:xlink="http://www.w3.org/1999/xlink" viewBox="0 0 1920 2161.3">
<g> <!--Bee-->
    <path d="M -100 1860 L 20 1860 C 120 1740 180 1940 300 1860 C 380 1760 480 1940 580 1860 C 680 1780 780 1960 860 1860 C 980 1760 1040 1960 1140 1860 C 1280 1640 1320 1960 1420 1860 C 1520 1780 1460 1600 1300 1680 C 1220 1760 1220 1860 1480 1840 C 1580 1800 1600 1900 1700 1860 Q 1880 1780 1920 1640 "
      fill="none" id="wire"></path>
      <g>
        <path d="M303,1600.3l-3.8-2.9a11.2,11.2,0,0,1,3.8,2.6A.2.2,0,0,1,303,1600.3Z" transform="translate(-272.1 -1596.5)" style="fill: #cecece"/>
        <path d="M303,1600.3v-.3c1.2.4,1.5-.7,2.3-1s-1,1-1.5,1.5S303.2,1600.6,303,1600.3Z" transform="translate(-272.1 -1596.5)" style="fill: #c3c3c3"/>
        <path d="M279.5,1621.8a4.2,4.2,0,0,1-1.8,2.2A7.6,7.6,0,0,1,279.5,1621.8Z" transform="translate(-272.1 -1596.5)" style="fill: #d8d8d8"/>
        <path d="M323.2,1613.8c-.6,0-1.2.1-1.5-.4s-.1-.6.4-.7S322.7,1613.5,323.2,1613.8Z" transform="translate(-272.1 -1596.5)" style="fill: #cdcdcd"/>
        <path d="M272.1,1636.8a2,2,0,0,1,1.5,1.3C273,1637.7,272.3,1637.5,272.1,1636.8Z" transform="translate(-272.1 -1596.5)" style="fill: #cecece"/>
        <path d="M340,1628.6c-.5-.3-.5-.8-.5-1.3A1.7,1.7,0,0,1,340,1628.6Z" transform="translate(-272.1 -1596.5)" style="fill: #c8c8c8"/>
        <path d="M282.7,1649.7c.7,0,1,.3,1.1.8A2.8,2.8,0,0,1,282.7,1649.7Z" transform="translate(-272.1 -1596.5)" style="fill: #c7c7c7"/>
        <path d="M330.3,1651.3a1,1,0,0,1,1.1-.7A3,3,0,0,1,330.3,1651.3Z" transform="translate(-272.1 -1596.5)" style="fill: #cacaca"/>
        <path d="M287.6,1596.5c-.2.4-.6.4-1,.4A1.2,1.2,0,0,1,287.6,1596.5Z" transform="translate(-272.1 -1596.5)" style="fill: #c1c1c1"/>
        <path d="M285.3,1651.5c.5-.2.6.1.8.4A1,1,0,0,1,285.3,1651.5Z" transform="translate(-272.1 -1596.5)" style="fill: #bfbfbf"/>
        <path d="M289.2,1617.6c-4.1-3.7-6.3-7.8-5.4-12.9s7.2-8.5,13.2-5.7a13.1,13.1,0,0,1,5.3,4.2l1,1.4c.6-.2.7-.6.9-.9a11.5,11.5,0,0,1,4.7-4,7.8,7.8,0,0,1,9.7,2c2.1,2.5,2.3,5.4,1.6,8.3a14.3,14.3,0,0,1-2,4.6l2.3.7c5.2,1.7,9.7,4.1,13.2,7.9,6.4,6.8,6.3,15.6-.2,22.3-4.9,5-11.3,7.7-18.6,8.9-9.1,1.4-17.7.4-25.7-3.6-5.7-2.9-9.9-6.8-11.6-12.5-.3-.9-1.2-1.2-1.9-1.7-2.3-1.8-2.3-1.8-.1-3.7a7.2,7.2,0,0,0,2.1-3.3c1.7-5.1,5.6-8.8,10.6-11.6Z" transform="translate(-272.1 -1596.5)"/>
        <path d="M304.5,1633.8c.2-7.3,3.5-13.5,9.8-18.5a1.4,1.4,0,0,1,1.2-.4c7.3,1.5,13.7,4.2,18.2,9.6,6,7.1,4.8,16.1-2.7,22.2a34.6,34.6,0,0,1-14.4,6.6,2,2,0,0,1-1.5-.3C308.3,1647.9,304.7,1641.6,304.5,1633.8Z" transform="translate(-272.1 -1596.5)" style="fill: #fdfd6b"/>
        <path d="M308.2,1654.2a50.6,50.6,0,0,1-7.9-.6,2.4,2.4,0,0,1-1.2-.7c-12.4-9.4-13.3-25.1-2.2-35.6,2.4-2.2,5.1-2.9,8.3-3h3.5c-7.1,5.3-11.2,11.8-11.3,19.8S301.1,1648.7,308.2,1654.2Z" transform="translate(-272.1 -1596.5)" style="fill: #fdfd6b"/>
        <path d="M284.8,1604.3c.9-4.2,5.2-6.6,9.8-5.3s8.2,5.1,9.6,9.7a10.8,10.8,0,0,1,.4,3.5c0,1-.3,1.7-1.6,1.6h-1.5a50.6,50.6,0,0,0-10.9,3.2.7.7,0,0,1-.9-.1c-2.4-2.2-4.4-4.6-4.9-7.8.3-.2.1-.6.2-1.1s.1.8-.2,1a2.2,2.2,0,0,1-.2-1.4c.3-.7-.1-1.5.2-2.2S285,1604.7,284.8,1604.3Z" transform="translate(-272.1 -1596.5)" style="fill: #d3f3fd"/>
        <path d="M313.8,1614.6c-11.7,9.2-15.3,26.6.5,38.8a6.2,6.2,0,0,1-6.2-.3,25.9,25.9,0,0,1-8.7-11.6,21,21,0,0,1,1.2-16.8,27.1,27.1,0,0,1,9.1-10C310.9,1613.9,312.2,1614.6,313.8,1614.6Z" transform="translate(-272.1 -1596.5)" style="fill: #0d112f"/>
        <path d="M319.4,1605.3a7.2,7.2,0,0,1,0,4.1c-.3-.1-.2-.3-.2-.4a1.2,1.2,0,0,0,.1.8,11,11,0,0,1-1.7,4.2.9.9,0,0,1-1.1.4,45.6,45.6,0,0,0-10.5-.9c-.6.1-.8-.1-.7-.6a12.5,12.5,0,0,0-1.1-6.6c-.1-.2-.3-.5-.1-.7,1.5-2.7,3.4-5,7-5.8.6,0,1.3.2,1.8-.1a6,6,0,0,1,4.7,2,5.8,5.8,0,0,1,1.7,3.5c0,.1,0-.1-.1,0v.5A.4.4,0,0,1,319.4,1605.3Z" transform="translate(-272.1 -1596.5)" style="fill: #d3f3fd"/>
        <path d="M297.4,1652.8a26.5,26.5,0,0,1-7.9-2.8c-1.3-.8-2-2.2-2.8-3.4a20.4,20.4,0,0,1-3.6-13.2,23.3,23.3,0,0,1,6-13.8c2.3-2.6,5.4-3.3,8.7-4.3C283.1,1628.1,287.2,1644.1,297.4,1652.8Z" transform="translate(-272.1 -1596.5)" style="fill: #0d112f"/>
        <path d="M285.8,1647.7c-3.6-2.5-6.2-5.6-7.3-9.5-1.8-6.1.3-11.3,5.2-15.8a16.1,16.1,0,0,1,3.6-2.7q.3-.2.3.3c-3.6,4.7-5.6,9.8-5.4,15.6a24.4,24.4,0,0,0,3.9,11.9C286.1,1647.7,286,1647.8,285.8,1647.7Z" transform="translate(-272.1 -1596.5)" style="fill: #fdfd6b"/>
        <path d="M277.2,1636.6l-.9-.6c-1.7-1.2-1.7-1.9.2-2.9s.6-.1.6.3.1.2.1.4Z" transform="translate(-272.1 -1596.5)" style="fill: #0d102d"/>
        <path d="M285.1,1605.4c-.6.7.1,1.5-.5,2.2a5.4,5.4,0,0,1,.2-3.1C285.1,1604.7,284.8,1605.1,285.1,1605.4Z" transform="translate(-272.1 -1596.5)" style="fill: #e2fefe"/>
        <path d="M312.9,1599.7a1.4,1.4,0,0,1-1.8.1A2.8,2.8,0,0,1,312.9,1599.7Z" transform="translate(-272.1 -1596.5)" style="fill: #dffefe"/>
        <path d="M284.8,1609v-1.2c.2.6.3,1-.1,1.3h0Z" transform="translate(-272.1 -1596.5)" style="fill: #e4fefe"/>
        <path d="M319.3,1609.8c-.4-.3-.2-.7-.2-1.1s.2.5.3.7Z" transform="translate(-272.1 -1596.5)" style="fill: #e3fefe"/>
        <path d="M301.5,1613.8h-.8c.6-.1.9-.2,1.2.1Z" transform="translate(-272.1 -1596.5)" style="fill: #defefe"/>
        <path d="M287.6,1620l-.3-.3a.9.9,0,0,1,.8-.4C288.1,1619.6,287.9,1619.8,287.6,1620Z" transform="translate(-272.1 -1596.5)" style="fill: #e5e567"/>
        <path d="M285.1,1605.4c-.4-.3-.2-.6-.3-.9a.1.1,0,0,1,0-.2C285.2,1604.6,285,1605,285.1,1605.4Z" transform="translate(-272.1 -1596.5)" style="fill: #e3fefe"/>
        <path d="M285.8,1647.7l.3-.2c.3.1.5.4.4.5S286,1647.9,285.8,1647.7Z" transform="translate(-272.1 -1596.5)" style="fill: #ebeb69"/>
        <path d="M319.4,1605.3l-.2.9c-.2-.5-.2-.8.1-1Z" transform="translate(-272.1 -1596.5)" style="fill: #e4fefe"/>
        <path d="M323.9,1635.7a3,3,0,0,0,2.1-1.2c.2-.3.4-.6.8-.4s.2.6,0,.8a4.6,4.6,0,0,1-3.9,1.8,4.8,4.8,0,0,1-3.8-1.8c-.3-.3-.6-.7-.1-1s.7.3.9.5a2.9,2.9,0,0,0,2.2,1.3A10.8,10.8,0,0,1,323.9,1635.7Z" transform="translate(-272.1 -1596.5)" style="fill: #0b0b05"/>
        <path d="M331.6,1631.3a1.4,1.4,0,0,1-1.7,1.3,1.4,1.4,0,0,1-1.4-1.4c-.1-.7.7-1.4,1.6-1.4A1.5,1.5,0,0,1,331.6,1631.3Z" transform="translate(-272.1 -1596.5)" style="fill: #070703"/>
        <path d="M317.4,1631.4a1.4,1.4,0,0,1-1.7,1.3,1.5,1.5,0,0,1-1.5-1.4,1.6,1.6,0,0,1,1.6-1.4A1.6,1.6,0,0,1,317.4,1631.4Z" transform="translate(-272.1 -1596.5)" style="fill: #050502"/>
        <path d="M323.9,1635.7a2.3,2.3,0,0,1-1.8,0A1.9,1.9,0,0,1,323.9,1635.7Z" transform="translate(-272.1 -1596.5)" style="fill: #fefe73"/>
        <path d="M323.9,1636.9c-.2.2-.5.1-.8.1a1.7,1.7,0,0,1-1-.1c.3-.2.6-.1.9-.1S323.6,1636.7,323.9,1636.9Z" transform="translate(-272.1 -1596.5)" style="fill: #fefe73"/>
        <path d="M317.6,1630.8c.3.3.2.6.1,1A1.2,1.2,0,0,1,317.6,1630.8Z" transform="translate(-272.1 -1596.5)" style="fill: #fefe73"/>
        <path d="M328.1,1630.7c.2.4.2.6.1.8S328,1631.1,328.1,1630.7Z" transform="translate(-272.1 -1596.5)" style="fill: #fefe73"/>
      <animateMotion dur="10s" repeatCount="indefinite">
        <mpath xlink:href="#wire"></mpath>
      </animateMotion>
    </g>
  </g>
  </svg>