<svg xmlns="http://www.w3.org/2000/svg" viewBox="0 0 178.4 192">
  <title>ceciliasvg</title>
  <g>
    <path d="M1381,1142.1c2.5.2.7,1.9,1,2.9h-14a26.5,26.5,0,0,0-10.9-8.4c-2-.8-3.9-1.7-5.1-3.6a20.9,20.9,0,0,1,11.7,1.9c4.7,2.3,8.8,5.7,14,7.1C1378.8,1142.3,1379.9,1142.9,1381,1142.1Z" transform="translate(-1204 -953)" style="fill: #34531e"/>
    <path d="M1312.9,1106.2a1.6,1.6,0,0,1-.9-.3c-6.5-4.9-14.2-7.2-21.7-10.1-2.5-.9-6.3-.1-7.2-4.1,7.5.3,14.3-3.2,21.5-4,2-.2,4-.3,5.6-1.7s3.4-.2,5,.7a48.4,48.4,0,0,1,13.1,9.4c1.3,1.3,2.6,3.1,5,2.5s2.6,1.6,4,2.3c4.4,3.7,7.5,8.4,10.7,13.1,1.1,1.8,3,3.4.6,5.5-6.8,5.6-11.8,1.4-16.8-3S1319.6,1108.8,1312.9,1106.2Z" transform="translate(-1204 -953)" style="fill: #335e15"/>
    <path d="M1332,1032.9a148.6,148.6,0,0,0,.1,21.1c-2.1.3-1.5-1.3-1.6-2.3-.3-3.6,0-7.2,0-10.1-1,5.4,1,11.6-.4,17.7-2.2,9.9-6.6,13-17,12.1-3.7-3.8-3.3-8.6-1.7-12.6,4.6-11.6,7.3-23.8,11.5-35.5,2.7-5.6,5.7-10.9,8.9-16.4C1332.3,1015.7,1333,1024.3,1332,1032.9Z" transform="translate(-1204 -953)" style="fill: #3e6a1c"/>
    <path d="M1313,1071a16.2,16.2,0,0,1,1.9-.4c5.4-.6,11.1-1,12.8-7.4,1.3-4.8,3.1-9.7,2-15-.5-2.9.3-6.1.6-10.1,1.7,5.8-.8,11.1,1.8,15.9.3.2.3.5,0,.8.8,3.7.5,7.6.3,11.4-.2,7.1.7,14.2,1.1,21.3-2.7,3.2-6.6,1.3-9.9,2.3-7-.9-9.3-3.2-10.2-10.2a28.5,28.5,0,0,0-1.3-4.8C1311.9,1073.4,1311.8,1072.1,1313,1071Z" transform="translate(-1204 -953)" style="fill: #355e15"/>
    <path d="M1313,1071v4c-1,2.6-1.8.2-2.2-.3s-2-3-4.2-2.4c-3.6-2.8-4.8-7.3-7.4-10.9-1.2-2-3.1-3.8-3.2-6.4,2.1-6,4.3-6.7,9.1-3,1.3,1,2.4,3.4,4.8,1.9.2-7.5,2.7-14.4,6-21,1.6-2.1,2.8-4.4,4.3-6.5s1.6-3.1,3.8-2.4c-3.5,9.8-5.1,20.3-9.5,29.8C1311.9,1059.5,1311.2,1065.1,1313,1071Z" transform="translate(-1204 -953)" style="fill: #497920"/>
    <path d="M1274,1053a14.7,14.7,0,0,1-5-3.9,101.2,101.2,0,0,1-11.8-11.8c-1-1.3-3.1-2.6-2-4.6s3.4-2.4,5.7-1.6l14.2,5.8c1.6,1.7,3.2,3.3,5.9,2.4h1.4a4,4,0,0,1,2.3,1.7c.9,2.3,2.3,4.5,2.2,7C1283.7,1052.6,1278.8,1052.7,1274,1053Z" transform="translate(-1204 -953)" style="fill: #80a949"/>
    <path d="M1282,1066c1.5-.9,3.9,3.1,4.9-.9-1-2.2.4-2.4,2-2.3,7.2-1.4,10.4,0,14.6,6.2,1.7,2.6,3.4,5.2,6.4,6.7s3.2,2.8,2.4,5.1-2.2,1.7-3.7,1.1c-6.3-3.5-12.8-6.7-18.1-11.9a1.5,1.5,0,0,0-2.2-.2c-.7.8-.2,1.6.3,2.3,2.6,3.7,5.1,7.4,10.6,6.8,2-.2,4.5-.2,5,2.8a3.5,3.5,0,0,1-2.6,1.5c-4.2.3-8.3.6-12.4-.2-1.5-.3-1.4-3.4-4-2.2a1.9,1.9,0,0,1-2.1-1.7c.7-6.2-5-6.5-8.2-9-1.1-.9-2.7-1.8-2.1-3.5s2.4-1.3,3.8-1.1S1280.2,1065,1282,1066Z" transform="translate(-1204 -953)" style="fill: #4a7820"/>
    <path d="M1282.9,1092.1c5.5,3.2,12.1,4,17.8,6.9,4,1.9,8.7,2.7,11.3,6.9-9.9-5.4-20.7-8.8-31.2-12.8a13.4,13.4,0,0,0-4.9-1c-15.4,0-30.9-2.3-46.3-.9-7.9.8-15.9-.1-23.8,1.7-.6.1-1.3.1-1.8-1.2,4.9-2.2,10.4-3.4,14.8-6.9,1.4-.5,2.8-1.1,4.4-.5,6.6,4.1,14,3.2,21.2,3.3,3.5.1,7,0,10.4,0a13.1,13.1,0,0,1,4.4.7c4.7,2.5,9.7.7,14.5,1.2S1280.4,1089.1,1282.9,1092.1Z" transform="translate(-1204 -953)" style="fill: #688947"/>
    <path d="M1275.9,1025.4a52.1,52.1,0,0,0-19.1-13.7,32.5,32.5,0,0,1-9.8-6.6q-1.8-2.7,1.2-3.9a16.8,16.8,0,0,1,10.8,3.6l1.7,1.5c4,.7,8.1,1.3,12-1,2.1.3,3.1-.9,3.5-2.8s1.6-3,3.8-2.5c.4,2.3-1.2,3.9-2.1,5.6a4.5,4.5,0,0,0,.3,5.3l-.4.5a4.4,4.4,0,0,1-2,.3c-4,.4-4.9,2.1-2.6,5.3a30.6,30.6,0,0,1,2.1,2.9C1276,1021.7,1277.6,1023.3,1275.9,1025.4Z" transform="translate(-1204 -953)" style="fill: #7f955a"/>
    <path d="M1236.9,978.1c2.3,1,4.5,2.3,7.1,1.9,1.4,1.6,3.7,2.1,4.8,4s2.1,6.2-2.9,6.5c-2.2.2-1.1,3.3-3.4,3.5a29.6,29.6,0,0,1-7.3-.4,3.7,3.7,0,0,1-2-.9c-1.6-1.4-3.5-2.5-4.3-4.6a36.2,36.2,0,0,0-2.5-4.8c-1.9-2.9-.7-4.1,2.5-4.3S1234.4,979.9,1236.9,978.1Z" transform="translate(-1204 -953)" style="fill: #f2f6e0"/>
    <path d="M1260,1007l-1-1c-1.1-2.6-3-5.6,2.6-5.1,2.1.2,3-1.7,3.7-3.4a10,10,0,0,0,.5-3.4c.4-2.5.4-5.5,3.7-5.6s2.2,3.1,3.1,4.8c7.9-4.7,8.7-6,6.7-10.8.6-3.1,2.3-4,5.2-2.5,1.2,1.1,2.5,2.2,1.6,4.1-3,4.6-3.2,10.4-5.9,15.1-2.3-.1-4.5.4-5.7,2.4C1271,1007.1,1265.5,1007,1260,1007Z" transform="translate(-1204 -953)" style="fill: #9bae79"/>
    <path d="M1324,1024c-3.9,1.9-4.5,6.8-8.1,8.9,5.1-8.4,6.1-18.4,10.6-27.1,1.4-2.7,1.6-5.6,1.5-8.7s-.5-4.3,2.5-6.1c3.3,14.2,2.8,28,1.5,41.9v-24.7C1330.4,1014.1,1326.4,1018.7,1324,1024Z" transform="translate(-1204 -953)" style="fill: #689440"/>
    <path d="M1248,1066.1a12.6,12.6,0,0,1,6.8-2.3c5.8-.1,11.7-1.4,17.4.8-2.3,2.9-5.5,1.5-8.3,1.8a34.5,34.5,0,0,0-7.1.9,8.6,8.6,0,0,0-4.1,1.3c-.7.6-1.1,1.6-.5,2.2,3.4,3.7,1.9,8.5,3,12.7.4,1.7.1,3.2-1.5,3.7-3.3,1-7.4,2.7-10.1.6-4.8-3.9-10.2-3.3-15.5-3.8-1.5-.2-3,.2-4.3-1,2.4-5.2,7-5,11.6-4.9,2.6,1,5,2.6,8,2.6s5.4-1.9,4.2-5.8a45.1,45.1,0,0,1-1.7-5.2Q1245,1066.7,1248,1066.1Z" transform="translate(-1204 -953)" style="fill: #7aa940"/>
    <path d="M1248,1066.1c-2.9,2.7-.3,5.2.5,7.6,2.1,6.2-.1,9.2-6.5,8.2-2.2-.3-4.7-.5-6-2.9l-.4-.3c-1.8-1-4.8,1.2-5.5-1.3s2.8-2.7,3.9-4.5C1237.7,1068.6,1242.6,1066.9,1248,1066.1Z" transform="translate(-1204 -953)" style="fill: #93b857"/>
    <path d="M1381,1142.1c-3.7,4-7.6.1-9.3-1.5-3.5-3.2-8.3-3.3-11.8-6.2-1.3-1.1-5.3-.5-7.9-1.4l-3-2c-1.6-2-.4-3.9,0-5.9a6.8,6.8,0,0,1,1.5-2.6c3.2-2.5,4.1.2,5.4,2.3a27.8,27.8,0,0,1,2.1,2.7c3,3.3,5.3,7.3,10.7,7.1,1.2-.1,1.5,1.6,2.4,2.2Z" transform="translate(-1204 -953)" style="fill: #2e481d"/>
    <path d="M1274,1053c3.6-.8,6.7-3.5,10.7-3.2.9.1,1.2-1,1.3-1.8,3.2-.1,3.4,2.4,4,4.6s-3,4.7-5.4,6.1c.1,1.9,3.1,2.9,1.4,5.2Z" transform="translate(-1204 -953)" style="fill: #739f3d"/>
    <path d="M1296.9,1055l3.1,6c-.7,2.4-1.3,2.7-2.9.9a71.9,71.9,0,0,1-5.8-8.6c-2.2-3.5-4-7.2-6.1-10.8-.1-3-3-4.7-3.8-7.4a4.2,4.2,0,0,1,0-2.7c.8-1.1,2-.6,3-.8s2.2,3.2,3.7,4.4,1.8,2.4,1.7,4c.5,3.4,3.1,5.8,4.5,8.7A26.2,26.2,0,0,1,1296.9,1055Z" transform="translate(-1204 -953)" style="fill: #77ab39"/>
    <path d="M1260.9,1031.1c-5.9,1.4-6.1,1.8-2.6,6.4s7.8,7.1,10.7,11.6c-8.7-6.3-16.2-13.6-19.7-24.2-.3-1-.9-2,.1-2.7s1.7.2,2.2.8C1254.1,1026.4,1257.9,1028.2,1260.9,1031.1Z" transform="translate(-1204 -953)" style="fill: #8fa06f"/>
    <path d="M1323,1089c3.1-2.1,6.7-.5,10-1,2.7,1.4,1.8,4.3,2.6,6.5s.5,3.8,1.5,5.5.4.6.2.9c-1.9.4-2.9-1.3-4.3-1.9A15.6,15.6,0,0,1,1323,1089Z" transform="translate(-1204 -953)" style="fill: #2e5115"/>
    <path d="M1227,1001c2-1.9,4.6-2.4,7.1-2.9s1.8-.7,1.7-1.9c1.4-.8,3.3,1.2,4.4-.9s4-.9,4.6-3.9,2.7-1.3,4.3-.3-1,1.7-1.5,2.6,1,2.1,1.9,2.8a36.9,36.9,0,0,1,3.4,2.5c.7.9,1.8,1.8.9,3s-1.9.1-2.7-.2a7.7,7.7,0,0,0-3-.3C1241.1,1001,1234,1003.1,1227,1001Z" transform="translate(-1204 -953)" style="fill: #cad1a7"/>
    <path d="M1349.9,1124.8l-.9,6.2a4.1,4.1,0,0,1-4-1.3c-3.8-4.8-8.6-8.5-13.1-12.5-.5-.5-.4-.9.1-1.2,6.8,3.7,9,4.1,16.1,3.1C1349.4,1120.8,1348.4,1123.2,1349.9,1124.8Z" transform="translate(-1204 -953)" style="fill: #5d5a3e"/>
    <path d="M1227,1001c7.3.2,14.6-1.9,21.9.1.4.2.5.4.4.6s-.2.3-.3.3c-2,.1-2,1.6-2,3.1-8.3-2.4-16.5-3.8-24.3,1.4-.7.5-1.7.8-2.2,0s.3-1.9,1.1-2.4S1225.2,1002.1,1227,1001Z" transform="translate(-1204 -953)" style="fill: #8b9c6f"/>
    <path d="M1229.9,988.1l4,3.9a2.2,2.2,0,0,1-1.9,1l-5.1-3c-2.4-1.2-4.8-1.5-6.9.6s-2.6,3.3-4.1,1.8-.5-4.2.6-5.9,2.3-1.7,3.6-2.4C1224.4,982.7,1227,985.9,1229.9,988.1Z" transform="translate(-1204 -953)" style="fill: #acb594"/>
    <path d="M1259.9,975.9c1.1-1.4.8-3.1,1.2-4.7,2.3-9.3,13-17.7,23-18.1.8,1.4,2.9,1.7,3,3.7-4.1.6-4.7,2.8-3,6.2a2.1,2.1,0,0,1-.4.6,1.4,1.4,0,0,1-1.9.2c-1.5-1.8-.7-4.1-1-6.3-7.7,1.1-12.8,5.3-16,12-1.2,2.2-1.1,4.9-2.8,6.8A1.8,1.8,0,0,1,1259.9,975.9Z" transform="translate(-1204 -953)" style="fill: #d8dbcd"/>
    <path d="M1296.9,1055l-7.5-12.3a2.2,2.2,0,0,1,.4-2.7l2.2,2.4c1.9,2.7,4.2,4.8,7.8,4.6s6,5.7,10.1,6.8c-2.3,2.7-3.9.1-5.3-.9C1299.9,1049.6,1299.4,1049.7,1296.9,1055Z" transform="translate(-1204 -953)" style="fill: #5f902d"/>
    <path d="M1252.1,971c2,.3,3.4,1.7,4.9,2.9,2.4,4.6-1.8,6-3.9,8.4a2.3,2.3,0,0,1-3.1-1.2c-.8-1.8-1.3-3.7-2-5.5C1246.4,971.1,1247.1,970.4,1252.1,971Z" transform="translate(-1204 -953)" style="fill: #f1f2e0"/>
    <path d="M1229.9,988.1c-3.5-.8-6.1-3.7-9.8-4,3.7-7.4,10.4-6.2,16.8-6-1.6,3.6-4.9,1.2-7.3,1.9s-2.5-.5-3.1.9.6,1.9,1.4,2.4S1229.4,986.5,1229.9,988.1Z" transform="translate(-1204 -953)" style="fill: #dce0c9"/>
    <path d="M1260,1007c1.9-.6,3.3-1.7,5.8-1.2,4.1.9,5.9-2.9,7.9-5.5s3.9-3.2,6.5-1.1a1.9,1.9,0,0,1-.2.8,6.7,6.7,0,0,0-3,3c-1.1,1.3-2.9,1.7-4,3C1269.9,1008.9,1263.2,1009.4,1260,1007Z" transform="translate(-1204 -953)" style="fill: #91a865"/>
    <path d="M1371.1,1136.8a18.1,18.1,0,0,0-5.1-1.3c-4.2-.2-6.3-4.4-8.8-7.6a6.8,6.8,0,0,1,3.1-2.2c1.8.1,2.9,1.5,3.7,2.8s2.7.9,4.1.5C1367.8,1132.1,1371.8,1133.6,1371.1,1136.8Z" transform="translate(-1204 -953)" style="fill: #8d836b"/>
    <path d="M1286,1063.9c0-2.3-2.3-3.1-3.3-5,1.8-2.3,5.9-2.2,6.3-5.9,5.8,3.4,5.8,7,0,11-1.2-.6-2-.5-2.1,1.1Z" transform="translate(-1204 -953)" style="fill: #60902e"/>
    <path d="M1252.1,971c-4.6,0-4.1,2.5-2.8,5.6.6,1.4,1.1,3,1.6,4.5s-1,2.2-1.8,3.1-.8.2-1.1-.2-3.7-1.6-4-4c1.3-.3,2.5,1.6,3.6.2s.2-2.5-.4-3.7a7.5,7.5,0,0,1-.6-1.3c-.6-2.5-3.1-5.6-1-7.2S1250,969.6,1252.1,971Z" transform="translate(-1204 -953)" style="fill: #d5d9c9"/>
    <path d="M1234,1072.9c.9,2.9-3.5,2.1-3.1,4.6s3.8-.5,5.1,1.5c-4.4.1-8.6.8-12,4,.5,1.1-.1,1.6-1,1.9h-4.2C1223.4,1080.3,1227.7,1075.3,1234,1072.9Z" transform="translate(-1204 -953)" style="fill: #85a854"/>
    <path d="M1337.1,1100c-3.1-3.4-1.5-8.4-4.1-12-1.5-11.1-1.1-22.1-.9-33.2.3,5.4.9,10.8.9,16.3C1333,1080.9,1335.9,1090.3,1337.1,1100Z" transform="translate(-1204 -953)" style="fill: #3e6a1c"/>
    <path d="M1286.1,984.1c0-1.4-1.4-2.1-2-3.1a14.8,14.8,0,0,1,1.2-2.9,33.5,33.5,0,0,1,4.2-5.7c1.4-1.6,3.2-2.8,4.4-4.5s3.5-2.3,6.4-1.2C1294.1,971.7,1288.8,976.9,1286.1,984.1Z" transform="translate(-1204 -953)" style="fill: #bfc3ad"/>
    <path d="M1282,1031.9v3.1c.6,1.7,1.5,3.3,0,5h-.9a1.7,1.7,0,0,1-.3-2.1c-.6-4.6-4.1-8-4.9-12.5.3-2.1-1.2-3.6-1.9-5.4a2.5,2.5,0,0,1,2.2-.7C1280.3,1022.5,1281.7,1027,1282,1031.9Z" transform="translate(-1204 -953)" style="fill: #78974e"/>
    <path d="M1288.1,1036c-2.2-.6-2.1-3.4-4.1-4-3-2.4-3.5-6.1-5-9.3s-1.5-3.9-2.5-5.7a7.3,7.3,0,0,1,1.2-5.8l.5-.3A207.6,207.6,0,0,0,1288.1,1036Z" transform="translate(-1204 -953)" style="fill: #8a9a64"/>
    <path d="M1368.1,1129c-1.1,2.4-2.5,2.4-4.5.8s-1.7-3.2-3.7-3.7-2.3-.8-2.4-2.3.7-1.4,1.7-.9a38.2,38.2,0,0,0,5.6,1.4C1367.7,1124.7,1368.5,1126.4,1368.1,1129Z" transform="translate(-1204 -953)" style="fill: #6b5e45"/>
    <path d="M1263,1065h9a3.2,3.2,0,0,1,4,0c2,.1,4.2-.6,6,1.1-2.8.3-5.6-.5-8.4.5-.2,1.9,2.2,2,2.4,3.5-4,.8-7.7-.6-11.4-1.6C1263.2,1068.1,1261.9,1066.9,1263,1065Z" transform="translate(-1204 -953)" style="fill: #558528"/>
    <path d="M1290,973l-4,6c-2.1,1.2-3-.3-3.7-1.8-.1-4.8-.1-9.5,1.5-14l.3-.2c2.2,2.3-.5,5.8,1.9,8.1S1289.9,969.9,1290,973Z" transform="translate(-1204 -953)" style="fill: #e8ebd2"/>
    <path d="M1253,982c.4-3.2,5.1-4.2,4-8.1l2.9,2h2.1a3.7,3.7,0,0,1,1,3.6,3.4,3.4,0,0,1-2.3,2.7c-2.2-.4-4.3-.7-6.5.1A1.9,1.9,0,0,1,1253,982Z" transform="translate(-1204 -953)" style="fill: #c8bcac"/>
    <path d="M1349.9,1124.8c-4.9-.6-1.2-3.8-1.8-5.7,1.9-1.8,0-3.4-.1-5.1,1.6,1.9,4.4,1.1,6.1,2.9.1,2.5-1.8,4.2-3.1,6.1Z" transform="translate(-1204 -953)" style="fill: #a49d87"/>
    <path d="M1351,1123a11.5,11.5,0,0,1,3.1-6.1c2.6,1.2,2.3,4.9,5.1,6l-1.2,1.1c-.7,1.1-2,1.2-2.9,1.9S1354.8,1120.5,1351,1123Z" transform="translate(-1204 -953)" style="fill: #78725d"/>
    <path d="M1332,1116c0,.4-.1.8-.1,1.2a142.4,142.4,0,0,1-19-11c6.7,1,11.4,6.2,17.4,8.8A9.5,9.5,0,0,1,1332,1116Z" transform="translate(-1204 -953)" style="fill: #839a78"/>
    <path d="M1276,1064.9h-4c-5.7-2-11.5-.1-17.2-1.1,6.5-1.4,13.1-.3,19.6-.5C1275.4,1063.2,1275.7,1064.1,1276,1064.9Z" transform="translate(-1204 -953)" style="fill: #93b857"/>
    <path d="M1299.8,1047c-4.7,1.6-6.3.6-7.8-4.6C1294.8,1043.6,1297.7,1044.6,1299.8,1047Z" transform="translate(-1204 -953)" style="fill: #77ab39"/>
    <path d="M1290,973c-.7-1.1-1.6-.6-2.5-.3s-2.3.1-1.5-1.6l7.9-3.2C1293.9,970.5,1291.8,971.7,1290,973Z" transform="translate(-1204 -953)" style="fill: #d1d6bf"/>
    <path d="M1232,993a1.9,1.9,0,0,1,1.9-1l1.1.8a6.8,6.8,0,0,1,4.9,3.3c0,.9.5,2.2-.8,2.5s-1.8-2.1-3.3-2.4A7.4,7.4,0,0,1,1232,993Z" transform="translate(-1204 -953)" style="fill: #959c82"/>
    <path d="M1280.8,1037.9l.3,2.1c-3.9,2.6-4.9-.4-6-3.1C1277,1037.4,1278.7,1038.8,1280.8,1037.9Z" transform="translate(-1204 -953)" style="fill: #aec191"/>
    <path d="M1287.1,956.8c-1.3-1-3.7-1.1-3-3.7C1286.8,952.9,1289.6,952.7,1287.1,956.8Z" transform="translate(-1204 -953)" style="fill: #b3b6a3"/>
    <path d="M1282.9,1092.1c-6.4-1.9-13-.9-19.5-1.2-1.6-.1-3.9,1.1-4.3-1.9,1.2-1.4,3.1-1.1,4.5-2a17.3,17.3,0,0,1,4.2-1.4c3.2-.8,6.2-2.1,9.4-2.8s7-3.1,10.8-.8h14c3.3.6,7.2,0,9,4-.2,2.7-2.1,2.9-4.2,3-4.8.2-9.5.8-13.8,3.3S1286.3,1091.1,1282.9,1092.1Z" transform="translate(-1204 -953)" style="fill: #295213"/>
    <path d="M1311,1086l-9-4a2,2,0,0,0,2-1c1.7-1.8,3.3.9,5,0s2.1,1,2.5-.3-.7-3.6-2.5-4.7-2.5-2.1-2-4,1.6-1.6,2.9-.6,1,3.4,3.1,3.6a5.2,5.2,0,0,1,1.8,4.4c-1.4,6.9,3.8,7.9,8.2,9.6a59.1,59.1,0,0,0,10,10c-2.4,2.9-3.5-.2-4.6-1.2A51.6,51.6,0,0,0,1311,1086Z" transform="translate(-1204 -953)" style="fill: #416c1f"/>
    <path d="M1307,1072c.7,1.3,1.3,2.7,2,4-3.9-.6-4.8-4.3-6.7-6.8-4.3-5.4-6.9-6.8-13.3-5.2,5-3.7,3.2-7.3,0-11-.3-2.1-1-3.9-3-5-.2-2.5-2.4-4.3-2.1-6.9-.2-.5,0-1.1.5-1.1s.9,1.4,1.6,2c3.6,5.9,7.2,11.8,10.9,17.6.6.9.7,4,3.1,1.4Z" transform="translate(-1204 -953)" style="fill: #5c8f27"/>
    <path d="M1286,1042c-.9.2-.7-2.1-2.1-.9l-1.9-1.1v-5C1283.5,1037.2,1286.3,1038.7,1286,1042Z" transform="translate(-1204 -953)" style="fill: #60902e"/>
    <path d="M1288,1082l-11,2c-1.9-3.1-5.2-5.8-1.6-9.8-4.5-2.5-9.4-1.6-13.8-2.9-2-.5-3.9-.9-5.5-2.2s-1.8-2-.1-3.1,4.5-1.5,7-1a3.1,3.1,0,0,0,3.5,2.8c3.5-.2,6.4,1.4,9.5,2.2s5.7,4,8.9,5.5c.2.1.6.7.5.8-3.4,4.7.7,3.5,2.9,3.7.6.1.9.3.6.9A8.7,8.7,0,0,1,1288,1082Z" transform="translate(-1204 -953)" style="fill: #5c8c2a"/>
    <path d="M1309,1081c-1.7,2.2-3.3-.3-5,0s-2.3-1.1-3.3-.9c-6.9,1.5-10.2-3-13.7-7.6-.9-1.3-1.6-2.8-.3-3.9s2.4-1.8,3.6-.6c5.2,4.8,10.5,9.3,17.4,11.6C1308.2,1079.7,1308.6,1080.5,1309,1081Z" transform="translate(-1204 -953)" style="fill: #315a11"/>
    <path d="M1267.9,1086.9l-3.9,1.1c-2.8,1.7-6.2-1.5-9,1h-21.9a13.4,13.4,0,0,1-10.1-4.1l1-1.9c4.4-1.1,8.9.2,13.3.1,1.7,0,4,.4,4.9,2,3.3,5.4,7.3,1.4,11,1.2.4,0,.8-.6,1.2-.9-3.4-3.4,1.3-8.3-2.2-11.9-1.7-1.7-4-4.2-.2-6.5,2.7,3.9,6.3,7.1,7.1,12.3.4,2.6,2.8,4.4,5.6,5.3C1265.9,1085,1267.9,1084.7,1267.9,1086.9Z" transform="translate(-1204 -953)" style="fill: #71a139"/>
    <path d="M1255,1089c.5-2.8,2.6-2.2,4.2-1.7a19.9,19.9,0,0,0,4.8.7c-1.4,1.5-3.2.9-4.9,1Z" transform="translate(-1204 -953)" style="fill: #659830"/>
    <path d="M1249,1002a2.8,2.8,0,0,0-.1-.9c1.5-.3,2.9.3,4.8.9l-1.7-3a5.9,5.9,0,0,1,.6-3.5c1.6-2.1.7-4.8,2-7s3.9-2.9,6.6-2.6,7.3.7,11,.8,3,.2,7.8-3.7c3.1,1.3,3.2,3.1,1,5.5s-6,3.7-7.5,7.2c-.2.5-1,1.1-1.6.4a7.3,7.3,0,0,1-.9-2.2c-.5-1.6,1-4.5-1.5-4.5s-2.4,3.1-2.5,5.2.1,3.5-1.2,5.2-3.5,4.5-6.5,1.5c-1.6,1.8,1.4,3.3-.3,4.7C1256.1,1003.7,1252.5,1003,1249,1002Z" transform="translate(-1204 -953)" style="fill: #a2b680"/>
    <path d="M1277.7,1011.2c.8,2-.3,3.8-.8,5.7a3,3,0,0,1-.9,3.1h-2l-1.1-1.6c-1.4-1.7-4.1-3.1-2.3-5.7S1274.8,1009,1277.7,1011.2Z" transform="translate(-1204 -953)" style="fill: #6c883d"/>
    <path d="M1273,1006c.2-2.6,1.8-3.1,4-3C1276.8,1005.6,1275.8,1006.9,1273,1006Z" transform="translate(-1204 -953)" style="fill: #839a5c"/>
    <path d="M1261,987a7.7,7.7,0,0,0-6,2c-2,.9-2.9,4.1-5.9,2.9-1.4-1.1-3.4-1.5-3.7.2-.7,3.3-3.3,3.3-5.5,4s-3.3-2.2-4.9-3.3c1.5-1.4,2.8.3,4.2.2s7.1,1.1,2.9-4c2.3-1.5,3.8,1.7,5.7.4s.1-3.6.2-5.4h1.1c1.6-.7,2.5.4,3.6,1.3-.6-1-1.9-1.8-.8-3.2h2.1a49.4,49.4,0,0,0,5.3,1,3,3,0,0,1,1.8.8A5.8,5.8,0,0,0,1261,987Z" transform="translate(-1204 -953)" style="fill: #e2e4c2"/>
    <path d="M1261,984h-2.1c-.4-1.1.2-1.6,1.1-2a3.6,3.6,0,0,0,2-2c1.2-2.3,3.7-3.1,5.1-5.1a4.4,4.4,0,0,1,.8-1.1c.6-.8,1.3-1.9,2.2-1.9,4.6.3,8.3-1.9,12.1-4a3.6,3.6,0,0,1,.2,4,4.8,4.8,0,0,0,.5,5,3.3,3.3,0,0,0,3.1,2.1,3.4,3.4,0,0,1-1.9,2c-2.8-2.1-3.7-.4-4.1,2s-1.9,7.3-7,5c-1.6-2.9.3-4.6,2.2-6.3s2-2.3.6-3.4-2.5.2-3.2,1.4C1270,984.5,1265.6,984.5,1261,984Z" transform="translate(-1204 -953)" style="fill: #dce2b7"/>
    <path d="M1267.9,1086.9c-6.6-1.3-11.1-4.5-11.2-12,0-.9-1.2-2-2.2-2.5s-2.7-3.1-2.5-5.4l4-1c-.5,4,3,3.4,4.9,3.8a80.4,80.4,0,0,0,12.1,2,8.7,8.7,0,0,1,5.5,2.9c-.4,2.4-3.1.4-4,2.3,1.2,2,2.6,4.3,2.5,7Z" transform="translate(-1204 -953)" style="fill: #659830"/>
    <path d="M1355.1,1125.9c-.1-2.3,1.5-2,2.9-1.9l1.9,2.1c0,1.9-1.3,1.9-2.7,1.8Z" transform="translate(-1204 -953)" style="fill: #b7b398"/>
    <path d="M1276,1020c0-1.1-.2-2.3.9-3.1,3.4,2.5,2.6,7,4.9,10.1,1.1,1.4,1.5,3.3,2.2,5s-1.3.1-2-.1C1279.7,1028.1,1279.2,1023.4,1276,1020Z" transform="translate(-1204 -953)" style="fill: #9fbb5d"/>
    <path d="M1249.1,991.9c2.3-.2,2.8-4.3,5.9-2.9-.7,2.4,1.7,5.6-2,7a1.9,1.9,0,0,1-1.9-.4c-1.3-1.5-4.1-.2-5-2.5C1246.7,991.8,1248,992,1249.1,991.9Z" transform="translate(-1204 -953)" style="fill: #c0b99a"/>
    <path d="M1246.1,993.1c1.5,1.7,4.9-1.6,5.8,2a4.4,4.4,0,0,1-3.1,2.1C1246.7,996.6,1245.7,995.3,1246.1,993.1Z" transform="translate(-1204 -953)" style="fill: #aa8177"/>
    <path d="M1248.8,997.2c.7-1.3,1.5-2.3,3.1-2.1l1.1.9c.2,1.2.1,2.3-1,3A3.8,3.8,0,0,1,1248.8,997.2Z" transform="translate(-1204 -953)" style="fill: #796144"/>
    <path d="M1264,969c2.9-8.6,10.3-11.4,18-13.6V964c0,.3-.1.5-.1.7s.1-.1-.3.4c-3.7,7-4.4,7.1-9.3,1-1.1,3.2-2.9,6-4.3,8.9h0C1263.1,975.4,1265.3,971,1264,969Z" transform="translate(-1204 -953)" style="fill: #f0f4db"/>
    <path d="M1264,969c3.4.6.3,5.6,4,6-.9,3-3.7,3.6-6,5v-4A9.9,9.9,0,0,1,1264,969Z" transform="translate(-1204 -953)" style="fill: #e5eac7"/>
    <path d="M1282.9,976.9c-2.7.3-3.4-.8-2.2-3.2a10.2,10.2,0,0,0,1.3-5.7,2.8,2.8,0,0,1,0-4h0l1.8-.8A42.1,42.1,0,0,1,1282.9,976.9Z" transform="translate(-1204 -953)" style="fill: #b8be9a"/>
    <path d="M1251.9,982.1c.1,2.1,2.4,2.9,2.9,5.4l-5.7-3.5c-1.2-2.2-.2-2.9,1.8-2.9Z" transform="translate(-1204 -953)" style="fill: #a5ad8f"/>
    <path d="M1260,982c-.4.6-.7,1.3-1.1,2-2,.4-3.8,0-4.9-2C1256,980.7,1258,978.8,1260,982Z" transform="translate(-1204 -953)" style="fill: #9a7d68"/>
    <path d="M1261,984c1.6-1.1,3.5-.8,5.2-1.3s4.9-.6,5.2-4.1c.2-1.8,2.2-2.7,4.3-2.6s2.3.6,2.2,2.1,1.2,4.2-1.8,4.9-2.4,3.1-3.1,5c-4-.2-8.1,1-12-1C1259.7,986,1259.5,985,1261,984Z" transform="translate(-1204 -953)" style="fill: #edf4d4"/>
    <path d="M1282,964v4c-2.8,2.8-4.9,6.7-10.1,4.4-1.5-.6-2.7,1.5-3.9,2.6-.2-2.1,1-3.8,1.8-5.6s.4-5.2,2.5-5.5,2.1,2.8,3,4.4,2.5,1.5,3.7-.2S1279.4,964.2,1282,964Z" transform="translate(-1204 -953)" style="fill: #e5eac7"/>
  </g>
</svg>
