<svg xmlns="http://www.w3.org/2000/svg" viewBox="0 0 300.8 300">
  <g>
    <path d="M1037.8,779.9c.5-2.7.4-5.5,1.8-7.9h.8a32,32,0,0,1,.9,9.7c-.1,7.6.3,15.1-.7,22.6-1.6,2.9-.8,6.2-1.5,9.3s-2.6,4.5-3.7,7c-2.4,5.6-4.2,11.7-9.9,14.8-.4-2.9,2.8-4.9,1.9-7.9a2.7,2.7,0,0,0,2.3-2.8l.8-.8.9-1c4.3-6.3,5.9-13.7,6.6-21.4,2.9-2.7.9-6.7,2.3-9.8C1040.1,787.6,1041,783.3,1037.8,779.9Z" transform="translate(-860.2 -772)" style="fill: #aebcec"/>
    <path d="M1016.3,950a9.8,9.8,0,0,0,2.4,4.2,4.9,4.9,0,0,0,1.8,2.8,3.8,3.8,0,0,0,1.6,2.6c2.4,6,6.9,10.4,10.7,15.3v0c1.1,1.7,1.8,3.8,3.5,5,.1,1.1.7,1.2,1.5,1.1a2.5,2.5,0,0,0,1.3,2.1v.2c2.7,4.3,6.3,7.9,9.8,11.4v.2a19.1,19.1,0,0,0,4.6,4.8h0a7,7,0,0,0,2.9,3h0c2.8,4.8,7.5,7.2,11.3,10.7l.3.3a29.2,29.2,0,0,0,9.5,8l2.3,2.1a50.2,50.2,0,0,0,9.6,8.3c10.5,7,20.9,14.5,32.1,20.2a11.4,11.4,0,0,1,5.4,6.4c1.1,3,2.1,6.6-.6,9.1s-5.5,2.6-8.9.8a235.2,235.2,0,0,1-46.6-32.3l-9.9-9c-5.8-6.5-11.7-12.9-17.6-19.3-9.9-10.8-18.4-22.8-27.3-34.4-4.3-5.5-6.8-12.4-12.1-17l-.4-.9c1.3-.6.7-1.3,0-2v-.2a31.5,31.5,0,0,0-6.2-8.6c.5-2.1-1.9-3.2-1.8-5.2s3.2-6.1,5.2-8.9c1.2.5,2.1,1.7,3.5,1.4s-1.8-3.7.7-4.9C1008.2,935.2,1011.1,943.3,1016.3,950Zm106.5,105.7c-2-.6-3.5-.7-4.5-1.5-7-5.5-15-9.3-22.3-14.1-15.5-10.1-28.8-23-41.8-36.2-6.5-6.4-12.3-13.6-18.3-20.4-1.1-1.3-2.5-2.6-3.9-1.4s-1,3.1,0,4.4c5.2,6.9,10.1,13.9,15.7,20.3s10.8,10.5,15.9,15.9c13.6,14.2,29.1,25.1,45.6,34.6,3.4,2,7.1,3.8,8.7,8.2.7,1.9,2.5,2.2,4.3,1.9s1.4-.6,1.4-1.4-.7-1.1-1.4-1.1-3-.6-3.1-2.7-.3-3.9,1.8-5C1121.3,1057,1121.7,1056.5,1122.8,1055.7Z" transform="translate(-860.2 -772)" style="fill: #1d452f"/>
    <path d="M1005,927.3c-2.5,1.3.6,3.4-.7,5s-2.3-.9-3.5-1.4l3.6-7.9c3.4-3.8,3.5-8.9,4.3-13.6.3-1.7-1.1-1.6-2.2-1.7v-3.5l-.3-1.4-.3-.9c1.1-1,.4-2.1.3-3.2-.7-4.5-2.9-8.4-4.6-12.4a9.9,9.9,0,0,0-.2-1.7c-2-3-4.2-5.7-8.2-5.4-.4-1.6.6-3,.9-4.5,2.1-3.6,4.6-7.1,2.5-11.7v-.9c6.8-2.1,13-5.2,16.6-12.3,1.6-1,1.6-3.1,2.6-4.5,2.3.2,4-2.6,6.5-1.7a8.9,8.9,0,0,0-.8,1.7l-.6.4h.6l1.5.3a2.1,2.1,0,0,0,.9,1.8v1.7c-5.4-.5-8,3.7-10.6,7.6s-5.2,10.7-6.8,16.6c-2.7-.3-5.5-1.5-8.5-.6.9,2.2,2.2,3.4,4.4,3.2.6,2.2,3.1,3.5,2.5,6.3s1.3,3.3,2,5,2.5,2.8,4.1,1.4,2.2-3.5-.1-5.2c4.1-.4,8,1.6,12.1,1.8-1.8,1.4-1.4,3.7-1.9,5.7s.4,2,1.6,2.2c13.4,1.4,26.5.8,39.4-3.7h0l1.6-.5c6.6-.2,12.2-3.2,17.6-6.7,2.5-1.2,4.9-2.4,6.5-5l2.2-1.4c.8,2.5,1,5.4,3.7,6.7-5.6,5.8-12.7,8.5-19.8,11.1s-12.8,3.5-19.3,4.9l-1.3.3-1.2.4c-2.2-.1-4.5-.4-6.6.7l-2.5.3c-7.2,1.3-14.2-.5-21.3-1.3-2.1-.2-4-.1-4.8,2.3s.9,3.7,2.3,4.7c6.1,4.3,11.3,9.9,18.3,12.8s12.8,8.1,20.4,9c5.6,3.6,12,4.9,18.1,7.2-2,.4-1.2,1.3-.5,2.3,3,4.2,7.6,3.5,11.6,4.4l5.5.5v1.5a87,87,0,0,1-35.4-7.9,2.8,2.8,0,0,0-2.6-.9l-2.4-1a11.1,11.1,0,0,0-1.9-.9c-5.9-1.7-11.8-4.1-16.6-8-6.5-5.4-13.7-10.1-19.6-16.3-1.5-1.7-3.1-2.2-3.6,1.1s-1,5.4-1.6,8.2S1006.3,924.4,1005,927.3Z" transform="translate(-860.2 -772)" style="fill: #454e91"/>
    <path d="M991.6,798.8h1.7l3.3-.9c.2,2.2,2.7,3.1,2.4,5.5-.8.1-1.6.3-1.2,1.6s1.3,3.7,1.9,5.6c1.2,3.9-1.6,7.6-.7,11.5v1.8h.1a27.7,27.7,0,0,0-4.5,10.4l-.9,1.8-1.4,1.1c-2.2-.5-3.3-1.6-2.9-4.3a17.7,17.7,0,0,0-.4-5.6c-.2-1.7-1.5-1.7-1.8-.5s-3.9,4.5-2.9,7.9l-.2,2.6c-.9-.1-2.1.1-2.3-1.3-.6-5.1-3.1-9.8-2.7-15.2.2-1.7.6-3.7-1-6.1-3.1,6.2-2.9,13.4-7.2,18.4a14.8,14.8,0,0,1-6.6-1c-.1-2.9-.7-5.2-4-5.7s-2.5-2.5-3.3-4.2-1-6-3.3-8.2c-.1-1.6,1.2-3,.7-4.6,1.9-3.8,4.3-7.3,6.2-11.2s5.7-5.6,8.6-8.2l.9-1h0a2.9,2.9,0,0,0,3.3-2.7h0c.5-.1.8-.3.8-.9h0c1.7-.1,2.6-1.4,3.3-2.9l5,.2h0c0,1.2.6,1.8,1.7,1.8h0c.1,2.3,1.4,2.8,3.3,2.7a2,2,0,0,0,1.7.9c-2,1.3,2.7,4.6-1.3,5.4a3.1,3.1,0,0,0-2.7,2.9c-.2,1.9,1.4,2.7,2.7,3.5S990.7,800.6,991.6,798.8Zm-10.8-7.2c.1-2.9-.5-4.7-2.8-5.2-.6-.1-6.3,6.2-6.1,6.7a5,5,0,0,0,4.6,3.7C979.8,797,980.4,793.9,980.8,791.6Zm-10.5,12.7a2.2,2.2,0,0,0-1.8,2.4c0,1.3.3,2.5,1.7,2.4s1.5-1.4,1.5-2.6S971.7,804.4,970.3,804.3Z" transform="translate(-860.2 -772)" style="fill: #e5e8ee"/>
    <path d="M905.7,824a5.7,5.7,0,0,0-1-1.9c-.7-.9-1.1-1.9-.4-2.8s2-.3,2.5.2c2.7,2.3,4.6,1.5,7.3-.5s5.7-2.1,8.7-2.9c4.7-1.1,9.4-2,14.2-3,.4,3.2,2.6,1.4,4.2,1.7l8.1,2.1c1.2,1.1,3.5.7,3.5,3.3-.7.1-1.7-.3-2.1.7s.7,1.1,1.1,1.6a3.6,3.6,0,0,0,2.5,1.3,10.9,10.9,0,0,1,.1,1.8c-3.4,2.1-1,5.4-1.6,8.2h.1c-5.6.5-10.2,8.5-9.2,15.9-.6,2.5-1.8,1.6-3.1.7l-10.2-6.2c-1.2-2.6-3.4-4.2-5.3-5.8s-3.4-3.4-6.1-1-2.1-.7-1.7-2c1.3-4.1-.7-4.6-3.9-5.7s-4.2,1.7-6.1,2.9C906.5,829.8,908.7,826.4,905.7,824Z" transform="translate(-860.2 -772)" style="fill: #e5e8ee"/>
    <path d="M975,947.9c-1.6,1.4-1.4,3.4-1.3,5.3.4,7.8-1.2,15.2-2.8,22.7-.3,1.2-.6,2.3-1.7,2.8,1.3-4.8,1.2-9.8,2.2-14.7s.8-12,1.1-18.1c.1-1.6-.3-2.9-2-3.2s-2.8,0-3,2a17.8,17.8,0,0,0-8.8-9.3c-2.5-1.3-3.9-.9-5.2,1.6a118.3,118.3,0,0,1-14.4,20.8c-6.6,7.3-15.4,11.3-23.7,15.7-1.6.8-3,2.2-4.9,2.2-.1-1-.1-2-.2-2.9,4.6-4.3,4.6-4.5,0-7.8,1.6-2,4.5-1,6.1-3.1l1.6-.5c1.2,1,2,.8,2.5-.8,8.6-5.6,18.3-9.6,23.7-19.6,2.5-4.8,5.8-9.4,5.2-15.4,2.9-.1,3.5,3.4,5.9,4.2,8.9,7.1,19,11.2,29.7,13.7,2.1,1.2,4.4,1.3,6.6,1.7-1.4,3.2-3.8,2-5.8,1.3s-4.3-1.5-6.7-1a3.1,3.1,0,0,0-2.4.7C975.7,946.2,975.1,946.7,975,947.9Z" transform="translate(-860.2 -772)" style="fill: #454e91"/>
    <path d="M1007.3,805.9c-1.8-8.3,5.8-8.6,9.2-12.5l2.4-1.1a22.1,22.1,0,0,0,.2,8.5v1.5a6.7,6.7,0,0,0-.2,7.2c-.6,6.5-1.3,13-1.9,19.5-1.6.4-1.7,2-2.3,3.3-1.8,4.1-2.8,8.6-5.8,12-2.9,0-4.6,3.1-7.4,3.5-6.5,2.8-7.4,3.6-8.2-4.4a26.3,26.3,0,0,0,4-9.2l.8-2.4c5.2-3.4,9.9-7.1,8.5-15.1a11.5,11.5,0,0,1,1.1-8.1A1.8,1.8,0,0,0,1007.3,805.9Z" transform="translate(-860.2 -772)" style="fill: #e5e8ee"/>
    <path d="M906.4,1058.6c.1-4.2,2.3-7.3,4.8-10.3,4.5-5.4,10.5-8.5,16-12.4a71.8,71.8,0,0,0,20.3-21.1,2.3,2.3,0,0,1,.9-.8l1-.2a7.5,7.5,0,0,0,.9,4.7c-.2,1.5-2.3,2.5-1.1,4.4l-1,2.3c-4.8,4.9-8.7,10.5-12.8,15.9-2.7,3.5-4.7,7.7-7.8,10.6a33.4,33.4,0,0,1-18.8,8.7l-2.4-1.8Z" transform="translate(-860.2 -772)" style="fill: #aebcec"/>
    <path d="M903.8,866.6c.4-2.3,1.5-1.4,2.6-.8,2.5,2.6,6,3,9.1,4.4,1.2,3.5,3.4,3.1,5.8,1.8,3.6,2.5,7.3.9,11,.3s7.4,1.9,7,3.7-1.3,6.2-5.3,5.8-5.5.6-9.1,1.7c4.4,1.8,8.4,2.8,8,8.2l-2.5.8c-1.2-1.2-2.3-1.3-3.4.2-2.8.6-5.4-1.1-8.2-1,.4-3.4-2.6-3.6-4.1-4.8-5.6-4.4-9.2-11.1-15.5-14.5-1.8-1-.7-2.2.2-3.6S903,868.7,903.8,866.6Z" transform="translate(-860.2 -772)" style="fill: #e5e8ee"/>
    <path d="M945.2,915.9c-3.2-.1-4.7,3.2-7.2,4.4-1.1-.6-1.1-1.6-.6-2.6s.3-2.9-1.2-3.7c2.1-3.7,5-6.7,6.6-10.7a10.6,10.6,0,0,0,2.5-5.7c2.5.2,4.8,1.9,7.4,1.2,12.2,2.2,22.9-.5,31.8-10.6,2.6-3,4.8-6.8,8.7-8.5,1.4,1.6,2.4,3.7,4.3,4.8a6.7,6.7,0,0,0,2.2,3.9,12.1,12.1,0,0,0,.5,1.4l.6,2.7a2.8,2.8,0,0,1-1,2.1c-3.1-4.3-3.1-4.2-5.9.2-.9,1.4-2.1,2.6-3.1,4-3.1.9-6.2-1.1-9.3-.6-8.4,1.2-16.7,3.6-25.2,4.6-2,.3-4.7,1.8-2.8,5.4s-.8,1.9-1.9,2.3c-2.6-1.7-1.6-5.3-3.2-7.6-1.7,1.3-1.3,3.2-1.4,4.9a19.6,19.6,0,0,0-.1,8Z" transform="translate(-860.2 -772)" style="fill: #454e91"/>
    <path d="M908,862.1c-2.4-1.8-2.6-4.3-1.7-7.1l-.8-.9v-1.7c2,1.1,2.9-1,4.2-1.8H913a2.3,2.3,0,0,0,2.4-2.8c-.3-2-1.7-1.6-2.9-1.3l-2.8.6c-1.5-1.6-.7-2.8.5-4.1s1.7-1.5,2.8-.7c5.1,3.6,11.3,1.5,16.5,3.9h.1c0,1.2.5,1.8,1.6,1.8.7,2.3,5.4,2.1,3.9,5.2s-1.9,9-3.2,13.4h-1.5l-1.7-.9c.1-2.3-.8-4.1-3.1-4.3s-2.7,1.5-2.7,3.5C917.8,864.6,913.2,861.3,908,862.1Z" transform="translate(-860.2 -772)" style="fill: #e5e8ee"/>
    <path d="M1071,1036.4a235.2,235.2,0,0,0,46.6,32.3c3.4,1.8,6.3,1.7,8.9-.8s1.7-6.1.6-9.1a11.4,11.4,0,0,0-5.4-6.4c-11.2-5.7-21.6-13.2-32.1-20.2a50.2,50.2,0,0,1-9.6-8.3c3.4,0,7.5-1.4,8.2,4.4a.5.5,0,0,0,.3.3c5.8,2,9.5,8.3,15.8,9.5.8.1,1.6,0,2.1.9,3.4,6.6,9.7,7.4,15.5,9.2a10.2,10.2,0,0,1,5.1,4.7,49,49,0,0,1,3.5,8.5c2,6.3-.9,10.6-6.9,10.6-3.4,0-6.5-1.5-9.6-2.3s-6-4.1-9.5-4.9c-6.1-1.3-10.5-5.1-14.1-10.3a8.6,8.6,0,0,0-4-3.1c-4.6-1.1-7.2-5.6-11.5-7.3-2-.8-2.6-3.4-3.9-5.1Z" transform="translate(-860.2 -772)" style="fill: #e5e8ee"/>
    <path d="M1062,889.9c-12.9,4.5-26,5.1-39.4,3.7-1.2-.2-2.1-.6-1.6-2.2s.1-4.3,1.9-5.7h0l1-.2c4.1-.5,8.3-.6,12.2-2.1a10.7,10.7,0,0,0,7.2-2.1c1.5-1.1,3.4-2.3,5.5-1.6-1.2,1.5-2.4,3,.9,3.2a20.2,20.2,0,0,1,2.3.7v1.8a4.7,4.7,0,0,0-1.6.4c-1,.6-1.9-.3-2.8-.3s-2.9,3-1.4,3.1,4.1,0,5.6-1.9a.5.5,0,0,0,.2-.4h1.7c1.1.6,2.2,3.2,3.3,0h3.3C1061.3,887.2,1058.2,890.4,1062,889.9Z" transform="translate(-860.2 -772)" style="fill: #e5e8ee"/>
    <path d="M948.2,1025.2c.3-.8.7-1.5,1-2.3s3-2.1,2-4.4a21.7,21.7,0,0,1,.1-2.6c2.9-2,.8-4.8,1.4-7.5-1.3.7-1.8,2-3,2,2.1-6.1,6.6-10.8,8.8-16.9a142.9,142.9,0,0,0,6.5-21.4c.3-.9.7-1.8,1.1-2.8,2,3.2-.3,6.2-.2,9.4s.6,4.3,3.3,2.2c-2,10.2-5.1,20-10.2,28.8-2.7,4.7-5.5,9.2-7.8,14.1-.5,1.2-.7,3-2.6,2.9C948.5,1026.2,948.3,1025.7,948.2,1025.2Z" transform="translate(-860.2 -772)" style="fill: #454e91"/>
    <path d="M1057.8,928.2c-7.6-.9-13.6-6.1-20.4-9s-12.2-8.5-18.3-12.8c-1.4-1-3-2.5-2.3-4.7s2.7-2.5,4.8-2.3c7.1.8,14.1,2.6,21.3,1.3-.2,4.5-1.2,5.3-7.8,4.7-1.8-.1-3.4.8-5.2.2s-2.6-2.6-5-2c2.5,4.9,7.3,6.2,11,8.7s9.7,5,12.9,10.2a3.9,3.9,0,0,0,3.9,1.8C1055.3,924.1,1057.1,925.5,1057.8,928.2Z" transform="translate(-860.2 -772)" style="fill: #e5e8ee"/>
    <path d="M1123.1,934.6a34.7,34.7,0,0,0,17.3-9.6c1.4-1.4,2.7-3.5,5.2-3a45.2,45.2,0,0,1,13.2-1.8h0c0,1.2.1,2.5.1,3.8-4.3-1.6-6.1,2.5-8.7,4.5-4.8,3.5-10.4,5.9-14.6,10.4-3.5,1.1-7,2.7-10.8,2.8-1.1-2.3-2.4-4.1-5.1-3.7-1,.1-1.4-.7-1.5-1.7S1121.8,936.2,1123.1,934.6Z" transform="translate(-860.2 -772)" style="fill: #aebcec"/>
    <path d="M863.2,925.6c-.9-.9-3.1-.4-3-2.3s1.9-1,2.9-1.5c2.5-1.2,4.8-2.3,7.7-1,.9.5,1.8-2.2,3.5-1.4s1.7,3.4,4.2,3.8c6.3,1,12.5.4,18.8-.3h3.3a6,6,0,0,0,4.9,1.2c8.7-1.3,16.6-5.3,24.9-8.3.6.9,1.7.7,2.6.8l-1.2,2.4c-11.6,4.5-22.9,10.6-35.8,7.4a9.9,9.9,0,0,0-2.9.3,14.7,14.7,0,0,0-5.9,0H874.5c-.8-1.2-1.8-1.2-3-.7S866,925.5,863.2,925.6Z" transform="translate(-860.2 -772)" style="fill: #d2d6eb"/>
    <path d="M1004.1,956.7c5.3,4.6,7.8,11.5,12.1,17,8.9,11.6,17.4,23.6,27.3,34.4,5.9,6.4,11.8,12.8,17.6,19.3h-1.6c-5.3-2.6-8.6-7.1-12.2-11.9s-6-8.4-11.1-9.9c-1.5-.4-2.6-2.6-3.6-4.1a26.6,26.6,0,0,0-5.3-6.7c-2.6-2.6-5.8-4.7-5.2-9.4a1.3,1.3,0,0,0-.3-.8c-4.3-3.3-6.9-8.2-9.8-12.7S1003.7,963.5,1004.1,956.7Z" transform="translate(-860.2 -772)" style="fill: #e5e8ee"/>
    <path d="M893.1,926.8a9.9,9.9,0,0,1,2.9-.3c12.9,3.2,24.2-2.9,35.8-7.4,1.1,3.1-1,4.9-2.9,7.1l3.2.4c-9.1,6.7-19.4,7.2-29.9,6.7-.6-2.2-2.2-1.3-3.5-1.4s-4.3.3-6.4-1Z" transform="translate(-860.2 -772)" style="fill: #6279b1"/>
    <path d="M1118.2,936.3c.1,1,.5,1.8,1.5,1.7,2.7-.4,4,1.4,5.1,3.7-.6.2-1.2.7-1.8.7-9.3.6-18.7,1.4-28,.6-.8-.7-1.6-.5-2.5-.4l-5.5-.5c-1.2-2.4-5.5-2.4-4.4-6.6,6.4.5,12.7,1.4,19.1,1.3,3.5-.1,7.1-.5,10.7-.5Z" transform="translate(-860.2 -772)" style="fill: #8e9bd1"/>
    <path d="M1008.8,918.4c.6-2.8,1.2-5.5,1.6-8.2s2.1-2.8,3.6-1.1c5.9,6.2,13.1,10.9,19.6,16.3,4.8,3.9,10.7,6.3,16.6,8a11.1,11.1,0,0,1,1.9.9,16.6,16.6,0,0,1-11.2,0c-7.5-3.1-15.2-6.3-19.6-14.6-1.5-2.7-4.5-1.7-6.8-2.8s-1.2,1.4-1.4,2.5-.8,5-3.4,6.2c-.9-.2-1.5-.4-.9-1.7A6.3,6.3,0,0,0,1008.8,918.4Z" transform="translate(-860.2 -772)" style="fill: #e5e8ee"/>
    <path d="M929.5,846.1c-5.2-2.4-11.4-.3-16.5-3.9-1.1-.8-1.9-.3-2.8.7s-2,2.5-.5,4.1v3.6c-1.3.8-2.2,2.9-4.2,1.8-3.6-3.2-1.2-6.5-.1-9.7a2.6,2.6,0,0,0,1-2c1.8-.7,4.6-.2,4.7-3.1s-2.1-2.7-3.9-3.1v-1.8c1.9-1.2,2.7-4,6.1-2.9s5.2,1.6,3.9,5.7c-.4,1.3.2,3.4,1.7,2s4.4-.4,6.1,1,4.1,3.2,5.3,5.8A2.4,2.4,0,0,0,929.5,846.1Z" transform="translate(-860.2 -772)" style="fill: #d2d6eb"/>
    <path d="M1048.8,879.7c-2.1-.7-4,.5-5.5,1.6a10.7,10.7,0,0,1-7.2,2.1c-4.7-2.4-9.5-4-14.8-3.4-1.4.1-3.4.9-4.1-1.6l.3-.4c4.4.6,8.8.1,13.2.1,9,0,16.8-3,24.4-8.3,5-3.5,9.7-7.7,15.4-10.1,0,.9-.6,2,.6,2.5l-.2.9v.3c-2.7-.7-3.8,1.8-5.1,3.4A60.7,60.7,0,0,1,1048.8,879.7Z" transform="translate(-860.2 -772)" style="fill: #6279b1"/>
    <path d="M907.2,892.6c1-.7.8-1.7.9-2.7h.7l1.5,7.1c-1.6,1.4-2.5,3.6-4.6,4.6s-1.4,2.3-.6,3.6,2,.4,2.9-.1a7.8,7.8,0,0,1,4.7-.9l.2,1.7c-6,3.8-10.1,10.7-17.9,12.5,1.2-5-.9-5.6-4.3-4.4h-.9c1.2-2.7,4.5-3.8,5-7.2h0l.8-.9h0l.8-.9h0l.9-.9h0l.8-.9h0l.8-.8h0l.8-.8h0l.9-.9h0a.9.9,0,0,0,.8-.9h0c.5-.1.8-.3.8-.9h0c1.2.1,1.7-.6,1.7-1.8h0c1.2.1,1.7-.5,1.6-1.8h0C907.7,895.5,908.1,894.5,907.2,892.6Z" transform="translate(-860.2 -772)" style="fill: #83b8dd"/>
    <path d="M918.8,891.7c2.8-.1,5.4,1.6,8.2,1,1.2,1.1,2.3,1.1,3.4-.2l2.5-.8a13.1,13.1,0,0,0,11.5-5.4c.6-1,1.6-.9,2.5-.9a2.8,2.8,0,0,1,.1.9l-1,2.6a7.8,7.8,0,0,0-1.6,5.5c-6.5,2.5-13,4.1-19.9,2.5-4.7-1.1-9.1-2.4-12.7-6a2.7,2.7,0,0,0-3-1h.1c0-.7-.2-1-.9-.9h0q.6-1.5-.9-1.8h0c-.3-1.6-1.2-2.4-2.8-1.9s-1.9-1.2-.7-2.5,2.8.5,4,1.5C911.1,887.3,914.2,890.8,918.8,891.7Z" transform="translate(-860.2 -772)" style="fill: #8e9bd1"/>
    <path d="M910.3,965c4.6,3.3,4.6,3.5,0,7.8-2.5.9-4.9,2.3-7.7,1.9a1.7,1.7,0,0,0-2,1.7c-.2,0-.6.2-.8.1-2.4-1.1-5.9-.7-6.6-4.3s4-5.7,7.5-6.2l.7-.2v-.9Z" transform="translate(-860.2 -772)" style="fill: #8e9bd1"/>
    <path d="M1109.9,847.9c0,.4.1.8.1,1.1l.6.6.2.3c0,2.7.9,5.3.2,8a9.9,9.9,0,0,1-.2,1.7c-3.3,1.4-4.7,5-7.1,7.4s-4.1,4.7-7.6,4.6c.4-3.4,3.7-5.3,3-8.8a4.3,4.3,0,0,1-.1-.5c3-2.6,2.9-6.4,3.5-10h-.1c1-.1,2.2-.2.9-1.7l3.3-2.7h3.3Z" transform="translate(-860.2 -772)" style="fill: #8e9bd1"/>
    <path d="M948.2,1025.2c.1.5.3,1,.4,1.5-4.1,7-8.1,14.1-13.7,19.9l-12.6,13.3c-2.9,3-11.2,3.3-13.5.5a33.4,33.4,0,0,0,18.8-8.7c3.1-2.9,5.1-7.1,7.8-10.6C939.5,1035.7,943.4,1030.1,948.2,1025.2Z" transform="translate(-860.2 -772)" style="fill: #6279b1"/>
    <path d="M1062,889.9c-3.8.5-.7-2.7-1.7-3.6.9-4.6,4.8-2.8,7.1-3.2s4-1.8,3.7-4.8a6.3,6.3,0,0,1,.9-3.8c.7-1.6,1.4-3.1,3.4-2.2s1.1,2.3.5,3.6-.9,3.8,1.4,3c3.9-1.4,3.7,1.2,3.9,3.8-5.4,3.5-11,6.5-17.6,6.7-.1-.5-.4-1.2-1-.9s-.4.9-.6,1.4Z" transform="translate(-860.2 -772)" style="fill: #f9fbfb"/>
    <path d="M969.2,980.9c-2.7,2.1-3.3,1-3.3-2.2s2.2-6.2.2-9.4l.2-.8c2.4-3.3,2.7-6.9,1.5-10.8s1-8.7-.3-13c.2-2,1.5-2.3,3-2s2.1,1.6,2,3.2c-.3,6.1,0,12.2-1.1,18.1s-.9,9.9-2.2,14.7Z" transform="translate(-860.2 -772)" style="fill: #3d5eb7"/>
    <path d="M918.8,891.7c-4.6-.9-7.7-4.4-11.2-7.3-1.2-1-2.3-2.1-4-1.5h-.1l-.5-.9c-.2-2.2-1.9-2.3-3.3-2.8.3-3-3.9-2-3.8-4.4.1-4.5-2.4-2.9-4.5-2.8s-2.6,2.3-3.2-.5c.3-.7.6-1.9.9-1.9,5.1.4,9.3-5.1,14.7-2.9-.8,2.1-3.3.2-4.4,2.2s-2,2.6-.2,3.6c6.3,3.4,9.9,10.1,15.5,14.5C916.2,888.1,919.2,888.3,918.8,891.7Z" transform="translate(-860.2 -772)" style="fill: #d2d6eb"/>
    <path d="M892.3,930.9c2.1,1.3,4.3.8,6.4,1s2.9-.8,3.5,1.4l-7.2-.5h-3.4c-5.4-2-11-.8-16.5-1.1s-8.5-2.6-11.9-6c2.8-.1,5.6-.4,8.3.5.7,1.8,1.8,1.4,3,.7h12.7C886.6,931.6,889.9,930.7,892.3,930.9Z" transform="translate(-860.2 -772)" style="fill: #454e91"/>
    <path d="M1095,943c9.3.8,18.7,0,28-.6.6,0,1.2-.5,1.8-.7,3.8-.1,7.3-1.7,10.8-2.8.8,1.5,1.8.7,2.9.4s3.5-1.5,5.5-1.2c-6.2,5.7-14.3,7.1-21.6,7.4-9,.3-18.3.9-27.4-1.2Z" transform="translate(-860.2 -772)" style="fill: #454e91"/>
    <path d="M1048.8,879.7a60.7,60.7,0,0,0,17-12.9c1.3-1.6,2.4-4.1,5.1-3.4-.9,4.3-1.5,8.7-6.6,9.6a3.7,3.7,0,0,0-2.4,2.7c-1.7,4.8-5.4,7.1-9.9,7.9a20.2,20.2,0,0,0-2.3-.7C1046.4,882.7,1047.6,881.2,1048.8,879.7Z" transform="translate(-860.2 -772)" style="fill: #f9fbfb"/>
    <path d="M1144,938.1c-2-.3-3.7.6-5.5,1.2s-2.1,1.1-2.9-.4c4.2-4.5,9.8-6.9,14.6-10.4,2.6-2,4.4-6.1,8.7-4.5a10.6,10.6,0,0,0-.9,5.3C1154.4,934.3,1148.9,935.6,1144,938.1Z" transform="translate(-860.2 -772)" style="fill: #8e9bd1"/>
    <path d="M1007.3,805.9a1.8,1.8,0,0,1,.4,2.7,11.5,11.5,0,0,0-1.1,8.1c1.4,8-3.3,11.7-8.5,15.1-1-2.8,2-5.2,1-8H999c.8-.3.9-1.1,1-1.8,2.3-3.6,1.4-7.6,1.5-11.6h.1a1.8,1.8,0,0,0,1.7-.9c2.4.2,3.4-1.1,3.2-3.5Z" transform="translate(-860.2 -772)" style="fill: #d2d6eb"/>
    <path d="M1099.1,862.8c.7,3.5-2.6,5.4-3,8.8,3.5.1,5.4-2.4,7.6-4.6s3.8-6,7.1-7.4c.6,3-1.9,5.2-1.7,8-1.4,3.1-2.5,6.4-5.6,8l-1,.9h.1c-2.4.3-5.2,1.7-5.9-2.5-.1-.5-1.1-.7-1.7-1.1v-2.3c.1-2.8,2.4-4.7,2.7-7.4h0Z" transform="translate(-860.2 -772)" style="fill: #6279b1"/>
    <path d="M1008.8,918.4a6.3,6.3,0,0,1,0,5.5c-.6,1.3,0,1.5.9,1.7v1.7c-1.7.3-1.6,1.7-1.5,3s1.4,1.5,2.4,1.5c4.9,5,6.2,11.3,5.7,18.2-5.2-6.7-8.1-14.8-11.3-22.6C1006.3,924.4,1007.6,921.4,1008.8,918.4Z" transform="translate(-860.2 -772)" style="fill: #d2d6eb"/>
    <path d="M1037.8,779.9c3.2,3.4,2.3,7.7,2.5,11.8-3.4-2.7-5.1,0-7.4,2.1s-5.4,5.5-9.3,5.8l2.6-3.3c1.9-.8,2.6-2.5,3.6-4.4C1032.1,787.7,1035.1,783.9,1037.8,779.9Z" transform="translate(-860.2 -772)" style="fill: #8e9bd1"/>
    <path d="M952.8,820.2c0-2.6-2.3-2.2-3.5-3.3,1-.9.3-1.5-.5-1.9-2.5-1.3-5.1-1.9-7.6-.2-1.6-.3-3.8,1.5-4.2-1.7a16.1,16.1,0,0,0,1.7-6.5c.1-1.5.6-2,1.7-.8s-.6,3.5-.8,5.2.1,1.9,1.2,1.8,1.2-1,.9-1.9-1-2.2.2-3.2c2,2.1,4.7,2.4,7,3.8s2.1,2.5,3.1,1.2-1.5-1.9-1.8-3.2l4.2-.2c.5,1.6-.8,3-.7,4.6S955,818.4,952.8,820.2Z" transform="translate(-860.2 -772)" style="fill: #8e9bd1"/>
    <path d="M979.1,945.5c2.4-.5,4.5.3,6.7,1s4.4,1.9,5.8-1.3h0l5.8-.3a31.5,31.5,0,0,1,6.2,8.6c-6.4-3.5-13.2-4.5-20.2-5.1A5.3,5.3,0,0,1,979.1,945.5Z" transform="translate(-860.2 -772)" style="fill: #d2d6eb"/>
    <path d="M1106.6,847.9l-3.3,2.7-.9,1.7h.1c-2.3,2.2-2.5,5.6-4.2,8.1-1.1-1.3-.7-3.6-3.2-4s-.8-2.6-.8-4,1.2-1.4,2.3-1.1,1.7-.6,1.7-1.8.7-2.8,2.6-2.1,1.4-.3,1.1-1.4-.5-2.3.9-2.4,2.4.2,2.3,1.8S1106.3,847,1106.6,847.9Z" transform="translate(-860.2 -772)" style="fill: #f9fbfb"/>
    <path d="M946.9,915.8a19.6,19.6,0,0,1,.1-8c2.2,0,1.8,2.5,3.1,3.5.3,3.7.7,7.4,2.6,10.7a6,6,0,0,0,2.5,2.7h0l.9,2.5c-1,.6-.8,1.6-.8,2.6-2.4-.8-3-4.3-5.9-4.2-.3-1.1-.5-2.2-.8-3.3A14.3,14.3,0,0,0,946.9,915.8Z" transform="translate(-860.2 -772)" style="fill: #aebcec"/>
    <path d="M1047,840.1l4.2-.5,6.6.3c-.7,1.4-3.3.1-3.3,2.6a35.7,35.7,0,0,1-17.2.1c-2.2-2-4.9-.3-7.2-1.4l.6-2.3c4.2,1.7,8.8.6,13,1.8C1044.8,840.7,1046,841.2,1047,840.1Z" transform="translate(-860.2 -772)" style="fill: #83b8dd"/>
    <path d="M1095,872.9c.6.4,1.6.6,1.7,1.1.7,4.2,3.5,2.8,5.9,2.5-2.2,3.6-6.2,4-9,6.5-2.7-1.3-2.9-4.2-3.7-6.7h.1a.9.9,0,0,0,.8-1h0a1.1,1.1,0,0,0,.9-1h-.1a1.1,1.1,0,0,0,.9-1h-.1a.9.9,0,0,0,.9-1h-.1Z" transform="translate(-860.2 -772)" style="fill: #3d5eb7"/>
    <path d="M908,862.1c5.2-.8,9.8,2.5,14.9,2.8v1.8h-1.6c-3.4.1-6.5-2.3-11.1-1.7l6.1,3.3-.8,1.8c-3.1-1.4-6.6-1.8-9.1-4.4C907.7,865,906.7,862.9,908,862.1Z" transform="translate(-860.2 -772)" style="fill: #d2d6eb"/>
    <path d="M1065.3,839.2l.8-.4c4.1-.4,8.2-1.2,12.4-.8s7.3-2.7,11.3-1.6a20,20,0,0,1,.5,2.6,14.7,14.7,0,0,0-1,1.3c-.2-2.3-1.1-3.1-2.6-1.1a10.9,10.9,0,0,1-4.1,3.3c-.7-3.4-3.4-1-5-1.9-3.3-1.5-6.8-.6-10.2-.4C1066.4,840.2,1065.5,840.7,1065.3,839.2Z" transform="translate(-860.2 -772)" style="fill: #8e9bd1"/>
    <path d="M1097.7,863.2c-.3,2.7-2.6,4.6-2.7,7.4l-1.8,2.1h.1l-.9,1h.1l-.9,1h.1l-.9,1h0a.9.9,0,0,0-.8,1h-.1l-2.2,1.4c-.2-1.5.7-2.4,1.5-3.5s1.7-2.6,1.4-3c-2.4-3.6,1.3-4.4,2.2-6.6S1095.8,862.8,1097.7,863.2Z" transform="translate(-860.2 -772)" style="fill: #f9fbfb"/>
    <path d="M991.6,798.8c-.9,1.8-2.1,2.1-3.7,1.1s-2.9-1.6-2.7-3.5a3.1,3.1,0,0,1,2.7-2.9c4-.8-.7-4.1,1.3-5.4s2.8,3,4.2,4.6.2,1.4-.6,1.6C990,795,991.5,797.1,991.6,798.8Z" transform="translate(-860.2 -772)" style="fill: #f9fbfb"/>
    <path d="M888.2,871.4c.6,2.8,2.1.6,3.2.5s4.6-1.7,4.5,2.8c-.1,2.4,4.1,1.4,3.8,4.4-.8.3-1.8-1.1-2.6.1-4.4.1-7.1-3.7-10.3-6S886.5,871.1,888.2,871.4Z" transform="translate(-860.2 -772)" style="fill: #aebcec"/>
    <path d="M932.1,926.6l-3.2-.4c1.9-2.2,4-4,2.9-7.1l1.2-2.4c1.8.1,1.6-2.5,3.2-2.7s1.9,2,1.2,3.7-.5,2,.6,2.6c-1.1,2.3-3,3.8-4.8,5.4l-1.1.9Z" transform="translate(-860.2 -772)" style="fill: #3d5eb7"/>
    <path d="M1082.6,842.5a10.9,10.9,0,0,0,4.1-3.3c1.5-2,2.4-1.2,2.6,1.1-2.2,4.3-6.3,6.6-9.2,10.3l-1.5.2-.3-3.3C1079,845.2,1081.6,844.7,1082.6,842.5Z" transform="translate(-860.2 -772)" style="fill: #d2d6eb"/>
    <path d="M897.3,922.9c-6.3.7-12.5,1.3-18.8.3-2.5-.4-3.4-1.8-4.2-3.8l1.3-.4c1.6,2.9,3.5-.4,5.1.3,0,1.7.5,2.7,2.3,2.6s4,0,6,0S894.7,921.1,897.3,922.9Z" transform="translate(-860.2 -772)" style="fill: #6279b1"/>
    <path d="M1065.3,839.2c.2,1.5,1.1,1,2.1,1,3.4-.2,6.9-1.1,10.2.5l-13.1,1.9h-10c0-2.5,2.6-1.2,3.3-2.6s2.1-.7,3.3-.8a2.2,2.2,0,0,0,3.4-.1Z" transform="translate(-860.2 -772)" style="fill: #aebcec"/>
    <path d="M1082.6,935.5c-1.1,4.2,3.2,4.2,4.4,6.6-4-.9-8.6-.2-11.6-4.4-.7-1-1.5-1.9.5-2.3S1080.4,935.2,1082.6,935.5Z" transform="translate(-860.2 -772)" style="fill: #6279b1"/>
    <path d="M1059.5,1027.4h1.6l9.9,9v2.6C1066.9,1035.4,1060.5,1034.6,1059.5,1027.4Z" transform="translate(-860.2 -772)" style="fill: #f9fbfb"/>
    <path d="M1049,994.7c-3.5-3.5-7.1-7.1-9.8-11.4,1.6-1,2.8-.2,3.9,1C1045.9,987.3,1048.9,990,1049,994.7Z" transform="translate(-860.2 -772)" style="fill: #e5e8ee"/>
    <path d="M1067.9,1013.5c-3.8-3.5-8.5-5.9-11.3-10.7,5.1.8,7.9,5.3,11.7,8.3C1068.9,1011.6,1068.4,1012.7,1067.9,1013.5Z" transform="translate(-860.2 -772)" style="fill: #e5e8ee"/>
    <path d="M1032.8,974.9c-3.8-4.9-8.3-9.3-10.7-15.3a2,2,0,0,1,2.3,1.3c1.4,3.1,3.7,5.3,6.1,7.4A6.4,6.4,0,0,1,1032.8,974.9Z" transform="translate(-860.2 -772)" style="fill: #e5e8ee"/>
    <path d="M1078.6,850.8l1.5-.2a10.9,10.9,0,0,1,.1,1.8l-1.9,2.2c-2.9,1.8-3.2,6.2-6.4,7.7h-.8c-1.2-.5-.6-1.6-.6-2.5s2.2-1.1,2.3-2.7C1075,855.3,1077.4,853.7,1078.6,850.8Z" transform="translate(-860.2 -772)" style="fill: #1d452f"/>
    <path d="M1040.6,804.3c1-7.5.6-15,.7-22.6,2.3,4.3,1.3,8.9,1.4,13.4a70,70,0,0,1-1,9.2Z" transform="translate(-860.2 -772)" style="fill: #8e9bd1"/>
    <path d="M1040.6,804.3h1.1a.9.9,0,0,0,.3.7c-.7,4.8-1.6,9.5-2.1,14.3a9.9,9.9,0,0,1-2.6,6.2c-.8-4.3,2.7-7.7,1.8-11.9C1039.8,810.5,1039,807.2,1040.6,804.3Z" transform="translate(-860.2 -772)" style="fill: #454e91"/>
    <path d="M910.3,965h-8.9a24.7,24.7,0,0,1,15-3C914.8,964,911.9,963,910.3,965Z" transform="translate(-860.2 -772)" style="fill: #6279b1"/>
    <path d="M907.3,832.7c0,.6-.1,1.2-.1,1.8-.2,2.1-.5,4.2-.8,6.2a2.6,2.6,0,0,1-1,2c.1-4,.1-8,.2-12,.1-2.2-1.3-4.5.1-6.7C908.7,826.4,906.5,829.8,907.3,832.7Z" transform="translate(-860.2 -772)" style="fill: #aebcec"/>
    <path d="M1026.2,796.3l-2.6,3.3-1.3,1h-.8a.5.5,0,0,0-.6.1,15.5,15.5,0,0,1,.8-8h1.1A13.4,13.4,0,0,0,1026.2,796.3Z" transform="translate(-860.2 -772)" style="fill: #454e91"/>
    <path d="M950.2,809.5c.3,1.3,3.1,1.4,1.8,3.2s-2.1-.7-3.1-1.2-5-1.7-7-3.8v-1.6C945,806.1,947.4,808.5,950.2,809.5Z" transform="translate(-860.2 -772)" style="fill: #d2d6eb"/>
    <path d="M1081,855.9a3.3,3.3,0,0,0,2.9-1.1c3.1-3.4,4.3-2.9,5.9,2.7-2.4-.7-4.5-2-6.7.5s-1.9-.7-2.1-2.1Z" transform="translate(-860.2 -772)" style="fill: #f9fbfb"/>
    <path d="M880.7,919.3c-1.6-.7-3.5,2.6-5.1-.3l2-.6a.5.5,0,0,1,.5-.3c2.9-1.9,6.6-2.4,9.2-5.1l1.7,1.1c-1.6,2.5-4.9,1.9-6.6,4.3a2,2,0,0,0-1.7.9Z" transform="translate(-860.2 -772)" style="fill: #83b8dd"/>
    <path d="M1158.8,920.2a45.2,45.2,0,0,0-13.2,1.8C1147.8,918.3,1154,917.4,1158.8,920.2Z" transform="translate(-860.2 -772)" style="fill: #8e9bd1"/>
    <path d="M949.4,800.6h1.7l-.9,3.3c-.6,2-2,2.2-3.6,1.9s-1.8-2-1.7-3,1.7-.7,2.7-.7S949,801.4,949.4,800.6Z" transform="translate(-860.2 -772)" style="fill: #f9fbfb"/>
    <path d="M1077.7,1021.8a29.2,29.2,0,0,1-9.5-8c.2-.2.6-.5.7-.4C1072.2,1015.7,1076.2,1017.2,1077.7,1021.8Z" transform="translate(-860.2 -772)" style="fill: #e5e8ee"/>
    <path d="M900.6,976.4a1.7,1.7,0,0,1,2-1.7c2.8.4,5.2-1,7.7-1.9.1.9.1,1.9.2,2.9C907.3,977.4,903.9,976.4,900.6,976.4Z" transform="translate(-860.2 -772)" style="fill: #6279b1"/>
    <path d="M889,914.1l-1.7-1.1c.8-3.5,4.9-3.2,5.9-6.3h1.6c-.5,3.4-3.8,4.5-5,7.2Z" transform="translate(-860.2 -772)" style="fill: #d2d6eb"/>
    <path d="M967.8,957.7c1.2,3.9.9,7.5-1.5,10.8C966.6,964.8,966.1,961.1,967.8,957.7Z" transform="translate(-860.2 -772)" style="fill: #454e91"/>
    <path d="M1109.1,867.6c-.2-2.8,2.3-5,1.7-8a9.9,9.9,0,0,0,.2-1.7h1.8C1113.2,861.8,1111.6,864.9,1109.1,867.6Z" transform="translate(-860.2 -772)" style="fill: #454e91"/>
    <path d="M1158,929.3a10.6,10.6,0,0,1,.9-5.3c0-1.3-.1-2.6-.1-3.8C1162,923.2,1161.7,926.6,1158,929.3Z" transform="translate(-860.2 -772)" style="fill: #6279b1"/>
    <path d="M1052,886.3a.5.5,0,0,1-.2.4c-1.5,1.9-3.7,2-5.6,1.9s-.5-3,1.4-3.1,1.8.9,2.8.3a4.7,4.7,0,0,1,1.6-.4Z" transform="translate(-860.2 -772)" style="fill: #f9fbfb"/>
    <path d="M1098.3,860.4c1.7-2.5,1.9-5.9,4.2-8.1-.6,3.6-.5,7.4-3.5,10l-.8-1Z" transform="translate(-860.2 -772)" style="fill: #6279b1"/>
    <path d="M1112.8,857.8H1111c.7-2.7-.2-5.3-.2-8h.8A9.4,9.4,0,0,1,1112.8,857.8Z" transform="translate(-860.2 -772)" style="fill: #6279b1"/>
    <path d="M894.8,906.8h-1.6a69.9,69.9,0,0,1,8.9-9.9l.3.3-.2,1.7h0l-.8.9h0l-.8.9h0l-.9.9h0l-.8.8h0l-.8.8h0l-.8.9h0l-.9.9h0l-.8.9h0l-.8.9Z" transform="translate(-860.2 -772)" style="fill: #8e9bd1"/>
    <path d="M1118.2,936.3h-5.8c3.2-3.4,7.1-1.4,10.7-1.7C1121.8,936.2,1119.6,935,1118.2,936.3Z" transform="translate(-860.2 -772)" style="fill: #6279b1"/>
    <path d="M897.1,879.2c.8-1.2,1.8.2,2.6-.1s3.1.6,3.3,2.8h-1.9C899.5,881.6,897.8,881.2,897.1,879.2Z" transform="translate(-860.2 -772)" style="fill: #8e9bd1"/>
    <path d="M949.7,1010.4c1.2,0,1.7-1.3,3-2-.6,2.7,1.5,5.5-1.4,7.5-.7-1.5.8-4.1-1.9-4.6h-.1Z" transform="translate(-860.2 -772)" style="fill: #6279b1"/>
    <path d="M999.7,810.5c-.6-1.9-1.3-3.8-1.9-5.6s.4-1.5,1.2-1.6c.7,1.6.4,3.9,2.6,4.5v2.6h-1.9Z" transform="translate(-860.2 -772)" style="fill: #d2d6eb"/>
    <path d="M996.6,797.8l-3.3.9a4,4,0,0,1,1.5-2.9c.8-.8,1.6-1.9,2.7-.7S996.9,796.9,996.6,797.8Z" transform="translate(-860.2 -772)" style="fill: #f9fbfb"/>
    <path d="M941.9,806.1v1.6c-1.2,1-.5,2.1-.2,3.2s.2,1.9-.9,1.9-1.3-.9-1.2-1.8.5-3.4.8-5.2Z" transform="translate(-860.2 -772)" style="fill: #aebcec"/>
    <path d="M946.9,915.8a14.3,14.3,0,0,1,1.7,6.5c-3-1-2.2-4.4-3.4-6.4Z" transform="translate(-860.2 -772)" style="fill: #6279b1"/>
    <path d="M1100,834.7c-1.8.9-3.2,1.1-4.5,0a1,1,0,0,1,.1-1.5C1097.2,832.2,1098.5,833.1,1100,834.7Z" transform="translate(-860.2 -772)" style="fill: #f9fbfb"/>
    <path d="M977.5,782.5c-.7,1.5-1.6,2.8-3.3,2.9,1.1-1.8.2-5.1,3.4-5.4A20.9,20.9,0,0,0,977.5,782.5Z" transform="translate(-860.2 -772)" style="fill: #8e9bd1"/>
    <path d="M1053.7,999.7a19.1,19.1,0,0,1-4.6-4.8C1052.8,994.2,1053.8,996.3,1053.7,999.7Z" transform="translate(-860.2 -772)" style="fill: #e5e8ee"/>
    <path d="M977.5,782.5a20.9,20.9,0,0,1,.1-2.5c2.5-1.1,3.5,1.2,4.9,2.7Z" transform="translate(-860.2 -772)" style="fill: #aebcec"/>
    <path d="M1006.5,806c.2,2.4-.8,3.7-3.2,3.5v-1.7a1.6,1.6,0,0,0,1.5-1.9l1.4-1.9Z" transform="translate(-860.2 -772)" style="fill: #e5e8ee"/>
    <path d="M1045.4,900.4c2.1-1.1,4.4-.8,6.6-.7l-4.2,2.2C1046.4,902.6,1045.5,902.2,1045.4,900.4Z" transform="translate(-860.2 -772)" style="fill: #e5e8ee"/>
    <path d="M1010.6,931.8c-1,0-2.2.1-2.4-1.5s-.2-2.7,1.5-3Z" transform="translate(-860.2 -772)" style="fill: #e5e8ee"/>
    <path d="M1036.3,979.9c-1.7-1.2-2.4-3.3-3.5-5C1035.9,975,1036,977.5,1036.3,979.9Z" transform="translate(-860.2 -772)" style="fill: #e5e8ee"/>
    <path d="M987.5,787.2c-1.9.1-3.2-.4-3.3-2.7C985.8,784.6,987.4,784.8,987.5,787.2Z" transform="translate(-860.2 -772)" style="fill: #aebcec"/>
    <path d="M1109.9,846.1c.2-1-.3-2.6,1.5-2.2s1.6.5,1.4,1.3-1.9.7-2.9.9Z" transform="translate(-860.2 -772)" style="fill: #f9fbfb"/>
    <path d="M1022.8,792.6h-1.1a2.7,2.7,0,0,0-2.8-1h0C1020.8,789.3,1022.2,788.9,1022.8,792.6Z" transform="translate(-860.2 -772)" style="fill: #8e9bd1"/>
    <path d="M1078.3,854.6l1.9-2.2c1.1,1,.7,2.3.8,3.5h0C1079.9,855.9,1078.8,855.9,1078.3,854.6Z" transform="translate(-860.2 -772)" style="fill: #f9fbfb"/>
    <path d="M1064.5,839a2.2,2.2,0,0,1-3.4.1C1062.2,837.7,1063.3,837.7,1064.5,839Z" transform="translate(-860.2 -772)" style="fill: #f9fbfb"/>
    <path d="M1057,886.3c-1.1,3.2-2.2.6-3.3,0A2.6,2.6,0,0,1,1057,886.3Z" transform="translate(-860.2 -772)" style="fill: #f9fbfb"/>
    <path d="M973.4,786.3a2.9,2.9,0,0,1-3.3,2.7A4.1,4.1,0,0,1,973.4,786.3Z" transform="translate(-860.2 -772)" style="fill: #8e9bd1"/>
    <path d="M1056.6,1002.7a7,7,0,0,1-2.9-3C1055.5,999.8,1057.2,999.9,1056.6,1002.7Z" transform="translate(-860.2 -772)" style="fill: #e5e8ee"/>
    <path d="M1081.3,870.6c.3-.3.6-.8,1.1-.9s.9.4.9,1.1a1.1,1.1,0,0,1-1,1.1C1081.7,871.9,1081.3,871.5,1081.3,870.6Z" transform="translate(-860.2 -772)" style="fill: #f9fbfb"/>
    <path d="M907.2,892.6c.9,1.9.5,2.9-1.7,2.6v-1.3Z" transform="translate(-860.2 -772)" style="fill: #d2d6eb"/>
    <path d="M1090.9,831.8c-.6.3-1,.6-1.2.5a2.2,2.2,0,0,1-.9-1.2c-.2-.8.4-.9.9-.6S1090.4,831.2,1090.9,831.8Z" transform="translate(-860.2 -772)" style="fill: #f9fbfb"/>
    <path d="M1093.2,848.1c-.5.2-.8.5-1.1.5s-1-.4-.7-1,.7-.4,1-.4S1092.9,847.7,1093.2,848.1Z" transform="translate(-860.2 -772)" style="fill: #f9fbfb"/>
    <path d="M1095,943v1.3l-2.5-.2v-1.5C1093.4,942.5,1094.2,942.3,1095,943Z" transform="translate(-860.2 -772)" style="fill: #6279b1"/>
    <path d="M1003.3,807.8v1.7a1.8,1.8,0,0,1-1.7.9v-2.6l.7-.2Z" transform="translate(-860.2 -772)" style="fill: #aebcec"/>
    <path d="M1109.9,847.9h-2.4c.1-1.8,1.3-1.7,2.4-1.7h0Z" transform="translate(-860.2 -772)" style="fill: #f9fbfb"/>
    <path d="M1003.3,807.8l-1-.2c.6-1.1,1.3-1.8,2.5-1.7A1.6,1.6,0,0,1,1003.3,807.8Z" transform="translate(-860.2 -772)" style="fill: #d2d6eb"/>
    <path d="M1090.3,839a20,20,0,0,0-.5-2.6C1091.2,837,1092.7,837.5,1090.3,839Z" transform="translate(-860.2 -772)" style="fill: #f9fbfb"/>
    <path d="M1020.5,957a4.9,4.9,0,0,1-1.8-2.8C1020.5,954.2,1020.7,955.5,1020.5,957Z" transform="translate(-860.2 -772)" style="fill: #e5e8ee"/>
    <path d="M1054.5,935.3a2.8,2.8,0,0,1,2.6.9C1056,936.7,1054.7,937.8,1054.5,935.3Z" transform="translate(-860.2 -772)" style="fill: #e5e8ee"/>
    <path d="M920.5,960.6c-.5,1.6-1.3,1.8-2.5.8Z" transform="translate(-860.2 -772)" style="fill: #6279b1"/>
    <path d="M1045.6,827.9c-.2-.1-.6-.1-.6-.3s.1-.5.2-.7.6.1.7.3A2.1,2.1,0,0,1,1045.6,827.9Z" transform="translate(-860.2 -772)" style="fill: #f9fbfb"/>
    <path d="M975,947.9c.1-1.2.7-1.7,1.7-1.7A1.5,1.5,0,0,1,975,947.9Z" transform="translate(-860.2 -772)" style="fill: #d2d6eb"/>
    <path d="M1003.7,953.8c.7.7,1.3,1.4,0,2S1003.2,954.5,1003.7,953.8Z" transform="translate(-860.2 -772)" style="fill: #d2d6eb"/>
    <path d="M1018.9,792.3l-2.4,1.1a2.2,2.2,0,0,1,2.4-1.7h0C1018.9,791.9,1018.8,792.1,1018.9,792.3Z" transform="translate(-860.2 -772)" style="fill: #8e9bd1"/>
    <path d="M904.3,885.4c1.6-.5,2.5.3,2.8,1.9C905.4,888,905.3,885.9,904.3,885.4Z" transform="translate(-860.2 -772)" style="fill: #454e91"/>
    <path d="M1039.1,983.1a2.5,2.5,0,0,1-1.3-2.1C1039.1,981.1,1039.7,981.6,1039.1,983.1Z" transform="translate(-860.2 -772)" style="fill: #e5e8ee"/>
    <path d="M891.6,932.7H895A3.7,3.7,0,0,1,891.6,932.7Z" transform="translate(-860.2 -772)" style="fill: #6279b1"/>
    <path d="M902.1,896.8c.6-.5,1.1-1.1,1.7-1.7l.2.2V897h-1.5Z" transform="translate(-860.2 -772)" style="fill: #8e9bd1"/>
    <path d="M901.1,881.8H903a4.1,4.1,0,0,0,.5.9C902,884.7,901.9,882.4,901.1,881.8Z" transform="translate(-860.2 -772)" style="fill: #454e91"/>
    <path d="M1098.2,861.3l.8,1a4.3,4.3,0,0,0,.1.5l-1.4.5A1.8,1.8,0,0,1,1098.2,861.3Z" transform="translate(-860.2 -772)" style="fill: #f9fbfb"/>
    <path d="M984.2,784.5c-1.1,0-1.7-.6-1.7-1.8A2.8,2.8,0,0,1,984.2,784.5Z" transform="translate(-860.2 -772)" style="fill: #aebcec"/>
    <path d="M949.4,1013.8l-1,.2c0-1-.1-2.1.9-2.8h.1Z" transform="translate(-860.2 -772)" style="fill: #6279b1"/>
    <path d="M905.5,893.9v1.3H904l-.2-.2Z" transform="translate(-860.2 -772)" style="fill: #8e9bd1"/>
    <path d="M1093.2,835.5c-.1.1-.3.2-.3.1a.4.4,0,0,1-.1-.3c.1-.1.2-.2.3-.1A.4.4,0,0,0,1093.2,835.5Z" transform="translate(-860.2 -772)" style="fill: #f9fbfb"/>
    <path d="M905.5,854.1l.8.9C905.9,854.9,904.8,855.4,905.5,854.1Z" transform="translate(-860.2 -772)" style="fill: #d2d6eb"/>
    <path d="M907.1,887.2q1.5.3.9,1.8C907.2,888.7,906.4,888.4,907.1,887.2Z" transform="translate(-860.2 -772)" style="fill: #454e91"/>
    <path d="M1053.2,899.3l1.3-.3Z" transform="translate(-860.2 -772)" style="fill: #e5e8ee"/>
    <path d="M970.1,788.9l-.9,1Z" transform="translate(-860.2 -772)" style="fill: #8e9bd1"/>
    <path d="M901.4,965.8l-.7.2A1,1,0,0,1,901.4,965.8Z" transform="translate(-860.2 -772)" style="fill: #6279b1"/>
    <path d="M932.1,926.6l1.1-.9Z" transform="translate(-860.2 -772)" style="fill: #6279b1"/>
    <path d="M1102.5,876.5l1-.9Z" transform="translate(-860.2 -772)" style="fill: #3d5eb7"/>
    <path d="M878.1,918.1a.5.5,0,0,0-.5.3l.2-.4Z" transform="translate(-860.2 -772)" style="fill: #6279b1"/>
    <path d="M974.2,785.4c0,.6-.3.8-.8.9Z" transform="translate(-860.2 -772)" style="fill: #8e9bd1"/>
    <path d="M1071.1,862.2h.8l-1,.8A2.9,2.9,0,0,1,1071.1,862.2Z" transform="translate(-860.2 -772)" style="fill: #f9fbfb"/>
    <path d="M1111.6,849.8h-.8l-.2-.3v-.7Z" transform="translate(-860.2 -772)" style="fill: #f9fbfb"/>
    <path d="M908,889c.7-.1.9.2.9.9h-.8A2.8,2.8,0,0,1,908,889Z" transform="translate(-860.2 -772)" style="fill: #454e91"/>
    <path d="M1110.6,848.9v.7l-.6-.6Z" transform="translate(-860.2 -772)" style="fill: #6279b1"/>
    <path d="M906.4,1058.6l-.2.3.2-.3Z" transform="translate(-860.2 -772)" style="fill: #aebcec"/>
    <path d="M959.3,781.7c0,1.1-.4,1.8-1.5,1.8s-1.6-.2-1.6-1.4a1.7,1.7,0,0,1,1.5-1.8C958.7,780,959.2,780.7,959.3,781.7Z" transform="translate(-860.2 -772)" style="fill: #fdfdfd"/>
    <path d="M1022.3,800.6l1.3-1c3.9-.3,6.6-3.2,9.3-5.8s4-4.8,7.4-2.1c-1.4,3.1.6,7.1-2.3,9.8-.4-1.7-1-2.4-1.7-.2-1.7,4.6-4.2,8.9-6,13.5-1.1,2.9-3,6.4-.6,9.9a2.7,2.7,0,0,1-2.3,2.8c-2.1-3.6-1.6-8.4-4.4-11.7C1023,810.7,1023.4,805.6,1022.3,800.6Z" transform="translate(-860.2 -772)" style="fill: #70addd"/>
    <path d="M1039.1,813.6c.9,4.2-2.6,7.6-1.8,11.9-.8,4.6-5,6.9-6.7,11-2.2-.6-7,3.4-8.3,7h0c-2.5-.9-4.2,1.9-6.5,1.7.1-1.8,1.5-2.6,2.4-3.7a4.7,4.7,0,0,0,2.5-3.4l4.8-2.8c5.7-3.1,7.5-9.2,9.9-14.8C1036.5,818.1,1036.9,815.3,1039.1,813.6Z" transform="translate(-860.2 -772)" style="fill: #6279b1"/>
    <path d="M1025.5,835.4l-4.8,2.8c0-2.5,1.9-5-.2-7.4v-1.7l.8-1.3v-12h1.6c2.8,3.3,2.3,8.1,4.4,11.7S1025.1,832.5,1025.5,835.4Z" transform="translate(-860.2 -772)" style="fill: #3d5eb7"/>
    <path d="M1029.7,824.7c-2.4-3.5-.5-7,.6-9.9,1.8-4.6,4.3-8.9,6-13.5.7-2.2,1.3-1.5,1.7.2-.7,7.7-2.3,15.1-6.6,21.4-1.3-.8-.7.6-.9,1Z" transform="translate(-860.2 -772)" style="fill: #83b8dd"/>
    <path d="M1030.5,823.9c.2-.4-.4-1.8.9-1Z" transform="translate(-860.2 -772)" style="fill: #70addd"/>
    <path d="M1122.8,1055.7c-1.1.8-1.5,1.3-1.9,1.5-2.1,1.1-1.9,3.1-1.8,5s1.4,2.7,3.1,2.7,1.5.1,1.4,1.1-.7,1.2-1.4,1.4-3.6,0-4.3-1.9c-1.6-4.4-5.3-6.2-8.7-8.2-16.5-9.5-32-20.4-45.6-34.6-5.1-5.4-10.9-10.2-15.9-15.9s-10.5-13.4-15.7-20.3c-1-1.3-1.4-3.2,0-4.4s2.8.1,3.9,1.4c6,6.8,11.8,14,18.3,20.4,13,13.2,26.3,26.1,41.8,36.2,7.3,4.8,15.3,8.6,22.3,14.1C1119.3,1055,1120.8,1055.1,1122.8,1055.7Z" transform="translate(-860.2 -772)" style="fill: #4b8766"/>
    <path d="M991.6,945.2c-2.2-.4-4.5-.5-6.6-1.7.4-.9,1.8-1.3,1.6-2.7,3.2.9,6.2,1.3,6.7-3.6.6-1,1.1-2,1.7-2.9,3.2-4.6,4.5-10.2,7.4-15l1.9.3c0,1.2.1,2.3.1,3.4l-3.6,7.9c-2,2.8-4.1,5.5-5.2,8.9-2.3,1-3.2,3.1-4,5.5Z" transform="translate(-860.2 -772)" style="fill: #aebcec"/>
    <path d="M991.6,945.3c.8-2.4,1.7-4.5,4-5.5-.1,2,2.3,3.1,1.8,5.2Z" transform="translate(-860.2 -772)" style="fill: #4b8766"/>
    <path d="M1054.5,842.5h10c7.2,2.8,7.2,2.8,7.4,10.5l-1.7,1.9c-2.3-.2-5-1.3-6.8-.4-4.3,2.2-8.8,3.1-13.4,3.9a48.7,48.7,0,0,0-9.2,2c-1.2.4-3.4.2-3.2,2s2.1,2.4,3.9,2.4,5,0,8.3,0c-1.5,2.2-2.9,2.2-4.1,2.7-4.1,1.7-8.2,3.3-11.9,6l-3.3.2c-2.8-2-5.5-.6-8.2,0,3.7-7.8,3.5-16,1.5-24.2,0-.6.1-1.1.1-1.7s.5-1.3.8-1.9c3.6-3.6,8.4-2,12.6-3.4A35.7,35.7,0,0,0,1054.5,842.5Zm0,7.3c-6.7-2.5-22.1.2-23.4,3.8C1038.9,853.1,1046.7,853.1,1054.5,849.8Z" transform="translate(-860.2 -772)" style="fill: #70addd"/>
    <path d="M993.2,879.7c-3.9,1.7-6.1,5.5-8.7,8.5-8.9,10.1-19.6,12.8-31.8,10.6.6-3.5,5-2.9,5.7-6.3l1.9-2.5a4.1,4.1,0,0,0,3.2-3.7c1.7-1.5,3.8-.9,5.7-1.2s6.6.6,9.4-1.9c4.6-1.5,9.4-2.7,12.3-7.4l3.2-1.1c-.3,1.5-1.3,2.9-.9,4.5Z" transform="translate(-860.2 -772)" style="fill: #8e9bd1"/>
    <path d="M1023.8,849.6c2,8.2,2.2,16.4-1.5,24.2v1h-4c-3.9-1-8,1-11.9-1.1,1.6-5.9,3.5-11.6,6.8-16.6S1018.4,849.1,1023.8,849.6Z" transform="translate(-860.2 -772)" style="fill: #3d5eb7"/>
    <path d="M1017.2,878.4c.7,2.5,2.7,1.7,4.1,1.6,5.3-.6,10.1,1,14.8,3.4-3.9,1.5-8.1,1.6-12.2,2.1-.5-.9-.8-.3-1,.2h0c-4.1-.2-8-2.2-12.1-1.8-2.1-.1-3.9-1.5-6-1.2.6-2.8-1.9-4.1-2.5-6.3,1.9-.2,3.5.7,5.2,1.1C1010.7,878.3,1013.9,879.4,1017.2,878.4Z" transform="translate(-860.2 -772)" style="fill: #3d5eb7"/>
    <path d="M1013.2,849.8c-3.6,7.1-9.8,10.2-16.6,12.3a1.5,1.5,0,0,0-1.7-1.7h0c-.3-.8-1-.9-1.7-.9h0v-2.1c3.4-2,7.4-2.7,10-6.1,2.3-.6,2.9-3.5,4.9-4.4C1009,849.6,1011,850,1013.2,849.8Z" transform="translate(-860.2 -772)" style="fill: #8e9bd1"/>
    <path d="M1013.2,849.8c-2.2.2-4.2-.2-5.1-2.8a27.6,27.6,0,0,0,.8-2.7c3-3.4,4-7.9,5.8-12,.6-1.3.7-2.9,2.3-3.3.4,1.4-.3,2.7-.8,3.8-1.2,3.1.1,3.7,2.6,3.5,0,1.8-1.3,3.4-.6,5.3-.9,1.1-2.3,1.9-2.4,3.7S1014.8,848.8,1013.2,849.8Z" transform="translate(-860.2 -772)" style="fill: #aebcec"/>
    <path d="M1017.2,878.4c-3.3,1-6.5-.1-9.7-.9-1.7-.4-3.3-1.3-5.2-1.1s-3.5-1-4.4-3.2c3-.9,5.8.3,8.5.6,3.9,2.1,8,.1,11.9,1.1-.2,1-1.4,1.8-.8,3.1Z" transform="translate(-860.2 -772)" style="fill: #6279b1"/>
    <path d="M1000.2,889.8a12.1,12.1,0,0,1-.5-1.4c.2-1.3.6-2.2,1.9-2.1,1.7,4,3.9,7.9,4.6,12.4.1,1.1.8,2.2-.3,3.2-2,2.5-.8,5.4-1,8.1s.1,5.1-2.2,6.7h-.3c.2-1.5.5-3,.8-4.6.3,0,.4-.2.5-.4l.2-1.4c-1.2-5.8-.5-11.9-2.5-17.5C1001.5,891.5,1001.7,890.2,1000.2,889.8Z" transform="translate(-860.2 -772)" style="fill: #aebcec"/>
    <path d="M994.1,874.7l-3.2,1.1c.2-2.3,1.9-3.3,3.2-4.8s1.5-4.3.2-6.7-1.8-2.4-3.5-1.2h-1.7c.1-2.1-2.7-2.2-2.4-4.4l6.5.9h0c.3,1,.9,1.2,1.7.9h0c-.2,1.5.8,2,1.7,2.6C998.7,867.6,996.2,871.1,994.1,874.7Z" transform="translate(-860.2 -772)" style="fill: #d2d6eb"/>
    <path d="M1004.8,882.7c2.1-.3,3.9,1.1,6,1.2,2.3,1.7,1.5,3.8.1,5.2s-3.5.4-4.1-1.4S1002.8,885.5,1004.8,882.7Z" transform="translate(-860.2 -772)" style="fill: #d2d6eb"/>
    <path d="M1004.4,923c0-1.1-.1-2.2-.1-3.4,1.9-3.7.5-8.1,2.2-11.9,1.1.1,2.5,0,2.2,1.7C1007.9,914.1,1007.8,919.2,1004.4,923Z" transform="translate(-860.2 -772)" style="fill: #6279b1"/>
    <path d="M1037.3,842.6c-4.2,1.4-9-.2-12.6,3.4H1023l-1.5-.3v-.5a8.9,8.9,0,0,1,.8-1.7h0l7.8-2.3C1032.4,842.3,1035.1,840.6,1037.3,842.6Z" transform="translate(-860.2 -772)" style="fill: #aebcec"/>
    <path d="M993.2,879.7v-.5c4-.3,6.2,2.4,8.2,5.4h-3.9C995.6,883.4,994.6,881.3,993.2,879.7Z" transform="translate(-860.2 -772)" style="fill: #6279b1"/>
    <path d="M1006.5,907.7c-1.7,3.8-.3,8.2-2.2,11.9l-1.9-.3.3-2.6c2.3-1.6,1.9-4.2,2.2-6.7s-1-5.6,1-8.1l.3.9a1.1,1.1,0,0,0,.3,1.4Z" transform="translate(-860.2 -772)" style="fill: #e5e8ee"/>
    <path d="M997.5,884.5h3.9a9.9,9.9,0,0,1,.2,1.7c-1.3-.1-1.7.8-1.9,2.1A6.7,6.7,0,0,1,997.5,884.5Z" transform="translate(-860.2 -772)" style="fill: #83b8dd"/>
    <path d="M996.6,863c-.9-.6-1.9-1.1-1.7-2.6a1.5,1.5,0,0,1,1.7,1.7Z" transform="translate(-860.2 -772)" style="fill: #6279b1"/>
    <path d="M1023,846.1h1.7c-.3.6-.5,1.3-.8,1.9A2.1,2.1,0,0,1,1023,846.1Z" transform="translate(-860.2 -772)" style="fill: #3d5eb7"/>
    <path d="M1062,889.9c.2-.5.3-1.2.6-1.4s.9.4,1,.9Z" transform="translate(-860.2 -772)" style="fill: #e5e8ee"/>
    <path d="M1006.5,904.2a1.1,1.1,0,0,1-.3-1.4Z" transform="translate(-860.2 -772)" style="fill: #aebcec"/>
    <path d="M1021.5,845.3v.5h-.6Z" transform="translate(-860.2 -772)" style="fill: #70addd"/>
    <path d="M964.3,832a14.8,14.8,0,0,0,6.6,1c3.9,1.1,6.6,4.7,10.5,6.2.8,2.9,2.9,5.4,3,8.6.3,1.6.6,3.2.8,4.8a3.4,3.4,0,0,0-.9,2.4,1.5,1.5,0,0,0-.9,1.7,4.8,4.8,0,0,0-.8,3.7,10.5,10.5,0,0,0-1.1,4.3c-1.6,2-3.2,4.1-4.9,6.1l-10.8,5.7h-3.1c-.7-.9-1.6-.7-2.6-.5a3.3,3.3,0,0,0-3.8-1.9c-.2-1.1-.6-2-1.9-1.8-.5-1.5-1.6-1.8-2.9-1.9-1.3-3.6-4.7-3.8-7.3-5.4-1.6-5.1.3-10.1.2-15.2.3-2.7,1.5-5,2.6-7.4s4.8-4.9,5.9-8.4h-.1a5,5,0,0,0,4.8-2h1C960.5,833.8,962.4,831.9,964.3,832Zm-.6,2.5c-6.5-.7-17.7,8.4-17.6,15.7.1,3.5-1.9,7.7,3.4,8.8a11.3,11.3,0,0,1,5.7,3.2c1.7,1.6,4,1.4,4.6-1.2s2.9-3.8,5.5-2.8,3.8.5,4.1-.9c1.4-5.1,6.3-5.5,9.3-8.3s2-3.1.8-4.6C974.9,838.9,970.7,832.6,963.7,834.5Z" transform="translate(-860.2 -772)" style="fill: #c09d58"/>
    <path d="M981.4,839.2c-3.9-1.5-6.6-5.1-10.5-6.2,4.3-5,4.1-12.2,7.2-18.4,1.6,2.4,1.2,4.4,1,6.1-.4,5.4,2.1,10.1,2.7,15.2.2,1.4,1.4,1.2,2.3,1.3S982.6,839,981.4,839.2Z" transform="translate(-860.2 -772)" style="fill: #d2d6eb"/>
    <path d="M964.3,832c-1.9-.1-3.8,1.8-5.7-.2-.2-3.4-1.9-6-3.5-8.7-.5-.9-.5.4-.8.7a3.6,3.6,0,0,1-2.5-1.3c-.4-.5-1.4-.7-1.1-1.6s1.4-.6,2.1-.7c2.2-1.8,0-4.3.9-6.3,2.3,2.2,1.9,5.6,3.3,8.2s1.3,3.9,3.3,4.2S964.2,829.1,964.3,832Z" transform="translate(-860.2 -772)" style="fill: #d2d6eb"/>
    <path d="M980.8,791.6c-.4,2.3-1,5.4-4.3,5.2a5,5,0,0,1-4.6-3.7c-.2-.5,5.5-6.8,6.1-6.7C980.3,786.9,980.9,788.7,980.8,791.6Z" transform="translate(-860.2 -772)" style="fill: #f9fbfb"/>
    <path d="M981.4,839.2c1.2-.2,2.3-.6,2.7-2s.1-1.7.2-2.6c2.4.2,1.9-3.2,3.6-3.9a3.3,3.3,0,0,1,.3,1,15.5,15.5,0,0,1-.4,2.1c-1.7,6.1-1.7,6.1,3,6-1.6,3.2-3.1,6.3-6.4,8C984.3,844.6,982.2,842.1,981.4,839.2Z" transform="translate(-860.2 -772)" style="fill: #aebcec"/>
    <path d="M990.8,839.8c-4.7.1-4.7.1-3-6a15.5,15.5,0,0,0,.4-2.1,3.3,3.3,0,0,0-.3-1c-1.7.7-1.2,4.1-3.6,3.9-1-3.4,2.2-5.2,2.9-7.9s1.6-1.2,1.8.5a17.7,17.7,0,0,1,.4,5.6c-.4,2.7.7,3.8,2.9,4.3,0,.9.1,1.9.1,2.8h-1.6Z" transform="translate(-860.2 -772)" style="fill: #d2d6eb"/>
    <path d="M999.7,810.5h1.8c-.1,4,.8,8-1.5,11.6h-1C998.1,818.1,1000.9,814.4,999.7,810.5Z" transform="translate(-860.2 -772)" style="fill: #aebcec"/>
    <path d="M999.1,823.8c1,2.8-2,5.2-1,8a22.5,22.5,0,0,0-.8,2.4l-2.2.5c-.1-.2-.3-.3-.5-.5A27.7,27.7,0,0,1,999.1,823.8Z" transform="translate(-860.2 -772)" style="fill: #8e9bd1"/>
    <path d="M970.3,804.3c1.4.1,1.4,1.1,1.4,2.2s-.1,2.5-1.5,2.6-1.7-1.1-1.7-2.4A2.2,2.2,0,0,1,970.3,804.3Z" transform="translate(-860.2 -772)" style="fill: #f9fbfb"/>
    <path d="M992.4,839.9c0-.9-.1-1.9-.1-2.8l1.4-1.1.6.4C994.1,837.9,994.1,839.3,992.4,839.9Z" transform="translate(-860.2 -772)" style="fill: #8e9bd1"/>
    <path d="M993.7,836l.9-1.8c.2.2.4.3.5.5l-.8,1.7Z" transform="translate(-860.2 -772)" style="fill: #8e9bd1"/>
    <path d="M999,822h1c-.1.7-.2,1.5-1,1.8Z" transform="translate(-860.2 -772)" style="fill: #8e9bd1"/>
    <path d="M944.4,849.7c.1,5.1-1.8,10.1-.2,15.2l-10.5,1.8-1.8-.2c1.3-4.4,1.1-9.1,3.2-13.4s-3.2-2.9-3.9-5.2-.6-1.8-1.6-1.8h-.1a2.4,2.4,0,0,1,.9-1.8l10.2,6.2c1.3.9,2.5,1.8,3.1-.7Z" transform="translate(-860.2 -772)" style="fill: #aebcec"/>
    <path d="M944.4,849.7h-.7c-1-7.4,3.6-15.4,9.2-15.9-1.1,3.5-4.4,5.1-5.9,8.4S944.7,847,944.4,849.7Z" transform="translate(-860.2 -772)" style="fill: #eee6bd"/>
    <path d="M957.6,831.8a5,5,0,0,1-4.8,2c.6-2.8-1.8-6.1,1.6-8.2C955.9,827.4,955.7,830.3,957.6,831.8Z" transform="translate(-860.2 -772)" style="fill: #d2d6eb"/>
    <path d="M957.6,831.8c-1.9-1.5-1.7-4.4-3.2-6.2a10.9,10.9,0,0,0-.1-1.8c.3-.3.3-1.6.8-.7,1.6,2.7,3.3,5.3,3.5,8.7Z" transform="translate(-860.2 -772)" style="fill: #8e9bd1"/>
    <path d="M941.2,814.8c2.5-1.7,5.1-1.1,7.6.2.8.4,1.5,1,.5,1.9Z" transform="translate(-860.2 -772)" style="fill: #6279b1"/>
    <path d="M986.6,940.8c.2,1.4-1.2,1.8-1.6,2.7-10.7-2.5-20.8-6.6-29.7-13.7,0-1-.2-2,.8-2.6,8.9,6.4,18.8,10.3,28.9,13.5Z" transform="translate(-860.2 -772)" style="fill: #d2d6eb"/>
    <path d="M984.3,855a3.4,3.4,0,0,1,.9-2.4c1.7-.4,2.3-1.9,2.9-3.3s2.3-5,4.3-6.7l.9.8c.8,8,1.7,7.2,8.2,4.4,0,1.5-.2,3.1,1.7,3.6-2.6,3.4-6.6,4.1-10,6.1l-8.1-1Z" transform="translate(-860.2 -772)" style="fill: #aebcec"/>
    <path d="M1018.8,836.3c-2.5.2-3.8-.4-2.6-3.5.5-1.1,1.2-2.4.8-3.8.6-6.5,1.3-13,1.9-19.5a8,8,0,0,0,.2-7.2v-1.5l1.8-.2a.5.5,0,0,1,.6-.1c0,5.1,0,10.2-.1,15.3v12l-.8,1.3c0,.6-.1,1.2-.1,1.7S1019.3,834.5,1018.8,836.3Z" transform="translate(-860.2 -772)" style="fill: #8e9bd1"/>
    <path d="M1003.2,851.4c-1.9-.5-1.7-2.1-1.7-3.6,2.8-.4,4.5-3.5,7.4-3.5a27.6,27.6,0,0,1-.8,2.7C1006.1,847.9,1005.5,850.8,1003.2,851.4Z" transform="translate(-860.2 -772)" style="fill: #d2d6eb"/>
    <path d="M993.3,843.4l-.9-.8v-2.7h0c1.7-.6,1.7-2,1.9-3.5l.8-1.7,2.2-.5A26.3,26.3,0,0,1,993.3,843.4Z" transform="translate(-860.2 -772)" style="fill: #d2d6eb"/>
    <path d="M1020.9,800.6l-1.8.2a22.1,22.1,0,0,1-.2-8.5c-.1-.2,0-.4,0-.7a2.7,2.7,0,0,1,2.8,1A15.5,15.5,0,0,0,1020.9,800.6Z" transform="translate(-860.2 -772)" style="fill: #d2d6eb"/>
    <path d="M1019.1,802.3a8,8,0,0,1-.2,7.2A6.7,6.7,0,0,1,1019.1,802.3Z" transform="translate(-860.2 -772)" style="fill: #d2d6eb"/>
    <path d="M949.4,1013.8v-2.5c2.7.5,1.2,3.1,1.9,4.6a21.7,21.7,0,0,0-.1,2.6h-.9A7.5,7.5,0,0,1,949.4,1013.8Z" transform="translate(-860.2 -772)" style="fill: #8e9bd1"/>
    <path d="M950.3,1018.5h.9c1,2.3-.4,3.4-2,4.4C948,1021,950.1,1020,950.3,1018.5Z" transform="translate(-860.2 -772)" style="fill: #6279b1"/>
    <path d="M944.4,886.3a13.1,13.1,0,0,1-11.5,5.4c.4-5.4-3.6-6.4-8-8.2,3.6-1.1,6.3-1.9,9.1-1.7s4.8-2.7,5.3-5.8-4.4-4.1-7-3.7-7.4,2.2-11-.3c0-.9.1-1.9.1-2.8a33.1,33.1,0,0,0,8.9-.4c1,2.5,3.1,1.3,4.7,1.3s5.6.1,6.4,2.1c1.4,3.7,4.3,5.8,6.3,8.7l-.8.9c-2,.1-3.2,1.8-4,3.3S943.7,886.1,944.4,886.3Z" transform="translate(-860.2 -772)" style="fill: #d2d6eb"/>
    <path d="M921.4,869.2c0,.9-.1,1.9-.1,2.8-2.4,1.3-4.6,1.7-5.8-1.8a14.2,14.2,0,0,1,.8-1.8h4.8Z" transform="translate(-860.2 -772)" style="fill: #f9fbfb"/>
    <path d="M930.4,892.5c-1.1,1.3-2.2,1.3-3.4.2C928.1,891.2,929.2,891.3,930.4,892.5Z" transform="translate(-860.2 -772)" style="fill: #d2d6eb"/>
    <path d="M952.7,922c-1.9-3.3-2.3-7-2.6-10.7h1.7c4.5,2.8,9.6,1.7,14.4,2.5,2.4.4,5.1,1.5,7.7.4a31.4,31.4,0,0,0,16.9-15.4c1-1.4,2.2-2.6,3.1-4,2.8-4.4,2.8-4.5,5.9-.2.8,4.1,1.7,8.2,2.5,12.3-1.1-.1-2.3,0-2.9-1.3s-1.4-5-4-3.6,0,4.1-.1,6.3c-.1.5.4,1,.6,1.6,1.3,4.2,2.6,8.6,1.9,13.1s-1.3,6.9-5.5,7c-2,.1-2.3.9-1.7,2.8a13.5,13.5,0,0,1,.2,3.5c-1.5,2.3-3.7,1.8-5.8,1.8l-6-13c-.6-1.3-1.2-2.6-2.8-2s-.4,2-.3,3c0,2.6.5,5.2-3.3,4.9s-4.2-2.3-5.5-4.7-2.1-4.6-4.1-2.8-5.2,1.1-7.8,1.2h0C955.4,922.7,954.5,921.8,952.7,922Z" transform="translate(-860.2 -772)" style="fill: #70addd"/>
    <path d="M990.8,898.8a31.4,31.4,0,0,1-16.9,15.4c-2.6,1.1-5.3,0-7.7-.4-4.8-.8-9.9.3-14.4-2.5a1.9,1.9,0,0,0-.2-.8c1.1-.4,3.4.4,1.9-2.3s.8-5.1,2.8-5.4c8.5-1,16.8-3.4,25.2-4.6C984.6,897.7,987.7,899.7,990.8,898.8Z" transform="translate(-860.2 -772)" style="fill: #3d5eb7"/>
    <path d="M958.4,892.5c-.7,3.4-5.1,2.8-5.7,6.3-2.6.7-4.9-1-7.4-1.2l-.6-.7a2.1,2.1,0,0,0-.3-2.5,7.8,7.8,0,0,1,1.6-5.5c1.7,0,3.1,0,3.7,2.3s2.8,4.1,5.6,1.9C956.1,892.5,957.4,892.7,958.4,892.5Z" transform="translate(-860.2 -772)" style="fill: #d2d6eb"/>
    <path d="M936.2,914c-1.6.2-1.4,2.8-3.2,2.7s-2,.1-2.6-.8,1.9-2.2,1.5-3.9l9.2-9.9,1.7,1.2C941.2,907.3,938.3,910.3,936.2,914Z" transform="translate(-860.2 -772)" style="fill: #aebcec"/>
    <path d="M1002.3,906.9c-.8-4.1-1.7-8.2-2.5-12.3a2.8,2.8,0,0,0,1-2.1l.6.2c2,5.6,1.3,11.7,2.5,17.5C1001.5,910.1,1002.7,908,1002.3,906.9Z" transform="translate(-860.2 -772)" style="fill: #6279b1"/>
    <path d="M951.6,910.5a1.9,1.9,0,0,1,.2.8h-1.7c-1.3-1-.9-3.5-3.1-3.5.1-1.7-.3-3.6,1.4-4.9C950,905.2,949,908.8,951.6,910.5Z" transform="translate(-860.2 -772)" style="fill: #8e9bd1"/>
    <path d="M942.8,903.3l-1.7-1.2,2.6-5.1h1l.6.7A10.6,10.6,0,0,1,942.8,903.3Z" transform="translate(-860.2 -772)" style="fill: #6279b1"/>
    <path d="M1001.4,892.7l-.6-.2-.6-2.7C1001.7,890.2,1001.5,891.5,1001.4,892.7Z" transform="translate(-860.2 -772)" style="fill: #83b8dd"/>
    <path d="M922.9,866.7v-1.8c0-2,.4-3.7,2.7-3.5s3.2,2,3.1,4.3l-.8,1Z" transform="translate(-860.2 -772)" style="fill: #f9fbfb"/>
    <path d="M922.9,866.7h5c.9,1.1,1.7.9,2.5-.1h1.5l1.8.2a3.7,3.7,0,0,1-.1,1.1c-.9,1.1-2.2.5-3.3,1a33.1,33.1,0,0,1-8.9.4l-.3-.7a9.9,9.9,0,0,0,.2-1.7Z" transform="translate(-860.2 -772)" style="fill: #8e9bd1"/>
    <path d="M909.7,850.6V847l2.8-.6c1.2-.3,2.6-.7,2.9,1.3a2.3,2.3,0,0,1-2.4,2.8Z" transform="translate(-860.2 -772)" style="fill: #f9fbfb"/>
    <path d="M930.4,866.6c-.8,1-1.6,1.2-2.5.1l.8-1Z" transform="translate(-860.2 -772)" style="fill: #aebcec"/>
    <path d="M929.6,846.1c1,0,1.6.6,1.6,1.8S929.6,847.3,929.6,846.1Z" transform="translate(-860.2 -772)" style="fill: #d2d6eb"/>
    <path d="M1022.9,885.7c.2-.5.5-1.1,1-.2Z" transform="translate(-860.2 -772)" style="fill: #454e91"/>
    <path d="M897.3,922.9c-2.6-1.8-5.6-.4-8.3-1,0-2.8,2.4-5,1.7-7.9,3.4-1.2,5.5-.6,4.3,4.4,7.8-1.8,11.9-8.7,17.9-12.5,3.2,4.6,7,8,12.5,8.4-2.1,3.2-9.3,6.1-12,4.8.4-.2.7-.6,1.1-.6s2.5-.6,2.5-2.4a3,3,0,0,0-1.6-2.4c-1.4-1.2-2,.5-3,1.1-3.2,1.8-5.6,5.2-9.6,5.5-1.5.1-2.2,1.2-2.2,2.7Z" transform="translate(-860.2 -772)" style="fill: #70addd"/>
    <path d="M900.6,923c0-1.5.7-2.6,2.2-2.7,4-.3,6.4-3.7,9.6-5.5,1-.6,1.6-2.3,3-1.1a3,3,0,0,1,1.6,2.4c0,1.8-1.2,2.2-2.5,2.4s-.7.4-1.1.6c2.7,1.3,9.9-1.6,12-4.8l6.5-2.3c.4,1.7-1.1,2.5-1.5,3.9-8.3,3-16.2,7-24.9,8.3A6,6,0,0,1,900.6,923Z" transform="translate(-860.2 -772)" style="fill: #83b8dd"/>
    <path d="M892.3,930.9c-2.4-.2-5.7.7-5.1-4.1a14.7,14.7,0,0,1,5.9,0C892.9,928.2,892.6,929.6,892.3,930.9Z" transform="translate(-860.2 -772)" style="fill: #3d5eb7"/>
    <path d="M874.5,926.8c-1.2.7-2.3,1.1-3-.7C872.7,925.6,873.7,925.6,874.5,926.8Z" transform="translate(-860.2 -772)" style="fill: #6279b1"/>
    <path d="M906.4,840.7c.3-2,.6-4.1.8-6.2,1.8.4,4,.8,3.9,3.1S908.2,840,906.4,840.7Z" transform="translate(-860.2 -772)" style="fill: #e5e8ee"/>
    <path d="M1017.5,878c-.6-1.3.6-2.1.8-3.1h4c2.8.8,5.8,2.2,8.2-1l3.3-.2a11.7,11.7,0,0,0,6.4-.7c10.9-3.9,20.4-10.5,30-17,1,.1,2.1-.1,2.6,1.1s-1.2,2.2-2.3,2.7c-5.7,2.4-10.4,6.6-15.4,10.1-7.6,5.3-15.4,8.3-24.4,8.3C1026.3,878.1,1021.9,878.6,1017.5,878Z" transform="translate(-860.2 -772)" style="fill: #d2d6eb"/>
    <path d="M931.9,912l-6.5,2.3c-5.5-.4-9.3-3.8-12.5-8.4-.1-.5-.1-1.1-.2-1.7s-.1-1.7-.1-2.5c1.5-3.9,5.3-2.5,7.5-2.6,7.9-.4,15.8-.6,23.6-2.1l-2.6,5.1Z" transform="translate(-860.2 -772)" style="fill: #3d5eb7"/>
    <path d="M943.7,897c-7.8,1.5-15.7,1.7-23.6,2.1-2.2.1-6-1.3-7.5,2.6-.7-1.6-1.5-3.2-2.3-4.7l-1.5-7.1a2.7,2.7,0,0,1,3,1c3.6,3.6,8,4.9,12.7,6,6.9,1.6,13.4,0,19.9-2.5a2.1,2.1,0,0,1,.3,2.5Z" transform="translate(-860.2 -772)" style="fill: #454e91"/>
    <path d="M890.7,914c.7,2.9-1.7,5.1-1.7,7.9-2,0-4-.1-6,0s-2.3-.9-2.3-2.6h0a1.4,1.4,0,0,0,1.7-.9c1.7-2.4,5-1.8,6.6-4.3h1.7Z" transform="translate(-860.2 -772)" style="fill: #8e9bd1"/>
    <path d="M910.3,897c.8,1.5,1.6,3.1,2.3,4.7s.1,1.7.1,2.5a7.8,7.8,0,0,0-4.7.9c-.9.5-2.1,1.4-2.9.1s-.4-3.1.6-3.6S908.7,898.4,910.3,897Z" transform="translate(-860.2 -772)" style="fill: #70addd"/>
    <path d="M904,895.3h1.5c.1,1.3-.4,1.9-1.6,1.8Z" transform="translate(-860.2 -772)" style="fill: #d2d6eb"/>
    <path d="M902.4,897.1h1.5c0,1.2-.5,1.9-1.7,1.8Z" transform="translate(-860.2 -772)" style="fill: #d2d6eb"/>
    <path d="M901.4,899.7l.8-.9C902.2,899.4,901.9,899.6,901.4,899.7Z" transform="translate(-860.2 -772)" style="fill: #d2d6eb"/>
    <path d="M900.6,900.6l.8-.9A.9.9,0,0,1,900.6,900.6Z" transform="translate(-860.2 -772)" style="fill: #d2d6eb"/>
    <path d="M899.7,901.5l.9-.9Z" transform="translate(-860.2 -772)" style="fill: #d2d6eb"/>
    <path d="M898.9,902.3l.8-.8Z" transform="translate(-860.2 -772)" style="fill: #d2d6eb"/>
    <path d="M894.8,906.8l.8-.9Z" transform="translate(-860.2 -772)" style="fill: #d2d6eb"/>
    <path d="M895.6,905.9l.8-.9Z" transform="translate(-860.2 -772)" style="fill: #d2d6eb"/>
    <path d="M898.1,903.2l.8-.8Z" transform="translate(-860.2 -772)" style="fill: #d2d6eb"/>
    <path d="M896.4,905l.9-.9Z" transform="translate(-860.2 -772)" style="fill: #d2d6eb"/>
    <path d="M897.3,904.1l.8-.9Z" transform="translate(-860.2 -772)" style="fill: #d2d6eb"/>
    <path d="M1030.1,841.2l-7.8,2.3c1.3-3.6,6.1-7.6,8.3-7a19.3,19.3,0,0,1,.1,2.4Z" transform="translate(-860.2 -772)" style="fill: #454e91"/>
    <path d="M1047,840.1c-1,1.1-2.2.6-3.3.6C1044.5,838.5,1045.6,838.6,1047,840.1Z" transform="translate(-860.2 -772)" style="fill: #aebcec"/>
    <path d="M958.4,892.5c-1,.2-2.3,0-3.1.6-2.8,2.2-4.7,1.4-5.6-1.9s-2-2.3-3.7-2.3c.3-.8.7-1.7,1-2.6s1.4-.1,1.9-.5,0-1.1-.6-1.3c.4-2.6,3.1-3.4,3.6-5.8l2.3-1.6,3.5.2c-.6,2.1-1.1,4.2-1.7,6.3l-.2.4.2-.4c3.5-1.1,6.5-2.6,6.7-7.2h3.1c2.5,1.2,3.2,3.8,4.2,6.2-.8.6-.7,1.6-.8,2.4-1.9.3-4-.3-5.7,1.2a3.4,3.4,0,0,0-3.2,3.7Z" transform="translate(-860.2 -772)" style="fill: #e5e8ee"/>
    <path d="M944.4,886.3c-.7-.2-2.5.4-1.5-1.2s2-3.2,4-3.3v3.6h0C946,885.4,945,885.3,944.4,886.3Z" transform="translate(-860.2 -772)" style="fill: #aebcec"/>
    <path d="M948.3,884.5c.6.2,1.1.8.6,1.3s-1.3.3-1.9.5a2.8,2.8,0,0,0-.1-.9h0Z" transform="translate(-860.2 -772)" style="fill: #d2d6eb"/>
    <path d="M1102.4,852.3l.9-1.7C1104.6,852.1,1103.4,852.2,1102.4,852.3Z" transform="translate(-860.2 -772)" style="fill: #6279b1"/>
    <path d="M1093.2,872.7l1.8-2.1v2.3Z" transform="translate(-860.2 -772)" style="fill: #454e91"/>
    <path d="M955.2,924.7c2.6-.1,5.1,1,7.8-1.2s3.2,1.1,4.1,2.8,2.5,4.5,5.5,4.7,3.3-2.3,3.3-4.9c-.1-1-1.4-2.4.3-3s2.2.7,2.8,2l6,13v2.6c-10.1-3.2-20-7.1-28.9-13.5Z" transform="translate(-860.2 -772)" style="fill: #83b8dd"/>
    <path d="M952.7,922c1.8-.2,2.7.7,2.5,2.7A6,6,0,0,1,952.7,922Z" transform="translate(-860.2 -772)" style="fill: #83b8dd"/>
    <path d="M1090.8,875.5l.9-1A1.1,1.1,0,0,1,1090.8,875.5Z" transform="translate(-860.2 -772)" style="fill: #454e91"/>
    <path d="M1092.4,873.7l.9-1A.9.9,0,0,1,1092.4,873.7Z" transform="translate(-860.2 -772)" style="fill: #454e91"/>
    <path d="M1090,876.4a.9.9,0,0,1,.8-1A.9.9,0,0,1,1090,876.4Z" transform="translate(-860.2 -772)" style="fill: #454e91"/>
    <path d="M1091.6,874.6l.9-1A1.1,1.1,0,0,1,1091.6,874.6Z" transform="translate(-860.2 -772)" style="fill: #454e91"/>
    <path d="M921.3,866.8a9.9,9.9,0,0,1-.2,1.7h-4.8l-6.1-3.3C914.8,864.5,917.9,866.9,921.3,866.8Z" transform="translate(-860.2 -772)" style="fill: #aebcec"/>
    <path d="M1071.9,853.1c-.2-7.7-.2-7.7-7.4-10.5l13.1-1.9c1.6.8,4.3-1.6,5,1.8-1,2.2-3.6,2.7-4.3,5.1C1075.3,848.3,1074.6,852,1071.9,853.1Z" transform="translate(-860.2 -772)" style="fill: #6279b1"/>
    <path d="M1071.9,853.1c2.7-1.1,3.4-4.8,6.4-5.5l.3,3.2c-1.2,2.9-3.6,4.5-5.8,6.2-.5-1.2-1.6-1-2.6-1.1V855Z" transform="translate(-860.2 -772)" style="fill: #aebcec"/>
    <path d="M1021.4,815.8c.1-5.1.1-10.2.1-15.3h.8c1.1,5,.7,10.1.7,15.2Z" transform="translate(-860.2 -772)" style="fill: #6279b1"/>
    <path d="M882.4,918.4a1.4,1.4,0,0,1-1.7.9A2,2,0,0,1,882.4,918.4Z" transform="translate(-860.2 -772)" style="fill: #6279b1"/>
    <path d="M1018.8,836.3c.5-1.8,1.1-3.6,1.7-5.5,2.1,2.4.2,4.9.2,7.4a4.7,4.7,0,0,1-2.5,3.4C1017.5,839.7,1018.8,838.1,1018.8,836.3Z" transform="translate(-860.2 -772)" style="fill: #454e91"/>
    <path d="M1020.6,829.1l.8-1.3Z" transform="translate(-860.2 -772)" style="fill: #454e91"/>
    <path d="M1002.3,906.9c.4,1.1-.8,3.2,1.6,3.3-.1.4-.1.9-.2,1.4l-.4-.3c-2.9,1.3-2,3.3-.9,5.3h.3l-.3,2.6c-2.9,4.8-4.2,10.4-7.4,15-.6.9-1.1,1.9-1.7,2.9l-2.5-.9a13.5,13.5,0,0,0-.2-3.5c-.6-1.9-.3-2.7,1.7-2.8,4.2-.1,5.1-3.9,5.5-7s-.6-8.9-1.9-13.1c-.2-.6-.7-1.1-.6-1.6.1-2.2-2.7-4.9.1-6.3s3.2,1.7,4,3.6S1001.2,906.8,1002.3,906.9Z" transform="translate(-860.2 -772)" style="fill: #83b8dd"/>
    <path d="M990.8,936.3l2.5.9c-.5,4.9-3.5,4.5-6.7,3.6H985v-2.6C987.1,938.1,989.3,938.6,990.8,936.3Z" transform="translate(-860.2 -772)" style="fill: #8e9bd1"/>
    <path d="M1070.2,855v.9c-9.6,6.5-19.1,13.1-30,17a11.7,11.7,0,0,1-6.4.7c3.7-2.7,7.8-4.3,11.9-6,1.2-.5,2.6-.5,4.1-2.7-3.3,0-5.8-.1-8.3,0s-3.7-.4-3.9-2.4,2-1.6,3.2-2a48.7,48.7,0,0,1,9.2-2c4.6-.8,9.1-1.7,13.4-3.9C1065.2,853.7,1067.9,854.8,1070.2,855Z" transform="translate(-860.2 -772)" style="fill: #83b8dd"/>
    <path d="M1054.5,849.8c-7.8,3.3-15.6,3.3-23.4,3.8C1032.4,850,1047.8,847.3,1054.5,849.8Z" transform="translate(-860.2 -772)" style="fill: #83b8dd"/>
    <path d="M1030.5,873.8c-2.4,3.2-5.4,1.8-8.2,1v-1C1025,873.2,1027.7,871.8,1030.5,873.8Z" transform="translate(-860.2 -772)" style="fill: #83b8dd"/>
    <path d="M976.6,870.8c1.7-2,3.3-4.1,4.9-6.1l1-.7c1.5.5,3.3,2.2,4.2-.9h2.4c.6.9,1.1.9,1.7,0s2.6-.5,3.5,1.2,1.6,4.6-.2,6.7-3,2.5-3.2,4.8c-2.9,4.7-7.7,5.9-12.3,7.4-1.3-2.7-5,0-6.1-3.2C973.9,876.9,975.3,873.9,976.6,870.8Z" transform="translate(-860.2 -772)" style="fill: #e5e8ee"/>
    <path d="M972.5,880c1.1,3.2,4.8.5,6.1,3.2-2.8,2.5-6.1,2.3-9.4,1.9.1-.8,0-1.8.8-2.4S971.5,880.7,972.5,880Z" transform="translate(-860.2 -772)" style="fill: #d2d6eb"/>
    <path d="M960.3,890a3.4,3.4,0,0,1,3.2-3.7A4.1,4.1,0,0,1,960.3,890Z" transform="translate(-860.2 -772)" style="fill: #d2d6eb"/>
    <path d="M985.1,856.5l8.1,1v2.1l-6.5-.9c-1.7-.4-2.6,1.7-4.1,1.7a4.8,4.8,0,0,1,.8-3.7Z" transform="translate(-860.2 -772)" style="fill: #6279b1"/>
    <path d="M994.9,860.4c-.8.3-1.4.1-1.7-.9S994.6,859.6,994.9,860.4Z" transform="translate(-860.2 -772)" style="fill: #6279b1"/>
    <path d="M1002.4,916.6c-1.1-2-2-4,.9-5.3a1.5,1.5,0,0,1-.1.7C1002.9,913.6,1002.6,915.1,1002.4,916.6Z" transform="translate(-860.2 -772)" style="fill: #70addd"/>
    <path d="M1003.2,912a1.5,1.5,0,0,0,.1-.7l.4.3C1003.6,911.8,1003.5,912,1003.2,912Z" transform="translate(-860.2 -772)" style="fill: #6279b1"/>
    <path d="M982.6,860.4c1.5,0,2.4-2.1,4.1-1.7-.3,2.2,2.5,2.3,2.4,4.4h-2.4c-1.7-1-3.2-1.5-4.2.9l-1,.7A10.5,10.5,0,0,1,982.6,860.4Z" transform="translate(-860.2 -772)" style="fill: #aebcec"/>
    <path d="M990.8,863.1c-.6.9-1.1.9-1.7,0Z" transform="translate(-860.2 -772)" style="fill: #aebcec"/>
    <path d="M963.7,834.5c7-1.9,11.2,4.4,15.8,9.9,1.2,1.5,1.2,2.7-.8,4.6s-7.9,3.2-9.3,8.3c-.3,1.4-2.5,1.5-4.1.9s-4.6-1.1-5.5,2.8-2.9,2.8-4.6,1.2a11.3,11.3,0,0,0-5.7-3.2c-5.3-1.1-3.3-5.3-3.4-8.8C946,842.9,957.2,833.8,963.7,834.5Z" transform="translate(-860.2 -772)" style="fill: #eee6bd"/>
    <path d="M972.5,880c-1,.7-1.1,2.4-2.5,2.7-1-2.4-1.7-5-4.2-6.2l10.8-5.7C975.3,873.9,973.9,876.9,972.5,880Z" transform="translate(-860.2 -772)" style="fill: #aebcec"/>
    <path d="M933.6,867.8a3.7,3.7,0,0,0,.1-1.1l10.5-1.8c2.6,1.6,6,1.8,7.3,5.4h-1.2C945.1,866.9,939.2,868.8,933.6,867.8Z" transform="translate(-860.2 -772)" style="fill: #6279b1"/>
    <path d="M950.3,870.2h1.2c1.3.1,2.4.4,2.9,1.9s-3.1,3.7-2.5,6.5-3.2,3.2-3.6,5.8l-1.4.9v-3.6l.8-.9c1.6-1.2,3.6-2.2,1.5-4.7a1.1,1.1,0,0,1,.3-1.8C951.6,873.3,950.3,871.6,950.3,870.2Z" transform="translate(-860.2 -772)" style="fill: #8e9bd1"/>
    <path d="M992.4,839.9v2.7c-2,1.7-3.1,4.2-4.3,6.7s-1.2,2.9-2.9,3.3c-.2-1.6-.5-3.2-.8-4.8,3.3-1.7,4.8-4.8,6.4-8Z" transform="translate(-860.2 -772)" style="fill: #8e9bd1"/>
    <path d="M962.7,876.4c-.2,4.6-3.2,6.1-6.7,7.2h0c.6-2.1,1.1-4.2,1.7-6.3l2.4-1.4C961.1,875.7,962,875.5,962.7,876.4Z" transform="translate(-860.2 -772)" style="fill: #d2d6eb"/>
    <path d="M951.9,878.7c-.6-2.8,1.8-4.3,2.5-6.5,1.3-.2,1.7.7,1.9,1.8l-2.1,3.1Z" transform="translate(-860.2 -772)" style="fill: #6279b1"/>
    <path d="M954.2,877.1l2.1-3.1a3.3,3.3,0,0,1,3.8,1.9l-2.4,1.4Z" transform="translate(-860.2 -772)" style="fill: #aebcec"/>
    <path d="M985.1,856.5l-1.7.2a1.5,1.5,0,0,1,.9-1.7A10.9,10.9,0,0,1,985.1,856.5Z" transform="translate(-860.2 -772)" style="fill: #8e9bd1"/>
    <path d="M950.3,870.2c0,1.4,1.3,3.1-.8,4.2a1.1,1.1,0,0,0-.3,1.8c2.1,2.5.1,3.5-1.5,4.7-2-2.9-4.9-5-6.3-8.7-.8-2-4-1.9-6.4-2.1s-3.7,1.2-4.7-1.3c1.1-.5,2.4.1,3.3-1C939.2,868.8,945.1,866.9,950.3,870.2Z" transform="translate(-860.2 -772)" style="fill: #aebcec"/>
    <path d="M956,883.6l-.2.4.2-.4Z" transform="translate(-860.2 -772)" style="fill: #d2d6eb"/>
    <path d="M982.5,864c1-2.4,2.5-1.9,4.2-.9C985.8,866.2,984,864.5,982.5,864Z" transform="translate(-860.2 -772)" style="fill: #d2d6eb"/>
  </g>
</svg>