<svg xmlns="http://www.w3.org/2000/svg" viewBox="0 0 342.2 200">
  <path d="M401,1032h-8c-10.9-2.4-20.3-7.9-29.3-14.2-26.6-18.6-53.5-36.8-76.4-60.1a27.3,27.3,0,0,0-2.6-1.8c-1.6,7.7-6.8,9.2-13.2,9.1-10.1-.1-20.3.1-30.5-.2-2.9,0-5.8-1.1-8.7-1.7s-5.5-3.3-5.5-7.7c.2-36.2.4-72.3-.1-108.4,0-7.7.5-13.5,9.3-15h4c7.4,1,14.8,1.9,22.1,3.1,12.4,2,24.9,4,37.1,6.7a20,20,0,0,1,10.5,6.1c2.1,2.3,2,6.5,2.9,10.2,17.8,0,36.1.1,54.4-.1a8.6,8.6,0,0,0,4.5-1.7c17.5-12.3,35.9-12.8,55.3-4.7,13.9,5.7,28,10.9,42.6,16.5-.1-7.6,5-9.7,10.7-11.5,23.9-7.6,48.5-10.8,73.6-11.2,5.7-.1,10.8.8,15.3,4.6V974a37.9,37.9,0,0,1-19.6,4.1c-8.5-.4-17,0-25.5,0s-11.1-1.6-13.4-10c-7.8,2.5-11.5,5.7-11.8,11.7-.4,10.5-7,15.4-15.5,19.2a53.7,53.7,0,0,0-12.3,7.2c-5.9,4.8-12.5,7.2-19.8,8.8a24.8,24.8,0,0,0-10.3,5c-5.6,4.9-11.6,8.8-19.2,8S407.7,1030,401,1032ZM351.8,871.2c-14.1,0-26.9-.1-39.7.1-1.1,0-2.8,1.6-3.2,2.8-6.1,20.6-12.2,41.2-17.8,61.9-.7,2.5.4,6.5,2.1,8.5,5,5.8,10.3,11.5,16.3,16.1,23.2,17.6,46.5,35.1,70.1,52,4.9,3.5,11.6,4.7,17.5,6.6.9.3,2.7-.7,3.3-1.6s-.1-2.4-.7-3.3a9.6,9.6,0,0,0-2.6-2.3c-8-7-16.2-13.9-24.1-21-4.9-4.4-4.1-10.3,1.6-11.4,2.5-.5,6.1,1.2,8.2,3.1,10.4,9.3,20.4,19.2,30.7,28.6,7.1,6.5,12.6,5.5,18.2-2.3,1.5-2.2,1.7-3.6-.5-5.4q-6-5-11.7-10.2c-6.5-5.7-13-11.5-19.3-17.4-2.6-2.5-2.8-5.5,0-8.3s5.5-3.1,8.5-.6,5.2,4.6,7.7,7c8.8,8.2,17.3,16.6,26.4,24.5,6.3,5.6,12.3,4.4,17.5-2.2,1.9-2.5,2.1-4.1-.5-6.2-4.6-3.9-9-7.9-13.5-11.9-7.9-7.1-16-14.1-23.7-21.5a8.9,8.9,0,0,1-2.2-7c.4-1.6,3.3-3.9,5-3.9s5.1,1.3,6.9,3c12.4,11.4,24.5,23.1,36.7,34.7,4.9,4.6,9.9,4.7,14.1.5s3.5-7.6-1.3-13c-21.9-24.3-49.7-41.5-74.7-62.2-3.5-2.9-7.5-2.8-11.6-.2-6.7,4.2-13.7,8.1-20.5,12.3a36,36,0,0,1-24.4,4.9c-14.2-2-21.1-13.9-15.6-27.1,2-4.8,4.9-9.4,7.6-13.9S348.3,876.4,351.8,871.2ZM400,857.7c-5,1.8-10.5,2.9-15.1,5.5a86.5,86.5,0,0,0-27.4,22.9A93.9,93.9,0,0,0,347.1,904c-2.2,4.9-.1,7.7,5.1,9.2,7.5,2,13.8-.3,19.9-4.8a166.4,166.4,0,0,1,18.2-11.8c7.7-4.2,15.8-3.9,23.1,1.4s12,9.3,18,14.1l60.2,47.5c1,.7,2.3,1.6,3.4,1.6,6.2-.3,10.9-7.5,8.7-13.4-7.3-19-14.8-37.9-22-56.9a13.3,13.3,0,0,0-8.1-8.1c-18.9-7.1-37.7-14.6-56.7-21.5C411.8,859.4,406,858.9,400,857.7Zm87.4,10.1c.7,2.1,1.1,3.8,1.7,5.4,10.4,27.4,21.1,54.7,31.1,82.2,2.6,7.5,6.2,10.8,14.2,10.1s13.5-.2,20.2-.2V857.9C531.6,858.3,509.5,861,487.4,867.8ZM241.1,843.9V952.1c8.3,0,16.2-.2,24.1,0,4.7.2,6.8-1.7,8.1-6.2,5-18.8,10.4-37.5,15.7-56.3,2.6-9.2,5.1-18.4,7.6-27.7,1.8-6.8.7-8.6-6.2-9.8l-10.3-1.6Z" transform="translate(-226.7 -832)"/>
</svg>
