<svg xmlns="http://www.w3.org/2000/svg" viewBox="0 0 300.9 300.4">
  <g>
    <path d="M1157.7,857.9c17.6-1.5,27.3,2.9,34.2,15.6,1.2,2.2,1.3,4.2,5.3,2.5,7.6-3.1,12.1,1.7,15,6.4,4.1,6.4,6.8,13.4,10.1,20.2,2.6,5.1,2.1,9.9-1.7,14.4-5.3,1-7.5-4-11.9-4.7-.9-.1-1.5-1.4-2.6-.5.7.6,1.3,1.3,1.9,1.9,1.7,3.2,5,6,2.4,9.9a3.7,3.7,0,0,1-2.5.5c-2.7-.9-4.7-3-7.7-3.6-3.4-5.1-9.4-7.6-14.4-11.2-.2-2.3,1.4-4.4,1-6.7a9.8,9.8,0,0,1,.6-2.3c3.6-6,2.2-9.4-6.2-9.3-3.4.8-2.3,5-5.9,5.6-4.4-1.3-7.5-4.4-8.3-7.9-1.6-7.7-6.6-14.2-8.9-21.6C1157.1,864,1158.1,861,1157.7,857.9Z" transform="translate(-983.1 -857.6)" style="fill: #a3b789"/>
    <path d="M1058.7,1059.4a99.6,99.6,0,0,0-26-18.5,8,8,0,0,0-3.3-1.7c-3.2-1.1-8.1-1.5-8.6-4.4s5.3-4,8-6.1c7.6-3,15-6.8,23.8-7,18.2.6,35.1-6.2,53-7.5,6.3,5.1,5.1,11.4,3.8,17.8-2.4,4.1-7.7-2.4-11.2,2.8-2.2,3.3-9.7,2.8-15,3.1-8,.4-15.9-.5-23.9.6-2.4.4-5.9-1-7,1.6s2.2,3.1,4,4C1065.3,1048.3,1060.4,1054,1058.7,1059.4Z" transform="translate(-983.1 -857.6)" style="fill: #385b13"/>
    <path d="M1171.9,1020.3c10.3,3.7,18.5,9.5,24.4,17.7s6.2,14.4.5,21.6c-1.8,2.2-4.1,4.5-1.7,6.8,8.6,8.3,14.4,19.2,27.2,23.9-1.5,2.8-4.2,3.5-7.4,3-11.7-9-20.5-20.2-30.5-30.5-2.6-2.6-4.8-5.5-8.7-6.9s-5.7-3.6-8-6a5.5,5.5,0,0,1-1.2-2.1c-.8-3.4-1-6.6,2.5-9.1,3.7,1.8,3.3,5.4,5.4,6.8a51.8,51.8,0,0,0-8.5-12.4,20,20,0,0,1-3.1-6.2C1161.2,1020.6,1163.5,1019,1171.9,1020.3Z" transform="translate(-983.1 -857.6)" style="fill: #456c32"/>
    <path d="M1255.7,1118.7c4,8.7,14.5,12.6,20,20.3,1.8,2.7,4.2,5.1,5.8,7.9s4.5,7.2,0,10-8.4,0-11.8-2.1-6.4-5-9.5-7.5c-8.9-8.7-20.3-15.3-28-25-3.9-4.9-7.1-9.3.9-13.4a9.5,9.5,0,0,1,2.9-.2C1243,1111.4,1246.7,1118.9,1255.7,1118.7Z" transform="translate(-983.1 -857.6)" style="fill: #4a6a26"/>
    <path d="M1036.5,900l30-9.2c2.6,2.2,1.2,4.7.6,7.1-4,8.4,2.7,14.4,6.2,21.2-.3,3.8-3.6,6.8-3.9,10.6s-3.1,4-6.4,3.5-5.5-5.2-8.4-7.6-5.6-2.9-7.3-5.3a75.1,75.1,0,0,0-8.1-11.3C1037,906.3,1034,903.7,1036.5,900Z" transform="translate(-983.1 -857.6)" style="fill: #84a883"/>
    <path d="M1045.2,999.7c-7.3,9.8-21.1,9.5-30.3-1.6-3.9-4.7-7.2-7.8-14.3-9.2-10.4-2.2-18-13.4-17.4-23,.3-3.9-1.1-8,1.4-11.7a72.8,72.8,0,0,0,17.8,21.9c1.7,1.3,2.9,4.2,6.3,2.4s3.2-4.8,6.7-5.4a3.8,3.8,0,0,1,3,2.4,9.7,9.7,0,0,1,.1,3.8c-2.2,12.9-.8,14.4,13.9,15.8C1037.1,995.6,1042.7,994.6,1045.2,999.7Z" transform="translate(-983.1 -857.6)" style="fill: #729164"/>
    <path d="M1140.4,879c4.1,2.8,8.4,5.3,10.3,9.8,1.6,6.2-4.3,7.8-8.5,10.4-7.2,1.1-14.2-.6-21.1-1.7s-10.1-6.4-8.8-12.9c6.1-10.1,12.4-11.9,23.4-6.6C1137.3,878.7,1139,878.3,1140.4,879Z" transform="translate(-983.1 -857.6)" style="fill: #faf9e4"/>
    <path d="M1186.3,908.2c7.4,2.1,13.3,5.5,15.7,12.3,2.8,2.2,2.5,4.5.2,6.8s-6.2-4.1-8.7.6c-10.9.7-12.1-7.2-15.5-13-.9-4.4-3.4-8.2-5.8-12.1-5.4-4.9-8.8-10.8-11.7-17l-2.2-3.3A44.1,44.1,0,0,1,1155,872c-.7-2.8-.8-6.6,5.2-5,7.9,8.7,5.9,21.5,16,29.3,3.8,1.5,5.1,4.7,7.2,7.4S1185.7,906.5,1186.3,908.2Z" transform="translate(-983.1 -857.6)" style="fill: #d9e1bf"/>
    <path d="M1170.9,934.2c-11.5,3.1-2.3,10.4-4.3,15.4-4.1,1-4.2-2.4-5.9-4a19.7,19.7,0,0,0-14.5-10c-4.1-1.2-7.8-1.7-9,3.2-.5,2-1.4,3.8-3.9,4.6-5-.5-10-2.5-15,0a4.3,4.3,0,0,1-2.5-1c-1.5-3.3,1-5.5,2.7-7.9,1.1-.7-.5-.3.7-.6,10.7-2.6,11.8-9.4,10.5-17.4.2-3.2-.7-6.5-.2-9.7a13.5,13.5,0,0,1,9.3-7.7c2.5.3,2.9,1.9,2.8,3.7-4.3,10.1,3.6,23.5,16.7,28.1C1162.3,932.4,1167.6,930.4,1170.9,934.2Z" transform="translate(-983.1 -857.6)" style="fill: #b7c386"/>
    <path d="M1106.6,1015c-17.9,3.2-35.2,9.3-54,6.7,12.4-2.4,24.7-5.1,37.2-7.2a213.7,213.7,0,0,1,38.8-3c-8.5-9.2-17.3-15.8-26.3-22.3a3.6,3.6,0,0,1,2.8-2.5c9.6,2.7,15.7,9.1,22.3,15,.8.7.6,2,2.1,2.1a3,3,0,0,1,1.1-3.1c5.7-.1,7.9,3.6,10.3,7s6.7,9.3-1.4,13c-8.1-2.1-16.2-3.8-24.8-3.3A12.2,12.2,0,0,1,1106.6,1015Z" transform="translate(-983.1 -857.6)" style="fill: #2b4616"/>
    <path d="M1036.5,900c2.2,7.6,11.4,11.9,12.7,20-.3,3.3-6,3-6,6.6a7.4,7.4,0,0,1-2.3,3,11.4,11.4,0,0,1-2.6.9c-3.3.3-5.8-.7-7.6-3.1-6.1-8.5-9.9-17.9-13.8-27.2A67.8,67.8,0,0,1,1036.5,900Z" transform="translate(-983.1 -857.6)" style="fill: #f1f4dd"/>
    <path d="M1171.9,1020.3c-7.2-.8-9,1.7-6.1,7.3,1,2,1.7,4.1,2.5,6.2l-1.4.4c-4-.8-5.9-3.7-7.5-6.4-4.9-8.3-11.2-16-14.5-25.1a7.3,7.3,0,0,1,.7-2.4c3.4-8,2.6-15.9.1-23.9a5.8,5.8,0,0,1-.2-2.6c3.2-4.9,6.8-9.4,14.5-9.1.1,12.3.7,24.5.1,36.7C1159.7,1010.1,1161.3,1017,1171.9,1020.3Z" transform="translate(-983.1 -857.6)" style="fill: #2d4c13"/>
    <path d="M1200.5,1098.9c-8.5-9.8-19.4-17.2-32.4-22.2-2.1-1.7-2.2-3.8-1.8-6a5.7,5.7,0,0,1,1.2-2.3c3.7-2.1,6.5.4,9.6,1.5-2.1-1.7-3.4-3.7-5-5.6-3.2-4.9-9.3-8.3-10.2-14.4,1.9-2.2,4.1-2.2,6.4-.5h.1c11.5,11,21.7,22.9,31.9,34.9,2.4,2.9,6,5.6,4.3,9.9A8.1,8.1,0,0,1,1200.5,1098.9Z" transform="translate(-983.1 -857.6)" style="fill: #233f11"/>
    <path d="M1170.9,934.2c-4.8-.9-10.2,1.2-14.6-1.9a6.4,6.4,0,0,1,3.1-2.5c9.1-7,10-12.2,3.8-22.7-2-3.2-6.2-6-2.6-10-6.2,1.3-11.9,3.9-18.2.8,1.5-3.9,7.7-4.7,8.3-9.1,2.5,1.5,1.4,6.8,6.8,5.3s3.5-5.1,3-8.3c6.1,4.2,8.1,11.1,13.6,15.8-.6,5.1,4.8,8.6,5.2,13.5,2.4,5.2.1,9.7-2.8,14A9.4,9.4,0,0,1,1170.9,934.2Z" transform="translate(-983.1 -857.6)" style="fill: #c4cfab"/>
    <path d="M1058.7,1059.4c-.5-2.2-2.3-5.2-1.3-6.4,3.9-4.4.8-5.6-3.1-7.3s-9-2.4-6.7-6.8,6.9-3.7,11.2-1.7c3.7.2,7.9-1.1,10.4,2.7-1.6,6.3,2.6,11.5,5.1,16.7,4.6,9,5.2,8.8-5.7,13.4A39.9,39.9,0,0,1,1058.7,1059.4Z" transform="translate(-983.1 -857.6)" style="fill: #46691b"/>
    <path d="M1068.6,1070c1.7-3.2,3.7-6.1,9.3-5.8-9.4-4.5-7.1-14-13.5-19.6-2.5-2.2,1.5-3.5,4.2-3.8,5.7-1.5,9.2,1.3,12.6,4.6a4.9,4.9,0,0,1,.2,2.4c-1.8,3.7-1.8,7.6,1.4,10.4s3.4,7.3,6.6,10.2a5.8,5.8,0,0,1,1.7,1.8c-1.4,4.3-5.3,7.2-8.6,10.3C1076.7,1078.1,1072.6,1074.1,1068.6,1070Z" transform="translate(-983.1 -857.6)" style="fill: #5b7e27"/>
    <path d="M1045.2,999.7c-4.9-3.1-10.8-1.9-16.2-2.5-15-1.6-17.7-5.2-12.3-18.5,3.1,2.1,5.3,4.9,8.5,6.9s8.3,3.6,13.1.5,12.1-3.5,18.3-.5C1055.1,991.7,1050.2,995.7,1045.2,999.7Z" transform="translate(-983.1 -857.6)" style="fill: #84a172"/>
    <path d="M1234.3,1109.4c-5.2,3.7-5.2,7.2-.3,11.3,7.2,6.2,12.5,13.9,21.4,18.6,3.2,1.7,5.1,4.4,4.8,8-12.7-2.4-22.2-8.1-28.3-18.1-1.8-2.9-4.9-5.3-7.4-7.8a25.1,25.1,0,0,1,2.6-16.7,4.2,4.2,0,0,1,2.7-1.2C1233.7,1104.1,1235.1,1106.2,1234.3,1109.4Z" transform="translate(-983.1 -857.6)" style="fill: #29450f"/>
    <path d="M998.8,908.1c2.7-4.9,5.5-3,8.2-.1a12.2,12.2,0,0,1,5.8,8.2c.7,3.4,1.3,6.9,3.6,9.9a7.6,7.6,0,0,1,1.5,4.5c-3.9,3.2-7.3,6.7-11.8,9.3a8.5,8.5,0,0,1-5.6-2c-3.5-4.3-5.1-9.2-3.7-14.3A81.2,81.2,0,0,0,998.8,908.1Z" transform="translate(-983.1 -857.6)" style="fill: #ccd7b3"/>
    <path d="M1082.5,1080.5c-.7-5.5,4.4-7.6,8.1-10.5s5.9-3.9,10-3.6c2.1.3,4,1,4.6,3.1s-1.7,4.3-2.1,6.6c-1.1,5.9,1.2,9.7,8.1,11.8s15.9.6,23.2,3.9a1.7,1.7,0,0,1,.1,2.3C1114.9,1096,1097.7,1090.9,1082.5,1080.5Z" transform="translate(-983.1 -857.6)" style="fill: #7c9f3d"/>
    <path d="M1094.4,987c-11.4-.9-23.2-.6-32-8.8-.4-.4-2.3.4-3.5.6l-1.3-.5a12.3,12.3,0,0,1-4-10.2,4.2,4.2,0,0,1,2.9-2.6,8.9,8.9,0,0,1,4.3.1c8.3,3.7,16.1,8.2,24.4,11.7,3.2,1.6,6.7,2.7,9.5,4.7S1098.6,985.5,1094.4,987Z" transform="translate(-983.1 -857.6)" style="fill: #799d7b"/>
    <path d="M1162.3,944.4l4.3,5.2c1.6,5.3-1.9,8.8-5.9,12.1-9.6,6.6-20,11.7-32.3,13.6a18.3,18.3,0,0,1-9-.2c-3.5-1.5-6.8-3.6-5.5-7.1s6-2.2,9.4-2c12.7.6,22.1-5.2,30.8-12C1156.8,950.8,1157.4,946.2,1162.3,944.4Z" transform="translate(-983.1 -857.6)" style="fill: #bec69e"/>
    <path d="M1140.4,879c-2.4.5-4.1,6.2-7.4-.4-2.2-4.4-12.3-1.2-18.5,5.5-2.8,3.2,1,7.5-2.3,10.7-9.5-3.4-8-9.8-6-16.3C1115.3,869,1133.5,869.3,1140.4,879Z" transform="translate(-983.1 -857.6)" style="fill: #d3d9a8"/>
    <path d="M1106.2,878.5c0,6,1.3,11.5,6.2,16,3.2.3,4.6,2.3,6,4.4,1.3,3.7,5.7,5.8,6.8,9.7-.3,2.2-1.8,3.5-4.4,3.7s-5.8.2-8.1,2.1-4.9,2-5.4,4.6a11.6,11.6,0,0,1-1.8,4.3c-4.5,2.2-5.4-1.7-7.7-3.3a7.7,7.7,0,0,1-1.4-2.1c-1.3-4.4,2.9-6.1,5.9-7.8,6.4-3.6,7.1-7.7,2.9-12.8-2.4-3.4-4.7-6.8-5.8-10.7a3.7,3.7,0,0,1,1-2.2C1104.7,884.1,1103.6,880,1106.2,878.5Z" transform="translate(-983.1 -857.6)" style="fill: #b9c47c"/>
    <path d="M1010.7,980.3c-1.1,1.8-2.9,4.6-4.9,2.4-7.9-9-21.2-15.1-21.2-28.5-.1-4.3,2.3-7.4,6.1-9.9a2.7,2.7,0,0,1,2.6-.4c4.6,3.2,1,6.5-.1,9.8.6,6.9,5.9,11.7,10.6,16.6C1006.7,973.4,1009.7,976.3,1010.7,980.3Z" transform="translate(-983.1 -857.6)" style="fill: #849c71"/>
    <path d="M993.2,944.5l-2.5-.2c-3-13,5.2-24.2,8.1-36.2,4.5,8.2-2.7,16.9,1.6,25,.8,1.5,1.4,3.1,2.1,4.6,4.3,6.6-1.8,6.4-6.3,7.3A6,6,0,0,1,993.2,944.5Z" transform="translate(-983.1 -857.6)" style="fill: #7e8f5d"/>
    <path d="M1228.5,1104.8c-.7,5.7-1.4,11.3-4,16.6-3.5-2.7-6.6-5.6-6.4-10.1-1.5-6.5-7-9.1-13.8-10.3l-3.8-2.1c.6-1.5,1.3-3.1,1.9-4.7s3.9-3.3,7.1-2.8a5.7,5.7,0,0,1,2.3,1.2c3.8,3,11,2.6,12,8.4,1.8-.7,3.1-3.9,5.6-.8C1230.2,1101.9,1229.4,1103.4,1228.5,1104.8Z" transform="translate(-983.1 -857.6)" style="fill: #786d47"/>
    <path d="M1016.9,900.2c3.9,1.7,6.2,2.9,7.1,8.1,1.4,7.6,4.2,16.7,14.7,20.5-1.3,5.1-5.6,4-9.1,2.8-9.1-3.2-17.2-18.3-15-27.2C1014.4,902.6,1014.5,900.9,1016.9,900.2Z" transform="translate(-983.1 -857.6)" style="fill: #d0d4b3"/>
    <path d="M1100.4,884.4l-.4,1.8c-2.3,1.7-4.9,1-7.4.9-7.6-.1-13,2.9-16.2,8.7-6,8.1-7.2,8.3-11.7,2.1l1.8-7.1C1074.4,880,1085.1,878,1100.4,884.4Z" transform="translate(-983.1 -857.6)" style="fill: #d1d5a8"/>
    <path d="M1208.2,923.7c3.7-3.6-1.5-5.7-2-8.7,8-2.8,9.7,4.4,14.4,6.8,5.8,6,8.3,12.3,1.7,19.2C1214,937.4,1208.5,932.2,1208.2,923.7Z" transform="translate(-983.1 -857.6)" style="fill: #9cb28c"/>
    <path d="M1134.5,1094.1a8.6,8.6,0,0,1,.1-1.6c5.3-3.3,8.4-7.3,5-13.2.2-2.1,1.6-3.8,2.9-5.5s4-4.6,7.9-4.3c3.7,2.1,6.6,5.1,10.5,7,1.7,1,4.1.8,5.6,2.2C1160.1,1090.4,1148.6,1094.3,1134.5,1094.1Z" transform="translate(-983.1 -857.6)" style="fill: #5e8028"/>
    <path d="M1014.6,904.4c-.4,10.5,7.8,17.3,14.7,24.5,2.5,2.8,6.3,2.4,9.4-.1h1.8c1.8,6.4.5,8-6,6.8s-14.6-3.2-19.9-8.4c-3.6-2.9-4.1-6.7-3.6-10.7s-1.1-5.9,1.6-8.4Z" transform="translate(-983.1 -857.6)" style="fill: #ccd0a7"/>
    <path d="M1228.5,1104.8c-.2-1.9-.4-3.9-.5-5.9-1.7-1.7-1.5-3.3.2-4.9,11.2,6,25.6,9.4,26.1,24.1-6.9,1-9-4.6-13.3-7.2s-4.8-7.1-10.7-6.5A5.8,5.8,0,0,0,1228.5,1104.8Z" transform="translate(-983.1 -857.6)" style="fill: #695b3f"/>
    <path d="M1056.6,985.6c-7.2.6-14.2-.4-20.9,4.5s-16.8-3.7-19-11.4c.1-1.1.1-2.2.2-3.3a2,2,0,0,1,2.3-.3c1.8,1.6,2,4,4,5.5a13.2,13.2,0,0,0,8.2,2.7,41,41,0,0,0,9.3-1.4c6,0,10.3-7.1,17.3-3.2h.9A9.6,9.6,0,0,1,1056.6,985.6Z" transform="translate(-983.1 -857.6)" style="fill: #a3b890"/>
    <path d="M1094.4,987c.4-6-7.6-4.6-9.9-8.2s-12.3-5.2-9.3-12.8c10.4-.3,16.8,5.2,22.7,11.5,1.5,3.7,8.2,4.8,6.6,9.9l-2.2,1.8C1100,987.6,1097.3,987.2,1094.4,987Z" transform="translate(-983.1 -857.6)" style="fill: #395e24"/>
    <path d="M1208.2,923.7c3.5,6.5,9.6,11.4,14.1,17.3-3.9,11.8-8.4.2-12.6.2-1.4-4.4-4.9-8-5.9-12.5-.6-2.5-2.4-6.9,4.4-5Z" transform="translate(-983.1 -857.6)" style="fill: #87a079"/>
    <path d="M1208.2,923.7c-6.5,1.2-1.6,4.1-1.3,6.3.6,3.8,7.3,6.5,2.8,11.2-4.5-1.1-7.2-3.9-9.4-7.3s-2-4.2-.5-6.4c3.1-1.8,2.1-4.6,2.2-7C1206.5,918.2,1206.4,922.3,1208.2,923.7Z" transform="translate(-983.1 -857.6)" style="fill: #9cb28c"/>
    <path d="M1128.2,973.3c11.9-1.6,20.9-9.4,32.5-11.6-.2,1-.5,2-.7,3-5.4,2-8.7,6.2-13.3,9C1140.4,976.8,1134.2,977.5,1128.2,973.3Z" transform="translate(-983.1 -857.6)" style="fill: #9bb482"/>
    <path d="M1160.2,867c-3.7.3-4.1,2.3-2.9,4.8s.9,7.1,1,10.7c-9.5-13.5-9.5-15.5-.6-24.6C1161.6,860.3,1160.1,863.8,1160.2,867Z" transform="translate(-983.1 -857.6)" style="fill: #cacea3"/>
    <path d="M1220.6,921.8c-6.6.6-8.1-6.8-14.4-6.8l-6.3-6.4c9-.9,14.8,3.7,20.7,8.4Z" transform="translate(-983.1 -857.6)" style="fill: #8aa374"/>
    <path d="M1176.5,929.1c.6-5.2,1.2-10.5,1.7-15.8a1.4,1.4,0,0,1,2,.1c4.1,5,3,13.9,14,13.6a1.3,1.3,0,0,1,.5,1.2c-.2.4-.3.6-.5.6C1188.4,931.3,1182.3,924.5,1176.5,929.1Z" transform="translate(-983.1 -857.6)" style="fill: #92a677"/>
    <path d="M1224.3,1106c-3.9-5-8.9-9.2-13.8-13.4a2.9,2.9,0,0,1,3.8-.5l8-1.8c1.5.4,3.3.3,3.4,2.2C1224.6,1097,1224.8,1101.5,1224.3,1106Z" transform="translate(-983.1 -857.6)" style="fill: #9b8c68"/>
    <path d="M1028.8,1028.7l-6.6,5.7c2.4,3.6,9,1.9,10.5,6.5-1.9-.4-4.1-.3-5.6-1.1-3.7-2.2-11.4-1.5-10.9-5.4S1023.5,1029,1028.8,1028.7Z" transform="translate(-983.1 -857.6)" style="fill: #283d17"/>
    <path d="M1242.5,1109.5l11.8,8.6,1.4.6c-11.2,4.6-14-4.7-19.8-9C1238.1,1107.9,1240.3,1108.4,1242.5,1109.5Z" transform="translate(-983.1 -857.6)" style="fill: #99855f"/>
    <path d="M1166.5,1078.7c-2,.7-4.2,2.5-6.2-.1-1.5-5.1-1.7-10.2,1.2-15.1,7.9-2.1,5.1,3.9,6.7,6.6,0,2.2-.1,4.4-.1,6.6A15.6,15.6,0,0,1,1166.5,1078.7Z" transform="translate(-983.1 -857.6)" style="fill: #92b355"/>
    <path d="M1204.3,1101h1.9c12.4-.6,12.4-.6,11.9,10.3Z" transform="translate(-983.1 -857.6)" style="fill: #2e3a17"/>
    <path d="M1224.3,1106c-.2-4.5-5.9-9.5,1.4-13.5l2.5,1.5c-.1,1.6-.2,3.3-.2,4.9C1225.3,1100.8,1227.6,1104.5,1224.3,1106Z" transform="translate(-983.1 -857.6)" style="fill: #d3c7ad"/>
    <path d="M1194.2,928.8V927c-.2-2-.4-4.1-.5-6.3,5.9-.3,3.5,5,6.1,6.8.2,2.1.4,4.3.5,6.4C1197.6,932.8,1197.9,929,1194.2,928.8Z" transform="translate(-983.1 -857.6)" style="fill: #527041"/>
    <path d="M1012.6,908c.4,3,1.8,6-1.6,8.4-1.3-2.8-2.6-5.6-4-8.4Z" transform="translate(-983.1 -857.6)" style="fill: #576752"/>
    <path d="M1180,889.1c4.6-1.5,9.4-.8,11.6,2.5s1.6,7.2-2.9,9.6C1182.6,898.8,1176.9,896.3,1180,889.1Z" transform="translate(-983.1 -857.6)" style="fill: #e7e058"/>
    <path d="M1180,889.1c-.6,5.9,7.1,7.4,8.6,12.1l-.3,1.8a18.2,18.2,0,0,1-6.5,2c-1.8-2.9-3.7-5.8-5.6-8.7C1178.2,894.2,1172.3,888.9,1180,889.1Z" transform="translate(-983.1 -857.6)" style="fill: #b8ae26"/>
    <path d="M1181.8,905c1.4-2.5,3.4-3.4,6.5-2s.9,4.1-2,5.2S1181.9,907.5,1181.8,905Z" transform="translate(-983.1 -857.6)" style="fill: #7d8312"/>
    <path d="M1080.5,1045.9l-11.9-5.1c-2.5-2.7-7-1.4-9.8-3.6,2.9-2.7,6.8-1.5,10.2-1.6,10-.1,20.1.6,29.8-2.6.2-1.6-1.2-2-2.3-2.4s-5-1.5-2.9-4,3.6.1,4.8,1.2c2.9,2.5,5.7,4.8,10.2,4.2,6.2-4.6,13.4-5.1,21.1-4.1s12.3.1,10.7-7.8c4.8-4.7-1.7-8.1-1.9-12.2a4.9,4.9,0,0,1,2.7-2.6,6.6,6.6,0,0,1,2.8,0,5.9,5.9,0,0,1,2.3,1.4c5.3,7.7,11,15.2,12.4,24.3-1.6,10.6-1.6,10.6-13.8,10.4a35.1,35.1,0,0,0-9.7.9,31.8,31.8,0,0,1-4.3.6c-12.8,2-25.8-.9-38.6,1.5-1.5.3-3.3,0-4,1.7C1085.6,1048.1,1083,1047.8,1080.5,1045.9Z" transform="translate(-983.1 -857.6)" style="fill: #1d4008"/>
    <path d="M1140.4,1020.1c6.7,10.4,6.7,10.8-7.2,10.2a106.1,106.1,0,0,0-24.6,1.7c-.7-5.7-1.4-11.3-2-17C1118.1,1015.6,1130.4,1012.1,1140.4,1020.1Z" transform="translate(-983.1 -857.6)" style="fill: #3e631b"/>
    <path d="M1134.4,1040.7c6.6-3.4,13.6-1.2,21.3-.8-1.2-3.5-.2-6.6.9-9.7,4.6-.5,6.1,6.6,11.7,3.7h0c5.9,3.9,5.7,10.5,8.2,16.2l-8.2-10v9.4c-2.2,0-4.5-.3-6,1.7-2.3,4.4-4.2,1.8-6.2-.2-2.5-4.7-7.6-5.9-12.7-7.3C1140.3,1042.9,1136.7,1043.2,1134.4,1040.7Z" transform="translate(-983.1 -857.6)" style="fill: #335316"/>
    <path d="M1214.3,1092.1l-3.9.5-.5-.5c-3.8-.7-6.2-2.9-8.5-5.5-8.2-9.3-15.9-18.9-24.3-28.2-1.1-1.2-1.7-2.4-.9-3.9,7.5.2,9,6.1,12.6,10C1197.3,1073.7,1207.3,1081.8,1214.3,1092.1Z" transform="translate(-983.1 -857.6)" style="fill: #6b8f36"/>
    <path d="M1176.2,1054.5c11.5,12.3,20.4,26.4,33.7,37.6l-7.5,2.1c1.9-3-.8-4.5-2.4-6.7-10-13-23.4-24-31.6-38.2C1172.5,1049.3,1172.8,1053.6,1176.2,1054.5Z" transform="translate(-983.1 -857.6)" style="fill: #406119"/>
    <path d="M1198.3,1051c-4.8,9.7-4.8,9.7-12.9,4.1C1189.8,1054.4,1193.8,1054.3,1198.3,1051Z" transform="translate(-983.1 -857.6)" style="fill: #6e944c"/>
    <path d="M1245.9,1124.2c12,.8,16,9.9,22.8,16.3C1257.9,1138.6,1252.8,1130.5,1245.9,1124.2Z" transform="translate(-983.1 -857.6)" style="fill: #7b9c44"/>
    <path d="M1242.5,1109.5l-6.6.2a7.6,7.6,0,0,0-1.6-.3c-1.3-1.7-2.6-3.4-4-5,.4-2.3,1.4-4.3,4.3-2.2S1239.9,1107.1,1242.5,1109.5Z" transform="translate(-983.1 -857.6)" style="fill: #b0a27f"/>
    <path d="M1068.6,928.9c-2.1-4.1.4-6.6,4-8.7,3.8-6.5,10.8-5.7,17.5-5.6,3.6,0,5.7,2.5,8.5,3.9h0c1.9,6.7,3,13.4,8,19.4,3.3,4-.4,8-7,8.4s-13.9-2.8-19.5-7c-3.5-2.6-5.6-6.3-9.6-8.5A6.9,6.9,0,0,1,1068.6,928.9Z" transform="translate(-983.1 -857.6)" style="fill: #f3f5dc"/>
    <path d="M1056.5,923.8l6.3,8.4c4.2,4.1,4,9.5,6,14.2s1.3,7.5-1,11-3.8.2-4.9-1.5-1.3-5.8-2.1-9c.4-.8-.7,0-.6.2,1,3.2-1.7,4.3-4.4,5.4s-5.1-.3-6.8-2.4c-3.8-4.6-3-21.5,1.5-25.4C1052.1,923.3,1054.1,922.1,1056.5,923.8Z" transform="translate(-983.1 -857.6)" style="fill: #ebefd7"/>
    <path d="M1090.6,916.8a30.7,30.7,0,0,0-18,3.4c-6.2-6.5-12.6-12.9-7.9-22.3,7.3,7.1,6.9-1.7,9.9-3.5,3.1,2,5.1,5,4.6,8-1.4,7,3.7,8.6,9.7,10.1C1090.4,913.6,1091.6,914.9,1090.6,916.8Z" transform="translate(-983.1 -857.6)" style="fill: #e2e6c5"/>
    <path d="M1056.5,923.8c-10.6,4.2-6.1,12.8-7.2,19.6-.6,3.3.5,8.3,7.3,7.8-4.9,5-6.4,5-14.3-.2-3.2-5.6-2.9-11.2-.6-17,1.1-2.7,3.1-5.8-.7-8.3,1.1-3.7,2.7-6.8,8.2-5.7Z" transform="translate(-983.1 -857.6)" style="fill: #d3d9bb"/>
    <path d="M1066.7,946a22.2,22.2,0,0,1-3.9-13.8c3.2.6,3.7-2.4,5.8-3.3h1.9c3.9,4.4,3.4,10.9,9.8,14,2.7,4.3,6.2,8.2,6.8,13.3C1079.3,957.2,1070,952.6,1066.7,946Z" transform="translate(-983.1 -857.6)" style="fill: #becea8"/>
    <path d="M1010.7,980.3c-8.5-6.9-15-15.2-21.2-23.7-1-1.4-.1-2.7,1.3-3.7,6,.8,9.2,4.6,12.1,8.8,5,7.2,6.9,7.1,12-.6,1.2-1.9,2.7-3.5,5.7-3.3s3.7,2.7,3.5,5.1c-1.6,4.6-3.6,8.8-9.1,10.9Z" transform="translate(-983.1 -857.6)" style="fill: #a2b485"/>
    <path d="M1015,973.8l7.9-10.5a5.1,5.1,0,0,1,2.8,3.8c-.8,3.7-3.3,6.3-6.9,8.2h-1.9Z" transform="translate(-983.1 -857.6)" style="fill: #84a172"/>
    <path d="M1116.6,899.6l-4.2-5.1c.9-3.4-1.6-7.4,2.1-10.4.3,10.1,2.6,12.5,13.8,11.6,5.2-.4,9,3.8,14.1,2.2h2c5.9-1.1,15.5-4.3,17.1-.3,3.4,8.2,11,15.9,8.5,25.4-1.1,4.4-5.3,7-9.6,9.3-6.9-.5-10.7-3.6-11-9.8-.1-4.2-2.7-7.4-5.7-10.6s-6-4.9-3.4-8.9c0-1.3-.1-2.5-1.7-3.2C1131.2,901.8,1123.9,903.6,1116.6,899.6Z" transform="translate(-983.1 -857.6)" style="fill: #eff0d4"/>
    <path d="M1180.2,913.4h-2c-2.5-3.6-7.9-6.5-4.1-11.7C1176.5,905.4,1179.7,908.9,1180.2,913.4Z" transform="translate(-983.1 -857.6)" style="fill: #aaba8b"/>
    <path d="M1162.3,944.4c-2,3.4-4,6.8-5.9,10.2s-6.4,7-12.2,5.3c-4.3-1.3-10.7-15-8.4-19s2.7-9.7,10.6-7.1C1154.5,934.2,1159.2,938.3,1162.3,944.4Z" transform="translate(-983.1 -857.6)" style="fill: #e3e8cd"/>
    <path d="M1146.4,933.8c-9.9,3.2-10.4,8-4.4,20.3,5,10.1,9.6,1,14.4.5-.1.3,0,.6-.2.9-5.4,7.9-24.8,14.9-34.7,12.5-2.1-.5-4.5-2.4-5.9.2s1.9,3.2,2.9,4.9a3.2,3.2,0,0,1-2.2,1.5,6.6,6.6,0,0,1-2.8-.5,12.8,12.8,0,0,1-5.5-6c-1-2.9-2.3-5.8.1-8.7,5.6-2.7,10.9.1,16.3.6s8.5,1.9,12.1-1.3c1.8-5.6-4.8-8.9-5.2-13.9a2.6,2.6,0,0,1,1.1-2.1c.8-1.2,2.1-2.4,2.1-3.6C1134.8,930.9,1139.7,930.9,1146.4,933.8Z" transform="translate(-983.1 -857.6)" style="fill: #c2cda1"/>
    <path d="M1140.3,902.9c.2,3.9,3.8,5.8,6.5,8.2s6.1,6.2,5.4,10.4c-.9,5.9,2.7,8.7,8.2,10.7h-4.1c-6.2-1.1-11.3-3.1-12.2-9.6a9.6,9.6,0,0,0-3.9-5.7C1132.7,912.1,1135,907.6,1140.3,902.9Z" transform="translate(-983.1 -857.6)" style="fill: #e1e4b6"/>
    <path d="M1140.4,959.8c-5.8,5.4-12.5,3.3-19.2,1.9-4.1-.8-8.3-1.2-12.5-1.7-2.8-4.1.3-6.5,4-6.2,10.3.8,9.1-3.4,6.1-8.9a5.1,5.1,0,0,1-.5-2.5c4.8-5.1,9.5-4,14.1.3v1.7c-3.5,5.6-5.2,10.6,4.7,12.4C1138.7,957.1,1139.4,958.6,1140.4,959.8Z" transform="translate(-983.1 -857.6)" style="fill: #dae1bb"/>
    <path d="M1118.3,942.4a9.5,9.5,0,0,1,5.8,7.5c.5,4.3-.3,8.5-7.4,6.3-4.6-1.5-7.8-1.4-8,3.8l1.8,9c-3.3.1-4.9-1.7-6-4.1-1.9-9.8.8-17.8,12-22.3Z" transform="translate(-983.1 -857.6)" style="fill: #eaf0d0"/>
    <path d="M1132.6,916.4c1,4-2.6,8.2,1.8,12.1,1.8,1.5-1.5,1.5-2.5,2.3-3.3,2.7-8.9.8-11.6,4.5-5.3.2-4.8-4-6.5-6.6,1.8-5.6,9.5-5.6,12.8-9.8C1128.2,917.4,1129.8,915.7,1132.6,916.4Z" transform="translate(-983.1 -857.6)" style="fill: #75881e"/>
    <path d="M1114.5,928.8c3.8.9,3.2,4.8,5.8,6.6-.4,2.7-4.1,4.1-3.8,7.2-6.1,6.5-12.3,13-10.4,22.3-6.4-2.2-3.4-7.4-5-11.1a7,7,0,0,1,0-2.5c.1-.3.1-.6.3-.8,7.3-6.3,10.9-13.5,7.8-22.5A5.1,5.1,0,0,1,1114.5,928.8Z" transform="translate(-983.1 -857.6)" style="fill: #94ad6a"/>
    <path d="M1116.6,899.6c7.3.5,14.7-1.9,22,.1a21.7,21.7,0,0,1-8.2,6.7c-1.5,1.9-3.7,2-6.1,1.6C1120.7,905.9,1116.8,904,1116.6,899.6Z" transform="translate(-983.1 -857.6)" style="fill: #e1e4b6"/>
    <path d="M1124.3,908c1.6-1.7,3.9-1.6,6.1-1.6,2.3,3.1,2,6.6,2.2,10l-4.2,3.8c-1.5,2-3.7,3.7-6.2,1.5s-3.7-6.4-1.3-10Z" transform="translate(-983.1 -857.6)" style="fill: #eade4a"/>
    <path d="M1104.4,980.5c6.8,8.6,18.2,13.1,25.9,20.8l2.5,6c-9.7-6.5-17.9-14.3-28.3-19.9-1.2-3.9-7.5-4.3-7.9-8.7C1099.9,976.8,1102.3,978,1104.4,980.5Z" transform="translate(-983.1 -857.6)" style="fill: #4e702e"/>
    <path d="M1041,925.7l6.9-1.7c-4.5,8.5-6.3,16.8-5.1,25.4,2,4.1,7.4,5.4,9.9,9.1s5.1,4.5,4.1,8l-2.2,2c-6.3-.6-12.3-2.6-18.8-.8-3.2.9-6.1-1.2-7.6-4s2.7-4.3,5.5-4.7,4.4-1.8,4.2-4.5c-.7-4.8-1.1-9.8-5.7-13.3a36.6,36.6,0,0,0-4.2-2.6,46.8,46.8,0,0,0-7.9-3.6c-2.6-.7-2.2-3-3.3-4.4l-2.2-3.5c7,1.2,13.2,4.3,20.1,6s5.5-1.4,5.8-4.4C1040.7,927.7,1040.8,926.7,1041,925.7Z" transform="translate(-983.1 -857.6)" style="fill: #9fb084"/>
    <path d="M1168.3,1033.9c-8,8.7-8.1-1.7-11.7-3.7-2.4-8.5-7.9-15.9-12.3-23.8-1.1-1.8-1.5-3.3,1.9-3.4C1154.9,1012.6,1157.6,1025.4,1168.3,1033.9Z" transform="translate(-983.1 -857.6)" style="fill: #698c36"/>
    <path d="M1157.6,1009.5a61.2,61.2,0,0,1,0-37.4Z" transform="translate(-983.1 -857.6)" style="fill: #567636"/>
    <path d="M1146.2,1003c-.6,1.2-1.3,2.3-1.9,3.4l-1.7-.2c-3.6-6.7-8.3-12.9-11.9-19.5-1.3-2.5-4.5-6.7,3.2-5.9l12.6,20.3Z" transform="translate(-983.1 -857.6)" style="fill: #567729"/>
    <path d="M1146.3,975.2l-13.6.4c-4.8,3.2-9.6,2.1-14.3-.2l-2.3-1.5,2.4-.8,9.7.2,18.5.4C1146.6,974.2,1146.4,974.7,1146.3,975.2Z" transform="translate(-983.1 -857.6)" style="fill: #789f78"/>
    <path d="M1158.3,1049.3c.5,2.1.8,4.3,4,1.8,5.8,2.7,7.8,8.2,12,12.1-1.7,1.7-3.2,3.6-5.5,4.9l-.6,2c-2.2-2.4-2.1-6.1-5.8-7.7s-7.6-2.3-11.1-4.2C1148.3,1052.2,1151.7,1049.7,1158.3,1049.3Z" transform="translate(-983.1 -857.6)" style="fill: #32582d"/>
    <path d="M1088.5,1044.2c4-4,10.8-4.3,14.7-3.5,9.4,1.9,18.2-.3,27.2.1-4.1,5.1,1.3,8.7,2.9,12.9-1,2.3-1.3,5-3.7,6.7-7.1-1-11.5-6-17.4-8.7-1.1-.5-1.5-1.7-1.9-2.8s3.1-2.5,2.1-2.7c-4.7-1.1-5.3,1.7-4.8,4.9.1,6.4,1.3,13.2-7.1,17.1l-9.9,1.8h-1.8c-.4-4.9,2.8-9.6,1-14.5,1.7-3.9,2.4-8.3,8.9-9.5C1094.3,1047.2,1091.2,1046.8,1088.5,1044.2Z" transform="translate(-983.1 -857.6)" style="fill: #3e6912"/>
    <path d="M1090.7,1056.1c5.8,5.3,1.4,9.5-1.9,13.9-1-.1-2.2.2-2.9-.2-3.1-1.6-9.8-17.9-8.4-20.7.4-.8,2.1-1,3.2-1.5C1087.3,1047.6,1089.8,1051.2,1090.7,1056.1Z" transform="translate(-983.1 -857.6)" style="fill: #6f9233"/>
    <path d="M1090.7,1056.1c-3.4-2.7-5.5-6.7-10-8.5-.1-.6-.1-1.1-.2-1.7,2.8-.2,5.9.8,8-1.7l12.6,2.3C1093,1047.9,1096,1054.6,1090.7,1056.1Z" transform="translate(-983.1 -857.6)" style="fill: #2e5409"/>
    <path d="M1020.9,958.1a6.9,6.9,0,0,0-4.1,3.5c-4.4.4-6.3-2.6-6.4-5.1-.5-7.1-4.7-10.1-12.4-10.4a4.7,4.7,0,0,1-3.2-1.9c2.2-2.4,9.5-.4,7.7-6.5l4.3,1.5c4.4-2.4,8.4-5.6,14.2-4.3,3.4.8,5.4,2.6,5.7,5.7a5.6,5.6,0,0,1-3.4,5.2c-3.5,1.2-3.4,3.6-3,6.2s.8,3.4,1,5.2Z" transform="translate(-983.1 -857.6)" style="fill: #b4b780"/>
    <path d="M1021.1,935.8c-5.1,0-8.9,4.1-14.3,3.4,2.1-3.9,2.5-9.3,10-8.6l3.8,3.5c.6.3.8.6.8,1S1021.3,935.8,1021.1,935.8Z" transform="translate(-983.1 -857.6)" style="fill: #ccd0a7"/>
    <path d="M1140.4,1078.6c7.5,7.8,5.8,11.9-5.8,13.9-9,0-17.9-.2-26.5-2.8-10.2-3.1-12-13.1-3.5-19.8C1117.2,1070.7,1130.5,1069.4,1140.4,1078.6Z" transform="translate(-983.1 -857.6)" style="fill: #99b64f"/>
    <path d="M1140.4,1078.6c-11.1-5.6-24.5-3.7-35.8-8.7-.9-1.3-2.4-1.7-4.1-1.7l4.7-4.9-7.5.7c7.3-2.6,10.8-6.2,6.8-12.9,6.3-.9,7,4.3,9.8,6.9,7.4,6.8,13.7,7.6,21,2.3,5.7-1.5,8.5.4,8.8,5.5.2,3,0,6,.1,9.1A5.6,5.6,0,0,1,1140.4,1078.6Z" transform="translate(-983.1 -857.6)" style="fill: #4a7517"/>
    <path d="M1028.7,963.3c3,1.4,5.5,4.2,9.6,2,6.6-3.5,11.6-.6,16.3,3.2,1.7,3.2,3.7,6.4,3.4,10.2-6.7-.6-10.5,5.9-17.3,5.2-.7-1.5.2-2.7,1.4-3.6,6-4.6,3.3-7.3-2.8-9.2-9.8-1-11.9,7.8-18.4,11-3-1.7-1.8-4.4-2.1-6.8s4.5-5.3,6.1-8.4S1025.2,962.7,1028.7,963.3Z" transform="translate(-983.1 -857.6)" style="fill: #b3c29c"/>
    <path d="M1056.8,966.5c-4.3-5.9-11.4-10.1-14-17.1,4.3,2.5,8.4,6,13.8,1.8,1.6-1.7,3.1-3.5,4.7-5.3,4.3,3.3,2,8.4,5,11.9,2.5,1.8,1.4,3.7.3,5.6s-2.6,3.5-5.3,3.7Z" transform="translate(-983.1 -857.6)" style="fill: #b0c29e"/>
    <path d="M1061.3,967.1l3.4-3.8c4.7-2.2,8.3-1.9,10.1,3.1s6.4,7,10.8,9.5,1.4,2.6-1.1,2.9C1076,976,1067.9,972.7,1061.3,967.1Z" transform="translate(-983.1 -857.6)" style="fill: #294f19"/>
    <path d="M1088.6,913.3c-7.9.1-15.5.1-11.4-10.2,1.1-2.8-3.6-5.3-2.6-8.7,6.5-9.9,10.7-11.3,25.4-8.2,3.6,2.6,4.5,6.5,6.7,9.8C1109.6,907.1,1100.1,916.2,1088.6,913.3Z" transform="translate(-983.1 -857.6)" style="fill: #f9f9dd"/>
    <path d="M1108.5,928.9c10.9,5.2,4.6,14.2-6,22.3-8.6,3.6-14.6-.7-20.4-5.2-1.1-.9-1.4-2.6-3.6-1.7-7.7-3.2-8.5-9-8-15.4,4.2-.2,5.3,2.8,7.3,5,5.7,5.9,12.3,10.6,21.8,10.4,5.7-.2,9-2.7,3.9-6.8-6.9-5.7-7.9-11.8-4.9-19l6.4,4.7C1108.5,924,1108.1,926.6,1108.5,928.9Z" transform="translate(-983.1 -857.6)" style="fill: #e4e9c2"/>
    <path d="M1108.5,928.9c-4.9-.3-.8-4.6-3.5-5.7-.2-1.6-.3-3.2-.4-4.7,3.6-1.6,5.7,2.1,9,1.9,1-2.6-3-4.5-1.2-7.1,1.8-4.5,3.9-8.1,8.5-1.6.5,2.2,1.3,4.3,1.6,6.5.4,4.5,3.2,3.1,5.9,2-2.4,5.5-10.2,4.6-13.9,8.6Z" transform="translate(-983.1 -857.6)" style="fill: #a7a721"/>
    <path d="M1088.6,913.3c10.2-.3,15.7-5.6,18.1-17.3,5.2,5.8,7.3,10.8-2.3,15.4-2.3,1.1-8.1,2.3-5.8,7.1l-8-1.7A39.7,39.7,0,0,1,1088.6,913.3Z" transform="translate(-983.1 -857.6)" style="fill: #e4e9c2"/>
    <path d="M1112.4,913.3c1.1,1.1,2,2.3,3.2,3.3s4.2,4.2,1.9,6.7-5.1-.2-7.3-1.4-3.8-2.3-5.6-3.4C1103.8,912.9,1108.2,913.2,1112.4,913.3Z" transform="translate(-983.1 -857.6)" style="fill: #e9e044"/>
    <path d="M994.8,944.2h8.8c5.7.2,9.7,2.8,8.8,7.8s1.6,6.8,4.4,9.5c.2,4.7-2.1,8-7.6,8.4s-7.5-2.9-8.5-6.9-7.3-6.3-9.9-10.2c1.4-2.7,4.1-5.1,2.3-8.4Z" transform="translate(-983.1 -857.6)" style="fill: #c2cda6"/>
    <path d="M1144.2,1074.9c-2.5-2.5-4.2-5.7-3.2-8.6,2.2-6.5-3.2-4.5-6.6-4.9s-3.9,1.1-4-1.6-1.2-4.3,2-5.3c7.4-1.3,13.6.7,19.2,4.6,3.6,4,4.8,7.7-1.3,10.8Z" transform="translate(-983.1 -857.6)" style="fill: #284e0c"/>
    <path d="M1150.3,1069.9c2.4-3.4,3-6.8-.1-10.2-.4-1.6.3-2.2,2.2-1.8,4.3-.1,7.7,1.4,10,4.6-.6,5.4,1.4,11-2.1,16.1C1156.8,1075.9,1150.9,1075.1,1150.3,1069.9Z" transform="translate(-983.1 -857.6)" style="fill: #799a3f"/>
    <path d="M1148.4,1082.9c.7-1.9-1.3-5.3,3-5.1s6.7,1.7,6.8,5.1-3.7,4.9-6.8,5.1S1149.1,1084.8,1148.4,1082.9Z" transform="translate(-983.1 -857.6)" style="fill: #81a542"/>
    <path d="M1040.7,968.5c12.2,7,12.2,7,0,15.4a17.7,17.7,0,0,1-9.9,1.7C1027.5,977.4,1030.2,972.7,1040.7,968.5Z" transform="translate(-983.1 -857.6)" style="fill: #d9e4c5"/>
    <path d="M1040.7,968.5c-5.3,4.8-10.8,9.6-9.9,17.1-4.2.8-6.9-1.7-9.9-3.5C1023.8,973.7,1031.2,968.6,1040.7,968.5Z" transform="translate(-983.1 -857.6)" style="fill: #cad7b4"/>
    <path d="M1074.8,966.4a14.4,14.4,0,0,0-10.1-3.1c.5-1.8,1-3.6,1.6-5.5.1-3.9.3-7.8.4-11.8,5.4,5.3,12.6,7.7,19.8,10.2,4.7-3.3,10.5-2.3,15.8-3.3,4.7,3.2,0,8.6,3.8,12l4.4,4.1c1.4,1.5,2.7,3.1,4.1,4.7l-10.2,6.8-7.8-1.8C1090.7,972.8,1083.2,969,1074.8,966.4Z" transform="translate(-983.1 -857.6)" style="fill: #789f78"/>
    <path d="M1152.4,1057.9l-2.2,1.8-17.8-5.2c-1.4-1.5-2.5-3.3-4.2-4.4-7.1-4.7-4.3-7.3,2.2-9.3h4c9.2.3,18.7,0,23.9,8.6C1155.4,1051.7,1149.8,1052.7,1152.4,1057.9Z" transform="translate(-983.1 -857.6)" style="fill: #457128"/>
    <path d="M1118.4,975.4l14.3.2,1.2,5.2c-6.2,1.7-1.1,4.3-.5,6.3,2.2,6.7,9.5,11.5,9.2,19.1h-2.1A173,173,0,0,0,1118.4,975.4Z" transform="translate(-983.1 -857.6)" style="fill: #335415"/>
    <path d="M1102.3,952.9c-4.5,3.8-10,4.2-15.8,3.3-4.1-3.2-5.4-7.9-8-11.9.9-1.1,2.5-3.1,3.5-1.7,4.7,7.1,12.8,7.4,20.5,8.6C1102.4,951.8,1102.4,952.3,1102.3,952.9Z" transform="translate(-983.1 -857.6)" style="fill: #c9d8a7"/>
    <path d="M1028.7,963.3l-3.8,3.6c-1.6-.8-1.9-2.1-2-3.6s-1.4-3.4-2-5.2h.7c6-2.3,11.8-5.8,19.1-3.8C1042.9,963.6,1031.6,959.2,1028.7,963.3Z" transform="translate(-983.1 -857.6)" style="fill: #6b791f"/>
    <path d="M1140.4,959.8a39.6,39.6,0,0,0-6.6-1.6c-3.2-.4-7.1.3-7.2-3.9s-1.8-9.1,5.8-9.9C1136.2,949.1,1140.5,953.6,1140.4,959.8Z" transform="translate(-983.1 -857.6)" style="fill: #ebefd2"/>
    <path d="M1040.7,954.4c-6.1,2.3-12.2,4.6-19.1,3.8-1.2-1.7-5.1-2.3-2.7-5.3,7.2-1.8-.1-5.9,1.8-8.5,2.5-.1,4.1-1.2,4.3-3.4a2.1,2.1,0,0,1,2.4-.2c3.8,4.3,3.6-1.3,5.5-1.6C1040.1,942.5,1039.1,948.9,1040.7,954.4Z" transform="translate(-983.1 -857.6)" style="fill: #a9a122"/>
    <path d="M1032.9,939.2l-.5,9.6c-4.2-2.1-4.9-4.9-5.7-7.8a3.6,3.6,0,0,1,2.2-3.5C1030.5,937.6,1032,937.9,1032.9,939.2Z" transform="translate(-983.1 -857.6)" style="fill: #d5c937"/>
    <path d="M1028.9,937.5l-2.2,3.5a9.7,9.7,0,0,0-1.7,0c-.5-2.2-1.3-4.2-3.9-5.2l-.5-1.7C1024.7,932.8,1026.3,936,1028.9,937.5Z" transform="translate(-983.1 -857.6)" style="fill: #829354"/>
    <path d="M1130.4,1059.8l4,1.6c2.5,4.3-.7,4.9-4.4,5.1-8.5.4-15-2.7-19.6-8.9-1.7-2.3-2.6-5.2-5.9-6.5,2.4-2.3-3.2-6.8,1.5-7.4s12.1.4,15.2,6.2c-3.4,1.7-5.6-2.3-9.9-1.3Z" transform="translate(-983.1 -857.6)" style="fill: #799d3c"/>
    <path d="M1020.7,944.4l2.4,2.8c1.7,1.9,6,3.4,4.5,5.9s-5.7-.5-8.7-.2C1017.5,949.7,1013.3,946.2,1020.7,944.4Z" transform="translate(-983.1 -857.6)" style="fill: #dbce3a"/>
  </g>
</svg>
