<svg xmlns="http://www.w3.org/2000/svg" viewBox="0 0 300 300">
  <g>
    <path d="M1040,644.8c0,1,.6,1.2,1.5,1.6,13.7,6.6,23.9,16,28.9,29.8-2.3.1-2.4-2.6-4.3-2.9-4.1-4.9-10.2-7.2-15.8-10.2s-9.2-3.7-14.5-3.2c-6.9,0-13.2-2.8-19.7-4.2-2.1-.4-.6-2.5.7-3.9s6.2-4,8.4-7Z" transform="translate(-853.1 -644.8)" style="fill: #d7b8bd"/>
    <path d="M1059.1,888.2c-2.3-1.8-4.5-3.7-7.8-3.5-.6-1-1.1-2.1-2.4-2.6h-.1c-1.4-3.4-3.1-6.5-7.1-7.9-.8-.8-1.6-1.5-2.3-2.3a15.5,15.5,0,0,0-5.2-3.9c-1.8-1.2-3.1-3-5.4-3.6-.6-.5-1.1-1.3-1.8-1.6-3.2-1.1-5.4-4.8-9.6-3-3.9-1.8-7.3-4.6-12.2-4.3s-7.2-.2-10.8-.4-6.7-1.5-10.1-.1a2.6,2.6,0,0,0-2.6,1.1,33.3,33.3,0,0,0-8.8,23.8c.1,1.2.3,2.1,1.9,2.2l-.3,4.2c-2.7-1.4-4.8-1.1-6.3,1.6a2.5,2.5,0,0,1-2.3,1.5c.3-1.9,2.3-3.5,1.7-5.7.5-.4,1.3-.8,1.4-1.4,1.7-5.3,1.4-10.8.9-16.2-.1-1.4-.4-3.2-2.5-3.9-4-1.4-4.6-4.4-4.1-7.8.9-5.6-1-7.6-7.5-7.1-1.5.1-2.2.1-2.2-1.4s-1.1-1.5-1.9-2c-4.2-2.2-13.2-1.8-17.1.8l-3.8,2.7c-.6.3-1.3.8-1.9.7-4.7-.8-6.9-5.7-4.7-10.4,4.4,0,8.5,1.5,12.9,1.9l8.6,2.3c1.5-.2,1.9-1.1,2.1-2.3a1.4,1.4,0,0,0,1.5-1.5l1-2.4a22.7,22.7,0,0,0,1.9-3.4c3-5.4,6.7-10.5,7.4-16.7,1.4-.9,1.3-2.3,1.8-3.5,2.4-7,3.6-14.3,5.3-21.5a61.5,61.5,0,0,0,10.5-.4c1.1.8,2.1.3,3-.4,5.3-.7,10.1-2.9,15.3-3.9,2.1,7.6,8,12.4,14.5,16.9a26.2,26.2,0,0,0,9.9,8.7c.3.8,1.5,1.5,1.9,1.3,3.1-1.6,3.5.6,4.5,2.4s2.4,2.8,4.5,1.2a40,40,0,0,0,3.1-2.7c2.5-1.1,3.7-3.7,6.4-4.6-.2,2.2-2.4,3.2-3.7,4.7s-1.4,3,1.3,3.5,5.7,1,8.3,2.7,2.4-2,4.2-2.1a12.7,12.7,0,0,0,1,4.6c2.2,5.4,4.2,10.9,6.2,16.3-4.8,4.3-5,7.3-2.3,12.4s7.3,8,11.6,12c1.2-3.2,3.4-5.1,7.5-3.7.4.2,1.3-.4,1.8-.8,2.2-1.2,4.3-2.8,6.6-3.7,4.4-1.6,7.8-5.3,13-4.9h.2c-6,4.1-12.1,8.1-18.5,11.7-1.9,1.1-4.7,1.9-3.5,5-2.1.3-4.7-.9-6.1,1.7-3.9-.4-7.6.8-11.4.9a28.6,28.6,0,0,0-6.6-7.8c-1.4-1-4.1-1.7-4.2-2.8-1.3-6.9-9.1-8.5-12.7-13.5s-9-8.2-12.5-13.1c-1.1-1.7-3.2-3-5-1.8s-.2,3.2.8,4.3c6.4,7.3,12.3,15.1,19.8,21.6,1.4,1.3,4.1.9,4.5,2.6,1.4,5.6,6,8.6,10.3,11.9v1.6a.6.6,0,0,0-.6,0c-.6,0-1.3.2-1.2.8s.6.8,1.2.9c1.5,3.9,3.1,7.6,9,5.5a7.6,7.6,0,0,1,2.6,0l-.4,4.1c-.9.9-.6,2-.9,3.1A1.6,1.6,0,0,0,1059.1,888.2ZM1048.7,851c-2.4,5,2.8,6.4,5,9.3.6.8,1.2,1.1,2.1.6s.1-1.2-.2-1.8l-2.8-5.3c-.8-1.7-1.8-3-4.1-2.7-.1-4,2.2-7.1,3.9-10.5.6-1.3,1.8-2.6,1.1-4.1-1.8-3.9-2.5-8-4.9-11.8s-4.4-2.5-6.4-1a22,22,0,0,1-9.7,4.1,4.4,4.4,0,0,0-2.8,7.1c4.1,5.5,9.7,9.8,14.5,14.8C1045.6,850.9,1047.2,850.9,1048.7,851Zm-62.3-35.7c-3.1,2.9-6,6-7.2,9.8-.5,1.9.7,4.9,3.1,5.5s3.2-2.1,3.4-3.8C986.1,823,986.2,819.1,986.4,815.3ZM980.5,843c.2-1.3-.3-1.6-1.1-1.6s-3.3,1.5-4.5,2.6a4.9,4.9,0,0,0-1,4.5c.2,1.2,1.2.8,2,.4C978.6,847.5,978.4,844.3,980.5,843Zm-8.4-14.5c.2-3.6-2.1-5-5-5.5-1.1-.3-2.2-.3-1.5,1.6S969.7,827.5,972.1,828.5Zm30.7-1.3c-3.3-.3-6.5,0-9.3,1.8-1.1.7-3.1,1.5-2.2,2.9s2.9.2,4.1-.4C998.1,830.4,999.8,827.9,1002.8,827.2Z" transform="translate(-853.1 -644.8)" style="fill: #712e36"/>
    <path d="M913.5,715.3a2.5,2.5,0,0,1,1-3.2l.8-.7h0l.9-.8h-.1c1.7-.1,2.6-.9,2.7-2.5h-.1l.9-.8h0l.9-.9h0a1.6,1.6,0,0,0,1.8-1.7h-.1l.9-.9h0l.9-.9h0c.8.1,1.4.1,1.7-.8h0c.6,0,.9-.2.9-.8h0c.8.2,1.5.1,1.7-.8h.1c.7.1,1.5.2,1.7-.8h0a6,6,0,0,0,5.2-1.3l5.3-1c2.7,3.6,5.2,7.5,8,11s1.4,5,3.8,6.6v1.5c-.9.2-1.7.6-1.8,1.5s.7.9,1.4,1a5.3,5.3,0,0,1-1.7,3.3c-3.1.5-5.3,1.8-6.3,4.6l-1.3.5c-3.9-3.2-6.3.3-9.1,2.1h11.3l2.4.4c.3,1.4,1.7,1.9,2.6,2.9.9,3-.6,6.1.1,9.4,12.8-11.4,14.4-12.2,26.4-12.6,2.5,1.4,5.2.4,7.8.3-2.6-1-5.2-2-8-2l-3.3-2.7-.6-.6-.3-.9c0-1.6-.1-3.2-.2-4.7s.7-3,1.1-4.4c2.1-.8,2.6-2.7,3.7-4.3,4.4-6.2,9.7-11.6,17.3-14.6,11.2-4.4,22.9,2.2,24.2,13.2a12.4,12.4,0,0,0,2.3,5.5,6.5,6.5,0,0,1,1.2,4.9c-.3,7.2-5.5,11.2-11.1,15.1-2.3,1.5-4.6,1.3-7.4,1s-4.3-2.7-7.1-1.7c2.3,4.2,7.3,4.6,10.3,7.6s3.7,8.2-2,10.7c-1,.4-2.5.7-2.4,1.5.7,4.4-3.4,5.3-6,7.3s-5.1,5.2-8.1,5.9c-10,2.4-19.7,5.9-30.7,3.3-4.4-1.1-7.6-3.6-11.6-5-7.2-2.6-.7-7-1.6-10.5,0-.1-.1-.2-.3-.5-2,2.7-4.1,5.3-5.9,8.1s-1.7,2.6-3.6,2.3c-8.1-1-13.8-5.7-19-10.9-3.1-3.2-2.1-15.4,1-18.8.6-.7,2.3-1.3,1.2-2.6-3.5-3.8-3.1-8.1-2.4-12.5C915.1,718.3,916.5,716.3,913.5,715.3Zm19.9-9.5c-3.2,0-6.9,2.9-6.7,5.1s3,7,5.2,6.9a6.5,6.5,0,0,0,5.9-7.2C937.6,708.3,936.9,705.7,933.4,705.8Z" transform="translate(-853.1 -644.8)" style="fill: #f2ebe7"/>
    <path d="M913.5,715.3c3,1,1.6,3,1.4,4.7-.7,4.4-1.1,8.7,2.4,12.5,1.1,1.3-.6,1.9-1.2,2.6-3.1,3.4-4.1,15.6-1,18.8,5.2,5.2,10.9,9.9,19,10.9,1.9.3,2.7-1,3.6-2.3s3.9-5.4,5.9-8.1c.2.3.3.4.3.5.9,3.5-5.6,7.9,1.6,10.5,4,1.4,7.2,3.9,11.6,5,11,2.6,20.7-.9,30.7-3.3,3-.7,5.4-3.9,8.1-5.9s6.7-2.9,6-7.3c-.1-.8,1.4-1.1,2.4-1.5,5.7-2.5,6.3-6.4,2-10.7s-8-3.4-10.3-7.6c2.8-1,4.7,1.4,7.1,1.7s5.1.5,7.4-1c5.6-3.9,10.8-7.9,11.1-15.1a6.5,6.5,0,0,0-1.2-4.9,12.4,12.4,0,0,1-2.3-5.5c-1.3-11-13-17.6-24.2-13.2-7.6,3-12.9,8.4-17.3,14.6-1.1,1.6-1.6,3.5-3.7,4.3l-2.8.2c1-3,4.1-4.4,5.9-6.8,3.4-4.2,6.9-8.5,11.8-11.5,7.7-4.8,7.9-5.3,2.5-11.9,0-.1-.1-.2-.1-.3l4.6.3c.5,3.2,3.4,4.2,6,5.5s.3,4.3,3.6,2.3c6.2,1.6,11.9,3.6,15.4,9.1,1.5,2.4,5.2,3.2,6.3,6.2s2.8,7.7,5.1,11.3,1.4,8,1.8,12a57.9,57.9,0,0,1-1.7,14.4c-.9,6.2-6.3,8.2-11.3,10.5-2.8-3.5-3.5-8.4-8.7-10.6,2.9,5.5,7.8,10.3,6.1,17a27.7,27.7,0,0,0-5.1,8.1c-.9.2-1,1-1.1,1.6-.7,2.5-2.8,4.2-4.4,6.1s-2.2,3.2-.8,5c-1.3,1.6-2,.4-2.2-.5-.8-2.8-2.1-2.1-3.8-.7a13.7,13.7,0,0,1-2,1.3l-1.6,1.1-.9,1.3h0c-5.2,1-10,3.2-15.3,3.9-1.1-.6-2.2-.9-3,.4a61.5,61.5,0,0,1-10.5.4,27.8,27.8,0,0,0-9-1.9,52.9,52.9,0,0,1-9.2-3.9c-4-5.6-8-11.1-8.3-18.1-1.4,5.7.7,10.6,4.2,15,.8,1,1.6,1.9,1.3,3.2l-2.4.3c-1.8-.1-3.6,0-5.3-1.1a3,3,0,0,0-4.3,1c-2.6-4.6-7.8-6.1-12.2-8.5l-4.5-2c-.5-2.2-2.2-3.5-4.1-4.6-3.1-5.4-6-10.9-7.3-16.9,3.3-1.9,1.3-4.8,1.8-7.3,3.4-4.9,1.4-9.9.7-15s1.1-10.3,3.9-15C912.2,715.5,913,715.5,913.5,715.3Zm0,17.4c0-1.6.1-3.2-1.7-3.4s-1.8,1.7-1.7,2.8-1.2,3.7,1.4,3.8S913.4,733.9,913.5,732.7Z" transform="translate(-853.1 -644.8)" style="fill: #d7b8bd"/>
    <path d="M1122,908.6a12.8,12.8,0,0,0,4.2,3.4l5.4,3.6c1.6,2.1,4.4,2.6,6.3,4.3-.1.5,0,.8.6.5,8.6,4.7,6.8,12.3,3.7,18.6-1.1,2.4-3.6,3-6.3,1.8l-4.5-2.3c-1.4-.8-2.2-1.1-3.7.2-3.7,3.4-6.7,3.3-10.6.2-15.6-12.3-31.4-24.3-45.7-37.9-2-1.8-4.7-2.9-7.1-4.3,0-1.6-.9-2.3-2.5-2.5s-2.1-1.6-1.7-3.2c2,.2,3.4,1.5,5,2.3s2.4,1.7,2.7-.6,3.6-3.2,3.2-5.8l.4-.8c.5,0,.7-.2.5-.7l.3-1c.5.1.8-.1.5-.6,1.8-3.7,3.5-7.4,5.2-11.1l3.3-2.4a.8.8,0,0,1,.5.5,13.9,13.9,0,0,0-.6,1.9c-.3,1.8-2.6,4.1-1,5s3.2-2.1,5.2-2.7c.6,1.3.7,2.8,2,3.8a5.7,5.7,0,0,0,.1,1.3c-1,4.7-.8,5,5.8,5.2a4.7,4.7,0,0,0,5.2.2h2.7c.4,2,2.2,1.5,3.5,1.4a20,20,0,0,1,10.7,2.4,68.2,68.2,0,0,0,6.8,2.5v1.7c-9.6-1.8-19.2-3.7-28.9-5.1-4.7-.7-9.2-1.1-13-4.2-.6-.6-2.1-1.6-3.4-.4a7.7,7.7,0,0,0,3.6,3.3c3.6,1.9,6.8,4.5,10.6,6.2,9.2,4.4,17.8,10.2,28.3,12.2C1119.1,907.4,1120.8,907.8,1122,908.6Z" transform="translate(-853.1 -644.8)" style="fill: #712e36"/>
    <path d="M924.2,837.8c-2.2,4.7,0,9.6,4.7,10.4.6.1,1.3-.4,1.9-.7l3.8-2.7c3.9-2.6,12.9-3,17.1-.8.8.5,1.8.8,1.9,2s.7,1.5,2.2,1.4c6.5-.5,8.4,1.5,7.5,7.1-.5,3.4.1,6.4,4.1,7.8,2.1.7,2.4,2.5,2.5,3.9.5,5.4.8,10.9-.9,16.2-.1.6-.9,1-1.4,1.4-4.7-.6-6.7-3.1-7.3-7.4s-.3-5.8-.5-8.7,1.1-7.6-.1-11.4-1.6-3.4-3.8-1.1-4.6,2.6-6.3-.6a3.5,3.5,0,0,0-3.8-2c.3-1.5,2.9-1.3,2.9-3.3-4.1-.1-6.6,2.8-9.9,4,.5-2-.5-3.5-1.6-5.1s-1.4-1.1-2.3-.4c-4.6,3.3-10.1,5.2-15,8s-7.7,3.5-12.4,3.2c-6.4-.3-10.8-3.3-12.3-9.1a2.5,2.5,0,0,0-2.7-2.1c-3.5-.2-8.4-.7-9.6,1.6s2.6,5.4,5.3,7.4a52.1,52.1,0,0,0,4.6,3c1.2.8,2.4,1.5,2.4,3l-.6.9-2.9-.9c-1.5-3.2-4.2-4.9-7.9-5.4h0c-1.3-4.9-4.9-8.7-7.8-12.9s-1.9-6.5-2.7-9.8a13.1,13.1,0,0,0-3.5-6.8c.2-1.3.9-2,2.4-1.5a14.8,14.8,0,0,0,4.7.5c11.6-.4,23.1.8,34.6,1.7,5.1.4,11.2-.1,11.4,7.2C922.9,836.5,923.7,837.2,924.2,837.8Z" transform="translate(-853.1 -644.8)" style="fill: #a0535f"/>
    <path d="M945.8,852.6a3.5,3.5,0,0,1,3.8,2c1.7,3.2,4,3,6.3.6s3.1-1.3,3.8,1.1-.2,7.6.1,11.4.1,5.8.5,8.7,2.6,6.8,7.3,7.4c.6,2.2-1.4,3.8-1.7,5.7h0a41.2,41.2,0,0,1-23.2,9.6h.1c-3,.1-6.1.9-9.2-.1-.2-1.7-1.2-3.5-2.8-3.5s-3.1,1.7-3.2,3.7c-2.2,1.3-2.8-.5-3.4-1.7-2.8-4.9-8.2-7.1-12.4-10.5h0c-.1-3.1-.1-6.3-2.4-8.9l.2-2.2c3.3-3.2,5.7-7.2,10.3-9a3,3,0,0,0,1.6-2.3l.9-.8a24.1,24.1,0,0,0,9.4-4.1c4.5-1.6,7.7-5.1,12.2-6.5,1.3,1.3,1.6.3,1.8-.7ZM942.9,870c-8.2,6.9-13.6,15.3-15.4,25.4Zm-21.8,1.2a10.9,10.9,0,0,0,9.2-3A10.7,10.7,0,0,0,921.1,871.2Zm22.6-3.1c1.9-.3,3.2-1.2,3.5-2.9,0-.1-.4-.5-.6-.4C944.4,864.9,944.2,866.6,943.7,868.1Z" transform="translate(-853.1 -644.8)" style="fill: #c17b87"/>
    <path d="M974.5,886.4l.3-4.2a5.5,5.5,0,0,0,1.6-3.1c2.3-8.1,3.4-16.5,7.9-24,3.4-1.4,6.8-.1,10.1.1s7.2.7,10.8.4,8.3,2.5,12.2,4.3a1.7,1.7,0,0,1,.8,2.1c0,1.2-.2,2.5,1.7,2.6v1.5a37.6,37.6,0,0,1-3.7,16.7c-.9,1.1-2.7,2-1.6,3.9v.3h-.4c-.8-.2-1.4-.1-1.3.8h0c-.8-.2-1.1,0-.9.8h0c-1.6-.5-2,.3-1.7,1.6h0c-.7-.1-.8.4-.9.9s.2,1.2-.7,1.5-3.6-.5-5.4-.5c.2-2.2-.7-3.5-3.3-3.6s-3.3-.4-5.2.8c-4.7,2.9-7.6-1.5-11.2-3.1-1-.4-1.9-1.6-3-.9a2.8,2.8,0,0,0-1.4,3.1,25.1,25.1,0,0,1,.4,2.7l-4.3-3.3c.6-.3.9-.6,0-.8h0l-.9-.8Zm23.1-5.8,1.1-.7-9.2-16.4-1,.5C991.1,869.7,992.9,875.9,997.6,880.6Z" transform="translate(-853.1 -644.8)" style="fill: #c17b87"/>
    <path d="M990.2,684.7c0,.1.1.2.1.3,5.4,6.6,5.2,7.1-2.5,11.9-4.9,3-8.4,7.3-11.8,11.5-1.8,2.4-4.9,3.8-5.9,6.8l-1.6.3c-.6-.1-.8.2-.8.7l-.8.2c-2.7-1.3-5.8-1.8-8.3-3.6a2.7,2.7,0,0,0-4.3.8l-.7-.6c-2.5-6.4-6.7-12-10.5-17.8a11.1,11.1,0,0,1,6.9-6.3,3.9,3.9,0,0,0,1-.8h0c1.5.1,2.9-.1,3.5-1.6h0l18.5-3.2c4.9-1,9.8-1.4,14.8,0A3.2,3.2,0,0,1,990.2,684.7Zm-34.4,17a9.2,9.2,0,0,0,7.6-3.3c1.5-1.5,2.7-4.1,2-6.2s-2.7.3-4.1-.1a6.4,6.4,0,0,1-1.9-.8c-2.3-1.4-3.6-.3-5.1,1.2s-1.6,3.4-2.2,5.1S952.5,702,955.8,701.7Z" transform="translate(-853.1 -644.8)" style="fill: #f2ebe7"/>
    <path d="M1090.7,809.2l1.9,1.6a7.2,7.2,0,0,0,5,2.4h0l.9.8h0c-.2,1.2-.2,2.3,1.5,2.4a17,17,0,0,1,3.5,9.8c-1.4,2.7-.5,5.6-.7,8.4a2.9,2.9,0,0,1,0,2.7l-1.8,1c.5-3.2-2.5-4-4.5-5.2s-3.2,1.3-4.3,2.4c-2.6,2.9-6,3.6-9.7,4.4s-8-.4-12-.2c-.1-2.7,1.4-4.3,4-5.6s7.6-2.9,10.3-7.2c-5.3,1.1-7.4,5.7-12.2,6.1a19.4,19.4,0,0,1,3.1-9.3c3-4.9,2.9-11.1,7.5-15.3A21.4,21.4,0,0,0,1090.7,809.2Z" transform="translate(-853.1 -644.8)" style="fill: #c17b87"/>
    <path d="M1057.6,838.9c-2-5.4-4-10.9-6.2-16.3a12.7,12.7,0,0,1-1-4.6h0c.8-.2.6-.5.1-.9a20.5,20.5,0,0,1,11.6-8l4.3-1.6c3.6.6,7.1,1,10.2-1.5l6.2-1.1c-6.7,8.8-10.2,18.9-13.2,29.2-2.6,0-4.9,1.2-7.7.2s-1.5.8-1.1,1.9c.9,3.4,3.4,6,5.8,8.4,1.6-.2.6-2.6,2.8-2.3-1.2,4.6.2,9.4-2.7,13.9C1069.1,847.9,1062.1,844,1057.6,838.9Z" transform="translate(-853.1 -644.8)" style="fill: #c17b87"/>
    <path d="M871.3,811.7c-9.2-4.3-14.2-11.9-17.6-20.2-2.7-6.5,4.9-17.3,12.3-19,2.3-.5,3.3.8,4.1,2.2a26.8,26.8,0,0,1,3.2,9.9c-.6,3.7-1.2,7.4-1.5,11.1-.2,1.3-1.9,2.7,0,3.9-.6,3.8-1.4,7.6.8,11.2Z" transform="translate(-853.1 -644.8)" style="fill: #d7b8bd"/>
    <path d="M1072.1,683.3a7.7,7.7,0,0,1,1.1,6.4c-2.2,2-.3,4.1-.1,6,.5,4.6-1.7,8.9-1.7,13.4-.4,7-4.5,12-10,16.6s-8,8.1-13.6,10.6c-3.7,1.5-7.9,2.1-10.4,5.4h-1.5c-3.9-4.1-2.7-7.6,2.8-8.9,2.2-.5,4.6-.9,5.6-3.1,7.3-4.6,14.1-9.5,18.4-16.8,2.9-2.7,4.5-5.8,3.4-9.7l1.2-4c2.2-2.4,3.1-5,1.5-7.9a20.3,20.3,0,0,1,0-6.5C1069.9,684.5,1070.6,683.1,1072.1,683.3Z" transform="translate(-853.1 -644.8)" style="fill: #c17b87"/>
    <path d="M1119.4,905.5c-10.5-2-19.1-7.8-28.3-12.2-3.8-1.7-7-4.3-10.6-6.2a7.7,7.7,0,0,1-3.6-3.3c1.3-1.2,2.8-.2,3.4.4,3.8,3.1,8.3,3.5,13,4.2,9.7,1.4,19.3,3.3,28.9,5.1h2.4l1.6.5a7.5,7.5,0,0,0,4.5,1.6l1.7.3c.5,1.6-.1,2.7-1.5,3.7a32.5,32.5,0,0,1-6.3,3.5c-1.7.1-3.6-.5-4.4,1.6h.1c-.7,0-1,.2-.9.8Z" transform="translate(-853.1 -644.8)" style="fill: #c17b87"/>
    <path d="M1063.2,741c4.1-3.4,8.3-1.4,12.2.2s6.3,4.1,7,8c1.2,6.5.7,12.6-4.2,17.8-1.2,1.3.2,3.6-2,4.6-1.8-2.1-3.2-4.8-6.7-4.9-3.3-3.6-5.5-7.9-7.9-12l2.5-2.2c3.1-3.5,5.2-1.6,7.2,1.1.5.8,1,2,2.1,1.3s.6-2-.2-2.8-2.6-2.5-3.9-3.7-2.4-2.2-1.9-3.4C1069,740.7,1065.9,741.1,1063.2,741Z" transform="translate(-853.1 -644.8)" style="fill: #d7b8bd"/>
    <path d="M1069.5,766.7c3.5.1,4.9,2.8,6.7,4.9l-.3,1.1a2.9,2.9,0,0,0-2.2,1.9.7.7,0,0,0-.6.2c-1.6.4-3.2,1.2-5,.8l-1.5.8h0l-3.2-.3c.5-1.6,1-3.2,1.5-5-5.6.2-11.1,2.2-16.3,1s-8.9,1.9-12.1,5.3l-7-.2c-2.5-1.2-5-2.4-7.8-.9-2.8-2.8-6.4-3.9-10.5-3.9.1-.6.2-1.4,1.1-1.6a7.4,7.4,0,0,0,5.1-8.1c1.7-6.7-3.2-11.5-6.1-17,5.2,2.2,5.9,7.1,8.7,10.6-2.1,5.9-2.3,6.2,3.7,8.7a71.9,71.9,0,0,0,23.6,5.9C1055.2,771.4,1062.6,770.5,1069.5,766.7Z" transform="translate(-853.1 -644.8)" style="fill: #c17b87"/>
    <path d="M869.9,700.8c-.5-2.1.6-4,1.9-5.6,2.9-3.8,7.2-6.5,11.2-9.2s10.1.3,11.1,4.3-1.6,4.1-3.4,5.6c-4.9,4.1-9.3,9.1-16,11.1-1,.3-1.5,1.9-2.2,2.8s-1.4,0-1.8.7c-2.5-.4-1.6-1.9-1.2-3.3S870.8,703,869.9,700.8Z" transform="translate(-853.1 -644.8)" style="fill: #d7b8bd"/>
    <path d="M976.3,661.7c0,1.1-.6,1.6-1.7,1.6-4.2-.7-5.5,2.1-7,4.8h0a1.8,1.8,0,0,0-1.7.8h0c-1.6,0-3,.3-3.5,2-3.3.2-7.4,3.3-9.4-1.1s.8-11.1,5.4-13a28.7,28.7,0,0,1,23.3.7c1.5.6,3.4.5,5,1.1s5,1.4,6.1,4a44.8,44.8,0,0,0-6.9-2C982.6,660.1,979.1,658.8,976.3,661.7Z" transform="translate(-853.1 -644.8)" style="fill: #d7b8bd"/>
    <path d="M869.9,700.8c.9,2.2.3,4.3-.4,6.4s-1.3,2.9,1.2,3.3c-2.8,5.2-1.9,10.3.3,15.9,1-4.3,2.3-.5,3.4-.6h-.1a6,6,0,0,1,.8.8c1.7,1.6,1.7,3.9,2.8,5.7,5.3,8.7,13.8,12,24,12.9,1.8.1,3.7-.1,5.5.7-.5,2.5,1.5,5.4-1.8,7.3-5.5-2.3-11.5-3.5-16.7-6.5-17.1-9.6-26.5-23.2-21.5-42.4C867.8,702.8,868.1,701.4,869.9,700.8Z" transform="translate(-853.1 -644.8)" style="fill: #c17b87"/>
    <path d="M927.5,684.2c-2.4-.5-2.8-2.6-3.8-4.1-3-4.2-7.4-7-11.2-10.4.7-.8,1.5-.5,2.3-.3,4.1,1,6.6-.5,8.2-4a25.5,25.5,0,0,0,2-10.9c3.4,2,3.2,5.5,3.8,8.4,1.4,6.9,2.4,13.8,5.2,20.3Z" transform="translate(-853.1 -644.8)" style="fill: #a0535f"/>
    <path d="M924.2,837.8c-.5-.6-1.3-1.3-1.3-2-.2-7.3-6.3-6.8-11.4-7.2-11.5-.9-23-2.1-34.6-1.7a14.8,14.8,0,0,1-4.7-.5c-1.5-.5-2.2.2-2.4,1.5-1.2-.9-3.2-1.4-1.6-3.4h26.7c-5.1-4.5-9.7-6.8-15.4-7.2.4-2.6,2-1.6,3.4-1,4.8.3,8.6,2.9,12.1,5.6a15.8,15.8,0,0,0,7.2,3.3,55.6,55.6,0,0,0,12.9.8c2.8-.1,5.1.5,7,2.5s2.1,4.4,5.4,4.7a7.1,7.1,0,0,1,3.1,1.1c2,2,6.9,1.1,6.5,5.4C932.7,839.3,928.6,837.8,924.2,837.8Z" transform="translate(-853.1 -644.8)" style="fill: #c17b87"/>
    <path d="M1040.3,809.2c-2.7.9-3.9,3.5-6.4,4.6-.1-1.6-1.8-2.3-2.6-3.5-1.8-3-3.7-3.2-5.6,1-.7-3.2-2.6-5.2-2-7.8,1.9-.7,4.8.8,5.6-1.2,1.5-3.7,4.5-5.6,7.7-7.6,3.1-.3,3.5,2.8,5.6,3.8.5,1.4.1,3.3,2.5,3.4A8.5,8.5,0,0,1,1040.3,809.2Z" transform="translate(-853.1 -644.8)" style="fill: #d7b8bd"/>
    <path d="M933.7,785.2a3,3,0,0,1,4.3-1c1.7,1.1,3.5,1,5.3,1.1A5.8,5.8,0,0,1,942,789a62.9,62.9,0,0,1-18.8,15.5c1-3.6-3.4-4-4.4-6.5,1.9-2.3,5.4-3.2,6.9-6Z" transform="translate(-853.1 -644.8)" style="fill: #c17b87"/>
    <path d="M1004.4,692.8c-3.3,2-2.3-1.7-3.6-2.3-.6-2.6-3.7-3.8-4.3-6.3,2.4-7.6-1-13.1-7.3-17.6l-3.4-2.5c2.6-1.4,4.6.3,6.8,1.1s3.4,2.4,5.7,2.3c6.2,5.2,7,11.9,6.7,19C1004.8,688.6,1004,690.7,1004.4,692.8Z" transform="translate(-853.1 -644.8)" style="fill: #c17b87"/>
    <path d="M925,654.5a25.5,25.5,0,0,1-2,10.9c-1.6,3.5-4.1,5-8.2,4-.8-.2-1.6-.5-2.3.3-5.1-1.3-6.4-4.8-2.8-8.2S918.6,654.5,925,654.5Z" transform="translate(-853.1 -644.8)" style="fill: #d7b8bd"/>
    <path d="M1028.6,707.2c1.6-5.7,4.5-11.4,1.4-17.5,3.8.1,5.5,3.2,8.2,4.9,0,4,.1,8,.1,12-.5,1.1-1.1,2.2-1.6,3.2s-2.1,1.1-1.9,2.4h0a1.5,1.5,0,0,0-1.8.9h.1a1.2,1.2,0,0,0-.9,1.6h0C1028.2,713.3,1028.6,710.2,1028.6,707.2Z" transform="translate(-853.1 -644.8)" style="fill: #c17b87"/>
    <path d="M1036.5,777.4c3.2-3.4,6-6.6,12.1-5.3s10.7-.8,16.3-1c-.5,1.8-1,3.4-1.5,5-2.8,1.7-6.7-.3-9.2,2.4-3.5.9-7.1.1-10.6.6Z" transform="translate(-853.1 -644.8)" style="fill: #d7b8bd"/>
    <path d="M888.1,776.4c-4.9-.8-4.7-5-5.3-7.9s4.5-8.1,7.7-8.7,2.2,1,2.4,2c.5,3.3,1.9,6.4,1.4,9.8C891.6,772.5,891.7,776.5,888.1,776.4Z" transform="translate(-853.1 -644.8)" style="fill: #d7b8bd"/>
    <path d="M1038.2,694.6c-2.7-1.7-4.4-4.8-8.2-4.9l-.8-.4.5-.6c3-1.6-.9-2.5-.6-3.9s-1.2-.3-1.8,0c-2.3,1.5,1.1,2,.6,3.2l-.2.2c-1.9-.5-3.7-1.1-4.5-3l.4-.5,1-.3c-.4-.9-1.2-1-2.1-1.1h.1l-.9-.8h0a2.8,2.8,0,0,0-2.7-1.6h.1c-.5-1.9,1-2.3,2.5-3s1.9-1.1,1.3-2-1.5-.4-2.3-.6c1.5-2.2,3.9-2,5-.4,3.8,5.6,9.9,9.5,12.6,15.8.5,1.2,1.2,2.4.9,3.9Z" transform="translate(-853.1 -644.8)" style="fill: #d7b8bd"/>
    <path d="M912.9,770.1c1.9,1.1,3.6,2.4,4.1,4.6-4,.7-6.7,4.6-11.3,4a30.2,30.2,0,0,0-11.6.3l-1.5-.6c-.4-2.4,3.3-3.3,2.6-5.9C901.2,772.5,907.3,772.7,912.9,770.1Z" transform="translate(-853.1 -644.8)" style="fill: #c17b87"/>
    <path d="M979.7,891.2a25.1,25.1,0,0,0-.4-2.7,2.8,2.8,0,0,1,1.4-3.1c1.1-.7,2,.5,3,.9,3.6,1.6,6.5,6,11.2,3.1,1.9-1.2,3.3-.9,5.2-.8s3.5,1.4,3.3,3.6c-6.9,2.3-13.9,4.6-20.9.2a1.1,1.1,0,0,0-1.8.3C979.9,892.5,979.8,891.8,979.7,891.2Z" transform="translate(-853.1 -644.8)" style="fill: #a0535f"/>
    <path d="M1069.6,834.2c3-10.3,6.5-20.4,13.2-29.2l.9-.5c-.2,1.3.8,2.7-.5,3.9-4.6,4.2-4.5,10.4-7.5,15.3a19.4,19.4,0,0,0-3.1,9.3c4.8-.4,6.9-5,12.2-6.1-2.7,4.3-6.8,5.5-10.3,7.2s-4.1,2.9-4,5.6c-.3.5-.5,1.1-.9,1.3s-1-.4-.9-1S1069.3,836.1,1069.6,834.2Z" transform="translate(-853.1 -644.8)" style="fill: #d7b8bd"/>
    <path d="M871.3,811.7l1.3-.9h.8l.4.2-.4-.2c-.2-2.1,1.4-4.2-.3-6.3s.4-1.3,1.2-1.7c5.3-.1,10.4,2,15.7,1.7v.7c-1.6.4-4.1-.7-4.8.8s-4.1,5.3-3.9,8.8c-2.3,1.2-3.8-2.8-6.2-.7Z" transform="translate(-853.1 -644.8)" style="fill: #c17b87"/>
    <path d="M890,805.2v-.7a73.5,73.5,0,0,1,21.6-8.9c2.4-.1,4.6.1,4.6,3.1C908.1,803.2,899.2,804.7,890,805.2Z" transform="translate(-853.1 -644.8)" style="fill: #a0535f"/>
    <path d="M927.5,684.2l6.5-1c1.7,3,3.3,6.1,5.1,9.1a7.8,7.8,0,0,0,3.2,3c.4,1.5-1.3,1.6-1.7,2.5l-5.3,1-.7-1.1C932.8,692.9,928.9,689.1,927.5,684.2Z" transform="translate(-853.1 -644.8)" style="fill: #c17b87"/>
    <path d="M879.5,817.3c5.7.4,10.3,2.7,15.4,7.2H868.2c1.6-2.2,4.8-1.2,6.7-2.8A9.9,9.9,0,0,0,878,818Z" transform="translate(-853.1 -644.8)" style="fill: #a0535f"/>
    <path d="M1063.2,741c2.7.1,5.8-.3,4.2,4-.5,1.2.9,2.4,1.9,3.4s2.7,2.4,3.9,3.7,1.3,2.1.2,2.8-1.6-.5-2.1-1.3c-2-2.7-4.1-4.6-7.2-1.1l-2.5,2.2-2.4-5.7c3.4-1.8,1-4.8,1.7-7.1h0a1.9,1.9,0,0,0,2.1-.8Z" transform="translate(-853.1 -644.8)" style="fill: #f2ebe7"/>
    <path d="M1036.5,777.4l7.1,1.7c1.1,4.1-.2,8.4.7,12.5-1.8.1-1.6-1.7-2.5-2.4s-1.4-1.3-.8-2.3a1.9,1.9,0,0,0,1.1-2.7c-.5-1.2-1.9-.9-3-.6a4.9,4.9,0,0,1-4.8-1.2c-1.6-1.3-3.6-1.7-5.5-2.2l.7-2.2v-.8Z" transform="translate(-853.1 -644.8)" style="fill: #f2ebe7"/>
    <path d="M922.4,863.9l-.9.8c-2.2-.1-3.8,1.2-5.8,1.7-5.4,1.5-6.9,4.1-6.1,9.6a16.4,16.4,0,0,1-.2,2.2h-1.1c-1.8-2.3-1-4.9-.8-7.3s-1.3-4.6-4.7-4.6a11.1,11.1,0,0,1-8.2-2.7l.6-.9,1.8.4c5.4,2.6,11,3.7,16.7.9,3.1,0,5.8-1.1,8.6-2.1C922.3,862.7,922.4,863.3,922.4,863.9Z" transform="translate(-853.1 -644.8)" style="fill: #712e36"/>
    <path d="M1122.1,891.8a68.2,68.2,0,0,1-6.8-2.5,20,20,0,0,0-10.7-2.4c-1.3.1-3.1.6-3.5-1.4s2.5.1,3.4-.9h12.2c2.1.5,4.3.5,6.2,1.7,0,1,.1,2.1.2,3.2A24.4,24.4,0,0,0,1122.1,891.8Z" transform="translate(-853.1 -644.8)" style="fill: #c17b87"/>
    <path d="M1020,866.1c0-.5-.1-1-.1-1.5s-.6-2-1.7-2.6a1.7,1.7,0,0,0-.8-2.1c4.2-1.8,6.4,1.9,9.6,3,.7.3,1.2,1.1,1.8,1.6-1.7-.1-2.9.9-4.3,1.5s-1.1.8-.9,2.2c.8,4.9,0,9.8-3.7,13.9h-.8C1021.2,876.9,1023.4,871.6,1020,866.1Z" transform="translate(-853.1 -644.8)" style="fill: #f2ebe7"/>
    <path d="M933.6,899c3.1,1,6.2.2,9.2.1,1.1,1.9-1,2.1-1.8,2.1a34,34,0,0,1-9,.1c-1.9-.3-3.4-1.2-5.1.1a1.5,1.5,0,0,1-2-.3c-3-4.8-8.4-7.7-12-11.9a7.6,7.6,0,0,1-1.1-2.2c4.2,3.4,9.6,5.6,12.4,10.5.6,1.2,1.2,3,3.4,1.7Z" transform="translate(-853.1 -644.8)" style="fill: #712e36"/>
    <path d="M1081.2,870.3l-3.3,2.4c-.9-1.1-1.9-.5-3.1-.2-4.7,1.6-5.8.9-6.9-3.8,1.4-2.6,4-1.4,6.1-1.7l4.4.7C1079.4,868.5,1081.3,868.5,1081.2,870.3Z" transform="translate(-853.1 -644.8)" style="fill: #c17b87"/>
    <path d="M1078.4,867.7l-4.4-.7c-1.2-3.1,1.6-3.9,3.5-5,6.4-3.6,12.5-7.6,18.5-11.7h.7c.2,2.2-1.4,3.4-3.1,4.4-3.7,2.3-7.5,4.6-11.4,6.6S1077.9,864.7,1078.4,867.7Z" transform="translate(-853.1 -644.8)" style="fill: #f2ebe7"/>
    <path d="M940.6,697.8c.4-.9,2.1-1,1.7-2.5h.8c3.8,5.8,8,11.4,10.5,17.8-1.3.4-.5,1.7-1.2,2.4-2.4-1.6-2.1-4.4-3.8-6.6S943.3,701.4,940.6,697.8Z" transform="translate(-853.1 -644.8)" style="fill: #d7b8bd"/>
    <path d="M980.7,892.7a1.1,1.1,0,0,1,1.8-.3c7,4.4,14,2.1,20.9-.2,1.8,0,3.5,1.8,5.4.5-.4.8.4,2.6-1.3,2.4-5.5-.7-10.4,1.7-15.7,1.7A14.6,14.6,0,0,1,980.7,892.7Z" transform="translate(-853.1 -644.8)" style="fill: #712e36"/>
    <path d="M874.4,725.8c-1.1.1-2.4-3.7-3.4.6-2.2-5.6-3.1-10.7-.3-15.9.4-.7,1.1-.7,1.8-.7C871.9,715.3,873.7,720.5,874.4,725.8Z" transform="translate(-853.1 -644.8)" style="fill: #a0535f"/>
    <path d="M998.3,667.5c-2.3.1-3.8-1.6-5.7-2.3s-4.2-2.5-6.8-1.1c-2.9-1.5-5.8-3.1-9.5-2.4,2.8-2.9,6.3-1.6,9.6-1.1a44.8,44.8,0,0,1,6.9,2A9.2,9.2,0,0,1,998.3,667.5Z" transform="translate(-853.1 -644.8)" style="fill: #a0535f"/>
    <path d="M1124.6,903.1a32.5,32.5,0,0,0,6.3-3.5c1.4-1,2-2.1,1.5-3.7,3.3,2.6,3.5,3.8.1,5.9s-5.4,3.9-8.9,4.5c-1.6.3-1.6,1.3-1.6,2.3-1.2-.8-2.9-1.2-2.6-3.1h0l.9-.8h-.1A5.4,5.4,0,0,0,1124.6,903.1Z" transform="translate(-853.1 -644.8)" style="fill: #f2ebe7"/>
    <path d="M942.7,899.1a41.2,41.2,0,0,0,23.2-9.6c.1,3.5-3.2,4.4-5.7,5.6-4.8,2.5-9.7,5-15.4,5.4C943.8,900.5,942.3,901,942.7,899.1Z" transform="translate(-853.1 -644.8)" style="fill: #712e36"/>
    <path d="M1044.3,729.8c-1,2.2-3.4,2.6-5.6,3.1-5.5,1.3-6.7,4.8-2.8,8.9-2.1.8-2.1,3.6-4.6,4a57.9,57.9,0,0,0,1.7-14.4c2.1,2.1,4.2.4,6.2-.1Z" transform="translate(-853.1 -644.8)" style="fill: #a0535f"/>
    <path d="M1041.8,789.2c.9.7.7,2.5,2.5,2.4,1.9,3.4,2.4,6.8.8,10.3-2.4-.1-2-2-2.5-3.4a10.2,10.2,0,0,0-1.7-7.2C1040,790.1,1040,789.4,1041.8,789.2Z" transform="translate(-853.1 -644.8)" style="fill: #a0535f"/>
    <path d="M1072.1,683.3c-1.5-.2-2.2,1.2-3.3,1.6l-2.7-11.6c1.9.3,2,3,4.3,2.9.2.5.3,1,.5,1.5-1.6,1.2-1.6,2,.5,2.4A3.7,3.7,0,0,1,1072.1,683.3Z" transform="translate(-853.1 -644.8)" style="fill: #a0535f"/>
    <path d="M916.2,798.7c0-3-2.2-3.2-4.6-3.1,4.3-2.5,9.6-1.9,14.1-3.6-1.5,2.8-5,3.7-6.9,6Z" transform="translate(-853.1 -644.8)" style="fill: #712e36"/>
    <path d="M1020,866.1c3.4,5.5,1.2,10.8-.9,16.1l-1.2.9-1.6-.3A37.6,37.6,0,0,0,1020,866.1Z" transform="translate(-853.1 -644.8)" style="fill: #a0535f"/>
    <path d="M1066.6,776.4h0c.8.2,1.2-.3,1.5-.8,1.8.4,3.4-.4,5-.8-3.2,4-8.3,4.4-13,5.5-1.2.2-1.7-.7-1.8-1.8C1060.9,777.4,1064.4,779,1066.6,776.4Z" transform="translate(-853.1 -644.8)" style="fill: #f2ebe7"/>
    <path d="M1071.4,709.1c0-4.5,2.2-8.8,1.7-13.4-.2-1.9-2.1-4,.1-6a34.9,34.9,0,0,1-.1,17.3A2.5,2.5,0,0,1,1071.4,709.1Z" transform="translate(-853.1 -644.8)" style="fill: #a0535f"/>
    <path d="M876,844.5c2.9,4.2,6.5,8,7.8,12.9A19.2,19.2,0,0,1,876,844.5Z" transform="translate(-853.1 -644.8)" style="fill: #712e36"/>
    <path d="M1028.6,707.2c0,3-.4,6.1,3.6,7.4-.3,1.6-.7,3.2-1,4.8-2.3-3.6-4.7-7-5.1-11.3C1027.1,708.3,1027.8,707.6,1028.6,707.2Z" transform="translate(-853.1 -644.8)" style="fill: #a0535f"/>
    <path d="M1020.6,675.3c.8.2,2,.1,2.3.6s-.5,1.7-1.3,2-3,1.1-2.5,3H1017C1015.1,678.6,1016.2,676.9,1020.6,675.3Z" transform="translate(-853.1 -644.8)" style="fill: #f2ebe7"/>
    <path d="M1085.3,875c-2,.6-3,4-5.2,2.7s.7-3.2,1-5a13.9,13.9,0,0,1,.6-1.9l1.8,1.1C1083.9,873,1085.9,873.3,1085.3,875Z" transform="translate(-853.1 -644.8)" style="fill: #c17b87"/>
    <path d="M1103.5,826.2a17,17,0,0,0-3.5-9.8,7.6,7.6,0,0,0,.1-1.5c3.7,4.2,6.8,8.6,4.7,14.4C1104.3,828.3,1103.9,827.2,1103.5,826.2Z" transform="translate(-853.1 -644.8)" style="fill: #f2ebe7"/>
    <path d="M1096.7,850.3h-.9c-.2-1.5.7-2.5,1.7-3.4a10.9,10.9,0,0,0,3.5-8.5l1.8-1a16.2,16.2,0,0,1-.8,6.5l-1.8,3.1a5.5,5.5,0,0,0-2.5,2.5Z" transform="translate(-853.1 -644.8)" style="fill: #712e36"/>
    <path d="M973,683.3l-18.5,3.2A31.8,31.8,0,0,1,973,683.3Z" transform="translate(-853.1 -644.8)" style="fill: #d7b8bd"/>
    <path d="M1085.3,875c.6-1.7-1.4-2-1.8-3.1,3.1.2,6.9,3.6,6.5,6.2s-1.7.7-2.7.7S1085.9,876.3,1085.3,875Z" transform="translate(-853.1 -644.8)" style="fill: #f2ebe7"/>
    <path d="M873.4,810.8h-.8c-2.2-3.6-1.4-7.4-.8-11.2h.6c.5,1.2,2,1.8,1.9,3.2s-1.8.9-1.2,1.7.1,4.2.3,6.3Z" transform="translate(-853.1 -644.8)" style="fill: #a0535f"/>
    <path d="M1041.7,874.3c4,1.4,5.7,4.5,7.1,7.9C1045.7,880.1,1041.6,878.8,1041.7,874.3Z" transform="translate(-853.1 -644.8)" style="fill: #f2ebe7"/>
    <path d="M895.2,772.5c.7,2.6-3,3.5-2.6,5.9-1.4-.9-4.3,1.1-4.5-2,3.6.1,3.5-3.9,6.2-4.8Z" transform="translate(-853.1 -644.8)" style="fill: #a0535f"/>
    <path d="M1067.8,892.7c-.3,2.3-1.8,1-2.7.6s-3-2.1-5-2.3-.8-1.8-1-2.8a1.6,1.6,0,0,1,1.5-1.2C1061.6,890.3,1065,891.2,1067.8,892.7Z" transform="translate(-853.1 -644.8)" style="fill: #a0535f"/>
    <path d="M1037.4,741.7c2.5-3.3,6.7-3.9,10.4-5.4C1045.4,739.7,1041.3,740.6,1037.4,741.7Z" transform="translate(-853.1 -644.8)" style="fill: #a0535f"/>
    <path d="M1035.8,659.9c5.3-.5,10.2.2,14.5,3.2Z" transform="translate(-853.1 -644.8)" style="fill: #c17b87"/>
    <path d="M1066.1,703.3c1.1,3.9-.5,7-3.4,9.7C1062.2,709.3,1065.6,706.7,1066.1,703.3Z" transform="translate(-853.1 -644.8)" style="fill: #a0535f"/>
    <path d="M872.4,799.6h-.6c-1.9-1.2-.2-2.6,0-3.9.3-3.7.9-7.4,1.5-11.1A54.1,54.1,0,0,1,872.4,799.6Z" transform="translate(-853.1 -644.8)" style="fill: #c17b87"/>
    <path d="M1102,843.8a16.2,16.2,0,0,0,.8-6.5,2.9,2.9,0,0,0,0-2.7l1.5-1.4C1104.4,836.9,1106.3,840.9,1102,843.8Z" transform="translate(-853.1 -644.8)" style="fill: #f2ebe7"/>
    <path d="M1038.2,694.6h.9c.4,4,2.6,8.2-.8,12C1038.3,702.6,1038.2,698.6,1038.2,694.6Z" transform="translate(-853.1 -644.8)" style="fill: #a0535f"/>
    <path d="M908.3,878.3h1.1c2.3,2.6,2.3,5.8,2.4,8.9C909.8,884.4,907.9,881.7,908.3,878.3Z" transform="translate(-853.1 -644.8)" style="fill: #a0535f"/>
    <path d="M1034.2,868.1a15.5,15.5,0,0,1,5.2,3.9c-1.4,3.3-2.6,1.5-4.1,0S1033.6,869.6,1034.2,868.1Z" transform="translate(-853.1 -644.8)" style="fill: #f2ebe7"/>
    <path d="M1093.2,885.3c-6.6-.2-6.8-.5-5.8-5.2.8,2.7,4.6,2.1,5.8,4.4Z" transform="translate(-853.1 -644.8)" style="fill: #f2ebe7"/>
    <path d="M1076.6,806.1c-3.1,2.5-6.6,2.1-10.2,1.5C1069.5,805.6,1073.1,806.1,1076.6,806.1Z" transform="translate(-853.1 -644.8)" style="fill: #a0535f"/>
    <path d="M1066.6,776.4c-2.2,2.6-5.7,1-8.3,2.1h-4.1c2.5-2.7,6.4-.7,9.2-2.4Z" transform="translate(-853.1 -644.8)" style="fill: #a0535f"/>
    <path d="M1083.2,808.4c1.3-1.2.3-2.6.5-3.9,2.9.8,4.5,3.3,7,4.7A21.4,21.4,0,0,1,1083.2,808.4Z" transform="translate(-853.1 -644.8)" style="fill: #a0535f"/>
    <path d="M879.5,817.3l-1.5.7c0-1.9-2.1-2.5-2.9-3.9,2.4-2.1,3.9,1.9,6.2.7H883v1.4C881.5,815.7,879.9,814.7,879.5,817.3Z" transform="translate(-853.1 -644.8)" style="fill: #712e36"/>
    <path d="M883.8,857.4c3.7.5,6.4,2.2,7.9,5.4C888.7,861.5,885.6,860.3,883.8,857.4Z" transform="translate(-853.1 -644.8)" style="fill: #712e36"/>
    <path d="M996.5,684.2c.6,2.5,3.7,3.7,4.3,6.3-2.6-1.3-5.5-2.3-6-5.5C995.5,685,996.2,684.9,996.5,684.2Z" transform="translate(-853.1 -644.8)" style="fill: #a0535f"/>
    <path d="M1068.8,691.4c1.6,2.9.7,5.5-1.5,7.9C1066.6,696.4,1068.8,694.1,1068.8,691.4Z" transform="translate(-853.1 -644.8)" style="fill: #a0535f"/>
    <path d="M894.1,779a30.2,30.2,0,0,1,11.6-.3A17.1,17.1,0,0,1,894.1,779Z" transform="translate(-853.1 -644.8)" style="fill: #a0535f"/>
    <path d="M967.6,668.1c1.5-2.7,2.8-5.5,7-4.8Z" transform="translate(-853.1 -644.8)" style="fill: #c17b87"/>
    <path d="M1060.9,741.9c-.7,2.3,1.7,5.3-1.7,7.1C1059.8,746.6,1057.8,743.8,1060.9,741.9Z" transform="translate(-853.1 -644.8)" style="fill: #d7b8bd"/>
    <path d="M1104.3,833.2l-1.5,1.4c.2-2.8-.7-5.7.7-8.4.4,1,.8,2.1,1.3,3.1Z" transform="translate(-853.1 -644.8)" style="fill: #712e36"/>
    <path d="M1122.9,886.2c-1.9-1.2-4.1-1.2-6.2-1.7C1119.3,882.3,1121.5,882.9,1122.9,886.2Z" transform="translate(-853.1 -644.8)" style="fill: #f2ebe7"/>
    <path d="M1130.7,895.6a7.5,7.5,0,0,1-4.5-1.6C1128.3,891.5,1128.3,891.5,1130.7,895.6Z" transform="translate(-853.1 -644.8)" style="fill: #f2ebe7"/>
    <path d="M1122.1,891.8a24.4,24.4,0,0,1,1-2.4c2.9.6,2.5,2.2,1.5,4.1h-2.4A9.7,9.7,0,0,1,1122.1,891.8Z" transform="translate(-853.1 -644.8)" style="fill: #f2ebe7"/>
    <path d="M1104.5,884.6c-.9,1-2.4.3-3.4.9h-2.7v-.9A5.6,5.6,0,0,1,1104.5,884.6Z" transform="translate(-853.1 -644.8)" style="fill: #f2ebe7"/>
    <path d="M1131.6,915.6l-5.4-3.6C1129.2,911.7,1131.4,912.4,1131.6,915.6Z" transform="translate(-853.1 -644.8)" style="fill: #f2ebe7"/>
    <path d="M1098.4,884.6v.9a4.7,4.7,0,0,1-5.2-.2v-.8Z" transform="translate(-853.1 -644.8)" style="fill: #c17b87"/>
    <path d="M1097.6,813.2a7.2,7.2,0,0,1-5-2.4A4.6,4.6,0,0,1,1097.6,813.2Z" transform="translate(-853.1 -644.8)" style="fill: #a0535f"/>
    <path d="M934.6,697.7l.7,1.1a6,6,0,0,1-5.2,1.3C931.3,698.8,933.1,698.5,934.6,697.7Z" transform="translate(-853.1 -644.8)" style="fill: #d7b8bd"/>
    <path d="M1016.3,882.8l1.6.3c-.4,1.7-1.8,2.6-3.2,3.6C1013.6,884.8,1015.4,883.9,1016.3,882.8Z" transform="translate(-853.1 -644.8)" style="fill: #712e36"/>
    <path d="M1048.9,882.1c1.3.5,1.8,1.6,2.4,2.6C1049.1,885.1,1048.8,884.8,1048.9,882.1Z" transform="translate(-853.1 -644.8)" style="fill: #d7b8bd"/>
    <path d="M1023.2,685.2c-1.4-.6-2.9-1-3.5-2.4l.3-.4h1.7l.9.8h-.1a17.1,17.1,0,0,0,1.1,1.4Z" transform="translate(-853.1 -644.8)" style="fill: #d7b8bd"/>
    <path d="M918.8,708.1c-.1,1.6-1,2.4-2.7,2.5C916.4,709.2,917,708.2,918.8,708.1Z" transform="translate(-853.1 -644.8)" style="fill: #d7b8bd"/>
    <path d="M962.4,670.9c.5-1.7,1.9-2,3.5-2C965.6,670.8,963.7,670.5,962.4,670.9Z" transform="translate(-853.1 -644.8)" style="fill: #c17b87"/>
    <path d="M1061.8,894.2c1.6.2,2.5.9,2.5,2.5A2.3,2.3,0,0,1,1061.8,894.2Z" transform="translate(-853.1 -644.8)" style="fill: #f2ebe7"/>
    <path d="M1071.4,680.1c-2.1-.4-2.1-1.2-.5-2.4C1071.7,678.4,1071.5,679.3,1071.4,680.1Z" transform="translate(-853.1 -644.8)" style="fill: #d7b8bd"/>
    <path d="M1100.1,814.9a7.6,7.6,0,0,1-.1,1.5c-1.7-.1-1.7-1.2-1.5-2.4Z" transform="translate(-853.1 -644.8)" style="fill: #a0535f"/>
    <path d="M954.5,686.5c-.6,1.5-2,1.7-3.5,1.6C951.7,686.7,953,686.4,954.5,686.5Z" transform="translate(-853.1 -644.8)" style="fill: #d7b8bd"/>
    <path d="M1110.7,884.5H1108c.1-.7.4-1.4,1.5-1.3S1110.5,883.9,1110.7,884.5Z" transform="translate(-853.1 -644.8)" style="fill: #f2ebe7"/>
    <path d="M1097.7,849.4a5.5,5.5,0,0,1,2.5-2.5C1100.4,848.6,1099.6,849.5,1097.7,849.4Z" transform="translate(-853.1 -644.8)" style="fill: #f2ebe7"/>
    <path d="M1073.7,774.6a2.9,2.9,0,0,1,2.2-1.9C1075.7,773.9,1075.4,774.9,1073.7,774.6Z" transform="translate(-853.1 -644.8)" style="fill: #f2ebe7"/>
    <path d="M1017,680.9h2a13,13,0,0,1,1,1.5l-.3.4C1018.4,682.6,1017.4,682.2,1017,680.9Z" transform="translate(-853.1 -644.8)" style="fill: #d7b8bd"/>
    <path d="M1034.8,712.2c-.2-1.3,0-2.4,1.9-2.4A2.4,2.4,0,0,1,1034.8,712.2Z" transform="translate(-853.1 -644.8)" style="fill: #a0535f"/>
    <path d="M922.3,704.9a1.6,1.6,0,0,1-1.8,1.7C920.5,705.5,921.2,705.1,922.3,704.9Z" transform="translate(-853.1 -644.8)" style="fill: #d7b8bd"/>
    <path d="M1010.4,890.3c-.3-1.3.1-2.1,1.7-1.6C1012,889.7,1011.2,890,1010.4,890.3Z" transform="translate(-853.1 -644.8)" style="fill: #712e36"/>
    <path d="M1032.2,714.6a1.2,1.2,0,0,1,.9-1.6C1033.8,714,1032.8,714.2,1032.2,714.6Z" transform="translate(-853.1 -644.8)" style="fill: #a0535f"/>
    <path d="M1033,713.1a1.5,1.5,0,0,1,1.8-.9C1034.4,712.8,1034.2,713.7,1033,713.1Z" transform="translate(-853.1 -644.8)" style="fill: #a0535f"/>
    <path d="M925.7,702.5c-.3.9-.9.9-1.7.8A1.4,1.4,0,0,1,925.7,702.5Z" transform="translate(-853.1 -644.8)" style="fill: #d7b8bd"/>
    <path d="M928.3,700.9c-.2.9-.9,1-1.7.8S927.6,700.9,928.3,700.9Z" transform="translate(-853.1 -644.8)" style="fill: #d7b8bd"/>
    <path d="M1029.2,689.3l-1.5-1.1.2-.2,1.8.7Z" transform="translate(-853.1 -644.8)" style="fill: #d7b8bd"/>
    <path d="M1063,741a1.9,1.9,0,0,1-2.1.8C1061.3,740.9,1062.1,741,1063,741Z" transform="translate(-853.1 -644.8)" style="fill: #d7b8bd"/>
    <path d="M930.1,700.1c-.2,1-1,.9-1.7.8A1.4,1.4,0,0,1,930.1,700.1Z" transform="translate(-853.1 -644.8)" style="fill: #d7b8bd"/>
    <path d="M965.9,668.9a1.8,1.8,0,0,1,1.7-.8A1.7,1.7,0,0,1,965.9,668.9Z" transform="translate(-853.1 -644.8)" style="fill: #c17b87"/>
    <path d="M915.3,711.4l-.8.7Z" transform="translate(-853.1 -644.8)" style="fill: #d7b8bd"/>
    <path d="M916.2,710.6l-.9.8Z" transform="translate(-853.1 -644.8)" style="fill: #d7b8bd"/>
    <path d="M919.6,707.4l-.9.8Z" transform="translate(-853.1 -644.8)" style="fill: #d7b8bd"/>
    <path d="M920.5,706.5l-.9.9Z" transform="translate(-853.1 -644.8)" style="fill: #d7b8bd"/>
    <path d="M923.1,704.1l-.9.9Z" transform="translate(-853.1 -644.8)" style="fill: #d7b8bd"/>
    <path d="M924,703.3l-.9.9Z" transform="translate(-853.1 -644.8)" style="fill: #d7b8bd"/>
    <path d="M1050.5,817.2c.5.4.7.7-.1.9A2.8,2.8,0,0,1,1050.5,817.2Z" transform="translate(-853.1 -644.8)" style="fill: #712e36"/>
    <path d="M974.5,886.3l.9.8C974.7,887.3,974.4,887,974.5,886.3Z" transform="translate(-853.1 -644.8)" style="fill: #712e36"/>
    <path d="M975.4,887.1c.9.2.6.5,0,.8a.8.8,0,0,0-.2-.5C975.2,887.3,975.3,887.2,975.4,887.1Z" transform="translate(-853.1 -644.8)" style="fill: #712e36"/>
    <path d="M1013,887.9c-.1-.9.5-1,1.3-.8Z" transform="translate(-853.1 -644.8)" style="fill: #712e36"/>
    <path d="M926.6,701.7c0,.6-.3.8-.9.8S926.1,701.8,926.6,701.7Z" transform="translate(-853.1 -644.8)" style="fill: #d7b8bd"/>
    <path d="M1012.1,888.7c-.2-.8.1-1,.9-.8S1012.8,888.7,1012.1,888.7Z" transform="translate(-853.1 -644.8)" style="fill: #712e36"/>
    <path d="M1098.5,814l-.9-.8C1098.2,813.2,1098.5,813.5,1098.5,814Z" transform="translate(-853.1 -644.8)" style="fill: #a0535f"/>
    <path d="M1009.5,891.2c.1-.5.2-1,.9-.9Z" transform="translate(-853.1 -644.8)" style="fill: #712e36"/>
    <path d="M951,688.1a3.9,3.9,0,0,1-1,.8A3.9,3.9,0,0,0,951,688.1Z" transform="translate(-853.1 -644.8)" style="fill: #d7b8bd"/>
    <path d="M875.1,726.6a6,6,0,0,0-.8-.8A6,6,0,0,1,875.1,726.6Z" transform="translate(-853.1 -644.8)" style="fill: #a0535f"/>
    <path d="M1138.5,920.4c-.6.3-.7,0-.6-.5A1,1,0,0,1,1138.5,920.4Z" transform="translate(-853.1 -644.8)" style="fill: #f2ebe7"/>
    <path d="M1101,838.3a10.9,10.9,0,0,1-3.5,8.5c-1,.9-1.9,1.9-1.7,3.4-5.2-.4-8.6,3.3-13,4.9-2.3.9-4.4,2.5-6.6,3.7-.5.4-1.4,1-1.8.8-4.1-1.4-6.3.5-7.5,3.7-4.3-4-9-7-11.6-12s-2.5-8.1,2.3-12.4c4.5,5.1,11.5,9,9.1,17.4,2.9-4.5,1.5-9.3,2.7-13.9-2.2-.3-1.2,2.1-2.8,2.3-2.4-2.4-4.9-5-5.8-8.4-.4-1.1-.7-2.6,1.1-1.9s5.1-.2,7.7-.2c-.3,1.9-.7,3.9-.9,5.8s.2,1.2.9,1,.6-.8.9-1.3c4-.2,7.8,1.1,12,.2s7.1-1.5,9.7-4.4c1.1-1.1,2.2-3.6,4.3-2.4S1101.5,835.1,1101,838.3Z" transform="translate(-853.1 -644.8)" style="fill: #a0535f"/>
    <path d="M1048.7,851c-1.5-.1-3.1-.1-4.3-1.3-4.8-5-10.4-9.3-14.5-14.8a4.4,4.4,0,0,1,2.8-7.1,22,22,0,0,0,9.7-4.1c2-1.5,4.2-2.5,6.4,1s3.1,7.9,4.9,11.8c.7,1.5-.5,2.8-1.1,4.1-1.7,3.4-4,6.5-3.9,10.5Z" transform="translate(-853.1 -644.8)" style="fill: #a0535f"/>
    <path d="M1050.9,871c-4.3-3.3-8.9-6.3-10.3-11.9-.4-1.7-3.1-1.3-4.5-2.6-7.5-6.5-13.4-14.3-19.8-21.6-1-1.1-2.4-3.2-.8-4.3s3.9.1,5,1.8c3.5,4.9,9,8.3,12.5,13.1s11.4,6.6,12.7,13.5c.1,1.1,2.8,1.8,4.2,2.8a28.6,28.6,0,0,1,6.6,7.8Z" transform="translate(-853.1 -644.8)" style="fill: #a0535f"/>
    <path d="M1050.9,871l5.6-1.4c3.8-.1,7.5-1.3,11.4-.9,1.1,4.7,2.2,5.4,6.9,3.8,1.2-.3,2.2-.9,3.1.2-1.7,3.7-3.4,7.4-5.2,11.1l-.5.6-.3,1-.5.7a3,3,0,0,0-.4.8c-3.9.8-6.1-2.6-9.5-3,.1-1.4.3-2.7.4-4.1s1.1-2.7-1.2-1.9c-4.2,1.5-6.1-.6-7.8-3.5-.5-.7-.7-1.8-2-1.8Z" transform="translate(-853.1 -644.8)" style="fill: #d7b8bd"/>
    <path d="M937.1,839.7c.4-4.3-4.5-3.4-6.5-5.4a7.1,7.1,0,0,0-3.1-1.1c-3.3-.3-4.5-2.3-5.4-4.7l1.4-2.4c2.8-1.3,5.3-4.3,8.4-2.8s3.6-1,4.3-2.8a12.5,12.5,0,0,1,4.5,5.5l5.5,13.5-.5,2.5Z" transform="translate(-853.1 -644.8)" style="fill: #d7b8bd"/>
    <path d="M957.7,788.8a27.8,27.8,0,0,1,9,1.9c-1.7,7.2-2.9,14.5-5.3,21.5-.5,1.2-.4,2.6-1.8,3.5-3.7.6-7.2-1.3-10.8-.7,2.5-5.6,5.8-11,7.5-16.9C957.2,795.1,958.9,792.1,957.7,788.8Z" transform="translate(-853.1 -644.8)" style="fill: #c17b87"/>
    <path d="M948.8,815c3.6-.6,7.1,1.3,10.8.7-.7,6.2-4.4,11.3-7.4,16.7a22.7,22.7,0,0,1-1.9,3.4l-2.7-.2a24,24,0,0,0-5.2-9.5Z" transform="translate(-853.1 -644.8)" style="fill: #d7b8bd"/>
    <path d="M996.4,784.7l1.6-1.1c1.3,1.3,3.5-.7,4.9,1.3,3.9,5.5,10.2,8.7,15.3,13.2a22.5,22.5,0,0,1-8.2,4.8c-6.5-4.5-12.4-9.3-14.5-16.9h0Z" transform="translate(-853.1 -644.8)" style="fill: #c17b87"/>
    <path d="M984.3,855.1c-4.5,7.5-5.6,15.9-7.9,24a5.5,5.5,0,0,1-1.6,3.1c-1.6-.1-1.8-1-1.9-2.2a33.3,33.3,0,0,1,8.8-23.8A2.6,2.6,0,0,1,984.3,855.1Z" transform="translate(-853.1 -644.8)" style="fill: #a0535f"/>
    <path d="M1023.7,803.5c-.6,2.6,1.3,4.6,2,7.8,1.9-4.2,3.8-4,5.6-1,.8,1.2,2.5,1.9,2.6,3.5a40,40,0,0,1-3.1,2.7c-2.1,1.6-3.6.4-4.5-1.2s-1.4-4-4.5-2.4c-.4.2-1.6-.5-1.9-1.3,2.5-4.1.1-8.4.8-12.5l2.6-.3.5.6v4.1Z" transform="translate(-853.1 -644.8)" style="fill: #c17b87"/>
    <path d="M1020.7,799.1c-.7,4.1,1.7,8.4-.8,12.5a26.2,26.2,0,0,1-9.9-8.7,22.5,22.5,0,0,0,8.2-4.8Z" transform="translate(-853.1 -644.8)" style="fill: #d7b8bd"/>
    <path d="M986.4,815.3c-.2,3.8-.3,7.7-.7,11.5-.2,1.7-1,4.3-3.4,3.8s-3.6-3.6-3.1-5.5C980.4,821.3,983.3,818.2,986.4,815.3Z" transform="translate(-853.1 -644.8)" style="fill: #f2ebe7"/>
    <path d="M1061.5,883.9c3.4.4,5.6,3.8,9.5,3,.4,2.6-2.7,3.6-3.2,5.8-2.8-1.5-6.2-2.4-7.2-5.7C1060.9,885.9,1060.6,884.8,1061.5,883.9Z" transform="translate(-853.1 -644.8)" style="fill: #c17b87"/>
    <path d="M1048.7,851.1c2.3-.3,3.3,1,4.1,2.7l2.8,5.3c.3.6,1,1.3.2,1.8s-1.5.2-2.1-.6c-2.2-2.9-7.4-4.3-5-9.3Z" transform="translate(-853.1 -644.8)" style="fill: #d7b8bd"/>
    <path d="M942.4,826.1a24,24,0,0,1,5.2,9.5,2.3,2.3,0,0,0,1.7,2.6,1.4,1.4,0,0,1-1.5,1.5l-1.6-.2c-1.8-4.5-3.6-9-5.5-13.5Z" transform="translate(-853.1 -644.8)" style="fill: #a0535f"/>
    <path d="M980.5,843c-2.1,1.3-1.9,4.5-4.6,5.9-.8.4-1.8.8-2-.4a4.9,4.9,0,0,1,1-4.5c1.2-1.1,2.3-2.8,4.5-2.6S980.7,841.7,980.5,843Z" transform="translate(-853.1 -644.8)" style="fill: #f2ebe7"/>
    <path d="M1050.9,872.6c1.3,0,1.5,1.1,2,1.8,1.7,2.9,3.6,5,7.8,3.5,2.3-.8,2.5.4,1.2,1.9a7.6,7.6,0,0,0-2.6,0c-5.9,2.1-7.5-1.6-9-5.5v-1.7A.6.6,0,0,1,1050.9,872.6Z" transform="translate(-853.1 -644.8)" style="fill: #c17b87"/>
    <path d="M972.1,828.5c-2.4-1-5.4-.8-6.5-3.9s.4-1.9,1.5-1.6C970,823.5,972.3,824.9,972.1,828.5Z" transform="translate(-853.1 -644.8)" style="fill: #f2ebe7"/>
    <path d="M1002.8,827.2c-3,.7-4.7,3.2-7.4,4.3-1.2.6-3.1,2-4.1.4s1.1-2.2,2.2-2.9C996.3,827.2,999.5,826.9,1002.8,827.2Z" transform="translate(-853.1 -644.8)" style="fill: #f2ebe7"/>
    <path d="M949.3,838.2a2.3,2.3,0,0,1-1.7-2.6l2.7.2A24.4,24.4,0,0,1,949.3,838.2Z" transform="translate(-853.1 -644.8)" style="fill: #c17b87"/>
    <path d="M977.2,790.3c.8-1.3,1.9-1,3-.4C979.3,790.6,978.3,791.1,977.2,790.3Z" transform="translate(-853.1 -644.8)" style="fill: #c17b87"/>
    <path d="M946.2,839.5l1.6.2c-.2,1.2-.6,2.1-2.1,2.3C945.9,841.2,946,840.4,946.2,839.5Z" transform="translate(-853.1 -644.8)" style="fill: #c17b87"/>
    <path d="M1050.3,872.6v1.7c-.6-.1-1.2-.2-1.2-.9S1049.7,872.6,1050.3,872.6Z" transform="translate(-853.1 -644.8)" style="fill: #a0535f"/>
    <path d="M933.4,705.8c3.5-.1,4.2,2.5,4.4,4.8a6.5,6.5,0,0,1-5.9,7.2c-2.2.1-5-3.5-5.2-6.9S930.2,705.8,933.4,705.8Z" transform="translate(-853.1 -644.8)" style="fill: #fdfcfc"/>
    <path d="M972,724.1l.3.9c-.2.5.1.6.6.6l3.3,2.7a9.9,9.9,0,0,0,.2,1.7c-12,.4-13.6,1.2-26.4,12.6-.7-3.3.8-6.4-.1-9.4,4.1,2.9,6.7.7,9-2.4l3.4-1.9c4.2.4,7.2-1,8.9-4.6Z" transform="translate(-853.1 -644.8)" style="fill: #a0535f"/>
    <path d="M972,724.1l-.8.2c-1.7,3.6-4.7,5-8.9,4.6l-.3-2.4c2-2.3,6.8-2.6,5.6-7h4.2C971.9,720.9,972,722.5,972,724.1Z" transform="translate(-853.1 -644.8)" style="fill: #c17b87"/>
    <path d="M958.9,730.8c-2.3,3.1-4.9,5.3-9,2.4-.9-1-2.3-1.5-2.6-2.9,1.7-1.3,1.2-4.7,4.7-4.4.4,1.8-1.3,5.3,3.4,3.8A7.6,7.6,0,0,0,958.9,730.8Z" transform="translate(-853.1 -644.8)" style="fill: #c17b87"/>
    <path d="M952,725.9c-3.5-.3-3,3.1-4.7,4.4l-2.4-.4c-.2-1.1-2.5-.5-2.2-2.1l1.3-.5c2.9-.6,4.6-2.6,6.3-4.6a5.3,5.3,0,0,0,1.7-3.3h.7l1,1.7a1.3,1.3,0,0,1,.4.6,3.2,3.2,0,0,0-1.1,3.4Z" transform="translate(-853.1 -644.8)" style="fill: #a0535f"/>
    <path d="M942.7,727.8c-.3,1.6,2,1,2.2,2.1H933.6C936.4,728.1,938.8,724.6,942.7,727.8Z" transform="translate(-853.1 -644.8)" style="fill: #d7b8bd"/>
    <path d="M953.7,721.1l-1-1.7-.3-2.5v-1.5c.7-.7-.1-2,1.2-2.4l.7.6c.8,1.7,2.8,2.1,4,3.3l-1.3,1.4A6.1,6.1,0,0,0,953.7,721.1Z" transform="translate(-853.1 -644.8)" style="fill: #712e36"/>
    <path d="M971.8,719.4h-5.1V717a.9.9,0,0,0,.3-.6l.8-.2.8-.7,1.6-.3,2.8-.2C972.5,716.4,972.2,717.9,971.8,719.4Z" transform="translate(-853.1 -644.8)" style="fill: #a0535f"/>
    <path d="M976.4,730a9.9,9.9,0,0,1-.2-1.7c2.8,0,5.4,1,8,2C981.6,730.4,978.9,731.4,976.4,730Z" transform="translate(-853.1 -644.8)" style="fill: #d7b8bd"/>
    <path d="M950.3,722.7c-1.7,2-3.4,4-6.3,4.6C945,724.5,947.2,723.2,950.3,722.7Z" transform="translate(-853.1 -644.8)" style="fill: #d7b8bd"/>
    <path d="M952.4,716.9l.3,2.5H952c-.7-.1-1.6-.2-1.4-1S951.5,717.1,952.4,716.9Z" transform="translate(-853.1 -644.8)" style="fill: #d7b8bd"/>
    <path d="M972.9,725.6c-.5,0-.8-.1-.6-.6Z" transform="translate(-853.1 -644.8)" style="fill: #d7b8bd"/>
    <path d="M942.4,826.1h-1.7a12.5,12.5,0,0,0-4.5-5.5c-1.5-2.6-3.6-3.8-6.8-2.3-2.6-2.7-5.2-5.1-9-1.4-1.3,1.2-2.6-.2-3.8-.9s-2.4-1-1.8-2.3c2.2-4.5-1-2.7-2.9-2a10.5,10.5,0,0,1-5,.7c5.2-3,11.3-4.4,16.3-7.8A62.9,62.9,0,0,0,942,789a5.8,5.8,0,0,0,1.3-3.7l2.4-.3h2.8a52.9,52.9,0,0,0,9.2,3.9c1.2,3.3-.5,6.3-1.4,9.3-1.7,5.9-5,11.3-7.5,16.9C946.6,818.7,944.5,822.4,942.4,826.1Z" transform="translate(-853.1 -644.8)" style="fill: #712e36"/>
    <path d="M1020.7,799.1l-2.5-1c-5.1-4.5-11.4-7.7-15.3-13.2-1.4-2-3.6,0-4.9-1.3a13.7,13.7,0,0,0,2-1.3c1.7-1.4,3-2.1,3.8.7.2.9.9,2.1,2.2.5a65.6,65.6,0,0,1,16.4-5.3.7.7,0,0,0,.1.6c.1.5.3.8,1,.5l4.3.2.2.8c-.6,1.9.9,2,2.2,2.5,3.7,1.3,7.2,2.7,10.8,4.1-.6,1,.7,1.5.8,2.3-1.8.2-1.8.9-.9,2.1a10.2,10.2,0,0,1,1.7,7.2c-2.1-1-2.5-4.1-5.6-3.8-1.9-1.8-4.5-1.5-6.8-1.6-6.2-.2-6.8.4-6.9,5.7Z" transform="translate(-853.1 -644.8)" style="fill: #712e36"/>
    <path d="M1022.4,778.2a65.6,65.6,0,0,0-16.4,5.3c-1.4-1.8-.5-3.4.8-5s3.7-3.6,4.4-6.1c4.1,0,7.7,1.1,10.5,3.9Z" transform="translate(-853.1 -644.8)" style="fill: #f2ebe7"/>
    <path d="M948.5,784.9h-2.8c.3-1.3-.5-2.2-1.3-3.2-3.5-4.4-5.6-9.3-4.2-15C940.5,773.8,944.5,779.3,948.5,784.9Z" transform="translate(-853.1 -644.8)" style="fill: #c17b87"/>
    <path d="M913.5,732.7c-.1,1.2-.2,3.2-2,3.2s-1.2-2.5-1.4-3.8-.7-3,1.7-2.8S913.5,731.1,913.5,732.7Z" transform="translate(-853.1 -644.8)" style="fill: #f2ebe7"/>
    <path d="M1017.4,762.7a7.4,7.4,0,0,1-5.1,8.1A27.7,27.7,0,0,1,1017.4,762.7Z" transform="translate(-853.1 -644.8)" style="fill: #a0535f"/>
    <path d="M996.4,784.7l-.9,1.3Z" transform="translate(-853.1 -644.8)" style="fill: #712e36"/>
    <path d="M1072.2,884.4l.5-.6C1073,884.3,1072.7,884.5,1072.2,884.4Z" transform="translate(-853.1 -644.8)" style="fill: #c17b87"/>
    <path d="M1071.4,886.1l.5-.7C1072.1,885.9,1071.9,886.1,1071.4,886.1Z" transform="translate(-853.1 -644.8)" style="fill: #c17b87"/>
    <path d="M897,863.2l-1.8-.4c0-1.5-1.2-2.2-2.4-3a52.1,52.1,0,0,1-4.6-3c-2.7-2-6.7-4.7-5.3-7.4s6.1-1.8,9.6-1.6a2.5,2.5,0,0,1,2.7,2.1c1.5,5.8,5.9,8.8,12.3,9.1,4.7.3,8.7-1.2,12.4-3.2s10.4-4.7,15-8c.9-.7,1.5-.8,2.3.4s2.1,3.1,1.6,5.1l-7,4-9.5,4.7c-2.8,1-5.5,2.1-8.6,2.1-4.8-.1-9.6-.2-14.2-1.8A1.9,1.9,0,0,0,897,863.2Z" transform="translate(-853.1 -644.8)" style="fill: #c17b87"/>
    <path d="M931.8,857.3l7-4c3.3-1.2,5.8-4.1,9.9-4,0,2-2.6,1.8-2.9,3.3h0a2.1,2.1,0,0,0-1.8.7c-4.5,1.4-7.7,4.9-12.2,6.5Z" transform="translate(-853.1 -644.8)" style="fill: #712e36"/>
    <path d="M942.9,870l-15.4,25.4C929.3,885.3,934.7,876.9,942.9,870Z" transform="translate(-853.1 -644.8)" style="fill: #d7b8bd"/>
    <path d="M909.6,876c-.8-5.5.7-8.1,6.1-9.6,2-.5,3.6-1.8,5.8-1.7a3,3,0,0,1-1.6,2.3C915.3,868.8,912.9,872.8,909.6,876Z" transform="translate(-853.1 -644.8)" style="fill: #a0535f"/>
    <path d="M931.8,857.3v2.5a24.1,24.1,0,0,1-9.4,4.1c0-.6-.1-1.2-.1-1.9Z" transform="translate(-853.1 -644.8)" style="fill: #a0535f"/>
    <path d="M921.1,871.2a10.7,10.7,0,0,1,9.2-3A10.9,10.9,0,0,1,921.1,871.2Z" transform="translate(-853.1 -644.8)" style="fill: #d7b8bd"/>
    <path d="M933.6,899l-6,.2c.1-2,1.4-3.7,3.2-3.7S933.4,897.3,933.6,899Z" transform="translate(-853.1 -644.8)" style="fill: #a0535f"/>
    <path d="M943.7,868.1c.5-1.5.7-3.2,2.9-3.3.2-.1.6.3.6.4C946.9,866.9,945.6,867.8,943.7,868.1Z" transform="translate(-853.1 -644.8)" style="fill: #d7b8bd"/>
    <path d="M944,853.3a2.1,2.1,0,0,1,1.8-.7C945.6,853.6,945.3,854.6,944,853.3Z" transform="translate(-853.1 -644.8)" style="fill: #a0535f"/>
    <path d="M997.6,880.6c-4.7-4.7-6.5-10.9-9.1-16.6l1-.5,9.2,16.4Z" transform="translate(-853.1 -644.8)" style="fill: #d7b8bd"/>
    <path d="M1018.2,862c1.1.6,1.9,1.3,1.7,2.6C1018,864.5,1018.2,863.2,1018.2,862Z" transform="translate(-853.1 -644.8)" style="fill: #a0535f"/>
    <path d="M955.8,701.7c-3.3.3-4.5-1.3-3.7-4.1s.7-3.6,2.2-5.1,2.8-2.6,5.1-1.2a6.4,6.4,0,0,0,1.9.8c1.4.4,3.6-1.9,4.1.1s-.5,4.7-2,6.2A9.2,9.2,0,0,1,955.8,701.7Z" transform="translate(-853.1 -644.8)" style="fill: #fdfcfc"/>
    <path d="M966.9,716.4a.9.9,0,0,1-.3.6h-8.3c-1.2-1.2-3.2-1.6-4-3.3a2.7,2.7,0,0,1,4.3-.8C961.1,714.6,964.2,715.1,966.9,716.4Z" transform="translate(-853.1 -644.8)" style="fill: #d7b8bd"/>
    <path d="M968.5,715.5l-.8.7C967.7,715.7,967.9,715.4,968.5,715.5Z" transform="translate(-853.1 -644.8)" style="fill: #c17b87"/>
    <path d="M1124.6,903.1a5.4,5.4,0,0,1-4.4,1.6C1121,902.6,1122.9,903.2,1124.6,903.1Z" transform="translate(-853.1 -644.8)" style="fill: #712e36"/>
    <path d="M1120.3,904.7l-.9.8C1119.3,904.9,1119.6,904.7,1120.3,904.7Z" transform="translate(-853.1 -644.8)" style="fill: #712e36"/>
    <path d="M1022.4,778.2l-.7-1.9c2.8-1.5,5.3-.3,7.8.9v.8c-1.1,0-1.8.4-1.7,1.5l-4.3-.2-1-.5A.7.7,0,0,1,1022.4,778.2Z" transform="translate(-853.1 -644.8)" style="fill: #fdfcfc"/>
    <path d="M1068.1,775.6c-.3.5-.7,1-1.5.8Z" transform="translate(-853.1 -644.8)" style="fill: #a0535f"/>
    <path d="M906.9,812.3a10.5,10.5,0,0,0,5-.7c1.9-.7,5.1-2.5,2.9,2-.6,1.3.9,1.8,1.8,2.3s2.5,2.1,3.8.9c3.8-3.7,6.4-1.3,9,1.4-1.7,2.7-5.3,4.3-5.9,7.9l-1.4,2.4c-1.9-2-4.2-2.6-7-2.5a55.6,55.6,0,0,1-12.9-.8,15.8,15.8,0,0,1-7.2-3.3c-3.5-2.7-7.3-5.3-12.1-5.6,0-.5.1-1,.1-1.4,4-.2,8.2.1,12-.7a62.5,62.5,0,0,1,10.5-1.9c.5.6,1,.4,1.5,0Z" transform="translate(-853.1 -644.8)" style="fill: #a0535f"/>
    <path d="M1023.3,798.8c.1-5.3.7-5.9,6.9-5.7,2.3.1,4.9-.2,6.8,1.6-3.2,2-6.2,3.9-7.7,7.6-.8,2-3.7.5-5.6,1.2v-2.1c1.6-.6,1.7-1.3.1-2Z" transform="translate(-853.1 -644.8)" style="fill: #f2ebe7"/>
    <path d="M906.9,812.3h-1.4a62.5,62.5,0,0,0-10.5,1.9c-3.8.8-8,.5-12,.7h-1.7c-.2-3.5,2.7-5.9,3.9-8.8s3.2-.4,4.8-.8c9.2-.5,18.1-2,26.2-6.5l2.6-.7c1,2.5,5.4,2.9,4.4,6.5C918.2,807.9,912.1,809.3,906.9,812.3Z" transform="translate(-853.1 -644.8)" style="fill: #d7b8bd"/>
    <path d="M1029.7,688.7l-1.8-.7c.5-1.2-2.9-1.7-.6-3.2.6-.3,1.9-.6,1.8,0S1032.7,687.1,1029.7,688.7Z" transform="translate(-853.1 -644.8)" style="fill: #f2ebe7"/>
    <path d="M1023.6,684.7a17.1,17.1,0,0,1-1.1-1.4c.9.1,1.7.2,2.1,1.1Z" transform="translate(-853.1 -644.8)" style="fill: #f2ebe7"/>
    <path d="M1020,682.4a13,13,0,0,0-1-1.5,2.8,2.8,0,0,1,2.7,1.6Z" transform="translate(-853.1 -644.8)" style="fill: #f2ebe7"/>
    <path d="M1022.6,683.3l-.9-.8Z" transform="translate(-853.1 -644.8)" style="fill: #f2ebe7"/>
    <path d="M873.4,810.8l.4.2-.4-.2Z" transform="translate(-853.1 -644.8)" style="fill: #a0535f"/>
    <path d="M1041,786.9c-3.6-1.4-7.1-2.8-10.8-4.1-1.3-.5-2.8-.6-2.2-2.5h.8c1.9.5,3.9.9,5.5,2.2a4.9,4.9,0,0,0,4.8,1.2c1.1-.3,2.5-.6,3,.6A1.9,1.9,0,0,1,1041,786.9Z" transform="translate(-853.1 -644.8)" style="fill: #a0535f"/>
    <path d="M1028.8,780.2h-.8c-.1-.2-.1-.5-.2-.8s.6-1.5,1.7-1.5Z" transform="translate(-853.1 -644.8)" style="fill: #d7b8bd"/>
    <path d="M897,863.2a1.9,1.9,0,0,1,2.5-.9c4.6,1.6,9.4,1.7,14.2,1.8C908,866.9,902.4,865.8,897,863.2Z" transform="translate(-853.1 -644.8)" style="fill: #a0535f"/>
    <path d="M923.5,826.1c.6-3.6,4.2-5.2,5.9-7.9,3.2-1.5,5.3-.3,6.8,2.3-.7,1.8-.1,4.7-4.3,2.8S926.3,824.8,923.5,826.1Z" transform="translate(-853.1 -644.8)" style="fill: #f2ebe7"/>
    <path d="M1023.8,799.4c1.6.7,1.5,1.4-.1,2C1023.7,800.7,1023.8,800.1,1023.8,799.4Z" transform="translate(-853.1 -644.8)" style="fill: #d7b8bd"/>
    <path d="M953,725.1a3.2,3.2,0,0,1,1.1-3.4c2.2,1.8,4.6,1.5,6.7.4,1.3,1.5-3.6,3.8,1.2,4.4l.3,2.4-3.4,1.9a7.6,7.6,0,0,1-3.5-1.1C956.6,727.3,957,725.3,953,725.1Z" transform="translate(-853.1 -644.8)" style="fill: #d7b8bd"/>
    <path d="M962,726.5c-4.8-.6.1-2.9-1.2-4.4-2.1,1.1-4.5,1.4-6.7-.4a1.3,1.3,0,0,0-.4-.6,6.1,6.1,0,0,1,3.3-2.8c3.1,1.3,6.3,2.4,9.7,1.1h.9C968.8,723.9,964,724.2,962,726.5Z" transform="translate(-853.1 -644.8)" style="fill: #f2ebe7"/>
    <path d="M953,725.1c4,.2,3.6,2.2,2.4,4.6-4.7,1.5-3-2-3.4-3.8Z" transform="translate(-853.1 -644.8)" style="fill: #f2ebe7"/>
    <path d="M966.7,719.4c-3.4,1.3-6.6.2-9.7-1.1l1.3-1.4h8.3A19.3,19.3,0,0,1,966.7,719.4Z" transform="translate(-853.1 -644.8)" style="fill: #c17b87"/>
    <path d="M1022.5,778.8l1,.5C1022.8,779.6,1022.6,779.3,1022.5,778.8Z" transform="translate(-853.1 -644.8)" style="fill: #d7b8bd"/>
    <path d="M905.5,812.3H907C906.5,812.7,906,812.9,905.5,812.3Z" transform="translate(-853.1 -644.8)" style="fill: #712e36"/>
  </g>
</svg>