<svg xmlns="http://www.w3.org/2000/svg" viewBox="0 0 871.4 912.7">
  <g>
    <path d="M781.2,1323.2c-97.9,24.4-185.4,16.5-233.9-77.9-41.5-80.6-12.5-149.8,58.7-210.1-69.3-64-105.2-138-53.6-224,50.5-84.3,133.9-92.4,227.7-68.8,26.1-89.9,74.4-156.1,181.4-152.5,99.1,3.3,144.7,66.1,167.9,152,98.6-22.7,185.9-14,234.4,79.9,41.9,81,10,149.4-58.8,209.6,68.8,65.2,106.5,138.9,52.2,225.1-52,82.5-133.7,94.6-227.1,63.6-23.5,92.4-72.2,156.2-174.4,156.6S804.6,1413,781.2,1323.2Zm337.1-292c-1.3-84.7-78.3-155.4-167-153.1-86.7,2.1-157.9,71.1-158.7,153.6-.8,84.9,74,157,162.9,157S1119.6,1115.3,1118.3,1031.2Z" transform="translate(-519.7 -577.9)"/>
  </g>
</svg>
