<svg xmlns="http://www.w3.org/2000/svg" viewBox="0 0 326.2 369">
  <title>violetgrass</title>
  <g>
    <path d="M1448,1200.2c2.9,1.4,5.9,2.5,4.5,7.1s-3.5,8.3-1.6,13a2.5,2.5,0,0,1-1,3.1c-4.2,2.9-7.7,6.2-13.7,7.2s-9.3-2.9-13.3-6.1c-8.2-6.5-13.7-15.5-21.5-22.1-9.8-8.4-16.6-19.2-25.6-28.3-6.3-6.3-11.8-13.5-17.6-20.5-3.4-4-5.4-9.1-11-11-1.3-.5-1.3-2.2-1.2-3.6,2.3-.8,3.6.8,5.1,2s2.6,2.5,4.3,3.1c6.2,5.9,11.4,12.6,16.8,19.1s10,11.1,15,16.6q17.5,19.5,36.5,37.7l4.2,4.2c6.2,6.1,14.5,4.3,17.7-3.9a27.9,27.9,0,0,1,1.4-3.7C1448.5,1209.5,1448.2,1204.9,1448,1200.2Z" transform="translate(-1133.1 -861.8)" style="fill: #eaf0ec"/>
    <path d="M1422.9,1218.2c-8-7-15.1-14.9-22.5-22.5-15.9-16.2-30.6-33.5-45.4-50.7-2.7-1.6-4.5-4-6.3-6.3-10.5-13.6-21-27.3-30.3-41.8a9.6,9.6,0,0,1-1.2-3.2c-3.5-8.1-9.3-14.7-13.3-22.5-.4-2.1,1.1-1.8,2.4-1.9a3.5,3.5,0,0,1,2.1,2c2.1,4.4,5.7,7.9,7.8,12,3.6,7.1,9.5,12.7,13,19.8s7.8,10.3,10.7,16.1c2.7,4.1,7.4,6.6,8.9,11.6,7.1,8.4,14.3,16.6,21.5,24.8,5.1,5.8,10.1,11.8,15.2,17.7,10.2,11.8,21.9,22.3,32.4,33.8,2.2,3.1,6.6,4.4,7.5,8.8A3.3,3.3,0,0,1,1422.9,1218.2Z" transform="translate(-1133.1 -861.8)" style="fill: #2f4431"/>
    <path d="M1160.1,974.1a31.1,31.1,0,0,1,1.8-11.3c1.7-3.2,2.9-6.8,6.2-9,1.6-1.1,3.2-2.6,5.2-.5-3.5,6.3-4.6,13.3-5.7,20.3a20.7,20.7,0,0,0,4.1,15.9c4.2,5.5,9.4,10.6,10.1,18,.5,2.1.2,4.3,1.5,6.3,2.6,3.9,5.3,4.1,8.6.4l4-4.5c1.2-1.2,2.6-2.1,4.3-.7.5,3.2-.8,5.9-2.5,8.4a55.8,55.8,0,0,0-6.1,5.8c-3.7,4.3-8,3.7-10.9-1.2a10.1,10.1,0,0,1-1.8-5.1c.1-5.5-2.6-9.7-6-13.7s-4.4-6.6-7.1-10c-.9,2.1-.2,3.7.2,5.4,2,8.3,4.1,16.6,4.3,25.3a13.9,13.9,0,0,1-3.1,9.2c-1.6,1.9-3.4,2.6-5.6.8-.4-1.8.5-3.3.9-4.8,1.4-5.5,2.2-11,.7-16.6s-.7-10.6-2-15.7C1159.7,989.3,1161.2,981.6,1160.1,974.1Z" transform="translate(-1133.1 -861.8)" style="fill: #605dae"/>
    <path d="M1197.1,873a27.9,27.9,0,0,1,14.7-9.2,1.8,1.8,0,0,1,2.2.6c3.7,5,9.3,5.9,14.9,6.6,5.8,3.3,10,8.1,13.4,13.7,4.8,8,9,16.2,11,25.5-.2,2,.7,5.1-1.7,5.5s-2.7-2.8-3.4-4.6-1.8-6.8-4.5-9.3-2.8-4.5-3.5-7.1c-1.6-6-6.3-9.9-10.2-14.2s-16.9-5.4-22.7,0-6.6,9.8-9.3,15.1c-2.1,1.2-3.9,1.8-5-1.2s.1-6,1.6-8.9,3.8-7,1.9-11.1A1.8,1.8,0,0,1,1197.1,873Z" transform="translate(-1133.1 -861.8)" style="fill: #486832"/>
    <path d="M1297.7,1135.2l19.2-1.2c6-.4,9.5,3.6,11.7,7.9s.2,8.4-3.1,12.5c-5,6.2-11.2,9.8-18.4,12.4a3.9,3.9,0,0,0-2.7,2.6c-2.6,8.4-8.8,12.9-16.7,15.4-.9-3,1-4.7,3.1-6,4.6-3,8.2-6.6,9.7-12.1a6.3,6.3,0,0,1,4.4-4.3c7.9-2.5,14.1-7.1,18.2-14.4a3.8,3.8,0,0,1,1.4-1.4c4-3.5-.5-2.9-1.9-3.7s-4.6-2.7-7.3-3.1c-4.4-.9-9,.1-13.3-1.4C1300.2,1137.8,1298.2,1137.5,1297.7,1135.2Z" transform="translate(-1133.1 -861.8)" style="fill: #e8eaf5"/>
    <path d="M1229,872c-7.2.3-13-2.3-17.2-8.2,11.8-4.8,21.6-.4,30.6,7.1,6.8,5.7,11.1,13.2,14.4,21.2,2.4,5.8,4.1,11.9,6.2,17.9,1.7,8.2,2.8,16.5,8.2,23.4-1.1,2.2-2.9,1.8-4.7,1.3s-2.2-3.6-3-5.6a161.9,161.9,0,0,1-8-27.6c-2.7-12.5-8.9-23.1-19-31.1a13.8,13.8,0,0,0-9.4-3.6C1227,869.2,1229.9,869.8,1229,872Z" transform="translate(-1133.1 -861.8)" style="fill: #5c7443"/>
    <path d="M1197.1,873a3.4,3.4,0,0,0-.1,1c-3.2,6.2-7,12-9.1,18.7-1.5,4.8-1.6,9.8-3.1,14.6-.8,2.8-1.7,5.4-4.2,7.2-8,3.7-10,11.2-11.8,18.8-.7,5.4-1.5,10.7-4.3,15.5a1.2,1.2,0,0,1-1.4.3c-1-1.5-2.6-1-4-1.1s-.8-.6-1.1-1c1.5-6.6,6-12.3,5.5-19.8-.2-2.4,3.3-5.5,5.7-7.7s5.5-6.4,8.9-9.1,4.8-7.3,4.2-11.9,7.1-22.1,11.9-24.9C1195,873.1,1196.1,873.2,1197.1,873Z" transform="translate(-1133.1 -861.8)" style="fill: #f1f7ef"/>
    <path d="M1339.9,1087l15.4,18.9c5.8,4.1,8.9,10.7,14.1,15.4,3.4,3.1,6.9,6.3,8.6,10.8,9.6,11,19.4,21.8,30,31.9-.6,2.5-2.3,1.5-3.5.9s-3.7-2.1-5.5-3.1a9.9,9.9,0,0,1-2.5-2.5c-1.6-2.9-2.3-6.4-6.1-7.5-8.3-6-14.2-14.2-21-21.6s-11-11.9-15.3-18.8-8.9-11.1-12.9-16.9c-1.2-1.8-2.8-3.3-3-5.6S1338.5,1086.9,1339.9,1087Z" transform="translate(-1133.1 -861.8)" style="fill: #495f3a"/>
    <path d="M1449,1033.1c11.7-2.2,11.8-2,8.2,9.3a38.9,38.9,0,0,1-9.9,16.4c-1,1.1-2.4,2.1-2,3.8,1.1,5.3-1.5,8.8-5.2,12.1s-4.1,5.6-5.1,9-2.8,5.9-6.7,6.3a11.1,11.1,0,0,0-7,3.6c-4.5,4.8-10.1,6.2-16.3,5a6.4,6.4,0,0,0-5.1,1.3,61.2,61.2,0,0,1-11.9,6.2c-3.4.4-6.4,2.7-10,2.4-2.1-.2-4.4.2-6.1-1.5s1-3.4,3.2-3.4c8.7.7,16.7-.9,23.2-7.2a6,6,0,0,1,5.2-.8c4.4.1,8.8.8,12.6-2.3s7-5.6,11.6-6.6a5,5,0,0,0,3.7-3.1,42.8,42.8,0,0,1,8.2-12.9,8.6,8.6,0,0,0,2.1-6.5c0-1.9-.6-3.9.7-5.7,5.4-5,9.7-10.7,11.7-18,1.3-4.8,1.7-4.7-3.3-5.5C1449.8,1034.7,1448.8,1034.4,1449,1033.1Z" transform="translate(-1133.1 -861.8)" style="fill: #3c3a68"/>
    <path d="M1399.1,1161c3.4-.4,5,4.7,8.9,3,9.2,7.4,17.3,16,25.8,24.1,1.9,3.1,4.7,5.5,6.7,8.5s2.5,7.2-2.1,9.9a2.1,2.1,0,0,1-1.3-.5c1-3.9-.1-6.7-3.7-8.9s-4.3-4.1-6.8-5.6c-7.6-9-16.4-16.8-24.5-25.3C1400.7,1164.8,1398.5,1163.6,1399.1,1161Z" transform="translate(-1133.1 -861.8)" style="fill: #4e6b3a"/>
    <path d="M1292.8,929.1c1.3-.9,2.4-.3,3.8.1,9.3,2.8,17.9,6.7,23.9,15.1,2.3,3.2,6.6,1.8,9.8,1.5,9.5-.9,17.6,2.5,24.6,8.2,2.1,1.8,4.7,2.2,6.8,3.9,3.7,3.1,6.6,6.4,8.3,10.9a1.8,1.8,0,0,1-1,.9h-1.4a23.9,23.9,0,0,1-12.1-8.1,32.3,32.3,0,0,0-5.9-5.8,14.8,14.8,0,0,0-2.9-2.2c-5.5-4.1-11.7-5.3-18.3-4.5-4.4.6-8.2-.1-11.3-3.6-5.6-6.2-12.6-10.3-20.4-13.1C1295.1,931.8,1293.1,931.4,1292.8,929.1Z" transform="translate(-1133.1 -861.8)" style="fill: #eef4ea"/>
    <path d="M1292.8,929.1c2.1,1.8,4.9,2,7.3,3.1,5.8,2.8,11.8,5.5,16,10.6s7.8,5.6,13.4,5,13.3.2,18.4,5.4c-.5,2.5-2.3,1.7-3.8,1.4s-2.7-1.3-4.2-1.4a24.4,24.4,0,0,1-4.4-1.3c-4-1.4-8,0-12-.1a15.8,15.8,0,0,1-3.7-1.1c-2-1.2-4.2-2.3-5.5-4.2-3.8-5.7-9.4-8.1-15.6-9.8a31,31,0,0,1-7.8-3.1c-4.7-2.7-9.5-2.7-14.4-1.5a13.7,13.7,0,0,1-4.5.3c-1-.6-2.6-.7-1.9-2.6C1277.6,927.7,1285.2,926.9,1292.8,929.1Z" transform="translate(-1133.1 -861.8)" style="fill: #62764b"/>
    <path d="M1278,957a9.2,9.2,0,0,0,1.7,5.1,9.1,9.1,0,0,1,2.4,6.8c-.3,1.1-.6,2.1-1.9,2.3-3.2-2.5-2.7-6.7-4.4-10s-2.4-6.8-3.6-10.1c-2.2-6.1-1.5-8,4.1-11.9,3.3-.9,6.6-.5,9.9-.5l1.6.3c4.7,1.3,9.8,1.6,13.7,5.2a86.4,86.4,0,0,1,10.2,11.5c1.1,1.5,1.9,3.4,0,4.8s-2.6-.9-3.6-1.8c-5.4-6.5-11.2-12.2-20.3-13.4s-11.4,1.2-9.8,9.7A13.3,13.3,0,0,1,1278,957Z" transform="translate(-1133.1 -861.8)" style="fill: #314621"/>
    <path d="M1339.9,1087a2.2,2.2,0,0,0-.9,2,1.7,1.7,0,0,1-1.9.4,3.1,3.1,0,0,1-1.1-.9c-3.3-5.2-6.7-10.3-10.3-15.3-.5-3.5-2.9-6-4.8-8.7-3.5-5.6-7.1-11-9.6-17.1-1.1-2.5-3.5-4-4.6-6.4-2.6-5.3-4.8-10.8-7.8-15.9-1.2-2-2.1-4.7,1-6.4,4.2,3,5.1,8.1,7.8,12,4.1,8.2,9.1,15.9,12.1,24.6,1.3,1.8,1.3,4.3,3.3,5.7,5,4.7,8.2,10.6,11,16.8Z" transform="translate(-1133.1 -861.8)" style="fill: #4f6238"/>
    <path d="M1307,1070c-1.2,0-2.5-.1-3.1,1.2q-11.4-22.7-22.7-45.3c-4.3-3.9-5-9.6-7.3-14.6-3.3-7.4-6.6-14.9-7.4-23.1a2.6,2.6,0,0,1,1.5-1.6c2.7-.4,2.7,1.7,3.3,3.4,3.4,10.4,6.6,20.8,12.1,30.5,2.1,3.8,3.4,8.2,5.1,12.3,4.9,12.2,11.5,23.6,18.1,34.9A2.4,2.4,0,0,1,1307,1070Z" transform="translate(-1133.1 -861.8)" style="fill: #394d36"/>
    <path d="M1317.2,1093.7l28,38.7c3.1,4.3,6.5,8.4,9.8,12.6-3.9-.7-5.3-5.1-9-6-5.6-3.3-7.3-9.2-10.4-14.3-4.8-7.7-10.9-14.5-16.1-21.8C1317.7,1100.4,1314.7,1097.6,1317.2,1093.7Z" transform="translate(-1133.1 -861.8)" style="fill: #e7efe9"/>
    <path d="M1278,957c-1.5-2.2-2.8-4.9-2.4-7.3.6-4,3.5-6.1,7.8-6.1,11.1.2,19.4,5.6,25.6,14.4,1.8,4-.1,7.6-1,11.4a5.4,5.4,0,0,1-1.6,2.6,1.2,1.2,0,0,1-1.4,0c-.5-3.9-1.2-7.8.1-11.6a3.3,3.3,0,0,0-1.2-4c-4.2-3.8-8.2-8.1-14.5-8.4a9.2,9.2,0,0,1-2.8-.9c-4.3-2-8,.6-7.5,5.4C1279.3,954.2,1280.5,956,1278,957Z" transform="translate(-1133.1 -861.8)" style="fill: #eaf1e9"/>
    <path d="M1271.9,1030.1c1.4,5.9,6,10.3,8.2,15.8-.4,2.8-2,1.8-3.5,1.1a31.3,31.3,0,0,1-8.8-14.7c-2.3-9.3-7.4-15.9-17.1-17.9-2.9-.7-3.5-2.7-4.2-4.9a12.4,12.4,0,0,1-.2-7.4c.5-1.9.1-3.8.4-5.8s0-3.4,2.5-3.4c2.5,4.3.4,9.3,1.8,13.7.4,2.7,2.6,3.1,4.6,3.8,4.7,1.8,9,4.1,11.2,9S1271.6,1025.8,1271.9,1030.1Z" transform="translate(-1133.1 -861.8)" style="fill: #6c7c52"/>
    <path d="M1316.3,1138.8c2.6.2,4.6,1.8,6.7,3.2s3.9,2.3,2.1,5a31.4,31.4,0,0,1-20.1,16.7,4.8,4.8,0,0,0-3.8,4.1c-.9,5-4,8.3-8.1,10.8-2.5,1.5-4.6,3.3-5.4,6.2-4.2.3-7.7-2.4-11.7-3.1a.9.9,0,0,1,.3-1.2,4.3,4.3,0,0,1,2.9-.6c8.6,1.8,12.9-4,17-9.8.3-.7.7-1.3,1-2,1.6-3.1,1.5-7.5,6.5-7.9,7.6-2,14.4-5,17.3-13.2.9-2.5-1.2-3.1-2.7-3.9s-2.9-1-3.8-2.2S1314.3,1138.3,1316.3,1138.8Z" transform="translate(-1133.1 -861.8)" style="fill: #35396c"/>
    <path d="M1162.1,996.9c2.1,12.4,4.9,24.7-.1,37.1,0,3.3-2.6,5.3-4.1,7.8a35.3,35.3,0,0,1-15.6,9.4c-1.6.5-4,.3-3.4,3.2a3.3,3.3,0,0,1,.1,2.6l-2.7-1.3c-1.5-.9-3.5-1.7-3.2-3.9s2.6-1.6,4-2.1c8.4-3.2,17-5.9,21.6-14.8,3.8-7.2,5.6-14.7,3.2-22.5-1.5-4.8-.4-9.6-1.1-14.3A1.8,1.8,0,0,1,1162.1,996.9Z" transform="translate(-1133.1 -861.8)" style="fill: #454a78"/>
    <path d="M1438,1206c4.5-3.7,4.3-5.1,1-9.8-1.9-2.5-6.1-3.8-5.2-8.1l.3-.2a31.2,31.2,0,0,1,5.6,4.6,92.8,92.8,0,0,1,7.1,6.9l1.2.8c2.9,4.8,1.8,9.7,0,14.6-1.5-1.3-2.9,1.4-4.3.1s-1.3-3.1-3.6-3.3C1435.9,1211.3,1435.7,1209,1438,1206Z" transform="translate(-1133.1 -861.8)" style="fill: #334a28"/>
    <path d="M1375.1,1105c-1.5-.8-2.6-.5-3.2,1.1s-.6.3-.9-.1h0c.8-7.3.8-14.7,7.3-19.9,7.3-8.7,7.3-15.4.4-24.5-5-6.6-11.8-11-17.9-16.3a1.7,1.7,0,0,1,1.1-.9c11.8,5.9,21.1,14,24.9,27.1.6,1.9.9,3.9,2.4,5.3-.2,2.5-2.5,3.4-3.6,5.2-4.3,5.5-9.4,10.7-8.5,18.7A5.1,5.1,0,0,1,1375.1,1105Z" transform="translate(-1133.1 -861.8)" style="fill: #4d4e82"/>
    <path d="M1330.2,1018.9c-.5-2.6-2.1-4.5-3.3-6.7s-.5-7,1.1-10.3c.7-1,1.5-1.6,2.7-1.3,1.3,4.1.9,9,4.7,12.2.2,2.7,2.1,4.3,3.7,6.2s6.7,6.3,5.5,11.6c-1.1,1.7-2.5-.6-3.6.3l-1.1-.9C1336.3,1026.6,1332.3,1023.6,1330.2,1018.9Z" transform="translate(-1133.1 -861.8)" style="fill: #525294"/>
    <path d="M1245.9,1113.2c-5.4-9.4-9.7-19.3-14-29.2a15.5,15.5,0,0,1-3-7.1c-.4-3.3-.2-6.6-.5-9.8s3.4-4.9,4.2-7.8a9.8,9.8,0,0,1,6.6-4.6c2.7,1.8.6,3.1-.4,4.6l-1.1.9a20.1,20.1,0,0,0-4.4,10.4c-.3,6.9,2.1,13.1,4.9,19.2s5.1,11.6,8.1,17.1c.8,1.5,1.6,3,1.3,4.7A2.5,2.5,0,0,1,1245.9,1113.2Z" transform="translate(-1133.1 -861.8)" style="fill: #4e517d"/>
    <path d="M1449,1033.1a2.5,2.5,0,0,0,2.1,1c-.2,2.1-2,2-3.3,2.1a19.6,19.6,0,0,0-7.5,2.5c-4,.6-7,3.9-11.1,4.4-8.3.1-14.7-3.7-19.9-9.7a72.2,72.2,0,0,1-8.9-13.8c-1.7-4.7-5.2-8.7-6-13.7a1.5,1.5,0,0,1,.8-1.1c4.1,5.3,6.7,11.4,9.8,17.3,4.3,7.9,10,14.4,19,17.4,3.2,1.1,6.4,1.4,8.9-.9C1437.6,1034.4,1443.1,1033.2,1449,1033.1Z" transform="translate(-1133.1 -861.8)" style="fill: #595884"/>
    <path d="M1139,1057l-1-2.2c4.3-1.6,8.8-2.4,13-4.4,2.2-1.1,4.5-.2,6.7.6,6.5,4.3,13.8,6.9,21.1,9.7,1,1.4,0,2.3-.8,3.3-5.5-2.4-11-4.5-16.3-7.2-2.9-1.4-5.1.2-7.6.7C1149,1058.4,1144,1059.1,1139,1057Z" transform="translate(-1133.1 -861.8)" style="fill: #343c71"/>
    <path d="M1276,1181.1v.6a15.8,15.8,0,0,1-8.3-4.3c-3-3.2-5.8-3.1-9.7-2-9.1,2.8-17-.3-24.2-5.8-1.1-.9-.8-1.5-.2-2.5s2.3-4.7,3.5-7.1a.9.9,0,0,1,1.3.3,2.4,2.4,0,0,1,.5,1.4c.3,8.2,3.9,11.4,12.5,10.9,2.1-.2,4.2-.9,6.4-1s6.6-1.5,9.5,1.4a37.2,37.2,0,0,0,6.2,4.9C1274.6,1178.6,1276.5,1179,1276,1181.1Z" transform="translate(-1133.1 -861.8)" style="fill: #3c3a76"/>
    <path d="M1287.2,1084.9c2.3,7,1,14.2,1.3,21.2s-.5,16.4,3.4,24c-.4.9-.2,2.5-2.1,1.9-3.1-2.7-3.7-6.4-4.3-10.2-1.5-10.2-.8-20.5-.9-30.7,0-2.1-1.2-4.5,1-6.3A1.5,1.5,0,0,1,1287.2,1084.9Z" transform="translate(-1133.1 -861.8)" style="fill: #484c81"/>
    <path d="M1215,1063.9a31.2,31.2,0,0,1-13.4-2.4c-4.7-2.1-9.8-2.5-14.6.5l-9,2c.3-1,.7-2,1-2.9l.4-.7a7,7,0,0,1,4.1-1.6c4.7.1,8.5-3.3,13.2-3.6,3.6,2.1,6.9,5.5,11.6,2.4,3.1,1.5,6.4,2,9.6,3.1C1218.5,1063.2,1216.9,1063.7,1215,1063.9Z" transform="translate(-1133.1 -861.8)" style="fill: #303563"/>
    <path d="M1296,997c-3.5.1-3.5-4-6.1-5a1.6,1.6,0,0,1-1.9-1.2c-2.3-7.4-6.5-14.2-6.8-22.2l-1.5-6.5c2.6,0,3.7,2.2,4,3.8a76.3,76.3,0,0,0,12.1,29.1A4.3,4.3,0,0,1,1296,997Z" transform="translate(-1133.1 -861.8)" style="fill: #e7ede3"/>
    <path d="M1370.9,972c2.4,4.7,7.9,6.9,10.2,11.7a1.3,1.3,0,0,1,.3.8c0,.3-.1.5-.2.5-3.8,0-5.4-3.3-7.6-5.5s-5-3.6-8.4-3.1-7.3.8-10.8,1.7a79.1,79.1,0,0,1-14.6,0,6.5,6.5,0,0,1-3-1.8,2.5,2.5,0,0,1,0-2.5,5.1,5.1,0,0,1,1.5-.7,68.5,68.5,0,0,0,26.3-1.8h1.5C1367.7,971.6,1369.3,971.4,1370.9,972Z" transform="translate(-1133.1 -861.8)" style="fill: #82869e"/>
    <path d="M1287.2,1084.9H1286c-1.5.2-1.7-1-2.1-2-.2-3.9-1-7.8-1.4-11.8-1-11.4-7.5-17.4-18.4-19.4-1.2-.6-2.4-1.3-2.5-2.9s1.2-1.7,2.3-1.9c3,.5,6.1.2,8.9,1.7.2.9.4,1.7,1.6,1.6,3.6-.5,5,1.6,5.6,4.7a42.6,42.6,0,0,1,6.2,22.3A19.7,19.7,0,0,0,1287.2,1084.9Z" transform="translate(-1133.1 -861.8)" style="fill: #6d7198"/>
    <path d="M1378,1132.1c-7.8-8.5-16.3-16.5-22.7-26.1,4.7-.2,6.7,4,9,6.6s6.2,8.3,11.1,11C1378.4,1125.3,1378.3,1128.9,1378,1132.1Z" transform="translate(-1133.1 -861.8)" style="fill: #e4ebe5"/>
    <path d="M1273.1,1049.9c-2.8-1.7-6.2-.5-9-1.9-5.3-.7-9.6-2.7-12.3-7.5,1.1-1.9,2.9-1.5,4.2-.6a29.2,29.2,0,0,0,16.7,4.7,5.3,5.3,0,0,1,4.1,1.5c1.2,1.2,2.3,1.1,3.3-.2s2.2,1.8,3,3C1279.9,1051,1276.6,1050.9,1273.1,1049.9Z" transform="translate(-1133.1 -861.8)" style="fill: #afb9a5"/>
    <path d="M1163.1,949.1h.7a48.8,48.8,0,0,1,7.5-1.2c2.6.4,4.8-1.7,7.4-1.1.9,3.7-2.4,4.7-4.3,6.6a1.7,1.7,0,0,1-1.4-.3c-6.7,1.3-8.8,6.5-10.5,13.5-.4-2.1-.5-2.9-.6-3.7s.7-3.9,1.1-5.8,0-4,.2-6Z" transform="translate(-1133.1 -861.8)" style="fill: #5a5984"/>
    <path d="M1305,972h.9c2.3,2.1.9,5.2,1.9,7.6a16.7,16.7,0,0,1,.5,3.1c-.3,4.1,2.2,8.1.7,12.3C1303.8,989,1300.3,977.8,1305,972Z" transform="translate(-1133.1 -861.8)" style="fill: #e6e9e5"/>
    <path d="M1238,1160h-.9c1-4.6,5.2-5.8,8.6-7.6s7.3-4.5,9.5-8.5-1-6.3,1.3-9.1a1.6,1.6,0,0,1,1.2.9c2.5,8.4-1.4,13.9-8,18.2l-8.7,5.8A3.5,3.5,0,0,1,1238,1160Z" transform="translate(-1133.1 -861.8)" style="fill: #454878"/>
    <path d="M1334.1,1077.8a167.2,167.2,0,0,1-11-16.8C1328.7,1061.5,1334.8,1069.8,1334.1,1077.8Z" transform="translate(-1133.1 -861.8)" style="fill: #e7ece5"/>
    <path d="M1270.1,929.8l1.8,2.2a1.1,1.1,0,0,1-.9,1c-4.8.2-3.9-3.9-4.6-6.3-1.5-5.5-4.5-10.7-3.4-16.7C1266.1,916.3,1266.5,923.6,1270.1,929.8Z" transform="translate(-1133.1 -861.8)" style="fill: #495b33"/>
    <path d="M1245.9,1113.2l1.1-1.2c1.6.3,2.4,1.6,3.1,3,2.3,5.7,6.2,10.8,6.8,17.1-.2,1-.4,2.2-1.9,1.9C1252.7,1126.7,1248.9,1120.2,1245.9,1113.2Z" transform="translate(-1133.1 -861.8)" style="fill: #454878"/>
    <path d="M1341,1030.9c1.1-2.9,2,.5,3,.1,5.6,2.6,10.4,6.5,15.3,10.2,1.1.9,2.3,2,1.7,3.8l-.2.3A107.8,107.8,0,0,1,1341,1030.9Z" transform="translate(-1133.1 -861.8)" style="fill: #4b4d7a"/>
    <path d="M1371,1106h.9c5.4,2.6,10.7-.4,16.1,0-3.7,2.2-7.2,4.5-11.8,4C1373.4,1109.7,1371.4,1109.1,1371,1106Z" transform="translate(-1133.1 -861.8)" style="fill: #dfe2ec"/>
    <path d="M1378.3,1086.1c-3.6,4.1-5.7,8.8-5.4,14.3.1,2.2-1.6,3.6-1.9,5.6C1368.5,1099.3,1371.8,1090.4,1378.3,1086.1Z" transform="translate(-1133.1 -861.8)" style="fill: #dddfee"/>
    <path d="M1380.9,985c.1-.4.1-.9.2-1.3,7,5.4,10.5,13.3,14.1,21.1l-.2.2a1.8,1.8,0,0,1-2.5-1C1389.2,997.3,1384.1,991.8,1380.9,985Z" transform="translate(-1133.1 -861.8)" style="fill: #636b92"/>
    <path d="M1158,947l1.1,1c-1.6,5.6,1.2,11.5-1.5,17.1C1157.5,959,1155.9,953,1158,947Z" transform="translate(-1133.1 -861.8)" style="fill: #dcdcde"/>
    <path d="M1273.1,1049.9l10-1c.9,3-2.3,3.9-3.1,6.1-1.6-2.7-4.3-3.7-7.2-4.2a.8.8,0,0,1,0-.5Z" transform="translate(-1133.1 -861.8)" style="fill: #565e67"/>
    <path d="M1162.1,996.9l-1.3,1.2c-2.1-8-1.1-16-.7-24,1.7,2.4.8,5.1.8,7.6A96.4,96.4,0,0,0,1162.1,996.9Z" transform="translate(-1133.1 -861.8)" style="fill: #443f71"/>
    <path d="M1291,1132c0-.8,0-1.6.9-1.9,2,1.5,3.1,4.2,5.8,5.1l4.2,2c-.2,1.9-1.6,1.6-2.8,1.7C1295.4,1137.8,1292.5,1135.7,1291,1132Z" transform="translate(-1133.1 -861.8)" style="fill: #1a2151"/>
    <path d="M1439,1192.9a11.8,11.8,0,0,1-4.9-5c3.9-1.3,5.7.9,7,4A2,2,0,0,1,1439,1192.9Z" transform="translate(-1133.1 -861.8)" style="fill: #e4ece4"/>
    <path d="M1439,1192.9c.5-.9,1.3-.9,2.1-1,2.6,1.9,4.2,4.7,5.7,7.5C1444,1197.5,1441.1,1195.7,1439,1192.9Z" transform="translate(-1133.1 -861.8)" style="fill: #d4ddd2"/>
    <path d="M1255,1134c.9-.4,1-1.2,1.1-2,2.1.5,1.7,1.7.9,3-2.4,2.6.4,6.3-1.8,8.9C1255.1,1140.6,1255.1,1137.3,1255,1134Z" transform="translate(-1133.1 -861.8)" style="fill: #5462af"/>
    <path d="M1370.9,972c-1.3.6-2.6,1.8-3.9,0s1.2-2.1,2-3l1-.2C1371.6,969.5,1371.4,970.7,1370.9,972Z" transform="translate(-1133.1 -861.8)" style="fill: #5c626b"/>
    <path d="M1163.2,951c1.2,2,1.5,4-.2,6C1161.3,954.9,1161.5,952.9,1163.2,951Z" transform="translate(-1133.1 -861.8)" style="fill: #454752"/>
    <path d="M1444,1215c3.4-2.5,3.4-2.5,4-.2-1,3.5-2.2,6.7-5.3,9.1-5.7,4.4-10,4.3-15-.7l-4.8-5a3.6,3.6,0,0,1,2-2.2c2.1-.1,3.4,1.3,4.7,2.5,5.1,4.4,7.6,4.2,12-1A7.2,7.2,0,0,1,1444,1215Z" transform="translate(-1133.1 -861.8)" style="fill: #223b1e"/>
    <path d="M1307,1070a196.6,196.6,0,0,1-18.7-34.3c-3.4-8-7.5-15.8-10.7-23.9s-6-14.3-7.6-21.9c-.2-1.4-.2-2.7-2-2.9-2.2-2.1-2.7-5-3.2-7.7-1.3-6.9-3.7-13.4-5.8-20.1s-4.7-15.4-6.7-23.3c-2.6-10.7-5.9-21.3-9.1-31.9a3,3,0,0,1,.8-3c3.2.9,3.3,3.9,4.2,6.3a30.6,30.6,0,0,0,3.8,7.7v-5c2.8.4,2.9,2.9,3.5,4.8,4.3,14.7,7.9,29.6,12,44.4,1.9,7,4,14.1,5.8,21.2,1,14,7.9,26,13.1,38.7,3.6,8.8,8.6,16.7,12.6,25.2a49.9,49.9,0,0,0,7.6,11.5,15.4,15.4,0,0,1,2.2,3c1.6,5.7,6.5,9.5,8.2,15.1,1.8,7.6,5.4,14.3,9.6,20.7s9.6,15.1,16,21.6a2.9,2.9,0,0,1,.9,2.2c-.9,2.2-2.3,2.9-4.4,1.6l-15-22.6a29.7,29.7,0,0,0-2.7-3.5c-2-2.1-4.4-3.8-4.3-7.3,0-1.4-1.4-3.1-2.6-4C1310.2,1079.3,1308.8,1074.6,1307,1070Z" transform="translate(-1133.1 -861.8)" style="fill: #4b6a40"/>
    <path d="M1339.1,1120c1.7.1,3.2-.2,3.9-2,2.2-1.4,3.5.3,4.6,1.5,9.3,9.8,18.6,19.5,26.3,30.6,3,4.3,6.8,7.6,10.8,10.9,8.3,8.5,16.9,16.7,25.9,24.5,1.3,1.2,2.8,2.4,2.8,4.5-1.6,2.5.7,5.5-1.1,7.9-2.5.9-3.7-1-4.9-2.4-5.9-7.2-12.6-13.7-19-20.3s-12-12.8-17.5-19.6-10.5-10.9-15-17.1a31.3,31.3,0,0,0-7.9-7.5C1346.2,1126.4,1341.5,1124.1,1339.1,1120Z" transform="translate(-1133.1 -861.8)" style="fill: #46623e"/>
    <path d="M1412,1198c-.1-1.8.2-3.5-.6-5.3s-.2-2.5,1.6-2.7c3.6.3,5.2,3.6,7.8,5.5,4.6,3.1,7.1,8.2,11,12,1.7,1.6,1.3,3.9,1.4,6,1-2.5,1.5-5.1,3.2-7.1l.6-.4h1c.3,2.1-2.3,5.7,3.3,4.3,3-.8,3.4,2.2,2.7,4.7a11.3,11.3,0,0,1-4.8,6.5c-3.4,2.3-6.3,2.1-9.2-.9s-3.4-3-5.1-4.6c-1.7-3.5-5.6-5-7.9-8.1,1-2.8-1.2-3.9-2.8-5.4S1410.6,1200.5,1412,1198Z" transform="translate(-1133.1 -861.8)" style="fill: #416232"/>
    <path d="M1412,1198c.1,2.9,3,3.2,4.5,4.7s3.9,3.1.5,5.2c-4.2-4.4-8.4-8.9-12.8-13.2-10.4-10-19.9-20.8-29.4-31.6s-16.7-19.9-25.6-29.5a10.3,10.3,0,0,1-1.2-2.6c2.4-.9,3.6,1,4.8,2.4,7.5,7.9,15.3,15.8,21.9,24.4,10.3,13.2,23.1,24,33.6,36.9A23.5,23.5,0,0,0,1412,1198Z" transform="translate(-1133.1 -861.8)" style="fill: #506952"/>
    <path d="M1157,1041l5-7c5.1.5,6-3.8,6.8-6.9s1.3-8.1-.3-11.1c-2.4-4.7-.1-10.2-3.3-14.6-.6-.8-.2-2.2-.2-3.4s.2-2.7,2.1-2.2,1.5,1.2,2,2.1c4.6,8.2,10.7,15.7,12.2,25.4a25.4,25.4,0,0,0,2.1,6.6c2.4,5.8.9,9.1-5.2,10.9-2.3.7-4.5,1.3-5.5,3.7s-2.7-1-3.9-1.8c.6,1.3,1.2,2.6.5,4.1-2.4,1.2-3.5-.9-4.7-2.2s-3.8-3.1-6.4-2.8A2.5,2.5,0,0,1,1157,1041Z" transform="translate(-1133.1 -861.8)" style="fill: #444f9c"/>
    <path d="M1199.8,1008.9c-3.7.4-4.8,4.1-7.1,6.2s-2.3,4.9-5.6,3.4-5.8-3.2-6.1-7.1c-.1-1.1,0-2.3,0-3.4-.9-6.6-2.5-12.9-5.9-18.7a3.7,3.7,0,0,1-.5-2.9c2.7-1.6,3.7.9,5,2.2a13.2,13.2,0,0,1,3.1,5.4c.9,3.2,1.1,6.6,2.9,9.5s3.4,3.3,5.4.4,3.9-5.1,4.7-8.1c1.8-6.8,5-13.1,6.5-19.9a15,15,0,0,0-.3-8.4c-.8-2.9-2.1-5.8,0-8.7,5.1,1.7,7.3,5.4,7.4,10.5a90.5,90.5,0,0,1-3.9,28.3C1204,1001.6,1203.5,1006,1199.8,1008.9Z" transform="translate(-1133.1 -861.8)" style="fill: #737dc4"/>
    <path d="M1172,1045c-.2-3.1.5-4.8,4.3-5.1,6.5-.5,8.4-4,5.7-9.9a34.9,34.9,0,0,1-2.2-9c-1.5-9.2-8.9-15.4-12.3-23.7-.7-1.6-2.2-1.4-2.5.7-1.7-2.4-1-4.9,0-7.6,4.6,9.2,15.2,14.7,15.1,26.6,0,1.9,1.2,3.8,2.2,5.5,2.2,3.4,5.8,3.6,8.1.3a14.8,14.8,0,0,1,6.6-5.8c.8,6.5,0,12.9-.1,19.4-5,4.5-9.2,9.9-14.7,13.9-2.2,1.7-4.5,2.1-6.9.3S1170.7,1048.3,1172,1045Z" transform="translate(-1133.1 -861.8)" style="fill: #4d58a6"/>
    <path d="M1175,986c3.8,6.9,6.8,13.9,6,22-1.8-9.2-9.2-15-13.5-22.7a11.5,11.5,0,0,1-1.5-5.6c0-7.4,1.5-14.5,3.2-21.5.5-1.9,2.5-3.5,3.8-5.2h.8a1.8,1.8,0,0,1,.8,1.3,4.5,4.5,0,0,1-.3,1.6c-1.6,7-3.3,14,.1,21.2C1175.7,979.7,1176.4,982.9,1175,986Z" transform="translate(-1133.1 -861.8)" style="fill: #726ac2"/>
    <path d="M1196,1037c.2-6.7-1-13.4,1-20l2.8-8.1,4.2-11c.9-.2,1.4.4,1.7,1.2.1,5.8-3.7,10.6-4.7,16.1-3.8,9.9-1.9,19.2,2.5,28.3-1.8,2.1-1.9,2.1-4.9-1C1198.1,1040.5,1195.9,1039.3,1196,1037Z" transform="translate(-1133.1 -861.8)" style="fill: #494f82"/>
    <path d="M1272,981c-4.5-16.5-9.2-32.9-13.5-49.4-2-7.3-3.2-14.8-6.5-21.6-4.1-14.8-10.6-28.2-23-38-.8-.9-1.5-1.8-2.3-2.6s-2.9-.8-1.7-2.8a3.1,3.1,0,0,1,3.9-1.4c3.6,1.3,7.3,2.5,10,5.4,6.4,6.8,12.9,13.5,15.4,23.2,3.5,13.5,7.1,27,11.7,40.1,2.6,3.9,1.9,8.8,3.8,12.8a63.3,63.3,0,0,0,2.4,8.8c-.1,5.6,3.2,9.9,5.3,14.7.9,2,2,3.9.8,6.1-3.1,2.5-1.1,6.6-2.9,9.5C1272.1,985.7,1273.6,982.3,1272,981Z" transform="translate(-1133.1 -861.8)" style="fill: #7b9f59"/>
    <path d="M1167.8,932.6c1.3-8,4.2-15,12-18.9,3.6,2.1,7.6.4,8.1-3.9s1.5-7.7,2.4-11.6c.4-1.9.7-4.4,3.7-4.2.5,3.4,2.7.5,4,1a.9.9,0,0,1,1.3.1c.9,1.5.6,2.9.2,4.4-1.7,5.9-1.9,11.7,2,16.9-.3,2.6-2,1.8-3.4,1.5-8-1.1-9.4-.5-12.5,6.4-.9,2-2.1,3.7-3.1,5.6l-3.9,6.4c-1.7,2.9-3.8,5.9-7.8,4.4S1167.5,935.8,1167.8,932.6Z" transform="translate(-1133.1 -861.8)" style="fill: #466827"/>
    <path d="M1194,894c-4,4.6-3.9,10.4-4.5,15.9-.2,2.3-6.4,8.3-8.4,7.6s-.8-2.6-1.3-3.8c4.5-3,4.2-8,4.8-12.4a59.1,59.1,0,0,1,9.3-24.3,8.9,8.9,0,0,1,3.1-3c4.7,4.2.4,8-1,11.5S1193.7,890.9,1194,894Z" transform="translate(-1133.1 -861.8)" style="fill: #355323"/>
    <path d="M1199.2,895.1H1198c1.2-8.7,6-14.8,13.5-18.8,4.9-2.7,16.1-.3,21.1,4.9s8.1,13,11.4,19.9v3a2.3,2.3,0,0,1-1.4.4c-2.9-2.9-3.5-7-5.4-10.4-3-5.1-6.3-9.7-12.1-12.1s-11.3-2-16,2.4c-2.7,2.4-5.4,4.9-7.1,8.3C1201.5,893.7,1200.9,895,1199.2,895.1Z" transform="translate(-1133.1 -861.8)" style="fill: #2f4925"/>
    <path d="M1299,1138c1-.1,2.1.2,2.9-.8,4.7,1.2,9.8-.7,14.4,1.6-1.2.4-2.8.7-.6,1.9s3.7,1.5,5.4,2.4,2.7,2.1.9,3.9c-5.5-1.9-11.2-.3-16.7-1.3-2.5-2.6-6.1-2.8-9.1-4.3C1295.3,1138.7,1297.6,1138.8,1299,1138Z" transform="translate(-1133.1 -861.8)" style="fill: #425093"/>
    <path d="M1325.1,1147c.6-2.2-.7-3.6-2.1-5,2.2.1,4.5.2,4.9,3S1326.5,1147,1325.1,1147Z" transform="translate(-1133.1 -861.8)" style="fill: #caccd9"/>
    <path d="M1269,947c-2.4-4-2.7-8.5-3-13.1,1.7-.1,3.6.8,5-.9l.9-1c1.4-.6,2.7-1.2,4.1-.9,1.3,1.9,3.7,3,4.2,5.5s-2.3,1.5-3.8,1.7c-4.2.5-7.3,1.9-6.5,7A2,2,0,0,1,1269,947Z" transform="translate(-1133.1 -861.8)" style="fill: #779844"/>
    <path d="M1167.8,932.6c.4,1.5.7,2.9,1.1,4.4s1,2.8,2.8,3,3.2-.2,4.3-1.9,4-6.1,6-9.1c2,2.3.5,4.4-.4,6.5s-1.7,3.5-2.4,5.4a19.1,19.1,0,0,1-8.3,8.1c-2.3,0-4.7,1.6-7,0C1165.2,943.5,1167.2,938.2,1167.8,932.6Z" transform="translate(-1133.1 -861.8)" style="fill: #5c7337"/>
    <path d="M1316,1074c-2.2-5.3-7-9.1-8.1-15,2-.7,3.2.8,4,2,2.6,4,6,7.4,7.9,12s7.1,10.6,11.5,15.3c1.3,1.3,2.8,1.8,4.4.5a.9.9,0,0,1,1.2.3h.1c4.3,4,7.2,9.2,10.9,13.8,2.2,2.8,5.1,5,7,8.2,9.4,11.1,18.3,22.5,28.8,32.6,2.4,2.4,4.4,5.3,7.2,7.4s3.9,5.3,6.1,7.8l2.1,2.1c6.3,7.7,13.8,14.1,20.7,21.2a60.1,60.1,0,0,1,7.3,8.7c-.7,3.6-4,4.5-7.4,1.8s-4.4-4.4-7.4-5.6a143.3,143.3,0,0,1-24.1-24.5,171.8,171.8,0,0,0-20.9-22.6c-7.3-6.7-13.1-14.7-19.4-22.1-10.4-12.2-19.6-25.2-28.9-38.2A31,31,0,0,1,1316,1074Z" transform="translate(-1133.1 -861.8)" style="fill: #7ca057"/>
    <path d="M1354.9,1111.1c-7.4-6.2-12.8-14-17.9-22h2c3.9,6.4,8.9,12.1,13.5,18C1353.5,1108.2,1355.1,1109.1,1354.9,1111.1Z" transform="translate(-1133.1 -861.8)" style="fill: #5e753f"/>
    <path d="M1397,1158.9c-3-1.9-5.3-4.2-6.1-7.8C1395.4,1151.7,1396.1,1155.4,1397,1158.9Z" transform="translate(-1133.1 -861.8)" style="fill: #4e6b3a"/>
    <path d="M1385,1081a7.6,7.6,0,0,1,4-3.9c3.1-2.4,7.1-1.7,10.5-3,8.8-1.2,15.5-4.9,18.9-14.1,1.6-4.3,5.4-7.9,6.9-12.6a3.9,3.9,0,0,1,2.5-2.9,2.3,2.3,0,0,1,1.4.4c-.4,6.4,5.4,8.8,8.4,13,.9,1.4,2.6,2.4,1.9,4.3s-2.9,1.9-4.7,2.1a21.6,21.6,0,0,0-19.7,17.3c-.7,2.9-1.5,5.5-5.3,5.4s-3.7,1.7-4.4,4-.8,4.3-2.3,5.9c-1.4-.7-2.7-.9-4,.1-3.2-2.8-6.5-4.1-10.8-2.4-2.4.9-4.1-.5-4.5-3.1S1382.9,1084.3,1385,1081Z" transform="translate(-1133.1 -861.8)" style="fill: #313c8a"/>
    <path d="M1403.1,1096.9c-.3-3,.7-5.9,1.8-8.6s1.7-3.6,4-2.8c4.2,1.6,4.5-1.6,5-4.1a22.3,22.3,0,0,1,21-18.4c1.4-.1,3.3.6,3.8-1.3s-1.3-1.9-2.2-2.8-3.8-4.9-7-6.5,0-4.8-.6-7.3c6.6.2,12.4,1.9,16.6,7.4.4,2.6-2.4,4.2-2.4,6.7s.3,3.2-.1,4.8c-3.7,5-8,9.6-10.8,15.3-1.2,2.4-2.8,3.8-5.8,3.8-10.6.1-11.1.8-9.3,11C1413.1,1098.3,1407.8,1096.6,1403.1,1096.9Z" transform="translate(-1133.1 -861.8)" style="fill: #4c54a4"/>
    <path d="M1385,1081c-.2,3.1-.2,6.1-.1,9.2s1.6,3.9,4.6,2.9c5.8-2,7.1-1.4,9.6,3.9-6.4,7.5-15.1,8.3-24,8,.3-1.6,1-3.3.8-4.8C1374.7,1091.7,1380.4,1086.6,1385,1081Z" transform="translate(-1133.1 -861.8)" style="fill: #4549a1"/>
    <path d="M1417.1,1094.1c-3.7-2.9-2.6-6.8-1.3-9.9s5.1-3.5,7.9-2.7c4.6,1.4,6.8-.4,8.3-4.4s7.4-8.4,9.2-14c.3-.9,1.1.8,1.8.9.6,3.2-.7,5.8-2.8,8.1-.6.7-1.7,1.3-2,2.1C1434.7,1084.7,1425.6,1089.1,1417.1,1094.1Z" transform="translate(-1133.1 -861.8)" style="fill: #706cba"/>
    <path d="M1443.1,1059.2c-2.1-2.9,1.2-4.2,1.9-6.2,4.5-7.6,4.5-7.6-4.3-10.4-1.6-.5-3.5-.9-3.7-2.9s2.3-.5,3-1.7c2.7-4.1,7.6-2,11.1-3.9,6.9-.1,6.4-.3,4.3,6.5A38.6,38.6,0,0,1,1443.1,1059.2Z" transform="translate(-1133.1 -861.8)" style="fill: #7a6fc2"/>
    <path d="M1412,1186a11.2,11.2,0,0,1,7.2,4.6c2.3,2.8,5.1,4.1,7.8.3,4.6,2.1,7.8,6,11.4,9.3s-.6,3.9-1.4,5.8h0c-1.4,2.3-2.7,1.3-4.4.1-4.1-3-7.6-6.7-11.7-9.8C1418.5,1192.4,1413.3,1190.9,1412,1186Z" transform="translate(-1133.1 -861.8)" style="fill: #6e993f"/>
    <path d="M1340,952c2.8-1,4.8,4,7.9,1.2l2.1,1.8c3.1,4.3,7.8,7.3,10.5,11.9a1.9,1.9,0,0,1-.5,1.3c-2.7.6-4.7-.9-6.6-2.5-4.4-3.6-7.6-8.6-12.6-11.6A1.6,1.6,0,0,1,1340,952Z" transform="translate(-1133.1 -861.8)" style="fill: #8da56b"/>
    <path d="M1360,967c-2.9-4.4-8.3-6.7-10-12a17.1,17.1,0,0,1,5.9,5.1,28.2,28.2,0,0,0,12.2,8.8c-.2,2.9-2.1,1.9-3.5,1.4A10.6,10.6,0,0,1,1360,967Z" transform="translate(-1133.1 -861.8)" style="fill: #61704c"/>
    <path d="M1360,967c3-.6,4.6,4.6,8.1,1.9a.8.8,0,0,1,.9.1,3.1,3.1,0,0,1-2,3h-1.2c-1.3-.4-2.7.4-3.9-.4a3.8,3.8,0,0,1-1.9-3.5Z" transform="translate(-1133.1 -861.8)" style="fill: #899679"/>
    <path d="M1280,936c-2.1-1-4.5-1.8-4-4.9,5.1-1.5,10-2.1,14.7,1.1a16.7,16.7,0,0,0,6,2.5c10,1.8,16.8,8.2,23.3,15.3-.7,1.9-2.3,2.5-4.1,2.7s-4.2-1.9-5.9-3.4a53.5,53.5,0,0,0-17-10.6,20.1,20.1,0,0,0-8-1.3C1283.2,937.3,1281.4,937.4,1280,936Z" transform="translate(-1133.1 -861.8)" style="fill: #84a45d"/>
    <path d="M1340,952c5.3,3.6,9.7,8.2,14,13-.5,2.6-2,.8-2.8.4a49.1,49.1,0,0,1-8.9-5.6,44.3,44.3,0,0,0-5.9-3.6c-1.2-.6-2.8-1.3-3.7-.1s.3,2.4,1.2,3.4a36.8,36.8,0,0,1,3,3.9c2.2,3.5,2.8,6.8-.7,9.9a2.2,2.2,0,0,1-1.4.2c-5-3.8-7.9-9.5-11.8-14.3-.2-5.7,1-7.4,6.2-8.1,2.2-.2,4.5-1.3,6.8-.1Z" transform="translate(-1133.1 -861.8)" style="fill: #9bbb76"/>
    <path d="M1316,952l4-2c1.1,0,2.3-.1,3,1,.1,3.5-1.1,7.2,1.7,10.3,4.7,4.6,5.6,10.6,6.3,16.7a5.1,5.1,0,0,1-.6,3.8c-2.3,1.1-2.8-1.1-3.8-2.1-2.7-2.8-4.1-6.4-5.6-9.9s-3-8-3-12.3a6.3,6.3,0,0,0-2.1-4.2A1.2,1.2,0,0,1,1316,952Z" transform="translate(-1133.1 -861.8)" style="fill: #749a49"/>
    <path d="M1324,961c-1.9-3.2-4.3-6.3-1-10,4.3-.4,8.7-2.4,13,0a56.2,56.2,0,0,1-5.7.9c-5.1.4-7.2,3-6.3,8.1.3.2.4.4.3.7S1324.1,961,1324,961Z" transform="translate(-1133.1 -861.8)" style="fill: #84a45d"/>
    <path d="M1308.7,985.1,1307,983c0-.9-.1-1.8-.1-2.7a31.4,31.4,0,0,1,0-10.6c0-4.1,2.7-7.6,2.1-11.7,1.3.2.5,2.8,2.1,2s1-2.2,0-3.4L1301,945c1.8-1.2,3.4-.3,4.4.9,2.9,3.9,7.1,5.8,11.2,8a21.5,21.5,0,0,1,2.8,14.4c-.4,3.3-3.5,4.5-7,3.4-.9-.5-1.2-1.4-2.1-2.6-1.6,3.5-1.2,6.7-.4,10a12.8,12.8,0,0,1,.9,4.4C1310.5,984.5,1310.2,985.7,1308.7,985.1Z" transform="translate(-1133.1 -861.8)" style="fill: #415d26"/>
    <path d="M1278,976c.3-3.3-1.6-6.3-3.3-8.6s-3.1-7.4-3.7-11.4c3.6-.3,4.1,3.1,5.9,5l3.2,9.9c3.1,3,3.2,7.4,4.7,11.1s3.5,9.9,5.2,14.9c-.1,2.1,1.9,4.5-.6,6.4a1.9,1.9,0,0,1-2.3-1.4c-3-8.4-7.4-16.2-9.3-25A1,1,0,0,1,1278,976Z" transform="translate(-1133.1 -861.8)" style="fill: #708e4b"/>
    <path d="M1276.9,961l-5.9-5c-.7-3-2.6-5.7-2-9-.5-8.6-.1-9.1,8.9-10a10,10,0,0,0,2.1-1c4.7.4,9.7-1.2,14,2-1.7,1.6-3.5,2.8-6,2h-1a22.7,22.7,0,0,0-11,.1c-7.5,5.6-1.2,11.4-.3,17.2A22.9,22.9,0,0,0,1276.9,961Z" transform="translate(-1133.1 -861.8)" style="fill: #63823a"/>
    <path d="M1288,940c2.2-.1,3.6-2.6,6-2,6.5,2,11.8,5.9,16.8,10.3,1.6,1.4,3.1,2.9,5.2,3.7v.9c.3.3.4.5.3.8s-.2.3-.3.3a14.4,14.4,0,0,1-10.9-6.7,5.3,5.3,0,0,0-4.1-2.3C1297.2,941.9,1292.2,941.9,1288,940Z" transform="translate(-1133.1 -861.8)" style="fill: #4d6d30"/>
    <path d="M1289,997c-3-8.7-6-17.4-8.9-26.1.9-.5.9-1.4,1.1-2.3l8.7,23.4c2.4,6.6,4.9,13.2,7.3,19.7.5,2,.1,3.1-2.1,2s-2-2.5-2.4-4.1C1291.5,1005.4,1290.8,1001,1289,997Z" transform="translate(-1133.1 -861.8)" style="fill: #55683e"/>
    <path d="M1276,940.1a12.5,12.5,0,0,1,11-.1Z" transform="translate(-1133.1 -861.8)" style="fill: #4d6d30"/>
    <path d="M1289,997c3,3.9,4.2,8.5,5.1,13.3.3,1.7.7,3.8,3.1,1.4,1,2.4,2.6,4.6,2.9,7.3-2.5,2.8-.5,5.3.8,7.6,6.2,11.5,12.4,22.9,18.7,34.3a23.4,23.4,0,0,0,2.4,3.1,2.6,2.6,0,0,1,.2,2.9c-2,.7-2.6-1.1-3.2-2.2-7.4-12.1-15.9-23.6-21.1-37.1-2.4-6.4-5.6-12.6-8.3-19-.7-1.8-2.1-3.6-.6-5.6S1288.2,999,1289,997Z" transform="translate(-1133.1 -861.8)" style="fill: #6b8549"/>
    <path d="M1336.9,1089.1h-.9a30,30,0,0,1-10.4-15.5l.5-.6A46.5,46.5,0,0,1,1336.9,1089.1Z" transform="translate(-1133.1 -861.8)" style="fill: #5e753f"/>
    <path d="M1322,1067v-3c1.2,3.1,5.5,4.7,4.1,8.9h-.1C1322.4,1072.5,1321.7,1070.1,1322,1067Z" transform="translate(-1133.1 -861.8)" style="fill: #5e753f"/>
    <path d="M1260,959c4.1,8.9,5.5,18.6,8,28l-.9,1c-2.9-1.3-2.6-4.3-3.8-6.5-.2-.4-.3-.9-.5-1.3-2.9-2.6-6.3-2.5-8.6.4a17.2,17.2,0,0,0-2,3.8,5,5,0,0,1-.5,1.3c-1.1,2.4-.6,5.4-2.9,7.2s.6,7-1.8,10c-1.2-1-1.3-2.5-1.4-3.9-.2-7.5.2-15,3.7-21.8,2.5-2.2,4.6-5,7.5-6.5s2.2-2.6.3-4.2-5.4-2.2-4-5.9l.9-1.2a6.8,6.8,0,0,1,3.3-1.3A3.2,3.2,0,0,1,1260,959Z" transform="translate(-1133.1 -861.8)" style="fill: #253e1c"/>
    <path d="M1329,1002.1c-1.8,3.1.1,7.1-2.1,10.1-8.1-.1-4-6.3-5.1-9.9-.4-.9,0-1.3.8-1.6s2,2.7,2.7,4.2C1326.3,1003.7,1326.5,1001.4,1329,1002.1Z" transform="translate(-1133.1 -861.8)" style="fill: #343c32"/>
    <path d="M1322.9,1001.1l-1.1,1.2c-2.4-4.5-5.4-8.6-9.7-11.5l-3.4-5.7a2.4,2.4,0,0,0,1.4-2.3c4.4,1.8,5,6.8,8.3,9.5,1.2,1.4,2.1,3,3.3,4.3S1323.8,999.2,1322.9,1001.1Z" transform="translate(-1133.1 -861.8)" style="fill: #4c5a3e"/>
    <path d="M1306.9,969.7v10.6c-1.6-2.6-.5-5.5-1-8.3Z" transform="translate(-1133.1 -861.8)" style="fill: #4c5a3e"/>
    <path d="M1276.8,1046.1c-7.6-.3-15.4-.1-21.8-5.4a1.9,1.9,0,0,0-3,.2c-1.7-.2-3.3-.3-4.4,1.5s-2.5,3.3-3.8,4.9-1.6,3.8-4.3,2.3a3.9,3.9,0,0,1-.2-3,71.7,71.7,0,0,0,3.4-21.1c0-8.5,3.9-10.9,11.6-7.3s11,7.9,14.7,13.8C1270.2,1037.5,1273.5,1041.8,1276.8,1046.1Z" transform="translate(-1133.1 -861.8)" style="fill: #97b471"/>
    <path d="M1269,1032c-5.4-3.7-8.8-9.9-15.1-12.6s-9.9-1.7-9.9,6-.6,14.8-4,21.6a18.1,18.1,0,0,1-1.4-13.1c2.5-5.5,2.1-11.7,3.9-17.3a6.7,6.7,0,0,0-.7-5.3c-1.3-2.7-1.3-5.5-1.1-8.4s-.2-6.3,0-9.4.4-3.7,1.9-5a2.7,2.7,0,0,1,2.7-.8c1.3.3,1.1,1.4,1.2,2.4.2,3-.4,6,.4,8.9,0,1.3.1,2.6.1,3.9s-.2,3.4.2,5,1.1,4.6,4.8,5.4C1261.5,1015.6,1266.8,1022.6,1269,1032Z" transform="translate(-1133.1 -861.8)" style="fill: #6e8c4d"/>
    <path d="M1295.9,1140.9c3.3.8,7.5-.5,9.1,4.1-.5,1.8-2.2,2.7-3.2,4.2-4.4,6.4-4.1,7.8,2.2,11.9-4.8.5-3.8,5.4-6,7.9-1.5-2-3.2-2.4-5.7-1.5-4.9,1.9-9.7,2.3-13.4-2.6-.6-.9-1.9-1.9-3-1.5-7.7,2.9-11.1-5.5-17.3-6.7-2.5-.6-4.3-4.2-3.5-7.6s2.8-3.6,5.4-3.7,2.1,1.1,3.1,1.7c3.8,1.8,7.4,3.8,11.5,4.7a29.7,29.7,0,0,1,3.9,1.3c2.9,1,4-1.5,5.7-3a39.7,39.7,0,0,0,4.1-4.1,9.4,9.4,0,0,1,1-1C1291.8,1143.6,1292.9,1140.7,1295.9,1140.9Z" transform="translate(-1133.1 -861.8)" style="fill: #2e3e89"/>
    <path d="M1256,1148.9c0,4.6,2.1,7.3,6.6,8.5s6.3,1.5,7.4,5.1c.4,1.3,1.4,1.5,2.3.6,2.9-2.8,5.6-1.7,7.5.9,4,5.5,8.7,3.8,13.5,1.8s5-.7,4.7,3.2l-1,1c-2.6,1.2-5.5,1.3-8.2,2a8.6,8.6,0,0,1-8.6-2.7c-2.6-3-5.1-2.5-7.4.4s-2.8,4.3-5.8,4.3c-2.7-2.8-5.9-2.1-9-1.1.3-4.1-1.9-6.8-5-9.2s-2.3-5.6-2.7-8.6C1251.5,1152.4,1252.8,1149.8,1256,1148.9Z" transform="translate(-1133.1 -861.8)" style="fill: #303a9b"/>
    <path d="M1304,1161.1c-6.6-.7-8.4-3.8-5.1-9.4,1.6-2.6,2.5-5.9,6.1-6.7s9.2-1.6,13.9-.1c1.3.5,2.5.8,3.1,2.1C1320.5,1154.1,1312.6,1160.2,1304,1161.1Z" transform="translate(-1133.1 -861.8)" style="fill: #4054a7"/>
    <path d="M1267,1174c2.3-1.5,3.8-3.7,5.4-5.8s5.7-3.7,7.9-.7,6.8,3.8,11,2.7c1.8-.5,3.7-1.7,5.7-.2.3,3.2-2.4,4.5-4.1,6.4-4.6,5.3-10.5,6-16.9,4.7C1273.4,1178.3,1268.9,1177.7,1267,1174Z" transform="translate(-1133.1 -861.8)" style="fill: #414ca7"/>
    <path d="M1157,1041h1c1.1,1.7,1.5,3.9,3.4,5.2s1.7,2.7.9,4.4-2.4,2.4-4.4,1.5a11.6,11.6,0,0,0-11.2,1.6c-2.7,1.8-5.7,1.3-8.7,1.1s-2.3-3.1.7-3.8a41,41,0,0,0,14.7-6.7C1154.8,1043.3,1156.2,1042.5,1157,1041Z" transform="translate(-1133.1 -861.8)" style="fill: #5c69b5"/>
    <path d="M1400,1075c-3.5,1.9-7.2,1.8-11,2.1-2,0-2.8-.7-3-2.9-.7-8.3-5.5-14.3-11.5-19.6-4.2-3.7-8.2-7.6-13.5-9.6-3.7-5.6-10.2-7.6-14.9-12l-2.1-2c.2-5.4-3.4-8.7-6.7-12.1-1.6-1.7-3.5-3.1-2.4-5.9l.7-.2c4.9,2,7.9,6.5,11.8,9.8,10.2,8.4,20.4,16.4,34.1,18.4,8.4,1.2,13.7,7,17.8,14,2,3.5,3.2,7.3,4.9,10.9S1402.3,1072.4,1400,1075Z" transform="translate(-1133.1 -861.8)" style="fill: #6565c0"/>
    <path d="M1322.9,1001.1c-.6-1.4-1.3-2.7-2-4.1,3.5-.3,5.8-2.2,7.4-5.2,2,.4,2.4-2.5,4.4-2s1.4,2.8,1.2,4.5l-.9,3.4a7.7,7.7,0,0,1-1,2.5l-1,.9a1.7,1.7,0,0,0-2,1c-2,.8-2.1,3.2-3.7,4.4C1323.7,1004.9,1323.5,1002.9,1322.9,1001.1Z" transform="translate(-1133.1 -861.8)" style="fill: #787e5f"/>
    <path d="M1331,1001.1l.2-1a1.2,1.2,0,0,1,1.5,1,16.6,16.6,0,0,0,2.9,10.1c.4.5-.1,1.3-.6,1.8h-.1C1330.4,1010.1,1329.2,1006.1,1331,1001.1Z" transform="translate(-1133.1 -861.8)" style="fill: #6565c0"/>
    <path d="M1249.1,1115l-2.1-3c-3.1-6.6-6.1-13.1-9.1-19.7s-6.4-14.2-5.8-22.3c1.7-3.6,3.7-7.1,5-10.9h.8a2,2,0,0,1,2.1-.3c.2,5.1,3,9.4,4.2,14.1,1.4,12,5.4,22.8,14.6,31.2,2.7,2.5,4.2,5.9,5.6,9.3a18.8,18.8,0,0,0,6.3,7.4c2.6,1.9,4.2,1.2,5.4-1.5a29.2,29.2,0,0,0,2.7-9c.2-1.4,0-3.6,2.6-3,2,4.3.4,8.4-.3,12.6s-1.3,7.5.5,11.1a14.2,14.2,0,0,0,6.6,7.1c5.2,2.6,5.3,3.3,1.8,7.9h-.1c-.9.6-1.7,1.5-3.1,1.3a3.4,3.4,0,0,1-1.8-1.5c-2.2-4.4-5.5-6.5-10.5-4.9a3.3,3.3,0,0,1-1.2-2.1c.4-6.5-3.9-10.3-7.8-14.3-1.8-2.3-2.7-5-3.9-7.5s-4.7-5.6-8.1-7.2c-1.9,2.3,1.8,5-1.2,6.6C1250.8,1117.2,1249.8,1116.3,1249.1,1115Z" transform="translate(-1133.1 -861.8)" style="fill: #777bc8"/>
    <path d="M1239.9,1049.9c2.3-1,3-3.3,4-5.3s.8-3.1,3.1-2.6c1.5,2.4-.5,4.1-1.2,6s-3.3,5.8-6.8,6.9l-6.1,5a6.5,6.5,0,0,1-3.7,2.8,2.3,2.3,0,0,1-2.4-1,2.9,2.9,0,0,1,0-1.3c1-2.6,3.9-3.1,5.4-5.2S1236.3,1050.1,1239.9,1049.9Z" transform="translate(-1133.1 -861.8)" style="fill: #a8b3a0"/>
    <path d="M1239,1054.9l6-6.9c1.6-1.1,1.3-4.2,4.2-4.1,1.2,1.6.4,3.2,0,4.8a3.1,3.1,0,0,1-.6,1.3,10.4,10.4,0,0,1-2.1,2.6c-2.5,1.9-3.8,4.8-6.5,6.4h-2.1C1238,1057.6,1241,1056.9,1239,1054.9Z" transform="translate(-1133.1 -861.8)" style="fill: #928faa"/>
    <path d="M1229,1062c1.5-.3,2.1-2.2,3.9-2.1-.1,2.9-2,4.5-4,6.2a3.3,3.3,0,0,0-3.8-.2C1223.6,1061.7,1227.5,1063.1,1229,1062Z" transform="translate(-1133.1 -861.8)" style="fill: #343643"/>
    <path d="M1237.1,1059.1c.7,4.7-2.9,7.5-5,10.9C1233.1,1066.1,1233.7,1062,1237.1,1059.1Z" transform="translate(-1133.1 -861.8)" style="fill: #615fa5"/>
    <path d="M1335,1013c-2.9-3.8-3.1-8.5-3.8-12.9l1-2.1c1.8-.1,2.4,1,2.4,2.5.3,7.9,5.3,12.9,11,17.3,3,2.3,5.9,4.9,8.9,7.1,5,3.5,10.5,6.6,16.3,7.9,8,1.9,14.4,6,20.7,10.5a16.8,16.8,0,0,0,4.2,2.7c4.2,1.7,6.2.2,7-4.3s.7-6.9-1.7-9.9a24.2,24.2,0,0,1,0-12.8c2.7,4.2,5.2,8.4,8.2,12.4,4.9,6.4,11.4,10.4,19.8,10.7,1.2,1.5,0,2.2-1,2.9-2.9,9-10.4,15.6-13.1,24.8-.6,2.2-2.6,2.4-4.3,2.8-3.5.9-7.1,1.6-10.6,2.4,7.2-7.9.6-14.5-2.7-20.7s-10.1-11.5-19-12.6-14.7-5.4-21.3-10S1342.4,1019.1,1335,1013Z" transform="translate(-1133.1 -861.8)" style="fill: #7773c4"/>
    <path d="M1401,1019c1.9,4.2-.5,8.8,1,13-2.3,5.6-9.2,8.8-15.6,6.9s-12.2-7.1-17.3-12.1a2.1,2.1,0,0,1-.2-1.9c2.3-1.2,3.8.5,5.4,1.5,3.3,2,6.5,4.2,10.3,5s7.3.8,10.1-2.6,2.3-6.7.8-10.3a22.9,22.9,0,0,0-1.4-2.7c-3.5-5-5-11.1-8.4-16.2-1.7-2.5-3.3-4.9-5.2-7.2a49.1,49.1,0,0,0-12.3-13.4c-1.3-.9-2.8-1.9-2.2-4,6.5-.6,8.9,5.3,13.1,8.4a9,9,0,0,1,1.8,1.6c4.4,4.3,7.4,9.7,10.5,14.9,1.1,1.8,1.4,4.2,3.6,5.1Z" transform="translate(-1133.1 -861.8)" style="fill: #878fd6"/>
    <path d="M1428,1045c.3-1,.6-1.9,1-2.9,4-.5,6.6-4.6,11-4.1-.8.5-2.1,1-2.1,1.7s1.2,1.2,2.1,1.4a9.8,9.8,0,0,0,2.8.8c3,.1,6.7.2,7.2,3.7s-1.9,5.9-5,7.4c-3.5-3.3-7.4-6-12.3-6.3a6.9,6.9,0,0,1-3.8-1.6Z" transform="translate(-1133.1 -861.8)" style="fill: #6a64ba"/>
    <path d="M1157.9,1052.1a3.5,3.5,0,0,0,3.9-3c.4-1.7-1-2.4-2.2-2.8-3.2-1-1.4-3.4-1.6-5.3,2.6-1.2,4.5-.4,6.3,1.7a47.9,47.9,0,0,0,4.7,4.3c5,1.9,7,6.9,10.5,10.4.9.9.5,2.5-.5,3.6h0A45.7,45.7,0,0,1,1157.9,1052.1Z" transform="translate(-1133.1 -861.8)" style="fill: #4755ab"/>
    <path d="M1251,1155c.8,5.1,2.8,9.2,7.8,11.8,2.7,1.4-1.2,3.9-.8,6.1-4,.2-7.9,1.6-12.2.4-7.5-2.1-9.1-3.9-7.8-11.3a13.3,13.3,0,0,0,0-2l2.1-1C1244.1,1158.8,1247,1155.4,1251,1155Z" transform="translate(-1133.1 -861.8)" style="fill: #403aa8"/>
    <path d="M1281,1107c-1.6,4.3-1.7,9-3.8,13.2s-3.3,4.7-7,1.8-6.1-5.1-7.3-9.1c-1.8-6.4-7.2-10.2-11-15-5.9-7.5-7.3-16.1-8.9-24.9,2.6,0,2.6,2.3,3,3.9a65.7,65.7,0,0,0,15.1,27,4.4,4.4,0,0,1,.8,1.1c4.7,6.3,7.1,7.2,12.7,4.4,2.3-4.1,3-8.7,3.7-13.2s2.9-7.7,3.8-11.7c.3-1.3,1.1-2.6,2.8-1.5l1.1,2c-1.7,1.6-.2,3.3-.1,5-1.1,4-.2,8.2-1.8,12.1C1283.4,1103.9,1282.8,1105.9,1281,1107Z" transform="translate(-1133.1 -861.8)" style="fill: #7e8dd5"/>
    <path d="M1281,1107c2.4-5.4,3.2-11.3,4.9-17,.4,10.2-.3,20.5.9,30.7.5,4.3,1.5,8,4.2,11.3s4.8,4.7,8,6c-.4,1.7-2.3,1.7-3.1,2.9l-5.9,5c1.9-2.9,1.8-5.1-1.8-6.7-7.5-3.5-10.6-9.9-8.7-18.1C1280.5,1116.5,1281.4,1111.8,1281,1107Z" transform="translate(-1133.1 -861.8)" style="fill: #6574c3"/>
    <path d="M1179,1061c.9-5.3-5-6.1-6.5-9.9-.6-1.6-2.3-2.7-3.5-4.1s-1.9-4.8-2.9-7.7c3.6.8,3.7,4.3,5.9,5.7,3,6.5,6.6,7.2,12,2.6s6.4-8.9,12-10.6c1.5,1.4,3.5,2.4,3,5a9.4,9.4,0,0,0,2.8,5.6c2.1,3.4,5.4,6.1,6.2,10.3-3,3.6-7.7,2.8-11-1.9.4-4.9-.6-5.3-4.9-3.9s-7.9,3.2-9.1,7.9Z" transform="translate(-1133.1 -861.8)" style="fill: #334095"/>
    <path d="M1183,1060c-.6-4.7,1.5-7.3,6.1-7.9a5.3,5.3,0,0,0,3.3-1.7c3.2-3.3,4.6.4,6.3,1.9s-1.2,2.4-1.7,3.7C1192.3,1057,1188.2,1060.5,1183,1060Z" transform="translate(-1133.1 -861.8)" style="fill: #4b57af"/>
    <path d="M1208,1057.9a61.2,61.2,0,0,1-7-9.9c2.3-1.2,2.3-1.3,4.5.5s3.7,3.6,5.9,5,3,2,5,1.6,5.3.2,6.7,3.1c0,.2-.1.5-.1.7l-4.6,2.1C1214.5,1061.3,1210.8,1061.1,1208,1057.9Z" transform="translate(-1133.1 -861.8)" style="fill: #6872aa"/>
    <path d="M1381,992c5.1,3,6.7,8.7,9.3,13.4a95,95,0,0,1,4.7,9.6,34.4,34.4,0,0,1-5.4,7.7c-3.1,3.7-7.6,3.1-11.6,1.9-20-6-33-19.6-41.2-38.3a11.7,11.7,0,0,1-.9-6.9c.2-1.6.6-3.4,3.1-2.5h16a11.1,11.1,0,0,1,10.2,2C1370.6,983.1,1376.9,986.2,1381,992Z" transform="translate(-1133.1 -861.8)" style="fill: #a5aeeb"/>
    <path d="M1339,976.9c-3.8,1.9-2.4,5.5-1.4,7.8,7.2,16.3,17.3,30.1,35.1,36.4,1.4.5,2.7,1.2,4.1,1.8,6,2.7,10.3,1.5,13.7-4,1.2-1.8,2.9-2.7,4.5-3.9,2.6,3.6,4,7.6,2.4,12s-9.1,8-15.4,4.9c-4.4-2.1-8.7-4.6-13-6.9-1.7.6-2.9-.4-4.1-1.3a119.6,119.6,0,0,1-27.7-25.4,12.8,12.8,0,0,1-2.5-8.4c.1-2.9,0-5.7-.1-8.5s-.8-4.7,2.4-5.5Z" transform="translate(-1133.1 -861.8)" style="fill: #949be0"/>
    <path d="M1336,973c3.1-4.8,1.1-8.6-2.5-12a11.4,11.4,0,0,1-1.1-1.1c-1-1.4-2.9-2.9-1.7-4.7s3.9-1.5,5.8-.3c5.4,3.2,10.6,6.6,15.8,10,.6.4,1.1.8,1.7.1l6,3c.7,1,1.4,2,2,3-5.3,2.6-11.2,1-16.8,2.2-2.3.5-4.9-.6-7.2.7l-1,.2C1336.1,974.2,1335.7,973.9,1336,973Z" transform="translate(-1133.1 -861.8)" style="fill: #adc989"/>
    <path d="M1381,992c-5.6-4.1-11.3-8.1-16.8-12.3a12.4,12.4,0,0,0-9.2-2.8c3.5-1.3,7.3-1.4,11-1.9,2.6,4,7.4,5.7,10.2,9.6S1380.2,989,1381,992Z" transform="translate(-1133.1 -861.8)" style="fill: #999be2"/>
    <path d="M1338,973.9c.2-2.2,1.9-1.8,3.4-1.9,6.9-.4,13.7-1.4,20.6-1,1.3.2,2.8-.5,3.8.9A48,48,0,0,1,1338,973.9Z" transform="translate(-1133.1 -861.8)" style="fill: #bdcab3"/>
    <path d="M1336,973l1,1.1v1.8c-1.8,1.8-.7,4.1-1,6.2s-.1,6.8-1,10.2c-.3,1.2,0,2.8-2,2.6-.3-1.6.7-3.6-1-4.9-2.1-4.2.3-8.4-.3-12.6,0-2.3.9-3.9,3.3-4.4Z" transform="translate(-1133.1 -861.8)" style="fill: #7c8182"/>
    <path d="M1246,1052l2-2.1c1.4,1,1.4,2.5,1.2,4a27.4,27.4,0,0,0,3.9,18.1,65.5,65.5,0,0,1,6.1,11.4,13.3,13.3,0,0,0,6.6,7.2c2.8,1.4,4.4.5,4.8-2.6a26.8,26.8,0,0,0-.4-10.9c-1.5-6.2-3.6-12.4-4.8-18.7-.4-2.5-2.3-4-4-5.6s-3-1.7-2.2-3.9c1-.6,1.9-.8,2.7.3l2.1,1.8c1.5,1.1,3.4,1.4,5,2.1,3.3,1.6,5.4,3.7,5.7,7.5a13.7,13.7,0,0,0,1.6,5.2c5.1,10.5,3,21.1.6,31.6-1.3,5.9-3.7,6.8-9.4,5.4s-8.6-5.9-12-10-4-8.7-6.1-13-3-6.7-4.8-9.9C1241,1063.7,1241.1,1057.6,1246,1052Z" transform="translate(-1133.1 -861.8)" style="fill: #acace8"/>
    <path d="M1256,1092c3.9,3.1,6,8.2,11.7,9.5s7,1.2,8.1-4.8c2.1-10.5,3.1-20.8-.7-31.6-2.4-6.6-6.1-10.4-11.1-14.1,8.5.3,18.3,6,19.1,17.3.4,4.9,2.2,9.7,1.8,14.7-2.5,3.6-3.8,7.8-4.9,12s-1.4,11.3-5,16c-5.7.4-10.7-.9-14-6h0a71.7,71.7,0,0,1-4.6-7.5C1255.5,1095.8,1254.4,1093.9,1256,1092Z" transform="translate(-1133.1 -861.8)" style="fill: #979edf"/>
    <path d="M1261.9,1049.2l-2.9-.2h-.6c-3.3-1.4-6-3.9-9.4-4.9-1.5,1.2-2,3.3-4,4,.6-2,1.3-4,2-6s2.4-5.1,5-1.1,7.7,5.3,12.1,7.1A2.1,2.1,0,0,0,1261.9,1049.2Z" transform="translate(-1133.1 -861.8)" style="fill: #7c7f8c"/>
    <path d="M1170.9,949c2.4-2.7,4.8-5.3,7.1-8a39.3,39.3,0,0,0,5-10.8c1.4-4.3,5-7.3,7.6-10.9,1-1.4,2.9-1.5,4.6-.9,6,3.5,7.7,9.4,8.5,15.6.2,1.9-.1,4.1-2.2,5.2-1.9-.7-2-2.5-2.4-4s-.2-2.7-.7-3.9-.6-6.1-4-6.1-2.8,3.5-3.5,5.8-2.9,4.6-1.5,7.4a3.3,3.3,0,0,1,0,1.4,4.5,4.5,0,0,1-.9,1c-3.2,2-4.9,6.2-9.3,6.2C1176.4,947.7,1174,949.8,1170.9,949Z" transform="translate(-1133.1 -861.8)" style="fill: #8aa663"/>
    <path d="M1179.2,947l8.7-6.8c2.9,2.8,7.5,4.5,6,10a3.9,3.9,0,0,1-3.1-1.2c-4.2-2.9-6-2.5-8.7,1.9s-1.8,6.9-1.2,10.6,2.4,6.4.2,9.6c-2.7-.1-2.8-2.4-3.4-4.2-1.6-4.2-2-8.7-3.6-12.9l-.3-1.1Z" transform="translate(-1133.1 -861.8)" style="fill: #a09dd0"/>
    <path d="M1249.1,1115c1,.4,2.1,1.5,3.1.5s-.1-1.7-.6-2.5-1.3-3.4.2-4.5,3,.3,4.4,1.1c5.8,3.2,7.5,9,9.8,14.4,1.6,2.7,4.4,5.1,3.3,8.8-2.7,1-3.3-1.4-4.2-3s-2.5-5-4.3-7.2c-.7-.7-1.5-1.6-2.5-.9s-.6,1.5-.3,2.3c1.4,3.8,1.2,8.2,3.9,11.7a4.8,4.8,0,0,1,1.1,3.2c-.1,3.1,1.7,4.4,4.3,5.2.5,3.4-2.5,3-4.3,3.9a3.3,3.3,0,0,1-2-2c-2.7-.7-3.5-2.6-3.5-5.2s.5-3.3-.5-4.8v-1c0-1.1.2-2.2-.9-3C1254.6,1126,1251.1,1120.8,1249.1,1115Z" transform="translate(-1133.1 -861.8)" style="fill: #606eb6"/>
    <path d="M1257,1136c2,3.1,0,7.7,4,10-2.2.1-3.5,1.7-5,2.9l-5,6.1c-3.2,2.5-6.3,5.3-10.9,4l10.9-7.5C1256.8,1147.8,1257.8,1142.3,1257,1136Z" transform="translate(-1133.1 -861.8)" style="fill: #5462af"/>
    <path d="M1322,1067c1.2,2.1,1.7,4.7,4,6,2.2,6,6.9,10.6,10,16-1.2,6.3-4.6,1.2-5.2.5-3.8-4.1-8.1-8-10.5-13.1a101.1,101.1,0,0,0-8.5-13.7,9.3,9.3,0,0,0-3.9-3.7l-1.9-2a326.7,326.7,0,0,1-16.5-30.9,366,366,0,0,1-14.5-36.3c-.5-1.3-1.1-2.5,0-3.8s.1-4.8,0-7.3,1.1-2.8,3-2.7c3.3,8.3,6.6,16.6,10,24.9l1,2.1c2.8,7.5,6.2,14.8,9.2,22.2a149.3,149.3,0,0,0,12.2,23.5C1314.3,1054.8,1317.5,1061.3,1322,1067Z" transform="translate(-1133.1 -861.8)" style="fill: #8dac62"/>
    <path d="M1316,1074c8.7,11.7,17,23.6,26.1,34.9s16.4,20.8,25.9,30.1c4.8,6.2,9.9,12.1,14.5,18.3,1,1.3,2.9,2.5,1.5,4.7-7-4.4-10.8-11.8-16-17.8-7-8.3-14.4-16.3-21.6-24.3a4.6,4.6,0,0,0-3.4-1.9c-8.3-7.3-13.7-16.8-19.5-26C1320,1086.5,1317,1080.7,1316,1074Z" transform="translate(-1133.1 -861.8)" style="fill: #4e6d35"/>
    <path d="M1275,986c6.5,18.2,13.4,36.2,22.3,53.5,3,5.7,7.9,10.7,8.7,17.5-5.9-5.8-8-13.9-12.5-20.4s-7.2-13.8-10.2-20.8c-4.8-11.1-11.1-22.1-11.3-34.8C1273.9,982.1,1273.4,984.7,1275,986Z" transform="translate(-1133.1 -861.8)" style="fill: #69884a"/>
    <path d="M1260,959h-2.9c-2.2-2.6-1.8-6.1-3.1-9-3.8-13.2-7.4-26.5-11.1-39.8-.5-2-1.6-4.1,0-6.2h1.1c3.3,6.6,4.8,14,6.8,21.1,2.8,9.7,5,19.5,8.3,29.1A11.4,11.4,0,0,1,1260,959Z" transform="translate(-1133.1 -861.8)" style="fill: #364e36"/>
    <path d="M1384,1162c-3.4-6.5-8.8-11.5-13-17.4-1.3-1.8-2.7-3.3-3-5.6,9.5,8.6,17.7,18.3,25.6,28.3,5.4,6.9,11.9,12.8,18.4,18.7,2.3,4,7.2,5.6,9,10a.6.6,0,0,1-1,0l-7-6c-6.9-6.6-13.5-13.5-20.7-19.7C1389.2,1167.7,1387,1164.5,1384,1162Z" transform="translate(-1133.1 -861.8)" style="fill: #5b7c3a"/>
    <path d="M1420,1196h1c4.3,3.1,8.6,6.1,12.6,9.5,1.4,1.2,2.2,1.1,3.4.5-.6,4-3.3,7.3-3.6,11.5C1432.5,1207.9,1425.8,1202.2,1420,1196Z" transform="translate(-1133.1 -861.8)" style="fill: #5b802f"/>
    <path d="M1174.1,954c4.3,3.2,2.8,8.6,4.8,12.6.7,1.5.7,3.2,2.1,4.4s3.9,4,6.4,5.4,4.4,1.2,6.3-.7,4.7-10.6,3.2-14.8-3.7-6.1-2.2-9.9c5.2.2,6.2,4.2,7.2,8s.8,6,1.1,9-.8,7.1-1.7,10.5-2,6.3-3.2,9.5c-2.7,6.8-8.4,10.6-14.9,2.5-7.8-9.7-10.3-21.1-10.1-33.2a5,5,0,0,1,.9-2.3A3.4,3.4,0,0,1,1174.1,954Z" transform="translate(-1133.1 -861.8)" style="fill: #979add"/>
    <path d="M1184,990l3,2.5c2.9,2.5,5.4,2,7.7-.9a20.8,20.8,0,0,0,4.1-9.5c.9-4.9,4.7-8.8,4.2-14.1,3.1,5.4.2,10.7-1.6,15.2-2.7,7.1-4,14.9-9,21.2-3.3,4.4-4.6,4.7-7.8,0-2.1-3.2-2.6-6.7-2.6-10.4A3.1,3.1,0,0,1,1184,990Z" transform="translate(-1133.1 -861.8)" style="fill: #828dd3"/>
    <path d="M1184,990c-.7,1.3-1.3,2.7-2,4-2.2-2.7-3.6-6.3-7-8-1.5-8.9-5.8-17.4-3.1-26.8.5-1.6.3-3.4,2.1-4.2C1174.5,967.4,1176.2,979.6,1184,990Z" transform="translate(-1133.1 -861.8)" style="fill: #8d82d3"/>
    <path d="M1201.9,959c-2.4-2.5-3.3-6.5-6.9-7.9-.9.1-1.2-.2-1.1-1.1-.1-4.4-4.9-6-6-9.8h1c5.8,2.6,8.2,8.7,13.1,12.3a7.5,7.5,0,0,1,.7,1.2,6.7,6.7,0,0,0,4.3,4.1c1.5.5,2.7,1.1,3.1,2.8.7,11.2,1.1,22.4-1.8,33.5-.6,2-.6,4.3-3,5.3a8.6,8.6,0,0,1-1.3-1.4,142.2,142.2,0,0,0,4.2-25.3C1208.5,966.6,1206.1,962.6,1201.9,959Z" transform="translate(-1133.1 -861.8)" style="fill: #6f739f"/>
    <path d="M1203,1043.9l.8.2c4,4,8.8,7.3,12.2,11.9-4.4,1.1-6.3-2.8-9.2-4.7s-2.7-4.2-5.8-3.3c-1.8-1.6-4.1-3.1-2-6C1200.6,1042.1,1200.9,1045,1203,1043.9Z" transform="translate(-1133.1 -861.8)" style="fill: #4f5990"/>
    <path d="M1195,919c-2.5,0-3.7,1.4-5.4,3.3-5.2,5.5-6.4,13.3-11.6,18.7.6-4.2,4.6-7.3,4-12,1.4-3.2,2.7-6.4,4.3-9.5s6.9-4,11.7-2.5a.8.8,0,0,1,.3.8c0,.4,0,.5-.1.5S1196.3,920,1195,919Z" transform="translate(-1133.1 -861.8)" style="fill: #719248"/>
    <path d="M1198,918v-1c1-.3,2.1,1.3,3.1-.2,6.3,5.2,6.5,12.5,7,19.7.2,4.4.1,8.9.1,13.3.2.8.5,1.9-.4,2s-1.7-1.3-2.1-2.4c-.8-3.7-1.5-7.5-1-11.4A24.2,24.2,0,0,0,1198,918Z" transform="translate(-1133.1 -861.8)" style="fill: #5e6d4d"/>
    <path d="M1335,973c-1.1,1.1-2.4,2.2-2,4s-1.5,2.1-3,1c-.9-6-2.5-11.8-6-17v-1C1329,963.2,1331.1,968.9,1335,973Z" transform="translate(-1133.1 -861.8)" style="fill: #88a75d"/>
    <path d="M1316,954v-1.1c2.4.5,3.5,1.6,3.2,4.5s1.6,7.8,2.8,11.6a47.1,47.1,0,0,1,1.4,19.4c-.4,2.3-.6,4.9-4.2,3.4-4.2-3.6-5-9.1-7.2-13.8-.2-2.4-1-4.7,0-7,6.3-.1,8-2.4,6.2-8.3C1317.3,959.8,1319,956.3,1316,954Z" transform="translate(-1133.1 -861.8)" style="fill: #57742d"/>
    <path d="M1319,991c1.7.3,2.9.6,3.1-2,.6-6.7-.1-13.3-.1-20a41.5,41.5,0,0,0,8,13c2.2,3.6,1.3,6.9-1.1,10s-2.7,7.5-8,5c-1.6-.8-2.1-2.5-2.8-4.1A1.9,1.9,0,0,1,1319,991Z" transform="translate(-1133.1 -861.8)" style="fill: #73873b"/>
    <path d="M1328.9,992c.6-3.3,1.4-6.6,1.1-10v-4l3-1c.5,4.4-.6,8.7-1,13C1331.1,990.8,1331.1,993,1328.9,992Z" transform="translate(-1133.1 -861.8)" style="fill: #9eaa7c"/>
    <path d="M1319,991l-.9,1.9c-3.9-2.3-5-6.9-8-10.1a5.2,5.2,0,0,1-1.1-3.8c-.4-1.9-1.7-4.6,1.1-5.2s1.9,2.8,2.9,4.2Z" transform="translate(-1133.1 -861.8)" style="fill: #7a9060"/>
    <path d="M1313,978c-1.6-.7-.7-4.2-3.2-3.4s-.5,2.9-.8,4.4c-1.9-2.5-.9-5.4-.9-8.1s.5-4.2,2.5-4.1,1.2,2.6,1.4,4.2S1312.9,975.6,1313,978Z" transform="translate(-1133.1 -861.8)" style="fill: #627a49"/>
    <path d="M1241.9,970.7c3-4.7,6.8-8.5,12.2-10.3-1.2,2.3.7,3,2,4.1l4.6,3.7c.9.8,1,2.2-.1,2.3-4.6.3-6.2,4.7-9.6,6.5-1.9-2.7.1-4.3,1.7-6.2-1.8.9-3,2.4-4.8,3a7.1,7.1,0,0,1-4.3.5C1241.9,973.6,1241,972.6,1241.9,970.7Z" transform="translate(-1133.1 -861.8)" style="fill: #3e5930"/>
    <path d="M1248,973l4.8-4.2a1.4,1.4,0,0,1,2.2,0c.8.9.2,1.6-.4,2.1-2.2,1.4-3.8,3.2-3.6,6.1-4,6.8-4,14.4-4.1,22-1.8-2.2-.5-4.8-.9-7.2s.6-3.2-1.3-3.3-2.6,1.6-2.6,3.2.2,6,.2,8.9a19.7,19.7,0,0,1-.3,2.4c-1.9,0-2.1-1.5-2.2-2.7,0-7.8-1.3-15.8,3.7-22.9A14.5,14.5,0,0,1,1248,973Z" transform="translate(-1133.1 -861.8)" style="fill: #608041"/>
    <path d="M1263.8,980c-4.3-1.4-7.9-1-10.4,3.4-.2.5-1.4.4-2.2.6,2.2-6,4.4-7.5,9.6-7.1C1262.9,977.1,1263.8,978,1263.8,980Z" transform="translate(-1133.1 -861.8)" style="fill: #e7ede7"/>
    <path d="M1254,959.9c3.1-3,.1-6.7,1-9.9a16.6,16.6,0,0,1,2.1,9C1256,959.2,1255.3,960.5,1254,959.9Z" transform="translate(-1133.1 -861.8)" style="fill: #d5e0d6"/>
    <path d="M1239.9,1049.9l-7,6a7.1,7.1,0,0,1-5.7-2.8c-.9-3.8-.4-7.9-2.5-11.5a6.1,6.1,0,0,1-.7-1.4c-.4-4.1-1.3-8.2.8-12.1,2.4,0,4.8,0,5.8,2.9a64.2,64.2,0,0,0,1.3,13.5c3.5-3.4,2.1-9.8,8.1-10.5-2,4.3.7,8.7,0,13C1240,1048,1239.9,1048.9,1239.9,1049.9Z" transform="translate(-1133.1 -861.8)" style="fill: #70874d"/>
    <path d="M1230,1031c-.5-2.2-3.7-.7-4.1-3.1s1-6.2,3.7-8.3c5.5-2.7,7.3-5.8,6.2-11.2a50.8,50.8,0,0,1,1.7-25.4c1.1-3.6,2.9-7.1,6.5-9a6.8,6.8,0,0,1,4-1c-7.4,8.9-8.4,19.1-6,30,.1,2.7-.5,5.5,1,8,1.2,7.4-2.8,13.3-6,19.3C1235.6,1032.9,1232.5,1032.8,1230,1031Z" transform="translate(-1133.1 -861.8)" style="fill: #4d683b"/>
    <path d="M1230,1031c5.4,1,8.1-2.1,8.7-6.8s5.6-7.9,4.3-13.2c1.6,1.5,1.3,3.6.9,5.1-1.8,5.9-1.1,12.3-3.9,17.9-3.4,2.1-4.4,5.5-5.2,9.1-.4,1.4-.8,3.6-2.9,3.4s-2-2.3-1.8-3.9C1230.4,1038.7,1228.1,1034.9,1230,1031Z" transform="translate(-1133.1 -861.8)" style="fill: #5c783a"/>
    <path d="M1263,1148c-.2-2.9,4.2-1.1,4-4s1.5-7.3,2-11l-3-9c6.8,3.7,8.4,10.1,9,17,2,3.9,2.9,7.9,0,11.9C1270.6,1152.2,1266.8,1150.1,1263,1148Z" transform="translate(-1133.1 -861.8)" style="fill: #6568bb"/>
    <path d="M1275,1152.9c1-4-.1-8,0-11.9,4.6-3.5,5.7-3.3,9,1.5l3,4.5c-1.5,3.6-3.5,6.7-7.9,7Z" transform="translate(-1133.1 -861.8)" style="fill: #867dc8"/>
    <path d="M1279.1,1154c3.7-1.1,5.6-4.3,7.9-7l2.9-1c-1.8,3-4.7,5.1-7.1,7.6S1280.5,1155.6,1279.1,1154Z" transform="translate(-1133.1 -861.8)" style="fill: #6574c3"/>
    <path d="M1333,994.9c2.6-3.9,1-8.8,3-12.8-2.5,10.9,3.7,18,10.6,25s14.6,12.3,22.4,17.9a64.8,64.8,0,0,0,13.6,11.5c6.2,3.9,12.8,1.9,19.4-4.5,2.5,2.1,3.5,4.6,2.1,7.8-.3.6-.7,1.4-.5,1.9,1.4,2.5.6,4.6-1.8,5.7a7.1,7.1,0,0,1-7.5-.6c-3.1-2.2-6.3-4.2-9.4-6.5s-8.4-4-12.9-5.8c-7.4-2.8-15.6-4.8-21.2-11.5-1.6-1.9-4.6-2.7-6.5-4.5-5.4-5.1-11.8-9.7-10.7-18.6.1-.6-.9-1.3-1.4-1.9A2.7,2.7,0,0,1,1333,994.9Z" transform="translate(-1133.1 -861.8)" style="fill: #7d7fd2"/>
    <path d="M1256,1092c.1,4.9,4.2,8.3,5,13-7.7-6.4-11.7-15.2-15-24.3-1-2.6-1.2-5.4-3-7.7s-1.1-4.6-2.4-6.3-1.4-5-.6-7.7a15.1,15.1,0,0,1,6-7c-3.6,7.3-2.9,13.8,1.7,20.9S1253.3,1085.6,1256,1092Z" transform="translate(-1133.1 -861.8)" style="fill: #948fd7"/>
    <path d="M1225.9,1041c2.2,4.1,2.1,8.6,2.1,13,1.7,2.6-.5,4.7-1.1,6.9h0c-1.2.7-2-.5-3-.8l-.9-1.2h-.1c1.4-3.3,1.5-6.8,1.7-10.2S1224.1,1043.3,1225.9,1041Z" transform="translate(-1133.1 -861.8)" style="fill: #4e5a41"/>
    <path d="M1223.9,1060.1l3,.8a1.9,1.9,0,0,0,2.1,1.1c-1.1,1.5-4.3.8-3.9,3.9C1222.2,1064.5,1226.7,1061.5,1223.9,1060.1Z" transform="translate(-1133.1 -861.8)" style="fill: #818a73"/>
    <path d="M1226.9,1060.9c.4-2.3.7-4.6,1.1-6.9,2.5-1.6,3.2,1.5,4.9,1.9C1231.7,1058.5,1228.4,1058.7,1226.9,1060.9Z" transform="translate(-1133.1 -861.8)" style="fill: #818a73"/>
    <path d="M1259,1049c11.6,10.8,12.5,25.2,12.9,39.7.1,4.3-2.5,5.2-6.4,3.3a14.7,14.7,0,0,1-7.7-8.7c-1.3-3.8-3.6-7.1-5.6-10.5-3.6-6.2-6-12.6-3.8-19.9.2-.9-.3-2-.4-3a2.8,2.8,0,0,1,.1-.9c2.5-4.8,2.5-4.9,7.1-2.1,1.3.7,2.6,1.3,3.8,2.1Z" transform="translate(-1133.1 -861.8)" style="fill: #bdb7ee"/>
    <path d="M1259,1049a4.8,4.8,0,0,1-3.6-1.1c-2.8-2.2-5.3-2.4-7.3,1.1l.9-5C1253.7,1042.9,1256,1046.8,1259,1049Z" transform="translate(-1133.1 -861.8)" style="fill: #acace8"/>
    <path d="M1261,1105c3.8,3.9,9.1,4.4,14,6C1268.2,1113.5,1264,1111.7,1261,1105Z" transform="translate(-1133.1 -861.8)" style="fill: #948fd7"/>
    <path d="M1344.3,978a55.3,55.3,0,0,1,27.8,9.7c4.1,2.8,6.1,7.5,7.1,11.7s-1.4,6.4-.5,9.8c.2.8-.9,1.5-1.8,1.1-3.4-1.2-7.1-.1-10.3-2.8s-6.1-3.3-9.4-4.5c-7.1-2.8-12-7.2-13.4-15.1-.3-1.5-1.4-3-2.1-4.5s-2.2-2.2-1.3-4S1342.2,977.9,1344.3,978Z" transform="translate(-1133.1 -861.8)" style="fill: #bcc3f4"/>
    <path d="M1188.9,939c-2-2.1-2.6-4.2-.1-6.4s.9-3.4,1.3-5.1,2.1-4.1,4.4-4.3,3,1.7,3.8,3.7c1.6,4,1.9,8.1,2.7,12.1,1.7,1.9,1.5,4.1.7,6.3s-2.7.4-3.9-.5C1195.5,941.8,1193.7,938.2,1188.9,939Z" transform="translate(-1133.1 -861.8)" style="fill: #96b575"/>
    <path d="M1201,946v-7c3.6-8.4-.8-14.3-6-20l3-1c5.5,2.5,7.6,7.2,7.9,12.8s-.1,12.2.9,18.3C1203.7,950.3,1201.5,949.6,1201,946Z" transform="translate(-1133.1 -861.8)" style="fill: #7f9664"/>
    <path d="M1188.9,939c2.5-3.7,4.4-.8,6.2.7s2.9,2.2,2.9,4.3,2.7,2.9,3.8,4.5,3,2.9.2,4.5c-5.9-2.8-8.6-8.7-13-12.9A4.1,4.1,0,0,1,1188.9,939Z" transform="translate(-1133.1 -861.8)" style="fill: #a7b69f"/>
    <path d="M1193.9,950l1.1,1.1a12.1,12.1,0,0,0,2.2,7c3.1,4.9,2,9.7,0,14.4-3,7.3-7.5,8.2-13.3,2.9-1.3-1.2-2.9-2.3-2.9-4.4s-.9-6.8-1.6-10.2a14.3,14.3,0,0,1-.2-6.8c1-3.6,2.9-6.9,6.3-8.5S1190.9,948.9,1193.9,950Z" transform="translate(-1133.1 -861.8)" style="fill: #bdbaee"/>
    <path d="M1269,1133c1.9,4.1.1,7.6-2,11-2.2,1.1-4.7,1.7-4.8-1.6-.3-6.4-4.9-11.3-5.4-17.6-.2-2-1.7-4.2.7-5.2s3.4,1,4.7,2.6C1264.9,1125.5,1265.5,1130.2,1269,1133Z" transform="translate(-1133.1 -861.8)" style="fill: #5462af"/>
    <path d="M1202,953c1.6-4.3-3.9-5.4-4-9l3,2c1.3,2.3,3.4,2.9,5.8,3.1a15.9,15.9,0,0,1,.7,2,5.4,5.4,0,0,0,.7-1.3c1.3,1.9.7,4,1,6-3.6,3.5-5.1.1-7.1-1.9C1202.1,953.6,1202,953.3,1202,953Z" transform="translate(-1133.1 -861.8)" style="fill: #96a191"/>
    <path d="M1202.1,953.9c2.3.8,4.1,3.4,7.1,1.9a2.1,2.1,0,0,1-.2,3.3C1205.5,959,1202.5,958.2,1202.1,953.9Z" transform="translate(-1133.1 -861.8)" style="fill: #4b5167"/>
    <path d="M1229.9,1019.8c.1-.3,0-.8.1-.9,6.8-4.8,5.2-11.5,4.1-18.1a61.3,61.3,0,0,1,5.9-28,9.3,9.3,0,0,1,1.9-2.1c-.1,1.6,1.3,2.2,2.1,3.3a38.1,38.1,0,0,0-8,26.4,84.8,84.8,0,0,0,1.3,8.8c.7,4.2-2.6,10.7-6.5,12C1230.1,1021.5,1230.1,1020.4,1229.9,1019.8Z" transform="translate(-1133.1 -861.8)" style="fill: #465742"/>
    <path d="M1268.1,1074a11.1,11.1,0,0,1-.8,4.4c-.2.5-.3,1.4-.4,1.4-2.9-.1-7.5.7-8.4-.7-3.9-6.3-5.2-13.8-7.4-20.8-.4-1.6-1.9-4.4,1.4-5.5s5.7-1.6,8.4.6c.6.5,1.4,1.1,1.6,1.8C1264.2,1061.5,1267.5,1067.4,1268.1,1074Z" transform="translate(-1133.1 -861.8)" style="fill: #c4c1f2"/>
  </g>
</svg>
